<?xml version="1.0" encoding="utf-8"?>
<!-- Generator: Adobe Illustrator 22.0.1, SVG Export Plug-In . SVG Version: 6.00 Build 0)  -->
<svg version="1.1" id="Layer_1" xmlns="http://www.w3.org/2000/svg" xmlns:xlink="http://www.w3.org/1999/xlink" x="0px" y="0px"
	 viewBox="0 0 1935.7 1936.2" style="enable-background:new 0 0 1935.7 1936.2;" xml:space="preserve">
<style type="text/css">
	.st0{opacity:5.000000e-02;enable-background:new    ;}
	.st1{fill:none;stroke:#000000;stroke-miterlimit:10;}
	.st2{fill:none;stroke:#000000;stroke-miterlimit:10;stroke-dasharray:11.9453,11.9453;}
	.st3{opacity:5.000000e-02;}
	.st4{fill:none;stroke:#000000;stroke-width:0.5;stroke-miterlimit:10;}
	.st5{fill:none;stroke:#000000;stroke-width:0.5;stroke-miterlimit:10;stroke-dasharray:11.9453,11.9453;}
</style>
<g class="st0">
	<g>
		<line class="st1" x1="0.5" y1="1897.4" x2="6.5" y2="1897.4"/>
		<line class="st2" x1="18.4" y1="1897.4" x2="1923.7" y2="1897.4"/>
		<line class="st1" x1="1929.7" y1="1897.4" x2="1935.7" y2="1897.4"/>
	</g>
</g>
<g class="st0">
	<g>
		<line class="st1" x1="0.5" y1="1859.1" x2="6.5" y2="1859.1"/>
		<line class="st2" x1="18.4" y1="1859.1" x2="1923.7" y2="1859.1"/>
		<line class="st1" x1="1929.7" y1="1859.1" x2="1935.7" y2="1859.1"/>
	</g>
</g>
<g class="st0">
	<g>
		<line class="st1" x1="0.5" y1="1820.7" x2="6.5" y2="1820.7"/>
		<line class="st2" x1="18.4" y1="1820.7" x2="1923.7" y2="1820.7"/>
		<line class="st1" x1="1929.7" y1="1820.7" x2="1935.7" y2="1820.7"/>
	</g>
</g>
<g class="st0">
	<g>
		<line class="st1" x1="0.5" y1="1782.4" x2="6.5" y2="1782.4"/>
		<line class="st2" x1="18.4" y1="1782.4" x2="1923.7" y2="1782.4"/>
		<line class="st1" x1="1929.7" y1="1782.4" x2="1935.7" y2="1782.4"/>
	</g>
</g>
<g class="st0">
	<g>
		<line class="st1" x1="0.5" y1="1744.1" x2="6.5" y2="1744.1"/>
		<line class="st2" x1="18.4" y1="1744.1" x2="1923.7" y2="1744.1"/>
		<line class="st1" x1="1929.7" y1="1744.1" x2="1935.7" y2="1744.1"/>
	</g>
</g>
<g class="st0">
	<g>
		<line class="st1" x1="0.5" y1="1705.8" x2="6.5" y2="1705.8"/>
		<line class="st2" x1="18.4" y1="1705.8" x2="1923.7" y2="1705.8"/>
		<line class="st1" x1="1929.7" y1="1705.8" x2="1935.7" y2="1705.8"/>
	</g>
</g>
<g class="st0">
	<g>
		<line class="st1" x1="0.5" y1="1667.4" x2="6.5" y2="1667.4"/>
		<line class="st2" x1="18.4" y1="1667.4" x2="1923.7" y2="1667.4"/>
		<line class="st1" x1="1929.7" y1="1667.4" x2="1935.7" y2="1667.4"/>
	</g>
</g>
<g class="st0">
	<g>
		<line class="st1" x1="0.5" y1="1629.1" x2="6.5" y2="1629.1"/>
		<line class="st2" x1="18.4" y1="1629.1" x2="1923.7" y2="1629.1"/>
		<line class="st1" x1="1929.7" y1="1629.1" x2="1935.7" y2="1629.1"/>
	</g>
</g>
<g class="st0">
	<g>
		<line class="st1" x1="0.5" y1="1590.8" x2="6.5" y2="1590.8"/>
		<line class="st2" x1="18.4" y1="1590.8" x2="1923.7" y2="1590.8"/>
		<line class="st1" x1="1929.7" y1="1590.8" x2="1935.7" y2="1590.8"/>
	</g>
</g>
<g class="st0">
	<g>
		<line class="st1" x1="0.5" y1="1552.5" x2="6.5" y2="1552.5"/>
		<line class="st2" x1="18.4" y1="1552.5" x2="1923.7" y2="1552.5"/>
		<line class="st1" x1="1929.7" y1="1552.5" x2="1935.7" y2="1552.5"/>
	</g>
</g>
<g class="st0">
	<g>
		<line class="st1" x1="0.5" y1="1514.2" x2="6.5" y2="1514.2"/>
		<line class="st2" x1="18.4" y1="1514.2" x2="1923.7" y2="1514.2"/>
		<line class="st1" x1="1929.7" y1="1514.2" x2="1935.7" y2="1514.2"/>
	</g>
</g>
<g class="st0">
	<g>
		<line class="st1" x1="0.5" y1="1475.8" x2="6.5" y2="1475.8"/>
		<line class="st2" x1="18.4" y1="1475.8" x2="1923.7" y2="1475.8"/>
		<line class="st1" x1="1929.7" y1="1475.8" x2="1935.7" y2="1475.8"/>
	</g>
</g>
<g class="st0">
	<g>
		<line class="st1" x1="0.5" y1="1437.5" x2="6.5" y2="1437.5"/>
		<line class="st2" x1="18.4" y1="1437.5" x2="1923.7" y2="1437.5"/>
		<line class="st1" x1="1929.7" y1="1437.5" x2="1935.7" y2="1437.5"/>
	</g>
</g>
<g class="st0">
	<g>
		<line class="st1" x1="0.5" y1="1399.2" x2="6.5" y2="1399.2"/>
		<line class="st2" x1="18.4" y1="1399.2" x2="1923.7" y2="1399.2"/>
		<line class="st1" x1="1929.7" y1="1399.2" x2="1935.7" y2="1399.2"/>
	</g>
</g>
<g class="st0">
	<g>
		<line class="st1" x1="0.5" y1="1360.9" x2="6.5" y2="1360.9"/>
		<line class="st2" x1="18.4" y1="1360.9" x2="1923.7" y2="1360.9"/>
		<line class="st1" x1="1929.7" y1="1360.9" x2="1935.7" y2="1360.9"/>
	</g>
</g>
<g class="st0">
	<g>
		<line class="st1" x1="0.5" y1="1322.6" x2="6.5" y2="1322.6"/>
		<line class="st2" x1="18.4" y1="1322.6" x2="1923.7" y2="1322.6"/>
		<line class="st1" x1="1929.7" y1="1322.6" x2="1935.7" y2="1322.6"/>
	</g>
</g>
<g class="st0">
	<g>
		<line class="st1" x1="0.5" y1="1284.2" x2="6.5" y2="1284.2"/>
		<line class="st2" x1="18.4" y1="1284.2" x2="1923.7" y2="1284.2"/>
		<line class="st1" x1="1929.7" y1="1284.2" x2="1935.7" y2="1284.2"/>
	</g>
</g>
<g class="st0">
	<g>
		<line class="st1" x1="0.5" y1="1245.9" x2="6.5" y2="1245.9"/>
		<line class="st2" x1="18.4" y1="1245.9" x2="1923.7" y2="1245.9"/>
		<line class="st1" x1="1929.7" y1="1245.9" x2="1935.7" y2="1245.9"/>
	</g>
</g>
<g class="st0">
	<g>
		<line class="st1" x1="0.5" y1="1207.6" x2="6.5" y2="1207.6"/>
		<line class="st2" x1="18.4" y1="1207.6" x2="1923.7" y2="1207.6"/>
		<line class="st1" x1="1929.7" y1="1207.6" x2="1935.7" y2="1207.6"/>
	</g>
</g>
<g class="st0">
	<g>
		<line class="st1" x1="0.5" y1="1169.3" x2="6.5" y2="1169.3"/>
		<line class="st2" x1="18.4" y1="1169.3" x2="1923.7" y2="1169.3"/>
		<line class="st1" x1="1929.7" y1="1169.3" x2="1935.7" y2="1169.3"/>
	</g>
</g>
<g class="st0">
	<g>
		<line class="st1" x1="0.5" y1="1131" x2="6.5" y2="1131"/>
		<line class="st2" x1="18.4" y1="1131" x2="1923.7" y2="1131"/>
		<line class="st1" x1="1929.7" y1="1131" x2="1935.7" y2="1131"/>
	</g>
</g>
<g class="st0">
	<g>
		<line class="st1" x1="0.5" y1="1092.6" x2="6.5" y2="1092.6"/>
		<line class="st2" x1="18.4" y1="1092.6" x2="1923.7" y2="1092.6"/>
		<line class="st1" x1="1929.7" y1="1092.6" x2="1935.7" y2="1092.6"/>
	</g>
</g>
<g class="st0">
	<g>
		<line class="st1" x1="0.5" y1="1054.3" x2="6.5" y2="1054.3"/>
		<line class="st2" x1="18.4" y1="1054.3" x2="1923.7" y2="1054.3"/>
		<line class="st1" x1="1929.7" y1="1054.3" x2="1935.7" y2="1054.3"/>
	</g>
</g>
<g class="st0">
	<g>
		<line class="st1" x1="0.5" y1="1016" x2="6.5" y2="1016"/>
		<line class="st2" x1="18.4" y1="1016" x2="1923.7" y2="1016"/>
		<line class="st1" x1="1929.7" y1="1016" x2="1935.7" y2="1016"/>
	</g>
</g>
<g class="st0">
	<g>
		<line class="st1" x1="0.5" y1="977.7" x2="6.5" y2="977.7"/>
		<line class="st2" x1="18.4" y1="977.7" x2="1923.7" y2="977.7"/>
		<line class="st1" x1="1929.7" y1="977.7" x2="1935.7" y2="977.7"/>
	</g>
</g>
<g class="st0">
	<g>
		<line class="st1" x1="0.5" y1="939.4" x2="6.5" y2="939.4"/>
		<line class="st2" x1="18.4" y1="939.4" x2="1923.7" y2="939.4"/>
		<line class="st1" x1="1929.7" y1="939.4" x2="1935.7" y2="939.4"/>
	</g>
</g>
<g class="st0">
	<g>
		<line class="st1" x1="0.5" y1="901" x2="6.5" y2="901"/>
		<line class="st2" x1="18.4" y1="901" x2="1923.7" y2="901"/>
		<line class="st1" x1="1929.7" y1="901" x2="1935.7" y2="901"/>
	</g>
</g>
<g class="st0">
	<g>
		<line class="st1" x1="0.5" y1="862.7" x2="6.5" y2="862.7"/>
		<line class="st2" x1="18.4" y1="862.7" x2="1923.7" y2="862.7"/>
		<line class="st1" x1="1929.7" y1="862.7" x2="1935.7" y2="862.7"/>
	</g>
</g>
<g class="st0">
	<g>
		<line class="st1" x1="0.5" y1="824.4" x2="6.5" y2="824.4"/>
		<line class="st2" x1="18.4" y1="824.4" x2="1923.7" y2="824.4"/>
		<line class="st1" x1="1929.7" y1="824.4" x2="1935.7" y2="824.4"/>
	</g>
</g>
<g class="st0">
	<g>
		<line class="st1" x1="0.5" y1="786.1" x2="6.5" y2="786.1"/>
		<line class="st2" x1="18.4" y1="786.1" x2="1923.7" y2="786.1"/>
		<line class="st1" x1="1929.7" y1="786.1" x2="1935.7" y2="786.1"/>
	</g>
</g>
<g class="st0">
	<g>
		<line class="st1" x1="0.5" y1="747.8" x2="6.5" y2="747.8"/>
		<line class="st2" x1="18.4" y1="747.8" x2="1923.7" y2="747.8"/>
		<line class="st1" x1="1929.7" y1="747.8" x2="1935.7" y2="747.8"/>
	</g>
</g>
<g class="st0">
	<g>
		<line class="st1" x1="0.5" y1="709.4" x2="6.5" y2="709.4"/>
		<line class="st2" x1="18.4" y1="709.4" x2="1923.7" y2="709.4"/>
		<line class="st1" x1="1929.7" y1="709.4" x2="1935.7" y2="709.4"/>
	</g>
</g>
<g class="st0">
	<g>
		<line class="st1" x1="0.5" y1="671.1" x2="6.5" y2="671.1"/>
		<line class="st2" x1="18.4" y1="671.1" x2="1923.7" y2="671.1"/>
		<line class="st1" x1="1929.7" y1="671.1" x2="1935.7" y2="671.1"/>
	</g>
</g>
<g class="st0">
	<g>
		<line class="st1" x1="0.5" y1="632.8" x2="6.5" y2="632.8"/>
		<line class="st2" x1="18.4" y1="632.8" x2="1923.7" y2="632.8"/>
		<line class="st1" x1="1929.7" y1="632.8" x2="1935.7" y2="632.8"/>
	</g>
</g>
<g class="st0">
	<g>
		<line class="st1" x1="0.5" y1="594.5" x2="6.5" y2="594.5"/>
		<line class="st2" x1="18.4" y1="594.5" x2="1923.7" y2="594.5"/>
		<line class="st1" x1="1929.7" y1="594.5" x2="1935.7" y2="594.5"/>
	</g>
</g>
<g class="st0">
	<g>
		<line class="st1" x1="0.5" y1="556.1" x2="6.5" y2="556.1"/>
		<line class="st2" x1="18.4" y1="556.1" x2="1923.7" y2="556.1"/>
		<line class="st1" x1="1929.7" y1="556.1" x2="1935.7" y2="556.1"/>
	</g>
</g>
<g class="st0">
	<g>
		<line class="st1" x1="0.5" y1="517.8" x2="6.5" y2="517.8"/>
		<line class="st2" x1="18.4" y1="517.8" x2="1923.7" y2="517.8"/>
		<line class="st1" x1="1929.7" y1="517.8" x2="1935.7" y2="517.8"/>
	</g>
</g>
<g class="st0">
	<g>
		<line class="st1" x1="0.5" y1="479.5" x2="6.5" y2="479.5"/>
		<line class="st2" x1="18.4" y1="479.5" x2="1923.7" y2="479.5"/>
		<line class="st1" x1="1929.7" y1="479.5" x2="1935.7" y2="479.5"/>
	</g>
</g>
<g class="st0">
	<g>
		<line class="st1" x1="0.5" y1="441.2" x2="6.5" y2="441.2"/>
		<line class="st2" x1="18.4" y1="441.2" x2="1923.7" y2="441.2"/>
		<line class="st1" x1="1929.7" y1="441.2" x2="1935.7" y2="441.2"/>
	</g>
</g>
<g class="st0">
	<g>
		<line class="st1" x1="0.5" y1="402.9" x2="6.5" y2="402.9"/>
		<line class="st2" x1="18.4" y1="402.9" x2="1923.7" y2="402.9"/>
		<line class="st1" x1="1929.7" y1="402.9" x2="1935.7" y2="402.9"/>
	</g>
</g>
<g class="st0">
	<g>
		<line class="st1" x1="0.5" y1="364.5" x2="6.5" y2="364.5"/>
		<line class="st2" x1="18.4" y1="364.5" x2="1923.7" y2="364.5"/>
		<line class="st1" x1="1929.7" y1="364.5" x2="1935.7" y2="364.5"/>
	</g>
</g>
<g class="st0">
	<g>
		<line class="st1" x1="0.5" y1="326.2" x2="6.5" y2="326.2"/>
		<line class="st2" x1="18.4" y1="326.2" x2="1923.7" y2="326.2"/>
		<line class="st1" x1="1929.7" y1="326.2" x2="1935.7" y2="326.2"/>
	</g>
</g>
<g class="st0">
	<g>
		<line class="st1" x1="0.5" y1="287.9" x2="6.5" y2="287.9"/>
		<line class="st2" x1="18.4" y1="287.9" x2="1923.7" y2="287.9"/>
		<line class="st1" x1="1929.7" y1="287.9" x2="1935.7" y2="287.9"/>
	</g>
</g>
<g class="st0">
	<g>
		<line class="st1" x1="0.5" y1="249.6" x2="6.5" y2="249.6"/>
		<line class="st2" x1="18.4" y1="249.6" x2="1923.7" y2="249.6"/>
		<line class="st1" x1="1929.7" y1="249.6" x2="1935.7" y2="249.6"/>
	</g>
</g>
<g class="st0">
	<g>
		<line class="st1" x1="0.5" y1="211.3" x2="6.5" y2="211.3"/>
		<line class="st2" x1="18.4" y1="211.3" x2="1923.7" y2="211.3"/>
		<line class="st1" x1="1929.7" y1="211.3" x2="1935.7" y2="211.3"/>
	</g>
</g>
<g class="st0">
	<g>
		<line class="st1" x1="0.5" y1="172.9" x2="6.5" y2="172.9"/>
		<line class="st2" x1="18.4" y1="172.9" x2="1923.7" y2="172.9"/>
		<line class="st1" x1="1929.7" y1="172.9" x2="1935.7" y2="172.9"/>
	</g>
</g>
<g class="st0">
	<g>
		<line class="st1" x1="0.5" y1="134.6" x2="6.5" y2="134.6"/>
		<line class="st2" x1="18.4" y1="134.6" x2="1923.7" y2="134.6"/>
		<line class="st1" x1="1929.7" y1="134.6" x2="1935.7" y2="134.6"/>
	</g>
</g>
<g class="st0">
	<g>
		<line class="st1" x1="0.5" y1="96.3" x2="6.5" y2="96.3"/>
		<line class="st2" x1="18.4" y1="96.3" x2="1923.7" y2="96.3"/>
		<line class="st1" x1="1929.7" y1="96.3" x2="1935.7" y2="96.3"/>
	</g>
</g>
<g class="st0">
	<g>
		<line class="st1" x1="0.5" y1="58" x2="6.5" y2="58"/>
		<line class="st2" x1="18.4" y1="58" x2="1923.7" y2="58"/>
		<line class="st1" x1="1929.7" y1="58" x2="1935.7" y2="58"/>
	</g>
</g>
<g class="st3">
	<g>
		<g>
			<line class="st4" x1="0.5" y1="1916.5" x2="6.5" y2="1916.5"/>
			<line class="st5" x1="18.4" y1="1916.5" x2="1923.7" y2="1916.5"/>
			<line class="st4" x1="1929.7" y1="1916.5" x2="1935.7" y2="1916.5"/>
		</g>
	</g>
	<g>
		<g>
			<line class="st4" x1="0.5" y1="1878.2" x2="6.5" y2="1878.2"/>
			<line class="st5" x1="18.4" y1="1878.2" x2="1923.7" y2="1878.2"/>
			<line class="st4" x1="1929.7" y1="1878.2" x2="1935.7" y2="1878.2"/>
		</g>
	</g>
	<g>
		<g>
			<line class="st4" x1="0.5" y1="1839.9" x2="6.5" y2="1839.9"/>
			<line class="st5" x1="18.4" y1="1839.9" x2="1923.7" y2="1839.9"/>
			<line class="st4" x1="1929.7" y1="1839.9" x2="1935.7" y2="1839.9"/>
		</g>
	</g>
	<g>
		<g>
			<line class="st4" x1="0.5" y1="1801.6" x2="6.5" y2="1801.6"/>
			<line class="st5" x1="18.4" y1="1801.6" x2="1923.7" y2="1801.6"/>
			<line class="st4" x1="1929.7" y1="1801.6" x2="1935.7" y2="1801.6"/>
		</g>
	</g>
	<g>
		<g>
			<line class="st4" x1="0.5" y1="1763.3" x2="6.5" y2="1763.3"/>
			<line class="st5" x1="18.4" y1="1763.3" x2="1923.7" y2="1763.3"/>
			<line class="st4" x1="1929.7" y1="1763.3" x2="1935.7" y2="1763.3"/>
		</g>
	</g>
	<g>
		<g>
			<line class="st4" x1="0.5" y1="1724.9" x2="6.5" y2="1724.9"/>
			<line class="st5" x1="18.4" y1="1724.9" x2="1923.7" y2="1724.9"/>
			<line class="st4" x1="1929.7" y1="1724.9" x2="1935.7" y2="1724.9"/>
		</g>
	</g>
	<g>
		<g>
			<line class="st4" x1="0.5" y1="1686.6" x2="6.5" y2="1686.6"/>
			<line class="st5" x1="18.4" y1="1686.6" x2="1923.7" y2="1686.6"/>
			<line class="st4" x1="1929.7" y1="1686.6" x2="1935.7" y2="1686.6"/>
		</g>
	</g>
	<g>
		<g>
			<line class="st4" x1="0.5" y1="1648.3" x2="6.5" y2="1648.3"/>
			<line class="st5" x1="18.4" y1="1648.3" x2="1923.7" y2="1648.3"/>
			<line class="st4" x1="1929.7" y1="1648.3" x2="1935.7" y2="1648.3"/>
		</g>
	</g>
	<g>
		<g>
			<line class="st4" x1="0.5" y1="1610" x2="6.5" y2="1610"/>
			<line class="st5" x1="18.4" y1="1610" x2="1923.7" y2="1610"/>
			<line class="st4" x1="1929.7" y1="1610" x2="1935.7" y2="1610"/>
		</g>
	</g>
	<g>
		<g>
			<line class="st4" x1="0.5" y1="1571.6" x2="6.5" y2="1571.6"/>
			<line class="st5" x1="18.4" y1="1571.6" x2="1923.7" y2="1571.6"/>
			<line class="st4" x1="1929.7" y1="1571.6" x2="1935.7" y2="1571.6"/>
		</g>
	</g>
	<g>
		<g>
			<line class="st4" x1="0.5" y1="1533.3" x2="6.5" y2="1533.3"/>
			<line class="st5" x1="18.4" y1="1533.3" x2="1923.7" y2="1533.3"/>
			<line class="st4" x1="1929.7" y1="1533.3" x2="1935.7" y2="1533.3"/>
		</g>
	</g>
	<g>
		<g>
			<line class="st4" x1="0.5" y1="1495" x2="6.5" y2="1495"/>
			<line class="st5" x1="18.4" y1="1495" x2="1923.7" y2="1495"/>
			<line class="st4" x1="1929.7" y1="1495" x2="1935.7" y2="1495"/>
		</g>
	</g>
	<g>
		<g>
			<line class="st4" x1="0.5" y1="1456.7" x2="6.5" y2="1456.7"/>
			<line class="st5" x1="18.4" y1="1456.7" x2="1923.7" y2="1456.7"/>
			<line class="st4" x1="1929.7" y1="1456.7" x2="1935.7" y2="1456.7"/>
		</g>
	</g>
	<g>
		<g>
			<line class="st4" x1="0.5" y1="1418.4" x2="6.5" y2="1418.4"/>
			<line class="st5" x1="18.4" y1="1418.4" x2="1923.7" y2="1418.4"/>
			<line class="st4" x1="1929.7" y1="1418.4" x2="1935.7" y2="1418.4"/>
		</g>
	</g>
	<g>
		<g>
			<line class="st4" x1="0.5" y1="1380" x2="6.5" y2="1380"/>
			<line class="st5" x1="18.4" y1="1380" x2="1923.7" y2="1380"/>
			<line class="st4" x1="1929.7" y1="1380" x2="1935.7" y2="1380"/>
		</g>
	</g>
	<g>
		<g>
			<line class="st4" x1="0.5" y1="1341.7" x2="6.5" y2="1341.7"/>
			<line class="st5" x1="18.4" y1="1341.7" x2="1923.7" y2="1341.7"/>
			<line class="st4" x1="1929.7" y1="1341.7" x2="1935.7" y2="1341.7"/>
		</g>
	</g>
	<g>
		<g>
			<line class="st4" x1="0.5" y1="1303.4" x2="6.5" y2="1303.4"/>
			<line class="st5" x1="18.4" y1="1303.4" x2="1923.7" y2="1303.4"/>
			<line class="st4" x1="1929.7" y1="1303.4" x2="1935.7" y2="1303.4"/>
		</g>
	</g>
	<g>
		<g>
			<line class="st4" x1="0.5" y1="1265.1" x2="6.5" y2="1265.1"/>
			<line class="st5" x1="18.4" y1="1265.1" x2="1923.7" y2="1265.1"/>
			<line class="st4" x1="1929.7" y1="1265.1" x2="1935.7" y2="1265.1"/>
		</g>
	</g>
	<g>
		<g>
			<line class="st4" x1="0.5" y1="1226.8" x2="6.5" y2="1226.8"/>
			<line class="st5" x1="18.4" y1="1226.8" x2="1923.7" y2="1226.8"/>
			<line class="st4" x1="1929.7" y1="1226.8" x2="1935.7" y2="1226.8"/>
		</g>
	</g>
	<g>
		<g>
			<line class="st4" x1="0.5" y1="1188.4" x2="6.5" y2="1188.4"/>
			<line class="st5" x1="18.4" y1="1188.4" x2="1923.7" y2="1188.4"/>
			<line class="st4" x1="1929.7" y1="1188.4" x2="1935.7" y2="1188.4"/>
		</g>
	</g>
	<g>
		<g>
			<line class="st4" x1="0.5" y1="1150.1" x2="6.5" y2="1150.1"/>
			<line class="st5" x1="18.4" y1="1150.1" x2="1923.7" y2="1150.1"/>
			<line class="st4" x1="1929.7" y1="1150.1" x2="1935.7" y2="1150.1"/>
		</g>
	</g>
	<g>
		<g>
			<line class="st4" x1="0.5" y1="1111.8" x2="6.5" y2="1111.8"/>
			<line class="st5" x1="18.4" y1="1111.8" x2="1923.7" y2="1111.8"/>
			<line class="st4" x1="1929.7" y1="1111.8" x2="1935.7" y2="1111.8"/>
		</g>
	</g>
	<g>
		<g>
			<line class="st4" x1="0.5" y1="1073.5" x2="6.5" y2="1073.5"/>
			<line class="st5" x1="18.4" y1="1073.5" x2="1923.7" y2="1073.5"/>
			<line class="st4" x1="1929.7" y1="1073.5" x2="1935.7" y2="1073.5"/>
		</g>
	</g>
	<g>
		<g>
			<line class="st4" x1="0.5" y1="1035.2" x2="6.5" y2="1035.2"/>
			<line class="st5" x1="18.4" y1="1035.2" x2="1923.7" y2="1035.2"/>
			<line class="st4" x1="1929.7" y1="1035.2" x2="1935.7" y2="1035.2"/>
		</g>
	</g>
	<g>
		<g>
			<line class="st4" x1="0.5" y1="996.8" x2="6.5" y2="996.8"/>
			<line class="st5" x1="18.4" y1="996.8" x2="1923.7" y2="996.8"/>
			<line class="st4" x1="1929.7" y1="996.8" x2="1935.7" y2="996.8"/>
		</g>
	</g>
	<g>
		<g>
			<line class="st4" x1="0.5" y1="958.5" x2="6.5" y2="958.5"/>
			<line class="st5" x1="18.4" y1="958.5" x2="1923.7" y2="958.5"/>
			<line class="st4" x1="1929.7" y1="958.5" x2="1935.7" y2="958.5"/>
		</g>
	</g>
	<g>
		<g>
			<line class="st4" x1="0.5" y1="920.2" x2="6.5" y2="920.2"/>
			<line class="st5" x1="18.4" y1="920.2" x2="1923.7" y2="920.2"/>
			<line class="st4" x1="1929.7" y1="920.2" x2="1935.7" y2="920.2"/>
		</g>
	</g>
	<g>
		<g>
			<line class="st4" x1="0.5" y1="881.9" x2="6.5" y2="881.9"/>
			<line class="st5" x1="18.4" y1="881.9" x2="1923.7" y2="881.9"/>
			<line class="st4" x1="1929.7" y1="881.9" x2="1935.7" y2="881.9"/>
		</g>
	</g>
	<g>
		<g>
			<line class="st4" x1="0.5" y1="843.6" x2="6.5" y2="843.6"/>
			<line class="st5" x1="18.4" y1="843.6" x2="1923.7" y2="843.6"/>
			<line class="st4" x1="1929.7" y1="843.6" x2="1935.7" y2="843.6"/>
		</g>
	</g>
	<g>
		<g>
			<line class="st4" x1="0.5" y1="805.2" x2="6.5" y2="805.2"/>
			<line class="st5" x1="18.4" y1="805.2" x2="1923.7" y2="805.2"/>
			<line class="st4" x1="1929.7" y1="805.2" x2="1935.7" y2="805.2"/>
		</g>
	</g>
	<g>
		<g>
			<line class="st4" x1="0.5" y1="766.9" x2="6.5" y2="766.9"/>
			<line class="st5" x1="18.4" y1="766.9" x2="1923.7" y2="766.9"/>
			<line class="st4" x1="1929.7" y1="766.9" x2="1935.7" y2="766.9"/>
		</g>
	</g>
	<g>
		<g>
			<line class="st4" x1="0.5" y1="728.6" x2="6.5" y2="728.6"/>
			<line class="st5" x1="18.4" y1="728.6" x2="1923.7" y2="728.6"/>
			<line class="st4" x1="1929.7" y1="728.6" x2="1935.7" y2="728.6"/>
		</g>
	</g>
	<g>
		<g>
			<line class="st4" x1="0.5" y1="690.3" x2="6.5" y2="690.3"/>
			<line class="st5" x1="18.4" y1="690.3" x2="1923.7" y2="690.3"/>
			<line class="st4" x1="1929.7" y1="690.3" x2="1935.7" y2="690.3"/>
		</g>
	</g>
	<g>
		<g>
			<line class="st4" x1="0.5" y1="652" x2="6.5" y2="652"/>
			<line class="st5" x1="18.4" y1="652" x2="1923.7" y2="652"/>
			<line class="st4" x1="1929.7" y1="652" x2="1935.7" y2="652"/>
		</g>
	</g>
	<g>
		<g>
			<line class="st4" x1="0.5" y1="613.6" x2="6.5" y2="613.6"/>
			<line class="st5" x1="18.4" y1="613.6" x2="1923.7" y2="613.6"/>
			<line class="st4" x1="1929.7" y1="613.6" x2="1935.7" y2="613.6"/>
		</g>
	</g>
	<g>
		<g>
			<line class="st4" x1="0.5" y1="575.3" x2="6.5" y2="575.3"/>
			<line class="st5" x1="18.4" y1="575.3" x2="1923.7" y2="575.3"/>
			<line class="st4" x1="1929.7" y1="575.3" x2="1935.7" y2="575.3"/>
		</g>
	</g>
	<g>
		<g>
			<line class="st4" x1="0.5" y1="537" x2="6.5" y2="537"/>
			<line class="st5" x1="18.4" y1="537" x2="1923.7" y2="537"/>
			<line class="st4" x1="1929.7" y1="537" x2="1935.7" y2="537"/>
		</g>
	</g>
	<g>
		<g>
			<line class="st4" x1="0.5" y1="498.7" x2="6.5" y2="498.7"/>
			<line class="st5" x1="18.4" y1="498.7" x2="1923.7" y2="498.7"/>
			<line class="st4" x1="1929.7" y1="498.7" x2="1935.7" y2="498.7"/>
		</g>
	</g>
	<g>
		<g>
			<line class="st4" x1="0.5" y1="460.3" x2="6.5" y2="460.3"/>
			<line class="st5" x1="18.4" y1="460.3" x2="1923.7" y2="460.3"/>
			<line class="st4" x1="1929.7" y1="460.3" x2="1935.7" y2="460.3"/>
		</g>
	</g>
	<g>
		<g>
			<line class="st4" x1="0.5" y1="422" x2="6.5" y2="422"/>
			<line class="st5" x1="18.4" y1="422" x2="1923.7" y2="422"/>
			<line class="st4" x1="1929.7" y1="422" x2="1935.7" y2="422"/>
		</g>
	</g>
	<g>
		<g>
			<line class="st4" x1="0.5" y1="383.7" x2="6.5" y2="383.7"/>
			<line class="st5" x1="18.4" y1="383.7" x2="1923.7" y2="383.7"/>
			<line class="st4" x1="1929.7" y1="383.7" x2="1935.7" y2="383.7"/>
		</g>
	</g>
	<g>
		<g>
			<line class="st4" x1="0.5" y1="345.4" x2="6.5" y2="345.4"/>
			<line class="st5" x1="18.4" y1="345.4" x2="1923.7" y2="345.4"/>
			<line class="st4" x1="1929.7" y1="345.4" x2="1935.7" y2="345.4"/>
		</g>
	</g>
	<g>
		<g>
			<line class="st4" x1="0.5" y1="307.1" x2="6.5" y2="307.1"/>
			<line class="st5" x1="18.4" y1="307.1" x2="1923.7" y2="307.1"/>
			<line class="st4" x1="1929.7" y1="307.1" x2="1935.7" y2="307.1"/>
		</g>
	</g>
	<g>
		<g>
			<line class="st4" x1="0.5" y1="268.7" x2="6.5" y2="268.7"/>
			<line class="st5" x1="18.4" y1="268.7" x2="1923.7" y2="268.7"/>
			<line class="st4" x1="1929.7" y1="268.7" x2="1935.7" y2="268.7"/>
		</g>
	</g>
	<g>
		<g>
			<line class="st4" x1="0.5" y1="230.4" x2="6.5" y2="230.4"/>
			<line class="st5" x1="18.4" y1="230.4" x2="1923.7" y2="230.4"/>
			<line class="st4" x1="1929.7" y1="230.4" x2="1935.7" y2="230.4"/>
		</g>
	</g>
	<g>
		<g>
			<line class="st4" x1="0.5" y1="192.1" x2="6.5" y2="192.1"/>
			<line class="st5" x1="18.4" y1="192.1" x2="1923.7" y2="192.1"/>
			<line class="st4" x1="1929.7" y1="192.1" x2="1935.7" y2="192.1"/>
		</g>
	</g>
	<g>
		<g>
			<line class="st4" x1="0.5" y1="153.8" x2="6.5" y2="153.8"/>
			<line class="st5" x1="18.4" y1="153.8" x2="1923.7" y2="153.8"/>
			<line class="st4" x1="1929.7" y1="153.8" x2="1935.7" y2="153.8"/>
		</g>
	</g>
	<g>
		<g>
			<line class="st4" x1="0.5" y1="115.5" x2="6.5" y2="115.5"/>
			<line class="st5" x1="18.4" y1="115.5" x2="1923.7" y2="115.5"/>
			<line class="st4" x1="1929.7" y1="115.5" x2="1935.7" y2="115.5"/>
		</g>
	</g>
	<g>
		<g>
			<line class="st4" x1="0.5" y1="77.1" x2="6.5" y2="77.1"/>
			<line class="st5" x1="18.4" y1="77.1" x2="1923.7" y2="77.1"/>
			<line class="st4" x1="1929.7" y1="77.1" x2="1935.7" y2="77.1"/>
		</g>
	</g>
	<g>
		<g>
			<line class="st4" x1="0.5" y1="38.8" x2="6.5" y2="38.8"/>
			<line class="st5" x1="18.4" y1="38.8" x2="1923.7" y2="38.8"/>
			<line class="st4" x1="1929.7" y1="38.8" x2="1935.7" y2="38.8"/>
		</g>
	</g>
</g>
<g class="st0">
	<g>
		<line class="st1" x1="0.5" y1="19.7" x2="6.5" y2="19.7"/>
		<line class="st2" x1="18.4" y1="19.7" x2="1923.7" y2="19.7"/>
		<line class="st1" x1="1929.7" y1="19.7" x2="1935.7" y2="19.7"/>
	</g>
</g>
<g class="st0">
	<g>
		<line class="st1" x1="1916.5" y1="0.5" x2="1916.5" y2="6.5"/>
		<line class="st2" x1="1916.5" y1="18.4" x2="1916.5" y2="1923.7"/>
		<line class="st1" x1="1916.5" y1="1929.7" x2="1916.5" y2="1935.7"/>
	</g>
</g>
<g class="st0">
	<g>
		<line class="st1" x1="1878.2" y1="0.5" x2="1878.2" y2="6.5"/>
		<line class="st2" x1="1878.2" y1="18.4" x2="1878.2" y2="1923.7"/>
		<line class="st1" x1="1878.2" y1="1929.7" x2="1878.2" y2="1935.7"/>
	</g>
</g>
<g class="st0">
	<g>
		<line class="st1" x1="1839.9" y1="0.5" x2="1839.9" y2="6.5"/>
		<line class="st2" x1="1839.9" y1="18.4" x2="1839.9" y2="1923.7"/>
		<line class="st1" x1="1839.9" y1="1929.7" x2="1839.9" y2="1935.7"/>
	</g>
</g>
<g class="st0">
	<g>
		<line class="st1" x1="1801.6" y1="0.5" x2="1801.6" y2="6.5"/>
		<line class="st2" x1="1801.6" y1="18.4" x2="1801.6" y2="1923.7"/>
		<line class="st1" x1="1801.6" y1="1929.7" x2="1801.6" y2="1935.7"/>
	</g>
</g>
<g class="st0">
	<g>
		<line class="st1" x1="1763.3" y1="0.5" x2="1763.3" y2="6.5"/>
		<line class="st2" x1="1763.3" y1="18.4" x2="1763.3" y2="1923.7"/>
		<line class="st1" x1="1763.3" y1="1929.7" x2="1763.3" y2="1935.7"/>
	</g>
</g>
<g class="st0">
	<g>
		<line class="st1" x1="1724.9" y1="0.5" x2="1724.9" y2="6.5"/>
		<line class="st2" x1="1724.9" y1="18.4" x2="1724.9" y2="1923.7"/>
		<line class="st1" x1="1724.9" y1="1929.7" x2="1724.9" y2="1935.7"/>
	</g>
</g>
<g class="st0">
	<g>
		<line class="st1" x1="1686.6" y1="0.5" x2="1686.6" y2="6.5"/>
		<line class="st2" x1="1686.6" y1="18.4" x2="1686.6" y2="1923.7"/>
		<line class="st1" x1="1686.6" y1="1929.7" x2="1686.6" y2="1935.7"/>
	</g>
</g>
<g class="st0">
	<g>
		<line class="st1" x1="1648.3" y1="0.5" x2="1648.3" y2="6.5"/>
		<line class="st2" x1="1648.3" y1="18.4" x2="1648.3" y2="1923.7"/>
		<line class="st1" x1="1648.3" y1="1929.7" x2="1648.3" y2="1935.7"/>
	</g>
</g>
<g class="st0">
	<g>
		<line class="st1" x1="1610" y1="0.5" x2="1610" y2="6.5"/>
		<line class="st2" x1="1610" y1="18.4" x2="1610" y2="1923.7"/>
		<line class="st1" x1="1610" y1="1929.7" x2="1610" y2="1935.7"/>
	</g>
</g>
<g class="st0">
	<g>
		<line class="st1" x1="1571.6" y1="0.5" x2="1571.6" y2="6.5"/>
		<line class="st2" x1="1571.6" y1="18.4" x2="1571.6" y2="1923.7"/>
		<line class="st1" x1="1571.6" y1="1929.7" x2="1571.6" y2="1935.7"/>
	</g>
</g>
<g class="st0">
	<g>
		<line class="st1" x1="1533.3" y1="0.5" x2="1533.3" y2="6.5"/>
		<line class="st2" x1="1533.3" y1="18.4" x2="1533.3" y2="1923.7"/>
		<line class="st1" x1="1533.3" y1="1929.7" x2="1533.3" y2="1935.7"/>
	</g>
</g>
<g class="st0">
	<g>
		<line class="st1" x1="1495" y1="0.5" x2="1495" y2="6.5"/>
		<line class="st2" x1="1495" y1="18.4" x2="1495" y2="1923.7"/>
		<line class="st1" x1="1495" y1="1929.7" x2="1495" y2="1935.7"/>
	</g>
</g>
<g class="st0">
	<g>
		<line class="st1" x1="1456.7" y1="0.5" x2="1456.7" y2="6.5"/>
		<line class="st2" x1="1456.7" y1="18.4" x2="1456.7" y2="1923.7"/>
		<line class="st1" x1="1456.7" y1="1929.7" x2="1456.7" y2="1935.7"/>
	</g>
</g>
<g class="st0">
	<g>
		<line class="st1" x1="1418.4" y1="0.5" x2="1418.4" y2="6.5"/>
		<line class="st2" x1="1418.4" y1="18.4" x2="1418.4" y2="1923.7"/>
		<line class="st1" x1="1418.4" y1="1929.7" x2="1418.4" y2="1935.7"/>
	</g>
</g>
<g class="st0">
	<g>
		<line class="st1" x1="1380" y1="0.5" x2="1380" y2="6.5"/>
		<line class="st2" x1="1380" y1="18.4" x2="1380" y2="1923.7"/>
		<line class="st1" x1="1380" y1="1929.7" x2="1380" y2="1935.7"/>
	</g>
</g>
<g class="st0">
	<g>
		<line class="st1" x1="1341.7" y1="0.5" x2="1341.7" y2="6.5"/>
		<line class="st2" x1="1341.7" y1="18.4" x2="1341.7" y2="1923.7"/>
		<line class="st1" x1="1341.7" y1="1929.7" x2="1341.7" y2="1935.7"/>
	</g>
</g>
<g class="st0">
	<g>
		<line class="st1" x1="1303.4" y1="0.5" x2="1303.4" y2="6.5"/>
		<line class="st2" x1="1303.4" y1="18.4" x2="1303.4" y2="1923.7"/>
		<line class="st1" x1="1303.4" y1="1929.7" x2="1303.4" y2="1935.7"/>
	</g>
</g>
<g class="st0">
	<g>
		<line class="st1" x1="1265.1" y1="0.5" x2="1265.1" y2="6.5"/>
		<line class="st2" x1="1265.1" y1="18.4" x2="1265.1" y2="1923.7"/>
		<line class="st1" x1="1265.1" y1="1929.7" x2="1265.1" y2="1935.7"/>
	</g>
</g>
<g class="st0">
	<g>
		<line class="st1" x1="1226.8" y1="0.5" x2="1226.8" y2="6.5"/>
		<line class="st2" x1="1226.8" y1="18.4" x2="1226.8" y2="1923.7"/>
		<line class="st1" x1="1226.8" y1="1929.7" x2="1226.8" y2="1935.7"/>
	</g>
</g>
<g class="st0">
	<g>
		<line class="st1" x1="1188.4" y1="0.5" x2="1188.4" y2="6.5"/>
		<line class="st2" x1="1188.4" y1="18.4" x2="1188.4" y2="1923.7"/>
		<line class="st1" x1="1188.4" y1="1929.7" x2="1188.4" y2="1935.7"/>
	</g>
</g>
<g class="st0">
	<g>
		<line class="st1" x1="1150.1" y1="0.5" x2="1150.1" y2="6.5"/>
		<line class="st2" x1="1150.1" y1="18.4" x2="1150.1" y2="1923.7"/>
		<line class="st1" x1="1150.1" y1="1929.7" x2="1150.1" y2="1935.7"/>
	</g>
</g>
<g class="st0">
	<g>
		<line class="st1" x1="1111.8" y1="0.5" x2="1111.8" y2="6.5"/>
		<line class="st2" x1="1111.8" y1="18.4" x2="1111.8" y2="1923.7"/>
		<line class="st1" x1="1111.8" y1="1929.7" x2="1111.8" y2="1935.7"/>
	</g>
</g>
<g class="st0">
	<g>
		<line class="st1" x1="1073.5" y1="0.5" x2="1073.5" y2="6.5"/>
		<line class="st2" x1="1073.5" y1="18.4" x2="1073.5" y2="1923.7"/>
		<line class="st1" x1="1073.5" y1="1929.7" x2="1073.5" y2="1935.7"/>
	</g>
</g>
<g class="st0">
	<g>
		<line class="st1" x1="1035.2" y1="0.5" x2="1035.2" y2="6.5"/>
		<line class="st2" x1="1035.2" y1="18.4" x2="1035.2" y2="1923.7"/>
		<line class="st1" x1="1035.2" y1="1929.7" x2="1035.2" y2="1935.7"/>
	</g>
</g>
<g class="st0">
	<g>
		<line class="st1" x1="996.8" y1="0.5" x2="996.8" y2="6.5"/>
		<line class="st2" x1="996.8" y1="18.4" x2="996.8" y2="1923.7"/>
		<line class="st1" x1="996.8" y1="1929.7" x2="996.8" y2="1935.7"/>
	</g>
</g>
<g class="st0">
	<g>
		<line class="st1" x1="958.5" y1="0.5" x2="958.5" y2="6.5"/>
		<line class="st2" x1="958.5" y1="18.4" x2="958.5" y2="1923.7"/>
		<line class="st1" x1="958.5" y1="1929.7" x2="958.5" y2="1935.7"/>
	</g>
</g>
<g class="st0">
	<g>
		<line class="st1" x1="920.2" y1="0.5" x2="920.2" y2="6.5"/>
		<line class="st2" x1="920.2" y1="18.4" x2="920.2" y2="1923.7"/>
		<line class="st1" x1="920.2" y1="1929.7" x2="920.2" y2="1935.7"/>
	</g>
</g>
<g class="st0">
	<g>
		<line class="st1" x1="881.9" y1="0.5" x2="881.9" y2="6.5"/>
		<line class="st2" x1="881.9" y1="18.4" x2="881.9" y2="1923.7"/>
		<line class="st1" x1="881.9" y1="1929.7" x2="881.9" y2="1935.7"/>
	</g>
</g>
<g class="st0">
	<g>
		<line class="st1" x1="843.6" y1="0.5" x2="843.6" y2="6.5"/>
		<line class="st2" x1="843.6" y1="18.4" x2="843.6" y2="1923.7"/>
		<line class="st1" x1="843.6" y1="1929.7" x2="843.6" y2="1935.7"/>
	</g>
</g>
<g class="st0">
	<g>
		<line class="st1" x1="805.2" y1="0.5" x2="805.2" y2="6.5"/>
		<line class="st2" x1="805.2" y1="18.4" x2="805.2" y2="1923.7"/>
		<line class="st1" x1="805.2" y1="1929.7" x2="805.2" y2="1935.7"/>
	</g>
</g>
<g class="st0">
	<g>
		<line class="st1" x1="766.9" y1="0.5" x2="766.9" y2="6.5"/>
		<line class="st2" x1="766.9" y1="18.4" x2="766.9" y2="1923.7"/>
		<line class="st1" x1="766.9" y1="1929.7" x2="766.9" y2="1935.7"/>
	</g>
</g>
<g class="st0">
	<g>
		<line class="st1" x1="728.6" y1="0.5" x2="728.6" y2="6.5"/>
		<line class="st2" x1="728.6" y1="18.4" x2="728.6" y2="1923.7"/>
		<line class="st1" x1="728.6" y1="1929.7" x2="728.6" y2="1935.7"/>
	</g>
</g>
<g class="st0">
	<g>
		<line class="st1" x1="690.3" y1="0.5" x2="690.3" y2="6.5"/>
		<line class="st2" x1="690.3" y1="18.4" x2="690.3" y2="1923.7"/>
		<line class="st1" x1="690.3" y1="1929.7" x2="690.3" y2="1935.7"/>
	</g>
</g>
<g class="st0">
	<g>
		<line class="st1" x1="652" y1="0.5" x2="652" y2="6.5"/>
		<line class="st2" x1="652" y1="18.4" x2="652" y2="1923.7"/>
		<line class="st1" x1="652" y1="1929.7" x2="652" y2="1935.7"/>
	</g>
</g>
<g class="st0">
	<g>
		<line class="st1" x1="613.6" y1="0.5" x2="613.6" y2="6.5"/>
		<line class="st2" x1="613.6" y1="18.4" x2="613.6" y2="1923.7"/>
		<line class="st1" x1="613.6" y1="1929.7" x2="613.6" y2="1935.7"/>
	</g>
</g>
<g class="st0">
	<g>
		<line class="st1" x1="575.3" y1="0.5" x2="575.3" y2="6.5"/>
		<line class="st2" x1="575.3" y1="18.4" x2="575.3" y2="1923.7"/>
		<line class="st1" x1="575.3" y1="1929.7" x2="575.3" y2="1935.7"/>
	</g>
</g>
<g class="st0">
	<g>
		<line class="st1" x1="537" y1="0.5" x2="537" y2="6.5"/>
		<line class="st2" x1="537" y1="18.4" x2="537" y2="1923.7"/>
		<line class="st1" x1="537" y1="1929.7" x2="537" y2="1935.7"/>
	</g>
</g>
<g class="st0">
	<g>
		<line class="st1" x1="498.7" y1="0.5" x2="498.7" y2="6.5"/>
		<line class="st2" x1="498.7" y1="18.4" x2="498.7" y2="1923.7"/>
		<line class="st1" x1="498.7" y1="1929.7" x2="498.7" y2="1935.7"/>
	</g>
</g>
<g class="st0">
	<g>
		<line class="st1" x1="460.3" y1="0.5" x2="460.3" y2="6.5"/>
		<line class="st2" x1="460.3" y1="18.4" x2="460.3" y2="1923.7"/>
		<line class="st1" x1="460.3" y1="1929.7" x2="460.3" y2="1935.7"/>
	</g>
</g>
<g class="st0">
	<g>
		<line class="st1" x1="422" y1="0.5" x2="422" y2="6.5"/>
		<line class="st2" x1="422" y1="18.4" x2="422" y2="1923.7"/>
		<line class="st1" x1="422" y1="1929.7" x2="422" y2="1935.7"/>
	</g>
</g>
<g class="st0">
	<g>
		<line class="st1" x1="383.7" y1="0.5" x2="383.7" y2="6.5"/>
		<line class="st2" x1="383.7" y1="18.4" x2="383.7" y2="1923.7"/>
		<line class="st1" x1="383.7" y1="1929.7" x2="383.7" y2="1935.7"/>
	</g>
</g>
<g class="st0">
	<g>
		<line class="st1" x1="345.4" y1="0.5" x2="345.4" y2="6.5"/>
		<line class="st2" x1="345.4" y1="18.4" x2="345.4" y2="1923.7"/>
		<line class="st1" x1="345.4" y1="1929.7" x2="345.4" y2="1935.7"/>
	</g>
</g>
<g class="st0">
	<g>
		<line class="st1" x1="307.1" y1="0.5" x2="307.1" y2="6.5"/>
		<line class="st2" x1="307.1" y1="18.4" x2="307.1" y2="1923.7"/>
		<line class="st1" x1="307.1" y1="1929.7" x2="307.1" y2="1935.7"/>
	</g>
</g>
<g class="st0">
	<g>
		<line class="st1" x1="268.7" y1="0.5" x2="268.7" y2="6.5"/>
		<line class="st2" x1="268.7" y1="18.4" x2="268.7" y2="1923.7"/>
		<line class="st1" x1="268.7" y1="1929.7" x2="268.7" y2="1935.7"/>
	</g>
</g>
<g class="st0">
	<g>
		<line class="st1" x1="230.4" y1="0.5" x2="230.4" y2="6.5"/>
		<line class="st2" x1="230.4" y1="18.4" x2="230.4" y2="1923.7"/>
		<line class="st1" x1="230.4" y1="1929.7" x2="230.4" y2="1935.7"/>
	</g>
</g>
<g class="st0">
	<g>
		<line class="st1" x1="192.1" y1="0.5" x2="192.1" y2="6.5"/>
		<line class="st2" x1="192.1" y1="18.4" x2="192.1" y2="1923.7"/>
		<line class="st1" x1="192.1" y1="1929.7" x2="192.1" y2="1935.7"/>
	</g>
</g>
<g class="st0">
	<g>
		<line class="st1" x1="153.8" y1="0.5" x2="153.8" y2="6.5"/>
		<line class="st2" x1="153.8" y1="18.4" x2="153.8" y2="1923.7"/>
		<line class="st1" x1="153.8" y1="1929.7" x2="153.8" y2="1935.7"/>
	</g>
</g>
<g class="st0">
	<g>
		<line class="st1" x1="115.5" y1="0.5" x2="115.5" y2="6.5"/>
		<line class="st2" x1="115.5" y1="18.4" x2="115.5" y2="1923.7"/>
		<line class="st1" x1="115.5" y1="1929.7" x2="115.5" y2="1935.7"/>
	</g>
</g>
<g class="st0">
	<g>
		<line class="st1" x1="77.1" y1="0.5" x2="77.1" y2="6.5"/>
		<line class="st2" x1="77.1" y1="18.4" x2="77.1" y2="1923.7"/>
		<line class="st1" x1="77.1" y1="1929.7" x2="77.1" y2="1935.7"/>
	</g>
</g>
<g class="st0">
	<g>
		<line class="st1" x1="38.8" y1="0.5" x2="38.8" y2="6.5"/>
		<line class="st2" x1="38.8" y1="18.4" x2="38.8" y2="1923.7"/>
		<line class="st1" x1="38.8" y1="1929.7" x2="38.8" y2="1935.7"/>
	</g>
</g>
<g class="st3">
	<g>
		<g>
			<line class="st4" x1="1897.4" y1="0.5" x2="1897.4" y2="6.5"/>
			<line class="st5" x1="1897.4" y1="18.4" x2="1897.4" y2="1923.7"/>
			<line class="st4" x1="1897.4" y1="1929.7" x2="1897.4" y2="1935.7"/>
		</g>
	</g>
	<g>
		<g>
			<line class="st4" x1="1859.1" y1="0.5" x2="1859.1" y2="6.5"/>
			<line class="st5" x1="1859.1" y1="18.4" x2="1859.1" y2="1923.7"/>
			<line class="st4" x1="1859.1" y1="1929.7" x2="1859.1" y2="1935.7"/>
		</g>
	</g>
	<g>
		<g>
			<line class="st4" x1="1820.7" y1="0.5" x2="1820.7" y2="6.5"/>
			<line class="st5" x1="1820.7" y1="18.4" x2="1820.7" y2="1923.7"/>
			<line class="st4" x1="1820.7" y1="1929.7" x2="1820.7" y2="1935.7"/>
		</g>
	</g>
	<g>
		<g>
			<line class="st4" x1="1782.4" y1="0.5" x2="1782.4" y2="6.5"/>
			<line class="st5" x1="1782.4" y1="18.4" x2="1782.4" y2="1923.7"/>
			<line class="st4" x1="1782.4" y1="1929.7" x2="1782.4" y2="1935.7"/>
		</g>
	</g>
	<g>
		<g>
			<line class="st4" x1="1744.1" y1="0.5" x2="1744.1" y2="6.5"/>
			<line class="st5" x1="1744.1" y1="18.4" x2="1744.1" y2="1923.7"/>
			<line class="st4" x1="1744.1" y1="1929.7" x2="1744.1" y2="1935.7"/>
		</g>
	</g>
	<g>
		<g>
			<line class="st4" x1="1705.8" y1="0.5" x2="1705.8" y2="6.5"/>
			<line class="st5" x1="1705.8" y1="18.4" x2="1705.8" y2="1923.7"/>
			<line class="st4" x1="1705.8" y1="1929.7" x2="1705.8" y2="1935.7"/>
		</g>
	</g>
	<g>
		<g>
			<line class="st4" x1="1667.4" y1="0.5" x2="1667.4" y2="6.5"/>
			<line class="st5" x1="1667.4" y1="18.4" x2="1667.4" y2="1923.7"/>
			<line class="st4" x1="1667.4" y1="1929.7" x2="1667.4" y2="1935.7"/>
		</g>
	</g>
	<g>
		<g>
			<line class="st4" x1="1629.1" y1="0.5" x2="1629.1" y2="6.5"/>
			<line class="st5" x1="1629.1" y1="18.4" x2="1629.1" y2="1923.7"/>
			<line class="st4" x1="1629.1" y1="1929.7" x2="1629.1" y2="1935.7"/>
		</g>
	</g>
	<g>
		<g>
			<line class="st4" x1="1590.8" y1="0.5" x2="1590.8" y2="6.5"/>
			<line class="st5" x1="1590.8" y1="18.4" x2="1590.8" y2="1923.7"/>
			<line class="st4" x1="1590.8" y1="1929.7" x2="1590.8" y2="1935.7"/>
		</g>
	</g>
	<g>
		<g>
			<line class="st4" x1="1552.5" y1="0.5" x2="1552.5" y2="6.5"/>
			<line class="st5" x1="1552.5" y1="18.4" x2="1552.5" y2="1923.7"/>
			<line class="st4" x1="1552.5" y1="1929.7" x2="1552.5" y2="1935.7"/>
		</g>
	</g>
	<g>
		<g>
			<line class="st4" x1="1514.2" y1="0.5" x2="1514.2" y2="6.5"/>
			<line class="st5" x1="1514.2" y1="18.4" x2="1514.2" y2="1923.7"/>
			<line class="st4" x1="1514.2" y1="1929.7" x2="1514.2" y2="1935.7"/>
		</g>
	</g>
	<g>
		<g>
			<line class="st4" x1="1475.8" y1="0.5" x2="1475.8" y2="6.5"/>
			<line class="st5" x1="1475.8" y1="18.4" x2="1475.8" y2="1923.7"/>
			<line class="st4" x1="1475.8" y1="1929.7" x2="1475.8" y2="1935.7"/>
		</g>
	</g>
	<g>
		<g>
			<line class="st4" x1="1437.5" y1="0.5" x2="1437.5" y2="6.5"/>
			<line class="st5" x1="1437.5" y1="18.4" x2="1437.5" y2="1923.7"/>
			<line class="st4" x1="1437.5" y1="1929.7" x2="1437.5" y2="1935.7"/>
		</g>
	</g>
	<g>
		<g>
			<line class="st4" x1="1399.2" y1="0.5" x2="1399.2" y2="6.5"/>
			<line class="st5" x1="1399.2" y1="18.4" x2="1399.2" y2="1923.7"/>
			<line class="st4" x1="1399.2" y1="1929.7" x2="1399.2" y2="1935.7"/>
		</g>
	</g>
	<g>
		<g>
			<line class="st4" x1="1360.9" y1="0.5" x2="1360.9" y2="6.5"/>
			<line class="st5" x1="1360.9" y1="18.4" x2="1360.9" y2="1923.7"/>
			<line class="st4" x1="1360.9" y1="1929.7" x2="1360.9" y2="1935.7"/>
		</g>
	</g>
	<g>
		<g>
			<line class="st4" x1="1322.6" y1="0.5" x2="1322.6" y2="6.5"/>
			<line class="st5" x1="1322.6" y1="18.4" x2="1322.6" y2="1923.7"/>
			<line class="st4" x1="1322.6" y1="1929.7" x2="1322.6" y2="1935.7"/>
		</g>
	</g>
	<g>
		<g>
			<line class="st4" x1="1284.2" y1="0.5" x2="1284.2" y2="6.5"/>
			<line class="st5" x1="1284.2" y1="18.4" x2="1284.2" y2="1923.7"/>
			<line class="st4" x1="1284.2" y1="1929.7" x2="1284.2" y2="1935.7"/>
		</g>
	</g>
	<g>
		<g>
			<line class="st4" x1="1245.9" y1="0.5" x2="1245.9" y2="6.5"/>
			<line class="st5" x1="1245.9" y1="18.4" x2="1245.9" y2="1923.7"/>
			<line class="st4" x1="1245.9" y1="1929.7" x2="1245.9" y2="1935.7"/>
		</g>
	</g>
	<g>
		<g>
			<line class="st4" x1="1207.6" y1="0.5" x2="1207.6" y2="6.5"/>
			<line class="st5" x1="1207.6" y1="18.4" x2="1207.6" y2="1923.7"/>
			<line class="st4" x1="1207.6" y1="1929.7" x2="1207.6" y2="1935.7"/>
		</g>
	</g>
	<g>
		<g>
			<line class="st4" x1="1169.3" y1="0.5" x2="1169.3" y2="6.5"/>
			<line class="st5" x1="1169.3" y1="18.4" x2="1169.3" y2="1923.7"/>
			<line class="st4" x1="1169.3" y1="1929.7" x2="1169.3" y2="1935.7"/>
		</g>
	</g>
	<g>
		<g>
			<line class="st4" x1="1131" y1="0.5" x2="1131" y2="6.5"/>
			<line class="st5" x1="1131" y1="18.4" x2="1131" y2="1923.7"/>
			<line class="st4" x1="1131" y1="1929.7" x2="1131" y2="1935.7"/>
		</g>
	</g>
	<g>
		<g>
			<line class="st4" x1="1092.6" y1="0.5" x2="1092.6" y2="6.5"/>
			<line class="st5" x1="1092.6" y1="18.4" x2="1092.6" y2="1923.7"/>
			<line class="st4" x1="1092.6" y1="1929.7" x2="1092.6" y2="1935.7"/>
		</g>
	</g>
	<g>
		<g>
			<line class="st4" x1="1054.3" y1="0.5" x2="1054.3" y2="6.5"/>
			<line class="st5" x1="1054.3" y1="18.4" x2="1054.3" y2="1923.7"/>
			<line class="st4" x1="1054.3" y1="1929.7" x2="1054.3" y2="1935.7"/>
		</g>
	</g>
	<g>
		<g>
			<line class="st4" x1="1016" y1="0.5" x2="1016" y2="6.5"/>
			<line class="st5" x1="1016" y1="18.4" x2="1016" y2="1923.7"/>
			<line class="st4" x1="1016" y1="1929.7" x2="1016" y2="1935.7"/>
		</g>
	</g>
	<g>
		<g>
			<line class="st4" x1="977.7" y1="0.5" x2="977.7" y2="6.5"/>
			<line class="st5" x1="977.7" y1="18.4" x2="977.7" y2="1923.7"/>
			<line class="st4" x1="977.7" y1="1929.7" x2="977.7" y2="1935.7"/>
		</g>
	</g>
	<g>
		<g>
			<line class="st4" x1="939.4" y1="0.5" x2="939.4" y2="6.5"/>
			<line class="st5" x1="939.4" y1="18.4" x2="939.4" y2="1923.7"/>
			<line class="st4" x1="939.4" y1="1929.7" x2="939.4" y2="1935.7"/>
		</g>
	</g>
	<g>
		<g>
			<line class="st4" x1="901" y1="0.5" x2="901" y2="6.5"/>
			<line class="st5" x1="901" y1="18.4" x2="901" y2="1923.7"/>
			<line class="st4" x1="901" y1="1929.7" x2="901" y2="1935.7"/>
		</g>
	</g>
	<g>
		<g>
			<line class="st4" x1="862.7" y1="0.5" x2="862.7" y2="6.5"/>
			<line class="st5" x1="862.7" y1="18.4" x2="862.7" y2="1923.7"/>
			<line class="st4" x1="862.7" y1="1929.7" x2="862.7" y2="1935.7"/>
		</g>
	</g>
	<g>
		<g>
			<line class="st4" x1="824.4" y1="0.5" x2="824.4" y2="6.5"/>
			<line class="st5" x1="824.4" y1="18.4" x2="824.4" y2="1923.7"/>
			<line class="st4" x1="824.4" y1="1929.7" x2="824.4" y2="1935.7"/>
		</g>
	</g>
	<g>
		<g>
			<line class="st4" x1="786.1" y1="0.5" x2="786.1" y2="6.5"/>
			<line class="st5" x1="786.1" y1="18.4" x2="786.1" y2="1923.7"/>
			<line class="st4" x1="786.1" y1="1929.7" x2="786.1" y2="1935.7"/>
		</g>
	</g>
	<g>
		<g>
			<line class="st4" x1="747.8" y1="0.5" x2="747.8" y2="6.5"/>
			<line class="st5" x1="747.8" y1="18.4" x2="747.8" y2="1923.7"/>
			<line class="st4" x1="747.8" y1="1929.7" x2="747.8" y2="1935.7"/>
		</g>
	</g>
	<g>
		<g>
			<line class="st4" x1="709.4" y1="0.5" x2="709.4" y2="6.5"/>
			<line class="st5" x1="709.4" y1="18.4" x2="709.4" y2="1923.7"/>
			<line class="st4" x1="709.4" y1="1929.7" x2="709.4" y2="1935.7"/>
		</g>
	</g>
	<g>
		<g>
			<line class="st4" x1="671.1" y1="0.5" x2="671.1" y2="6.5"/>
			<line class="st5" x1="671.1" y1="18.4" x2="671.1" y2="1923.7"/>
			<line class="st4" x1="671.1" y1="1929.7" x2="671.1" y2="1935.7"/>
		</g>
	</g>
	<g>
		<g>
			<line class="st4" x1="632.8" y1="0.5" x2="632.8" y2="6.5"/>
			<line class="st5" x1="632.8" y1="18.4" x2="632.8" y2="1923.7"/>
			<line class="st4" x1="632.8" y1="1929.7" x2="632.8" y2="1935.7"/>
		</g>
	</g>
	<g>
		<g>
			<line class="st4" x1="594.5" y1="0.5" x2="594.5" y2="6.5"/>
			<line class="st5" x1="594.5" y1="18.4" x2="594.5" y2="1923.7"/>
			<line class="st4" x1="594.5" y1="1929.7" x2="594.5" y2="1935.7"/>
		</g>
	</g>
	<g>
		<g>
			<line class="st4" x1="556.1" y1="0.5" x2="556.1" y2="6.5"/>
			<line class="st5" x1="556.1" y1="18.4" x2="556.1" y2="1923.7"/>
			<line class="st4" x1="556.1" y1="1929.7" x2="556.1" y2="1935.7"/>
		</g>
	</g>
	<g>
		<g>
			<line class="st4" x1="517.8" y1="0.5" x2="517.8" y2="6.5"/>
			<line class="st5" x1="517.8" y1="18.4" x2="517.8" y2="1923.7"/>
			<line class="st4" x1="517.8" y1="1929.7" x2="517.8" y2="1935.7"/>
		</g>
	</g>
	<g>
		<g>
			<line class="st4" x1="479.5" y1="0.5" x2="479.5" y2="6.5"/>
			<line class="st5" x1="479.5" y1="18.4" x2="479.5" y2="1923.7"/>
			<line class="st4" x1="479.5" y1="1929.7" x2="479.5" y2="1935.7"/>
		</g>
	</g>
	<g>
		<g>
			<line class="st4" x1="441.2" y1="0.5" x2="441.2" y2="6.5"/>
			<line class="st5" x1="441.2" y1="18.4" x2="441.2" y2="1923.7"/>
			<line class="st4" x1="441.2" y1="1929.7" x2="441.2" y2="1935.7"/>
		</g>
	</g>
	<g>
		<g>
			<line class="st4" x1="402.9" y1="0.5" x2="402.9" y2="6.5"/>
			<line class="st5" x1="402.9" y1="18.4" x2="402.9" y2="1923.7"/>
			<line class="st4" x1="402.9" y1="1929.7" x2="402.9" y2="1935.7"/>
		</g>
	</g>
	<g>
		<g>
			<line class="st4" x1="364.5" y1="0.5" x2="364.5" y2="6.5"/>
			<line class="st5" x1="364.5" y1="18.4" x2="364.5" y2="1923.7"/>
			<line class="st4" x1="364.5" y1="1929.7" x2="364.5" y2="1935.7"/>
		</g>
	</g>
	<g>
		<g>
			<line class="st4" x1="326.2" y1="0.5" x2="326.2" y2="6.5"/>
			<line class="st5" x1="326.2" y1="18.4" x2="326.2" y2="1923.7"/>
			<line class="st4" x1="326.2" y1="1929.7" x2="326.2" y2="1935.7"/>
		</g>
	</g>
	<g>
		<g>
			<line class="st4" x1="287.9" y1="0.5" x2="287.9" y2="6.5"/>
			<line class="st5" x1="287.9" y1="18.4" x2="287.9" y2="1923.7"/>
			<line class="st4" x1="287.9" y1="1929.7" x2="287.9" y2="1935.7"/>
		</g>
	</g>
	<g>
		<g>
			<line class="st4" x1="249.6" y1="0.5" x2="249.6" y2="6.5"/>
			<line class="st5" x1="249.6" y1="18.4" x2="249.6" y2="1923.7"/>
			<line class="st4" x1="249.6" y1="1929.7" x2="249.6" y2="1935.7"/>
		</g>
	</g>
	<g>
		<g>
			<line class="st4" x1="211.3" y1="0.5" x2="211.3" y2="6.5"/>
			<line class="st5" x1="211.3" y1="18.4" x2="211.3" y2="1923.7"/>
			<line class="st4" x1="211.3" y1="1929.7" x2="211.3" y2="1935.7"/>
		</g>
	</g>
	<g>
		<g>
			<line class="st4" x1="172.9" y1="0.5" x2="172.9" y2="6.5"/>
			<line class="st5" x1="172.9" y1="18.4" x2="172.9" y2="1923.7"/>
			<line class="st4" x1="172.9" y1="1929.7" x2="172.9" y2="1935.7"/>
		</g>
	</g>
	<g>
		<g>
			<line class="st4" x1="134.6" y1="0.5" x2="134.6" y2="6.5"/>
			<line class="st5" x1="134.6" y1="18.4" x2="134.6" y2="1923.7"/>
			<line class="st4" x1="134.6" y1="1929.7" x2="134.6" y2="1935.7"/>
		</g>
	</g>
	<g>
		<g>
			<line class="st4" x1="96.3" y1="0.5" x2="96.3" y2="6.5"/>
			<line class="st5" x1="96.3" y1="18.4" x2="96.3" y2="1923.7"/>
			<line class="st4" x1="96.3" y1="1929.7" x2="96.3" y2="1935.7"/>
		</g>
	</g>
	<g>
		<g>
			<line class="st4" x1="58" y1="0.5" x2="58" y2="6.5"/>
			<line class="st5" x1="58" y1="18.4" x2="58" y2="1923.7"/>
			<line class="st4" x1="58" y1="1929.7" x2="58" y2="1935.7"/>
		</g>
	</g>
	<g>
		<g>
			<line class="st4" x1="19.7" y1="0.5" x2="19.7" y2="6.5"/>
			<line class="st5" x1="19.7" y1="18.4" x2="19.7" y2="1923.7"/>
			<line class="st4" x1="19.7" y1="1929.7" x2="19.7" y2="1935.7"/>
		</g>
	</g>
</g>
</svg>
