<?xml version="1.0" encoding="utf-8"?>
<!-- Generator: Adobe Illustrator 22.0.1, SVG Export Plug-In . SVG Version: 6.00 Build 0)  -->
<svg version="1.1" id="Layer_1" xmlns="http://www.w3.org/2000/svg" x="0px" y="0px" viewBox="0 0 2000 2000" style="enable-background:new 0 0 2000 2000;" xml:space="preserve">
<style type="text/css">
	.st0{opacity:0.15;}
	.st1{fill:none;stroke:#000000;stroke-width:2;stroke-miterlimit:10;}
</style>
<g class="st0">
	<path class="st1" d="M2014.7,1983c-26,8.2-31.7-10-57.8-1.8c-21.4,6.7-21.4,20.1-35.1,29.3"/>
</g>
<g class="st0">
	<path class="st1" d="M2014.7,1955.6c-26,8.2-31.7-10-57.8-1.8c-26,8.2-20.3,26.3-46.4,34.5c-26,8.2-31.7-10-57.7-1.8
		c-17.5,5.5-20.7,15.5-28.8,24"/>
</g>
<g class="st0">
	<path class="st1" d="M2014.7,1928.2c-26,8.2-31.7-10-57.8-1.8c-26,8.2-20.3,26.3-46.4,34.5c-26,8.2-31.7-10-57.7-1.8
		s-20.3,26.3-46.4,34.5c-26,8.2-31.7-10-57.7-1.8c-14,4.4-18.8,11.6-24.3,18.7"/>
</g>
<g class="st0">
	<path class="st1" d="M2014.7,1900.8c-26,8.2-31.7-10-57.8-1.8c-26,8.2-20.3,26.3-46.4,34.5c-26,8.2-31.7-10-57.7-1.8
		s-20.3,26.3-46.4,34.5s-31.7-10-57.7-1.8s-20.3,26.3-46.4,34.5c-26,8.2-31.7-9.9-57.7-1.8c-10.5,3.3-15.8,8.2-20.1,13.4"/>
</g>
<g class="st0">
	<path class="st1" d="M2014.7,1873.4c-26,8.2-31.7-10-57.8-1.8c-26,8.2-20.3,26.3-46.4,34.5c-26,8.2-31.7-10-57.7-1.8
		s-20.3,26.3-46.4,34.5c-26,8.2-31.7-10-57.7-1.8s-20.3,26.3-46.4,34.5c-26,8.2-31.7-9.9-57.7-1.8s-20.3,26.3-46.4,34.5
		c-26,8.2-31.7-10-57.8-1.8c-6.8,2.1-11.5,5-15.1,8.1"/>
</g>
<g class="st0">
	<path class="st1" d="M2014.7,1846c-26,8.2-31.7-10-57.8-1.8c-26,8.2-20.3,26.3-46.4,34.5c-26,8.2-31.7-10-57.7-1.8
		s-20.3,26.3-46.4,34.5s-31.7-10-57.7-1.8s-20.3,26.3-46.4,34.5c-26,8.2-31.7-9.9-57.7-1.8c-26,8.2-20.3,26.3-46.4,34.5
		c-26,8.2-31.7-10-57.8-1.8c-26,8.2-20.3,26.3-46.4,34.5c-1.3,0.4-2.6,0.8-3.8,1c-7.5,1.8-13.2,1.2-18.4,0c-10.6-2.5-19-8-35.6-2.8
		c-2.7,0.8-5,1.8-7.1,2.8"/>
</g>
<g class="st0">
	<path class="st1" d="M2014.7,1818.6c-26,8.2-31.7-10-57.8-1.8c-26,8.2-20.3,26.3-46.4,34.5c-26,8.2-31.7-10-57.7-1.8
		s-20.3,26.3-46.4,34.5c-26,8.2-31.7-10-57.7-1.8s-20.3,26.3-46.4,34.5c-26,8.2-31.7-9.9-57.7-1.8s-20.3,26.3-46.4,34.5
		c-26,8.2-31.7-10-57.8-1.8c-26,8.2-20.3,26.3-46.4,34.5c-26,8.2-31.7-10-57.7-1.8c-22.2,7-21.3,21.1-36.7,30.2"/>
</g>
<g class="st0">
	<path class="st1" d="M2014.7,1791.1c-26,8.2-31.7-10-57.8-1.8c-26,8.2-20.3,26.3-46.4,34.5c-26,8.2-31.7-10-57.7-1.8
		s-20.3,26.3-46.4,34.5s-31.7-10-57.7-1.8s-20.3,26.3-46.4,34.5c-26,8.2-31.7-9.9-57.7-1.8c-26,8.2-20.3,26.3-46.4,34.5
		c-26,8.2-31.7-10-57.8-1.8c-26,8.2-20.3,26.3-46.4,34.5c-26,8.2-31.7-10-57.7-1.8s-20.3,26.3-46.4,34.5c-26,8.2-31.7-10-57.7-1.8
		c-18.2,5.7-20.9,16.3-29.8,25"/>
</g>
<g class="st0">
	<path class="st1" d="M2014.7,1763.7c-26,8.2-31.7-10-57.8-1.8c-26,8.2-20.3,26.3-46.4,34.5c-26,8.2-31.7-10-57.7-1.8
		s-20.3,26.3-46.4,34.5c-26,8.2-31.7-10-57.7-1.8s-20.3,26.3-46.4,34.5c-26,8.2-31.7-9.9-57.7-1.8s-20.3,26.3-46.4,34.5
		c-26,8.2-31.7-10-57.8-1.8c-26,8.2-20.3,26.3-46.4,34.5c-26,8.2-31.7-10-57.7-1.8s-20.3,26.3-46.4,34.5s-31.7-10-57.7-1.8
		s-20.3,26.3-46.4,34.5c-26,8.2-31.7-10-57.7-1.8c-14.6,4.6-19.2,12.3-25.1,19.7"/>
</g>
<g class="st0">
	<path class="st1" d="M2014.7,1736.3c-26,8.2-31.7-10-57.8-1.8c-26,8.2-20.3,26.3-46.4,34.5c-26,8.2-31.7-10-57.7-1.8
		s-20.3,26.3-46.4,34.5s-31.7-10-57.7-1.8s-20.3,26.3-46.4,34.5c-26,8.2-31.7-9.9-57.7-1.8c-26,8.2-20.3,26.3-46.4,34.5
		c-26,8.2-31.7-10-57.8-1.8c-26,8.2-20.3,26.3-46.4,34.5c-26,8.2-31.7-10-57.7-1.8s-20.3,26.3-46.4,34.5c-26,8.2-31.7-10-57.7-1.8
		s-20.3,26.3-46.4,34.5s-31.7-10-57.7-1.8s-20.3,26.3-46.4,34.5s-31.7-10-57.7-1.8c-11.1,3.5-16.5,8.8-21,14.4"/>
</g>
<g class="st0">
	<path class="st1" d="M2014.7,1708.9c-26,8.2-31.7-10-57.8-1.8c-26,8.2-20.3,26.3-46.4,34.5c-26,8.2-31.7-10-57.7-1.8
		s-20.3,26.3-46.4,34.5c-26,8.2-31.7-10-57.7-1.8s-20.3,26.3-46.4,34.5c-26,8.2-31.7-9.9-57.7-1.8s-20.3,26.3-46.4,34.5
		c-26,8.2-31.7-10-57.8-1.8c-26,8.2-20.3,26.3-46.4,34.5c-26,8.2-31.7-10-57.7-1.8s-20.3,26.3-46.4,34.5s-31.7-10-57.7-1.8
		s-20.3,26.3-46.4,34.5c-26,8.2-31.7-10-57.7-1.8s-20.3,26.3-46.4,34.5c-26,8.2-31.7-10-57.7-1.8s-20.3,26.3-46.4,34.5
		c-26,8.2-31.7-9.9-57.7-1.8c-7.5,2.4-12.4,5.6-16.2,9.1"/>
</g>
<g class="st0">
	<path class="st1" d="M2014.7,1681.5c-26,8.2-31.7-10-57.8-1.8c-26,8.2-20.3,26.3-46.4,34.5c-26,8.2-31.7-10-57.7-1.8
		s-20.3,26.3-46.4,34.5s-31.7-10-57.7-1.8s-20.3,26.3-46.4,34.5c-26,8.2-31.7-9.9-57.7-1.8c-26,8.2-20.3,26.3-46.4,34.5
		c-26,8.2-31.7-10-57.8-1.8c-26,8.2-20.3,26.3-46.4,34.5c-26,8.2-31.7-10-57.7-1.8s-20.3,26.3-46.4,34.5c-26,8.2-31.7-10-57.7-1.8
		s-20.3,26.3-46.4,34.5s-31.7-10-57.7-1.8s-20.3,26.3-46.4,34.5s-31.7-10-57.7-1.8s-20.3,26.3-46.4,34.5c-26,8.2-31.7-9.9-57.7-1.8
		c-26,8.2-20.3,26.3-46.4,34.5c-3.7,1.2-7,1.8-10,2c-2.2,0.2-4.2,0.2-6.1,0c-14-1.2-22-10-41.7-3.8c-3.5,1.1-6.5,2.4-9,3.8"/>
</g>
<g class="st0">
	<path class="st1" d="M2014.7,1654.1c-26,8.2-31.7-10-57.8-1.8c-26,8.2-20.3,26.3-46.4,34.5c-26,8.2-31.7-10-57.7-1.8
		s-20.3,26.3-46.4,34.5c-26,8.2-31.7-10-57.7-1.8s-20.3,26.3-46.4,34.5c-26,8.2-31.7-9.9-57.7-1.8s-20.3,26.3-46.4,34.5
		c-26,8.2-31.7-10-57.8-1.8c-26,8.2-20.3,26.3-46.4,34.5c-26,8.2-31.7-10-57.7-1.8s-20.3,26.3-46.4,34.5s-31.7-10-57.7-1.8
		s-20.3,26.3-46.4,34.5c-26,8.2-31.7-10-57.7-1.8s-20.3,26.3-46.4,34.5c-26,8.2-31.7-10-57.7-1.8s-20.3,26.3-46.4,34.5
		c-26,8.2-31.7-9.9-57.7-1.8c-26,8.2-20.3,26.3-46.4,34.5c-26,8.2-31.7-10-57.7-1.8c-23,7.2-21.2,22.2-38.5,31.2
		c-2.3,1.2-4.9,2.3-7.9,3.2c-17.6,5.5-25.9-1-37.5-3.2c-4.2-0.8-8.8-1.1-14.4,0"/>
</g>
<g class="st0">
	<path class="st1" d="M2014.7,1626.7c-26,8.2-31.7-10-57.8-1.8c-26,8.2-20.3,26.3-46.4,34.5c-26,8.2-31.7-10-57.7-1.8
		s-20.3,26.3-46.4,34.5s-31.7-10-57.7-1.8s-20.3,26.3-46.4,34.5c-26,8.2-31.7-9.9-57.7-1.8c-26,8.2-20.3,26.3-46.4,34.5
		c-26,8.2-31.7-10-57.8-1.8c-26,8.2-20.3,26.3-46.4,34.5c-26,8.2-31.7-10-57.7-1.8s-20.3,26.3-46.4,34.5c-26,8.2-31.7-10-57.7-1.8
		s-20.3,26.3-46.4,34.5s-31.7-10-57.7-1.8s-20.3,26.3-46.4,34.5s-31.7-10-57.7-1.8s-20.3,26.3-46.4,34.5c-26,8.2-31.7-9.9-57.7-1.8
		c-26,8.2-20.3,26.3-46.4,34.5c-26,8.2-31.7-10-57.7-1.8s-20.3,26.3-46.4,34.5c-26,8.2-31.7-9.9-57.7-1.8
		c-18.9,5.9-21.1,17.1-30.8,25.9"/>
</g>
<g class="st0">
	<path class="st1" d="M2014.7,1599.3c-26,8.2-31.7-10-57.8-1.8c-26,8.2-20.3,26.3-46.4,34.5c-26,8.2-31.7-10-57.7-1.8
		s-20.3,26.3-46.4,34.5c-26,8.2-31.7-10-57.7-1.8s-20.3,26.3-46.4,34.5c-26,8.2-31.7-9.9-57.7-1.8s-20.3,26.3-46.4,34.5
		c-26,8.2-31.7-10-57.8-1.8c-26,8.2-20.3,26.3-46.4,34.5c-26,8.2-31.7-10-57.7-1.8s-20.3,26.3-46.4,34.5s-31.7-10-57.7-1.8
		s-20.3,26.3-46.4,34.5c-26,8.2-31.7-10-57.7-1.8s-20.3,26.3-46.4,34.5c-26,8.2-31.7-10-57.7-1.8s-20.3,26.3-46.4,34.5
		c-26,8.2-31.7-9.9-57.7-1.8c-26,8.2-20.3,26.3-46.4,34.5c-26,8.2-31.7-10-57.7-1.8s-20.3,26.3-46.4,34.5c-26,8.2-31.7-9.9-57.7-1.8
		c-26,8.2-20.3,26.3-46.4,34.5s-31.7-10-57.7-1.8c-15.3,4.8-19.6,13-25.9,20.7"/>
</g>
<g class="st0">
	<path class="st1" d="M2014.7,1571.9c-26,8.2-31.7-10-57.8-1.8c-26,8.2-20.3,26.3-46.4,34.5c-26,8.2-31.7-10-57.7-1.8
		s-20.3,26.3-46.4,34.5s-31.7-10-57.7-1.8s-20.3,26.3-46.4,34.5c-26,8.2-31.7-9.9-57.7-1.8c-26,8.2-20.3,26.3-46.4,34.5
		c-26,8.2-31.7-10-57.8-1.8c-26,8.2-20.3,26.3-46.4,34.5c-26,8.2-31.7-10-57.7-1.8s-20.3,26.3-46.4,34.5c-26,8.2-31.7-10-57.7-1.8
		s-20.3,26.3-46.4,34.5s-31.7-10-57.7-1.8s-20.3,26.3-46.4,34.5s-31.7-10-57.7-1.8s-20.3,26.3-46.4,34.5c-26,8.2-31.7-9.9-57.7-1.8
		c-26,8.2-20.3,26.3-46.4,34.5c-26,8.2-31.7-10-57.7-1.8s-20.3,26.3-46.4,34.5c-26,8.2-31.7-9.9-57.7-1.8
		c-26,8.2-20.3,26.3-46.4,34.5c-26,8.2-31.7-10-57.7-1.8s-20.3,26.3-46.4,34.5c-26,8.2-31.7-10-57.7-1.8
		c-11.8,3.7-17.1,9.4-21.7,15.4"/>
</g>
<g class="st0">
	<path class="st1" d="M2014.7,1544.5c-26,8.2-31.7-10-57.8-1.8c-26,8.2-20.3,26.3-46.4,34.5c-26,8.2-31.7-10-57.7-1.8
		s-20.3,26.3-46.4,34.5c-26,8.2-31.7-10-57.7-1.8s-20.3,26.3-46.4,34.5c-26,8.2-31.7-9.9-57.7-1.8s-20.3,26.3-46.4,34.5
		c-26,8.2-31.7-10-57.8-1.8c-26,8.2-20.3,26.3-46.4,34.5c-26,8.2-31.7-10-57.7-1.8s-20.3,26.3-46.4,34.5s-31.7-10-57.7-1.8
		s-20.3,26.3-46.4,34.5c-26,8.2-31.7-10-57.7-1.8s-20.3,26.3-46.4,34.5c-26,8.2-31.7-10-57.7-1.8s-20.3,26.3-46.4,34.5
		c-26,8.2-31.7-9.9-57.7-1.8c-26,8.2-20.3,26.3-46.4,34.5c-26,8.2-31.7-10-57.7-1.8s-20.3,26.3-46.4,34.5c-26,8.2-31.7-9.9-57.7-1.8
		c-26,8.2-20.3,26.3-46.4,34.5s-31.7-10-57.7-1.8s-20.3,26.3-46.4,34.5c-26,8.2-31.7-10-57.7-1.8s-20.3,26.3-46.4,34.5
		c-26,8.2-31.7-10-57.7-1.8c-8.2,2.6-13.3,6.2-17.2,10.1"/>
</g>
<g class="st0">
	<path class="st1" d="M2014.7,1517.1c-26,8.2-31.7-10-57.8-1.8c-26,8.2-20.3,26.3-46.4,34.5c-26,8.2-31.7-10-57.7-1.8
		s-20.3,26.3-46.4,34.5s-31.7-10-57.7-1.8s-20.3,26.3-46.4,34.5c-26,8.2-31.7-9.9-57.7-1.8c-26,8.2-20.3,26.3-46.4,34.5
		c-26,8.2-31.7-10-57.8-1.8c-26,8.2-20.3,26.3-46.4,34.5c-26,8.2-31.7-10-57.7-1.8s-20.3,26.3-46.4,34.5c-26,8.2-31.7-10-57.7-1.8
		s-20.3,26.3-46.4,34.5s-31.7-10-57.7-1.8s-20.3,26.3-46.4,34.5s-31.7-10-57.7-1.8s-20.3,26.3-46.4,34.5c-26,8.2-31.7-9.9-57.7-1.8
		c-26,8.2-20.3,26.3-46.4,34.5c-26,8.2-31.7-10-57.7-1.8s-20.3,26.3-46.4,34.5c-26,8.2-31.7-9.9-57.7-1.8
		c-26,8.2-20.3,26.3-46.4,34.5c-26,8.2-31.7-10-57.7-1.8s-20.3,26.3-46.4,34.5c-26,8.2-31.7-10-57.7-1.8s-20.3,26.3-46.4,34.5
		c-26,8.2-31.7-10-57.7-1.8s-20.3,26.3-46.4,34.5c-26,8.2-31.7-10-57.7-1.8c-4.3,1.4-7.8,3-10.6,4.8"/>
</g>
<g class="st0">
	<path class="st1" d="M2014.7,1489.7c-26,8.2-31.7-10-57.8-1.8c-26,8.2-20.3,26.3-46.4,34.5c-26,8.2-31.7-10-57.7-1.8
		s-20.3,26.3-46.4,34.5c-26,8.2-31.7-10-57.7-1.8s-20.3,26.3-46.4,34.5c-26,8.2-31.7-9.9-57.7-1.8c-26,8.2-20.3,26.3-46.4,34.5
		c-26,8.2-31.7-10-57.8-1.8c-26,8.2-20.3,26.3-46.4,34.5c-26,8.2-31.7-10-57.7-1.8s-20.3,26.3-46.4,34.5s-31.7-10-57.7-1.8
		s-20.3,26.3-46.4,34.5c-26,8.2-31.7-10-57.7-1.8s-20.3,26.3-46.4,34.5c-26,8.2-31.7-10-57.7-1.8s-20.3,26.3-46.4,34.5
		c-26,8.2-31.7-9.9-57.7-1.8c-26,8.2-20.3,26.3-46.4,34.5c-26,8.2-31.7-10-57.7-1.8s-20.3,26.3-46.4,34.5c-26,8.2-31.7-9.9-57.7-1.8
		c-26,8.2-20.3,26.3-46.4,34.5s-31.7-10-57.7-1.8s-20.3,26.3-46.4,34.5c-26,8.2-31.7-10-57.7-1.8s-20.3,26.3-46.4,34.5
		c-26,8.2-31.7-10-57.7-1.8s-20.3,26.3-46.4,34.5c-26,8.2-31.7-10-57.7-1.8c-23.8,7.5-21.1,23.3-40.5,32.2c-1.8,0.8-3.7,1.6-5.9,2.3
		c-15.5,4.9-23.7,0.4-33.4-2.3c-6.3-1.7-13.1-2.8-22.8,0"/>
</g>
<g class="st0">
	<path class="st1" d="M2014.7,1462.3c-26,8.2-31.7-10-57.8-1.8c-26,8.2-20.3,26.3-46.4,34.5c-26,8.2-31.7-10-57.7-1.8
		s-20.3,26.3-46.4,34.5s-31.7-10-57.7-1.8s-20.3,26.3-46.4,34.5c-26,8.2-31.7-9.9-57.7-1.8c-26,8.2-20.3,26.3-46.4,34.5
		c-26,8.2-31.7-10-57.8-1.8c-26,8.2-20.3,26.3-46.4,34.5c-26,8.2-31.7-10-57.7-1.8s-20.3,26.3-46.4,34.5c-26,8.2-31.7-10-57.7-1.8
		s-20.3,26.3-46.4,34.5s-31.7-10-57.7-1.8s-20.3,26.3-46.4,34.5s-31.7-10-57.7-1.8s-20.3,26.3-46.4,34.5c-26,8.2-31.7-9.9-57.7-1.8
		c-26,8.2-20.3,26.3-46.4,34.5c-26,8.2-31.7-10-57.7-1.8s-20.3,26.3-46.4,34.5c-26,8.2-31.7-9.9-57.7-1.8
		c-26,8.2-20.3,26.3-46.4,34.5c-26,8.2-31.7-10-57.7-1.8s-20.3,26.3-46.4,34.5c-26,8.2-31.7-10-57.7-1.8s-20.3,26.3-46.4,34.5
		c-26,8.2-31.7-10-57.7-1.8s-20.3,26.3-46.4,34.5c-26,8.2-31.7-10-57.7-1.8s-20.3,26.3-46.4,34.5s-31.7-10-57.7-1.8
		c-19.6,6.2-21.2,18-32,26.9"/>
</g>
<g class="st0">
	<path class="st1" d="M2014.7,1434.8c-26,8.2-31.7-10-57.8-1.8c-26,8.2-20.3,26.3-46.4,34.5c-26,8.2-31.7-10-57.7-1.8
		s-20.3,26.3-46.4,34.5c-26,8.2-31.7-10-57.7-1.8s-20.3,26.3-46.4,34.5c-26,8.2-31.7-9.9-57.7-1.8c-26,8.2-20.3,26.3-46.4,34.5
		c-26,8.2-31.7-10-57.8-1.8c-26,8.2-20.3,26.3-46.4,34.5c-26,8.2-31.7-10-57.7-1.8s-20.3,26.3-46.4,34.5s-31.7-10-57.7-1.8
		s-20.3,26.3-46.4,34.5c-26,8.2-31.7-10-57.7-1.8s-20.3,26.3-46.4,34.5c-26,8.2-31.7-10-57.7-1.8s-20.3,26.3-46.4,34.5
		c-26,8.2-31.7-9.9-57.7-1.8c-26,8.2-20.3,26.3-46.4,34.5c-26,8.2-31.7-10-57.7-1.8s-20.3,26.3-46.4,34.5c-26,8.2-31.7-9.9-57.7-1.8
		c-26,8.2-20.3,26.3-46.4,34.5s-31.7-10-57.7-1.8s-20.3,26.3-46.4,34.5c-26,8.2-31.7-10-57.7-1.8s-20.3,26.3-46.4,34.5
		c-26,8.2-31.7-10-57.7-1.8s-20.3,26.3-46.4,34.5c-26,8.2-31.7-10-57.7-1.8s-20.3,26.3-46.4,34.5c-26,8.2-31.7-10-57.7-1.8
		s-20.3,26.3-46.4,34.5c-26,8.2-31.7-10-57.7-1.8c-16,5-20,13.8-26.7,21.7"/>
</g>
<g class="st0">
	<path class="st1" d="M2014.7,1407.4c-26,8.2-31.7-10-57.8-1.8c-26,8.2-20.3,26.3-46.4,34.5c-26,8.2-31.7-10-57.7-1.8
		s-20.3,26.3-46.4,34.5s-31.7-10-57.7-1.8s-20.3,26.3-46.4,34.5c-26,8.2-31.7-9.9-57.7-1.8s-20.3,26.3-46.4,34.5
		c-26,8.2-31.7-10-57.8-1.8c-26,8.2-20.3,26.3-46.4,34.5c-26,8.2-31.7-10-57.7-1.8s-20.3,26.3-46.4,34.5c-26,8.2-31.7-10-57.7-1.8
		s-20.3,26.3-46.4,34.5s-31.7-10-57.7-1.8s-20.3,26.3-46.4,34.5s-31.7-10-57.7-1.8s-20.3,26.3-46.4,34.5c-26,8.2-31.7-9.9-57.7-1.8
		c-26,8.2-20.3,26.3-46.4,34.5c-26,8.2-31.7-10-57.7-1.8s-20.3,26.3-46.4,34.5c-26,8.2-31.7-9.9-57.7-1.8
		c-26,8.2-20.3,26.3-46.4,34.5c-26,8.2-31.7-10-57.7-1.8s-20.3,26.3-46.4,34.5c-26,8.2-31.7-10-57.7-1.8s-20.3,26.3-46.4,34.5
		c-26,8.2-31.7-10-57.7-1.8s-20.3,26.3-46.4,34.5c-26,8.2-31.7-10-57.7-1.8s-20.3,26.3-46.4,34.5s-31.7-10-57.7-1.8
		s-20.3,26.3-46.4,34.5s-31.7-10-57.7-1.8s-20.3,26.3-46.4,34.5c-26,8.2-31.7-10-57.7-1.8c-12.4,3.9-17.6,10.1-22.5,16.4"/>
</g>
<g class="st0">
	<path class="st1" d="M2014.7,1380c-26,8.2-31.7-10-57.8-1.8c-26,8.2-20.3,26.3-46.4,34.5c-26,8.2-31.7-10-57.7-1.8
		s-20.3,26.3-46.4,34.5c-26,8.2-31.7-10-57.7-1.8s-20.3,26.3-46.4,34.5c-26,8.2-31.7-9.9-57.7-1.8c-26,8.2-20.3,26.3-46.4,34.5
		c-26,8.2-31.7-10-57.8-1.8c-26,8.2-20.3,26.3-46.4,34.5c-26,8.2-31.7-10-57.7-1.8s-20.3,26.3-46.4,34.5s-31.7-10-57.7-1.8
		s-20.3,26.3-46.4,34.5c-26,8.2-31.7-10-57.7-1.8s-20.3,26.3-46.4,34.5c-26,8.2-31.7-10-57.7-1.8s-20.3,26.3-46.4,34.5
		c-26,8.2-31.7-9.9-57.7-1.8c-26,8.2-20.3,26.3-46.4,34.5c-26,8.2-31.7-10-57.7-1.8s-20.3,26.3-46.4,34.5c-26,8.2-31.7-9.9-57.7-1.8
		c-26,8.2-20.3,26.3-46.4,34.5s-31.7-10-57.7-1.8s-20.3,26.3-46.4,34.5c-26,8.2-31.7-10-57.7-1.8s-20.3,26.3-46.4,34.5
		c-26,8.2-31.7-10-57.7-1.8s-20.3,26.3-46.4,34.5c-26,8.2-31.7-10-57.7-1.8s-20.3,26.3-46.4,34.5c-26,8.2-31.7-10-57.7-1.8
		s-20.3,26.3-46.4,34.5c-26,8.2-31.7-10-57.7-1.8s-20.3,26.3-46.4,34.5c-26,8.2-31.7-10-57.7-1.8s-20.3,26.3-46.4,34.5
		c-23.6,7.4-30.5-6.8-50.8-3.5"/>
</g>
<g class="st0">
	<path class="st1" d="M2014.7,1352.6c-26,8.2-31.7-10-57.8-1.8c-26,8.2-20.3,26.3-46.4,34.5c-26,8.2-31.7-10-57.7-1.8
		s-20.3,26.3-46.4,34.5s-31.7-10-57.7-1.8s-20.3,26.3-46.4,34.5c-26,8.2-31.7-9.9-57.7-1.8s-20.3,26.3-46.4,34.5
		c-26,8.2-31.7-10-57.8-1.8c-26,8.2-20.3,26.3-46.4,34.5c-26,8.2-31.7-10-57.7-1.8s-20.3,26.3-46.4,34.5c-26,8.2-31.7-10-57.7-1.8
		s-20.3,26.3-46.4,34.5s-31.7-10-57.7-1.8s-20.3,26.3-46.4,34.5s-31.7-10-57.7-1.8s-20.3,26.3-46.4,34.5c-26,8.2-31.7-9.9-57.7-1.8
		c-26,8.2-20.3,26.3-46.4,34.5c-26,8.2-31.7-10-57.7-1.8s-20.3,26.3-46.4,34.5c-26,8.2-31.7-9.9-57.7-1.8
		c-26,8.2-20.3,26.3-46.4,34.5c-26,8.2-31.7-10-57.7-1.8s-20.3,26.3-46.4,34.5c-26,8.2-31.7-10-57.7-1.8s-20.3,26.3-46.4,34.5
		c-26,8.2-31.7-10-57.7-1.8s-20.3,26.3-46.4,34.5c-26,8.2-31.7-10-57.7-1.8s-20.3,26.3-46.4,34.5s-31.7-10-57.7-1.8
		s-20.3,26.3-46.4,34.5s-31.7-10-57.7-1.8s-20.3,26.3-46.4,34.5c-26,8.2-31.7-10-57.7-1.8s-20.3,26.3-46.4,34.5
		c-23.6,7.4-30.5-6.8-50.8-3.5"/>
</g>
<g class="st0">
	<path class="st1" d="M2014.7,1325.2c-26,8.2-31.7-10-57.8-1.8c-26,8.2-20.3,26.3-46.4,34.5c-26,8.2-31.7-10-57.7-1.8
		s-20.3,26.3-46.4,34.5c-26,8.2-31.7-10-57.7-1.8s-20.3,26.3-46.4,34.5c-26,8.2-31.7-9.9-57.7-1.8c-26,8.2-20.3,26.3-46.4,34.5
		c-26,8.2-31.7-10-57.8-1.8c-26,8.2-20.3,26.3-46.4,34.5c-26,8.2-31.7-10-57.7-1.8s-20.3,26.3-46.4,34.5s-31.7-10-57.7-1.8
		s-20.3,26.3-46.4,34.5c-26,8.2-31.7-10-57.7-1.8s-20.3,26.3-46.4,34.5c-26,8.2-31.7-10-57.7-1.8s-20.3,26.3-46.4,34.5
		c-26,8.2-31.7-9.9-57.7-1.8c-26,8.2-20.3,26.3-46.4,34.5c-26,8.2-31.7-10-57.7-1.8s-20.3,26.3-46.4,34.5c-26,8.2-31.7-9.9-57.7-1.8
		c-26,8.2-20.3,26.3-46.4,34.5s-31.7-10-57.7-1.8s-20.3,26.3-46.4,34.5c-26,8.2-31.7-10-57.7-1.8s-20.3,26.3-46.4,34.5
		c-26,8.2-31.7-10-57.7-1.8s-20.3,26.3-46.4,34.5c-26,8.2-31.7-10-57.7-1.8s-20.3,26.3-46.4,34.5c-26,8.2-31.7-10-57.7-1.8
		s-20.3,26.3-46.4,34.5c-26,8.2-31.7-10-57.7-1.8s-20.3,26.3-46.4,34.5c-26,8.2-31.7-10-57.7-1.8s-20.3,26.3-46.4,34.5
		c-23.6,7.4-30.5-6.8-50.8-3.5"/>
</g>
<g class="st0">
	<path class="st1" d="M2014.7,1297.8c-26,8.2-31.7-10-57.8-1.8c-26,8.2-20.3,26.3-46.4,34.5c-26,8.2-31.7-10-57.7-1.8
		s-20.3,26.3-46.4,34.5s-31.7-10-57.7-1.8s-20.3,26.3-46.4,34.5c-26,8.2-31.7-9.9-57.7-1.8s-20.3,26.3-46.4,34.5
		c-26,8.2-31.7-10-57.8-1.8c-26,8.2-20.3,26.3-46.4,34.5c-26,8.2-31.7-10-57.7-1.8s-20.3,26.3-46.4,34.5c-26,8.2-31.7-10-57.7-1.8
		s-20.3,26.3-46.4,34.5s-31.7-10-57.7-1.8s-20.3,26.3-46.4,34.5s-31.7-10-57.7-1.8s-20.3,26.3-46.4,34.5c-26,8.2-31.7-9.9-57.7-1.8
		c-26,8.2-20.3,26.3-46.4,34.5c-26,8.2-31.7-10-57.7-1.8s-20.3,26.3-46.4,34.5c-26,8.2-31.7-9.9-57.7-1.8
		c-26,8.2-20.3,26.3-46.4,34.5c-26,8.2-31.7-10-57.7-1.8s-20.3,26.3-46.4,34.5c-26,8.2-31.7-10-57.7-1.8s-20.3,26.3-46.4,34.5
		c-26,8.2-31.7-10-57.7-1.8s-20.3,26.3-46.4,34.5c-26,8.2-31.7-10-57.7-1.8s-20.3,26.3-46.4,34.5s-31.7-10-57.7-1.8
		s-20.3,26.3-46.4,34.5s-31.7-10-57.7-1.8s-20.3,26.3-46.4,34.5c-26,8.2-31.7-10-57.7-1.8s-20.3,26.3-46.4,34.5
		c-23.6,7.4-30.5-6.8-50.8-3.5"/>
</g>
<g class="st0">
	<path class="st1" d="M2014.7,1270.4c-26,8.2-31.7-10-57.8-1.8c-26,8.2-20.3,26.3-46.4,34.5c-26,8.2-31.7-10-57.7-1.8
		s-20.3,26.3-46.4,34.5c-26,8.2-31.7-10-57.7-1.8s-20.3,26.3-46.4,34.5c-26,8.2-31.7-9.9-57.7-1.8c-26,8.2-20.3,26.3-46.4,34.5
		c-26,8.2-31.7-10-57.8-1.8c-26,8.2-20.3,26.3-46.4,34.5c-26,8.2-31.7-10-57.7-1.8s-20.3,26.3-46.4,34.5s-31.7-10-57.7-1.8
		s-20.3,26.3-46.4,34.5c-26,8.2-31.7-10-57.7-1.8s-20.3,26.3-46.4,34.5c-26,8.2-31.7-10-57.7-1.8s-20.3,26.3-46.4,34.5
		c-26,8.2-31.7-9.9-57.7-1.8c-26,8.2-20.3,26.3-46.4,34.5c-26,8.2-31.7-10-57.7-1.8s-20.3,26.3-46.4,34.5c-26,8.2-31.7-9.9-57.7-1.8
		c-26,8.2-20.3,26.3-46.4,34.5s-31.7-10-57.7-1.8s-20.3,26.3-46.4,34.5c-26,8.2-31.7-10-57.7-1.8s-20.3,26.3-46.4,34.5
		c-26,8.2-31.7-10-57.7-1.8s-20.3,26.3-46.4,34.5c-26,8.2-31.7-10-57.7-1.8s-20.3,26.3-46.4,34.5c-26,8.2-31.7-10-57.7-1.8
		s-20.3,26.3-46.4,34.5c-26,8.2-31.7-10-57.7-1.8s-20.3,26.3-46.4,34.5c-26,8.2-31.7-10-57.7-1.8s-20.3,26.3-46.4,34.5
		c-23.6,7.4-30.5-6.8-50.8-3.5"/>
</g>
<g class="st0">
	<path class="st1" d="M2014.7,1243c-26,8.2-31.7-10-57.8-1.8c-26,8.2-20.3,26.3-46.4,34.5c-26,8.2-31.7-10-57.7-1.8
		s-20.3,26.3-46.4,34.5s-31.7-10-57.7-1.8s-20.3,26.3-46.4,34.5c-26,8.2-31.7-9.9-57.7-1.8s-20.3,26.3-46.4,34.5
		c-26,8.2-31.7-10-57.8-1.8c-26,8.2-20.3,26.3-46.4,34.5c-26,8.2-31.7-10-57.7-1.8s-20.3,26.3-46.4,34.5c-26,8.2-31.7-10-57.7-1.8
		s-20.3,26.3-46.4,34.5s-31.7-10-57.7-1.8s-20.3,26.3-46.4,34.5s-31.7-10-57.7-1.8s-20.3,26.3-46.4,34.5c-26,8.2-31.7-9.9-57.7-1.8
		c-26,8.2-20.3,26.3-46.4,34.5c-26,8.2-31.7-10-57.7-1.8s-20.3,26.3-46.4,34.5c-26,8.2-31.7-9.9-57.7-1.8
		c-26,8.2-20.3,26.3-46.4,34.5c-26,8.2-31.7-10-57.7-1.8s-20.3,26.3-46.4,34.5c-26,8.2-31.7-10-57.7-1.8s-20.3,26.3-46.4,34.5
		c-26,8.2-31.7-10-57.7-1.8s-20.3,26.3-46.4,34.5c-26,8.2-31.7-10-57.7-1.8s-20.3,26.3-46.4,34.5s-31.7-10-57.7-1.8
		s-20.3,26.3-46.4,34.5s-31.7-10-57.7-1.8s-20.3,26.3-46.4,34.5c-26,8.2-31.7-10-57.7-1.8s-20.3,26.3-46.4,34.5
		c-23.6,7.4-30.5-6.8-50.8-3.5"/>
</g>
<g class="st0">
	<path class="st1" d="M2014.7,1215.6c-26,8.2-31.7-10-57.8-1.8c-26,8.2-20.3,26.3-46.4,34.5c-26,8.2-31.7-10-57.7-1.8
		s-20.3,26.3-46.4,34.5c-26,8.2-31.7-10-57.7-1.8s-20.3,26.3-46.4,34.5c-26,8.2-31.7-9.9-57.7-1.8c-26,8.2-20.3,26.3-46.4,34.5
		c-26,8.2-31.7-10-57.8-1.8c-26,8.2-20.3,26.3-46.4,34.5c-26,8.2-31.7-10-57.7-1.8s-20.3,26.3-46.4,34.5c-26,8.2-31.7-10-57.7-1.8
		s-20.3,26.3-46.4,34.5c-26,8.2-31.7-10-57.7-1.8s-20.3,26.3-46.4,34.5c-26,8.2-31.7-10-57.7-1.8s-20.3,26.3-46.4,34.5
		c-26,8.2-31.7-9.9-57.7-1.8c-26,8.2-20.3,26.3-46.4,34.5c-26,8.2-31.7-10-57.7-1.8s-20.3,26.3-46.4,34.5c-26,8.2-31.7-9.9-57.7-1.8
		c-26,8.2-20.3,26.3-46.4,34.5s-31.7-10-57.7-1.8s-20.3,26.3-46.4,34.5c-26,8.2-31.7-10-57.7-1.8s-20.3,26.3-46.4,34.5
		c-26,8.2-31.7-10-57.7-1.8s-20.3,26.3-46.4,34.5c-26,8.2-31.7-10-57.7-1.8s-20.3,26.3-46.4,34.5c-26,8.2-31.7-10-57.7-1.8
		s-20.3,26.3-46.4,34.5c-26,8.2-31.7-10-57.7-1.8s-20.3,26.3-46.4,34.5c-26,8.2-31.7-10-57.7-1.8s-20.3,26.3-46.4,34.5
		c-23.6,7.4-30.5-6.8-50.8-3.5"/>
</g>
<g class="st0">
	<path class="st1" d="M2014.7,1188.2c-26,8.2-31.7-10-57.8-1.8c-26,8.2-20.3,26.3-46.4,34.5c-26,8.2-31.7-10-57.7-1.8
		s-20.3,26.3-46.4,34.5s-31.7-10-57.7-1.8s-20.3,26.3-46.4,34.5c-26,8.2-31.7-9.9-57.7-1.8s-20.3,26.3-46.4,34.5
		c-26,8.2-31.7-10-57.8-1.8c-26,8.2-20.3,26.3-46.4,34.5c-26,8.2-31.7-10-57.7-1.8s-20.3,26.3-46.4,34.5c-26,8.2-31.7-10-57.7-1.8
		s-20.3,26.3-46.4,34.5s-31.7-10-57.7-1.8s-20.3,26.3-46.4,34.5s-31.7-10-57.7-1.8s-20.3,26.3-46.4,34.5c-26,8.2-31.7-9.9-57.7-1.8
		c-26,8.2-20.3,26.3-46.4,34.5c-26,8.2-31.7-10-57.7-1.8s-20.3,26.3-46.4,34.5c-26,8.2-31.7-9.9-57.7-1.8
		c-26,8.2-20.3,26.3-46.4,34.5c-26,8.2-31.7-10-57.7-1.8s-20.3,26.3-46.4,34.5c-26,8.2-31.7-10-57.7-1.8s-20.3,26.3-46.4,34.5
		c-26,8.2-31.7-10-57.7-1.8s-20.3,26.3-46.4,34.5c-26,8.2-31.7-10-57.7-1.8s-20.3,26.3-46.4,34.5s-31.7-10-57.7-1.8
		s-20.3,26.3-46.4,34.5s-31.7-10-57.7-1.8s-20.3,26.3-46.4,34.5c-26,8.2-31.7-10-57.7-1.8s-20.3,26.3-46.4,34.5
		c-23.6,7.4-30.5-6.8-50.8-3.5"/>
</g>
<g class="st0">
	<path class="st1" d="M2014.7,1160.8c-26,8.2-31.7-10-57.8-1.8c-26,8.2-20.3,26.3-46.4,34.5c-26,8.2-31.7-10-57.7-1.8
		s-20.3,26.3-46.4,34.5c-26,8.2-31.7-10-57.7-1.8s-20.3,26.3-46.4,34.5c-26,8.2-31.7-9.9-57.7-1.8c-26,8.2-20.3,26.3-46.4,34.5
		c-26,8.2-31.7-10-57.8-1.8c-26,8.2-20.3,26.3-46.4,34.5c-26,8.2-31.7-10-57.7-1.8s-20.3,26.3-46.4,34.5c-26,8.2-31.7-10-57.7-1.8
		s-20.3,26.3-46.4,34.5c-26,8.2-31.7-10-57.7-1.8s-20.3,26.3-46.4,34.5c-26,8.2-31.7-10-57.7-1.8s-20.3,26.3-46.4,34.5
		c-26,8.2-31.7-9.9-57.7-1.8c-26,8.2-20.3,26.3-46.4,34.5c-26,8.2-31.7-10-57.7-1.8s-20.3,26.3-46.4,34.5c-26,8.2-31.7-9.9-57.7-1.8
		c-26,8.2-20.3,26.3-46.4,34.5s-31.7-10-57.7-1.8s-20.3,26.3-46.4,34.5c-26,8.2-31.7-10-57.7-1.8s-20.3,26.3-46.4,34.5
		c-26,8.2-31.7-10-57.7-1.8s-20.3,26.3-46.4,34.5c-26,8.2-31.7-10-57.7-1.8s-20.3,26.3-46.4,34.5c-26,8.2-31.7-10-57.7-1.8
		s-20.3,26.3-46.4,34.5c-26,8.2-31.7-10-57.7-1.8s-20.3,26.3-46.4,34.5c-26,8.2-31.7-10-57.7-1.8s-20.3,26.3-46.4,34.5
		c-23.6,7.4-30.5-6.8-50.8-3.5"/>
</g>
<g class="st0">
	<path class="st1" d="M2014.7,1133.4c-26,8.2-31.7-10-57.8-1.8c-26,8.2-20.3,26.3-46.4,34.5c-26,8.2-31.7-10-57.7-1.8
		s-20.3,26.3-46.4,34.5c-26,8.2-31.7-10-57.7-1.8s-20.3,26.3-46.4,34.5c-26,8.2-31.7-9.9-57.7-1.8s-20.3,26.3-46.4,34.5
		c-26,8.2-31.7-10-57.8-1.8c-26,8.2-20.3,26.3-46.4,34.5c-26,8.2-31.7-10-57.7-1.8s-20.3,26.3-46.4,34.5s-31.7-10-57.7-1.8
		s-20.3,26.3-46.4,34.5s-31.7-10-57.7-1.8s-20.3,26.3-46.4,34.5s-31.7-10-57.7-1.8s-20.3,26.3-46.4,34.5c-26,8.2-31.7-9.9-57.7-1.8
		c-26,8.2-20.3,26.3-46.4,34.5c-26,8.2-31.7-10-57.7-1.8s-20.3,26.3-46.4,34.5c-26,8.2-31.7-9.9-57.7-1.8
		c-26,8.2-20.3,26.3-46.4,34.5c-26,8.2-31.7-10-57.7-1.8s-20.3,26.3-46.4,34.5c-26,8.2-31.7-10-57.7-1.8s-20.3,26.3-46.4,34.5
		c-26,8.2-31.7-10-57.7-1.8s-20.3,26.3-46.4,34.5c-26,8.2-31.7-10-57.7-1.8s-20.3,26.3-46.4,34.5s-31.7-10-57.7-1.8
		s-20.3,26.3-46.4,34.5s-31.7-10-57.7-1.8s-20.3,26.3-46.4,34.5c-26,8.2-31.7-10-57.7-1.8s-20.3,26.3-46.4,34.5
		c-23.6,7.4-30.5-6.8-50.8-3.5"/>
</g>
<g class="st0">
	<path class="st1" d="M2014.7,1106c-26,8.2-31.7-10-57.8-1.8c-26,8.2-20.3,26.3-46.4,34.5c-26,8.2-31.7-10-57.7-1.8
		s-20.3,26.3-46.4,34.5c-26,8.2-31.7-10-57.7-1.8s-20.3,26.3-46.4,34.5c-26,8.2-31.7-9.9-57.7-1.8c-26,8.2-20.3,26.3-46.4,34.5
		c-26,8.2-31.7-10-57.8-1.8c-26,8.2-20.3,26.3-46.4,34.5c-26,8.2-31.7-10-57.7-1.8s-20.3,26.3-46.4,34.5c-26,8.2-31.7-10-57.7-1.8
		s-20.3,26.3-46.4,34.5c-26,8.2-31.7-10-57.7-1.8s-20.3,26.3-46.4,34.5c-26,8.2-31.7-10-57.7-1.8s-20.3,26.3-46.4,34.5
		c-26,8.2-31.7-9.9-57.7-1.8c-26,8.2-20.3,26.3-46.4,34.5c-26,8.2-31.7-10-57.7-1.8s-20.3,26.3-46.4,34.5c-26,8.2-31.7-9.9-57.7-1.8
		c-26,8.2-20.3,26.3-46.4,34.5s-31.7-10-57.7-1.8s-20.3,26.3-46.4,34.5c-26,8.2-31.7-10-57.7-1.8s-20.3,26.3-46.4,34.5
		c-26,8.2-31.7-10-57.7-1.8s-20.3,26.3-46.4,34.5c-26,8.2-31.7-10-57.7-1.8s-20.3,26.3-46.4,34.5c-26,8.2-31.7-10-57.7-1.8
		s-20.3,26.3-46.4,34.5c-26,8.2-31.7-10-57.7-1.8s-20.3,26.3-46.4,34.5c-26,8.2-31.7-10-57.7-1.8s-20.3,26.3-46.4,34.5
		c-23.6,7.4-30.5-6.8-50.8-3.5"/>
</g>
<g class="st0">
	<path class="st1" d="M2014.7,1078.5c-26,8.2-31.7-10-57.8-1.8c-26,8.2-20.3,26.3-46.4,34.5c-26,8.2-31.7-10-57.7-1.8
		s-20.3,26.3-46.4,34.5c-26,8.2-31.7-10-57.7-1.8s-20.3,26.3-46.4,34.5c-26,8.2-31.7-9.9-57.7-1.8s-20.3,26.3-46.4,34.5
		c-26,8.2-31.7-10-57.8-1.8c-26,8.2-20.3,26.3-46.4,34.5c-26,8.2-31.7-10-57.7-1.8s-20.3,26.3-46.4,34.5s-31.7-10-57.7-1.8
		s-20.3,26.3-46.4,34.5s-31.7-10-57.7-1.8s-20.3,26.3-46.4,34.5s-31.7-10-57.7-1.8s-20.3,26.3-46.4,34.5c-26,8.2-31.7-9.9-57.7-1.8
		c-26,8.2-20.3,26.3-46.4,34.5c-26,8.2-31.7-10-57.7-1.8s-20.3,26.3-46.4,34.5c-26,8.2-31.7-9.9-57.7-1.8
		c-26,8.2-20.3,26.3-46.4,34.5c-26,8.2-31.7-10-57.7-1.8s-20.3,26.3-46.4,34.5c-26,8.2-31.7-10-57.7-1.8s-20.3,26.3-46.4,34.5
		c-26,8.2-31.7-10-57.7-1.8s-20.3,26.3-46.4,34.5c-26,8.2-31.7-10-57.7-1.8s-20.3,26.3-46.4,34.5s-31.7-10-57.7-1.8
		s-20.3,26.3-46.4,34.5s-31.7-10-57.7-1.8s-20.3,26.3-46.4,34.5c-26,8.2-31.7-10-57.7-1.8s-20.3,26.3-46.4,34.5
		c-23.6,7.4-30.5-6.8-50.8-3.5"/>
</g>
<g class="st0">
	<path class="st1" d="M2014.7,1051.1c-26,8.2-31.7-10-57.8-1.8c-26,8.2-20.3,26.3-46.4,34.5c-26,8.2-31.7-10-57.7-1.8
		s-20.3,26.3-46.4,34.5s-31.7-10-57.7-1.8s-20.3,26.3-46.4,34.5c-26,8.2-31.7-9.9-57.7-1.8c-26,8.2-20.3,26.3-46.4,34.5
		c-26,8.2-31.7-10-57.8-1.8c-26,8.2-20.3,26.3-46.4,34.5c-26,8.2-31.7-10-57.7-1.8s-20.3,26.3-46.4,34.5c-26,8.2-31.7-10-57.7-1.8
		s-20.3,26.3-46.4,34.5c-26,8.2-31.7-10-57.7-1.8s-20.3,26.3-46.4,34.5c-26,8.2-31.7-10-57.7-1.8s-20.3,26.3-46.4,34.5
		c-26,8.2-31.7-9.9-57.7-1.8c-26,8.2-20.3,26.3-46.4,34.5c-26,8.2-31.7-10-57.7-1.8s-20.3,26.3-46.4,34.5c-26,8.2-31.7-9.9-57.7-1.8
		c-26,8.2-20.3,26.3-46.4,34.5s-31.7-10-57.7-1.8s-20.3,26.3-46.4,34.5c-26,8.2-31.7-10-57.7-1.8s-20.3,26.3-46.4,34.5
		c-26,8.2-31.7-10-57.7-1.8s-20.3,26.3-46.4,34.5c-26,8.2-31.7-10-57.7-1.8s-20.3,26.3-46.4,34.5c-26,8.2-31.7-10-57.7-1.8
		s-20.3,26.3-46.4,34.5c-26,8.2-31.7-10-57.7-1.8s-20.3,26.3-46.4,34.5c-26,8.2-31.7-10-57.7-1.8s-20.3,26.3-46.4,34.5
		c-23.6,7.4-30.5-6.8-50.8-3.5"/>
</g>
<g class="st0">
	<path class="st1" d="M2014.7,1023.7c-26,8.2-31.7-10-57.8-1.8c-26,8.2-20.3,26.3-46.4,34.5c-26,8.2-31.7-10-57.7-1.8
		s-20.3,26.3-46.4,34.5c-26,8.2-31.7-10-57.7-1.8s-20.3,26.3-46.4,34.5c-26,8.2-31.7-9.9-57.7-1.8s-20.3,26.3-46.4,34.5
		c-26,8.2-31.7-10-57.8-1.8c-26,8.2-20.3,26.3-46.4,34.5c-26,8.2-31.7-10-57.7-1.8s-20.3,26.3-46.4,34.5s-31.7-10-57.7-1.8
		s-20.3,26.3-46.4,34.5s-31.7-10-57.7-1.8s-20.3,26.3-46.4,34.5s-31.7-10-57.7-1.8s-20.3,26.3-46.4,34.5c-26,8.2-31.7-9.9-57.7-1.8
		c-26,8.2-20.3,26.3-46.4,34.5c-26,8.2-31.7-10-57.7-1.8s-20.3,26.3-46.4,34.5c-26,8.2-31.7-9.9-57.7-1.8
		c-26,8.2-20.3,26.3-46.4,34.5c-26,8.2-31.7-10-57.7-1.8s-20.3,26.3-46.4,34.5c-26,8.2-31.7-10-57.7-1.8s-20.3,26.3-46.4,34.5
		c-26,8.2-31.7-10-57.7-1.8s-20.3,26.3-46.4,34.5c-26,8.2-31.7-10-57.7-1.8s-20.3,26.3-46.4,34.5s-31.7-10-57.7-1.8
		s-20.3,26.3-46.4,34.5s-31.7-10-57.7-1.8s-20.3,26.3-46.4,34.5c-26,8.2-31.7-10-57.7-1.8s-20.3,26.3-46.4,34.5
		c-23.6,7.4-30.5-6.8-50.8-3.5"/>
</g>
<g class="st0">
	<path class="st1" d="M2014.7,996.3c-26,8.2-31.7-10-57.8-1.8c-26,8.2-20.3,26.3-46.4,34.5c-26,8.2-31.7-10-57.7-1.8
		s-20.3,26.3-46.4,34.5s-31.7-10-57.7-1.8s-20.3,26.3-46.4,34.5c-26,8.2-31.7-9.9-57.7-1.8c-26,8.2-20.3,26.3-46.4,34.5
		c-26,8.2-31.7-10-57.8-1.8c-26,8.2-20.3,26.3-46.4,34.5c-26,8.2-31.7-10-57.7-1.8s-20.3,26.3-46.4,34.5c-26,8.2-31.7-10-57.7-1.8
		s-20.3,26.3-46.4,34.5c-26,8.2-31.7-10-57.7-1.8s-20.3,26.3-46.4,34.5c-26,8.2-31.7-10-57.7-1.8s-20.3,26.3-46.4,34.5
		c-26,8.2-31.7-9.9-57.7-1.8c-26,8.2-20.3,26.3-46.4,34.5c-26,8.2-31.7-10-57.7-1.8s-20.3,26.3-46.4,34.5c-26,8.2-31.7-9.9-57.7-1.8
		c-26,8.2-20.3,26.3-46.4,34.5s-31.7-10-57.7-1.8s-20.3,26.3-46.4,34.5c-26,8.2-31.7-10-57.7-1.8s-20.3,26.3-46.4,34.5
		c-26,8.2-31.7-10-57.7-1.8s-20.3,26.3-46.4,34.5c-26,8.2-31.7-10-57.7-1.8s-20.3,26.3-46.4,34.5c-26,8.2-31.7-10-57.7-1.8
		s-20.3,26.3-46.4,34.5c-26,8.2-31.7-10-57.7-1.8s-20.3,26.3-46.4,34.5c-26,8.2-31.7-10-57.7-1.8s-20.3,26.3-46.4,34.5
		c-23.6,7.4-30.5-6.8-50.8-3.5"/>
</g>
<g class="st0">
	<path class="st1" d="M2014.7,968.9c-26,8.2-31.7-10-57.8-1.8c-26,8.2-20.3,26.3-46.4,34.5c-26,8.2-31.7-10-57.7-1.8
		s-20.3,26.3-46.4,34.5c-26,8.2-31.7-10-57.7-1.8s-20.3,26.3-46.4,34.5c-26,8.2-31.7-9.9-57.7-1.8s-20.3,26.3-46.4,34.5
		c-26,8.2-31.7-10-57.8-1.8c-26,8.2-20.3,26.3-46.4,34.5c-26,8.2-31.7-10-57.7-1.8s-20.3,26.3-46.4,34.5s-31.7-10-57.7-1.8
		s-20.3,26.3-46.4,34.5s-31.7-10-57.7-1.8s-20.3,26.3-46.4,34.5s-31.7-10-57.7-1.8s-20.3,26.3-46.4,34.5c-26,8.2-31.7-9.9-57.7-1.8
		c-26,8.2-20.3,26.3-46.4,34.5c-26,8.2-31.7-10-57.7-1.8s-20.3,26.3-46.4,34.5c-26,8.2-31.7-9.9-57.7-1.8
		c-26,8.2-20.3,26.3-46.4,34.5c-26,8.2-31.7-10-57.7-1.8s-20.3,26.3-46.4,34.5c-26,8.2-31.7-10-57.7-1.8s-20.3,26.3-46.4,34.5
		c-26,8.2-31.7-10-57.7-1.8s-20.3,26.3-46.4,34.5c-26,8.2-31.7-10-57.7-1.8s-20.3,26.3-46.4,34.5s-31.7-10-57.7-1.8
		s-20.3,26.3-46.4,34.5s-31.7-10-57.7-1.8s-20.3,26.3-46.4,34.5c-26,8.2-31.7-10-57.7-1.8s-20.3,26.3-46.4,34.5
		c-23.6,7.4-30.5-6.8-50.8-3.5"/>
</g>
<g class="st0">
	<path class="st1" d="M2014.7,941.5c-26,8.2-31.7-10-57.8-1.8c-26,8.2-20.3,26.3-46.4,34.5c-26,8.2-31.7-10-57.7-1.8
		s-20.3,26.3-46.4,34.5c-26,8.2-31.7-10-57.7-1.8s-20.3,26.3-46.4,34.5c-26,8.2-31.7-9.9-57.7-1.8c-26,8.2-20.3,26.3-46.4,34.5
		c-26,8.2-31.7-10-57.8-1.8c-26,8.2-20.3,26.3-46.4,34.5c-26,8.2-31.7-10-57.7-1.8s-20.3,26.3-46.4,34.5c-26,8.2-31.7-10-57.7-1.8
		s-20.3,26.3-46.4,34.5c-26,8.2-31.7-10-57.7-1.8s-20.3,26.3-46.4,34.5c-26,8.2-31.7-10-57.7-1.8s-20.3,26.3-46.4,34.5
		c-26,8.2-31.7-9.9-57.7-1.8c-26,8.2-20.3,26.3-46.4,34.5c-26,8.2-31.7-10-57.7-1.8s-20.3,26.3-46.4,34.5c-26,8.2-31.7-9.9-57.7-1.8
		c-26,8.2-20.3,26.3-46.4,34.5s-31.7-10-57.7-1.8s-20.3,26.3-46.4,34.5c-26,8.2-31.7-10-57.7-1.8s-20.3,26.3-46.4,34.5
		c-26,8.2-31.7-10-57.7-1.8s-20.3,26.3-46.4,34.5c-26,8.2-31.7-10-57.7-1.8s-20.3,26.3-46.4,34.5c-26,8.2-31.7-10-57.7-1.8
		s-20.3,26.3-46.4,34.5c-26,8.2-31.7-10-57.7-1.8s-20.3,26.3-46.4,34.5c-26,8.2-31.7-10-57.7-1.8s-20.3,26.3-46.4,34.5
		c-23.6,7.4-30.5-6.8-50.8-3.5"/>
</g>
<g class="st0">
	<path class="st1" d="M2014.7,914.1c-26,8.2-31.7-10-57.8-1.8c-26,8.2-20.3,26.3-46.4,34.5c-26,8.2-31.7-10-57.7-1.8
		s-20.3,26.3-46.4,34.5c-26,8.2-31.7-10-57.7-1.8s-20.3,26.3-46.4,34.5c-26,8.2-31.7-9.9-57.7-1.8c-26,8.2-20.3,26.3-46.4,34.5
		c-26,8.2-31.7-10-57.8-1.8c-26,8.2-20.3,26.3-46.4,34.5c-26,8.2-31.7-10-57.7-1.8s-20.3,26.3-46.4,34.5s-31.7-10-57.7-1.8
		s-20.3,26.3-46.4,34.5s-31.7-10-57.7-1.8s-20.3,26.3-46.4,34.5s-31.7-10-57.7-1.8s-20.3,26.3-46.4,34.5c-26,8.2-31.7-9.9-57.7-1.8
		c-26,8.2-20.3,26.3-46.4,34.5c-26,8.2-31.7-10-57.7-1.8s-20.3,26.3-46.4,34.5c-26,8.2-31.7-9.9-57.7-1.8
		c-26,8.2-20.3,26.3-46.4,34.5c-26,8.2-31.7-10-57.7-1.8s-20.3,26.3-46.4,34.5c-26,8.2-31.7-10-57.7-1.8s-20.3,26.3-46.4,34.5
		c-26,8.2-31.7-10-57.7-1.8s-20.3,26.3-46.4,34.5c-26,8.2-31.7-10-57.7-1.8s-20.3,26.3-46.4,34.5s-31.7-10-57.7-1.8
		s-20.3,26.3-46.4,34.5s-31.7-10-57.7-1.8s-20.3,26.3-46.4,34.5c-26,8.2-31.7-10-57.7-1.8s-20.3,26.3-46.4,34.5
		c-23.6,7.4-30.5-6.8-50.8-3.5"/>
</g>
<g class="st0">
	<path class="st1" d="M2014.7,886.7c-26,8.2-31.7-10-57.8-1.8c-26,8.2-20.3,26.3-46.4,34.5c-26,8.2-31.7-10-57.7-1.8
		s-20.3,26.3-46.4,34.5c-26,8.2-31.7-10-57.7-1.8s-20.3,26.3-46.4,34.5c-26,8.2-31.7-9.9-57.7-1.8c-26,8.2-20.3,26.3-46.4,34.5
		c-26,8.2-31.7-10-57.8-1.8c-26,8.2-20.3,26.3-46.4,34.5c-26,8.2-31.7-10-57.7-1.8s-20.3,26.3-46.4,34.5c-26,8.2-31.7-10-57.7-1.8
		s-20.3,26.3-46.4,34.5c-26,8.2-31.7-10-57.7-1.8s-20.3,26.3-46.4,34.5c-26,8.2-31.7-10-57.7-1.8s-20.3,26.3-46.4,34.5
		c-26,8.2-31.7-9.9-57.7-1.8c-26,8.2-20.3,26.3-46.4,34.5c-26,8.2-31.7-10-57.7-1.8s-20.3,26.3-46.4,34.5c-26,8.2-31.7-9.9-57.7-1.8
		c-26,8.2-20.3,26.3-46.4,34.5s-31.7-10-57.7-1.8s-20.3,26.3-46.4,34.5c-26,8.2-31.7-10-57.7-1.8s-20.3,26.3-46.4,34.5
		c-26,8.2-31.7-10-57.7-1.8s-20.3,26.3-46.4,34.5c-26,8.2-31.7-10-57.7-1.8s-20.3,26.3-46.4,34.5c-26,8.2-31.7-10-57.7-1.8
		s-20.3,26.3-46.4,34.5c-26,8.2-31.7-10-57.7-1.8s-20.3,26.3-46.4,34.5c-26,8.2-31.7-10-57.7-1.8s-20.3,26.3-46.4,34.5
		c-23.6,7.4-30.5-6.8-50.8-3.5"/>
</g>
<g class="st0">
	<path class="st1" d="M2014.7,859.3c-26,8.2-31.7-10-57.8-1.8c-26,8.2-20.3,26.3-46.4,34.5c-26,8.2-31.7-10-57.7-1.8
		s-20.3,26.3-46.4,34.5c-26,8.2-31.7-10-57.7-1.8s-20.3,26.3-46.4,34.5c-26,8.2-31.7-9.9-57.7-1.8c-26,8.2-20.3,26.3-46.4,34.5
		c-26,8.2-31.7-10-57.8-1.8c-26,8.2-20.3,26.3-46.4,34.5c-26,8.2-31.7-10-57.7-1.8s-20.3,26.3-46.4,34.5s-31.7-10-57.7-1.8
		s-20.3,26.3-46.4,34.5s-31.7-10-57.7-1.8s-20.3,26.3-46.4,34.5s-31.7-10-57.7-1.8s-20.3,26.3-46.4,34.5c-26,8.2-31.7-9.9-57.7-1.8
		c-26,8.2-20.3,26.3-46.4,34.5c-26,8.2-31.7-10-57.7-1.8s-20.3,26.3-46.4,34.5c-26,8.2-31.7-9.9-57.7-1.8
		c-26,8.2-20.3,26.3-46.4,34.5c-26,8.2-31.7-10-57.7-1.8s-20.3,26.3-46.4,34.5c-26,8.2-31.7-10-57.7-1.8s-20.3,26.3-46.4,34.5
		c-26,8.2-31.7-10-57.7-1.8s-20.3,26.3-46.4,34.5c-26,8.2-31.7-10-57.7-1.8s-20.3,26.3-46.4,34.5s-31.7-10-57.7-1.8
		s-20.3,26.3-46.4,34.5s-31.7-10-57.7-1.8s-20.3,26.3-46.4,34.5c-26,8.2-31.7-10-57.7-1.8s-20.3,26.3-46.4,34.5
		c-23.6,7.4-30.5-6.8-50.8-3.5"/>
</g>
<g class="st0">
	<path class="st1" d="M2014.7,831.9c-26,8.2-31.7-10-57.8-1.8c-26,8.2-20.3,26.3-46.4,34.5c-26,8.2-31.7-10-57.7-1.8
		s-20.3,26.3-46.4,34.5c-26,8.2-31.7-10-57.7-1.8s-20.3,26.3-46.4,34.5c-26,8.2-31.7-9.9-57.7-1.8c-26,8.2-20.3,26.3-46.4,34.5
		c-26,8.2-31.7-10-57.8-1.8c-26,8.2-20.3,26.3-46.4,34.5c-26,8.2-31.7-10-57.7-1.8s-20.3,26.3-46.4,34.5c-26,8.2-31.7-10-57.7-1.8
		s-20.3,26.3-46.4,34.5c-26,8.2-31.7-10-57.7-1.8s-20.3,26.3-46.4,34.5c-26,8.2-31.7-10-57.7-1.8s-20.3,26.3-46.4,34.5
		c-26,8.2-31.7-9.9-57.7-1.8c-26,8.2-20.3,26.3-46.4,34.5c-26,8.2-31.7-10-57.7-1.8s-20.3,26.3-46.4,34.5c-26,8.2-31.7-9.9-57.7-1.8
		c-26,8.2-20.3,26.3-46.4,34.5s-31.7-10-57.7-1.8s-20.3,26.3-46.4,34.5c-26,8.2-31.7-10-57.7-1.8s-20.3,26.3-46.4,34.5
		c-26,8.2-31.7-10-57.7-1.8s-20.3,26.3-46.4,34.5c-26,8.2-31.7-10-57.7-1.8s-20.3,26.3-46.4,34.5c-26,8.2-31.7-10-57.7-1.8
		s-20.3,26.3-46.4,34.5c-26,8.2-31.7-10-57.7-1.8s-20.3,26.3-46.4,34.5c-26,8.2-31.7-10-57.7-1.8s-20.3,26.3-46.4,34.5
		c-23.6,7.4-30.5-6.8-50.8-3.5"/>
</g>
<g class="st0">
	<path class="st1" d="M2014.7,804.5c-26,8.2-31.7-10-57.8-1.8c-26,8.2-20.3,26.3-46.4,34.5c-26,8.2-31.7-10-57.7-1.8
		s-20.3,26.3-46.4,34.5c-26,8.2-31.7-10-57.7-1.8s-20.3,26.3-46.4,34.5c-26,8.2-31.7-9.9-57.7-1.8c-26,8.2-20.3,26.3-46.4,34.5
		c-26,8.2-31.7-10-57.8-1.8c-26,8.2-20.3,26.3-46.4,34.5c-26,8.2-31.7-10-57.7-1.8s-20.3,26.3-46.4,34.5c-26,8.2-31.7-10-57.7-1.8
		s-20.3,26.3-46.4,34.5s-31.7-10-57.7-1.8s-20.3,26.3-46.4,34.5s-31.7-10-57.7-1.8s-20.3,26.3-46.4,34.5c-26,8.2-31.7-9.9-57.7-1.8
		c-26,8.2-20.3,26.3-46.4,34.5c-26,8.2-31.7-10-57.7-1.8s-20.3,26.3-46.4,34.5c-26,8.2-31.7-9.9-57.7-1.8
		c-26,8.2-20.3,26.3-46.4,34.5c-26,8.2-31.7-10-57.7-1.8s-20.3,26.3-46.4,34.5c-26,8.2-31.7-10-57.7-1.8s-20.3,26.3-46.4,34.5
		c-26,8.2-31.7-10-57.7-1.8s-20.3,26.3-46.4,34.5c-26,8.2-31.7-10-57.7-1.8s-20.3,26.3-46.4,34.5s-31.7-10-57.7-1.8
		s-20.3,26.3-46.4,34.5s-31.7-10-57.7-1.8s-20.3,26.3-46.4,34.5c-26,8.2-31.7-10-57.7-1.8s-20.3,26.3-46.4,34.5
		c-23.6,7.4-30.5-6.8-50.8-3.5"/>
</g>
<g class="st0">
	<path class="st1" d="M2014.7,777.1c-26,8.2-31.7-10-57.8-1.8c-26,8.2-20.3,26.3-46.4,34.5c-26,8.2-31.7-10-57.7-1.8
		s-20.3,26.3-46.4,34.5c-26,8.2-31.7-10-57.7-1.8s-20.3,26.3-46.4,34.5c-26,8.2-31.7-9.9-57.7-1.8c-26,8.2-20.3,26.3-46.4,34.5
		c-26,8.2-31.7-10-57.8-1.8c-26,8.2-20.3,26.3-46.4,34.5c-26,8.2-31.7-10-57.7-1.8s-20.3,26.3-46.4,34.5c-26,8.2-31.7-10-57.7-1.8
		s-20.3,26.3-46.4,34.5c-26,8.2-31.7-10-57.7-1.8s-20.3,26.3-46.4,34.5c-26,8.2-31.7-10-57.7-1.8s-20.3,26.3-46.4,34.5
		c-26,8.2-31.7-9.9-57.7-1.8c-26,8.2-20.3,26.3-46.4,34.5c-26,8.2-31.7-10-57.7-1.8s-20.3,26.3-46.4,34.5c-26,8.2-31.7-9.9-57.7-1.8
		c-26,8.2-20.3,26.3-46.4,34.5s-31.7-10-57.7-1.8s-20.3,26.3-46.4,34.5c-26,8.2-31.7-10-57.7-1.8s-20.3,26.3-46.4,34.5
		c-26,8.2-31.7-10-57.7-1.8s-20.3,26.3-46.4,34.5c-26,8.2-31.7-10-57.7-1.8s-20.3,26.3-46.4,34.5c-26,8.2-31.7-10-57.7-1.8
		s-20.3,26.3-46.4,34.5c-26,8.2-31.7-10-57.7-1.8s-20.3,26.3-46.4,34.5c-26,8.2-31.7-10-57.7-1.8s-20.3,26.3-46.4,34.5
		c-23.6,7.4-30.5-6.8-50.8-3.5"/>
</g>
<g class="st0">
	<path class="st1" d="M2014.7,749.7c-26,8.2-31.7-10-57.8-1.8c-26,8.2-20.3,26.3-46.4,34.5c-26,8.2-31.7-10-57.7-1.8
		s-20.3,26.3-46.4,34.5c-26,8.2-31.7-10-57.7-1.8s-20.3,26.3-46.4,34.5c-26,8.2-31.7-9.9-57.7-1.8c-26,8.2-20.3,26.3-46.4,34.5
		c-26,8.2-31.7-10-57.8-1.8c-26,8.2-20.3,26.3-46.4,34.5c-26,8.2-31.7-10-57.7-1.8s-20.3,26.3-46.4,34.5c-26,8.2-31.7-10-57.7-1.8
		s-20.3,26.3-46.4,34.5c-26,8.2-31.7-10-57.7-1.8s-20.3,26.3-46.4,34.5c-26,8.2-31.7-10-57.7-1.8s-20.3,26.3-46.4,34.5
		c-26,8.2-31.7-9.9-57.7-1.8c-26,8.2-20.3,26.3-46.4,34.5c-26,8.2-31.7-10-57.7-1.8s-20.3,26.3-46.4,34.5c-26,8.2-31.7-9.9-57.7-1.8
		c-26,8.2-20.3,26.3-46.4,34.5c-26,8.2-31.7-10-57.7-1.8s-20.3,26.3-46.4,34.5c-26,8.2-31.7-10-57.7-1.8s-20.3,26.3-46.4,34.5
		c-26,8.2-31.7-10-57.7-1.8s-20.3,26.3-46.4,34.5c-26,8.2-31.7-10-57.7-1.8s-20.3,26.3-46.4,34.5s-31.7-10-57.7-1.8
		s-20.3,26.3-46.4,34.5c-26,8.2-31.7-10-57.7-1.8s-20.3,26.3-46.4,34.5c-26,8.2-31.7-10-57.7-1.8s-20.3,26.3-46.4,34.5
		c-23.6,7.4-30.5-6.8-50.8-3.5"/>
</g>
<g class="st0">
	<path class="st1" d="M2014.7,722.2c-26,8.2-31.7-10-57.8-1.8c-26,8.2-20.3,26.3-46.4,34.5c-26,8.2-31.7-10-57.7-1.8
		s-20.3,26.3-46.4,34.5c-26,8.2-31.7-10-57.7-1.8s-20.3,26.3-46.4,34.5c-26,8.2-31.7-9.9-57.7-1.8c-26,8.2-20.3,26.3-46.4,34.5
		c-26,8.2-31.7-10-57.8-1.8c-26,8.2-20.3,26.3-46.4,34.5c-26,8.2-31.7-10-57.7-1.8s-20.3,26.3-46.4,34.5c-26,8.2-31.7-10-57.7-1.8
		s-20.3,26.3-46.4,34.5c-26,8.2-31.7-10-57.7-1.8s-20.3,26.3-46.4,34.5c-26,8.2-31.7-10-57.7-1.8s-20.3,26.3-46.4,34.5
		c-26,8.2-31.7-9.9-57.7-1.8c-26,8.2-20.3,26.3-46.4,34.5c-26,8.2-31.7-10-57.7-1.8s-20.3,26.3-46.4,34.5c-26,8.2-31.7-9.9-57.7-1.8
		c-26,8.2-20.3,26.3-46.4,34.5s-31.7-10-57.7-1.8s-20.3,26.3-46.4,34.5c-26,8.2-31.7-10-57.7-1.8s-20.3,26.3-46.4,34.5
		c-26,8.2-31.7-10-57.7-1.8s-20.3,26.3-46.4,34.5c-26,8.2-31.7-10-57.7-1.8s-20.3,26.3-46.4,34.5c-26,8.2-31.7-10-57.7-1.8
		s-20.3,26.3-46.4,34.5c-26,8.2-31.7-10-57.7-1.8s-20.3,26.3-46.4,34.5c-26,8.2-31.7-10-57.7-1.8s-20.3,26.3-46.4,34.5
		c-23.6,7.4-30.5-6.8-50.8-3.5"/>
</g>
<g class="st0">
	<path class="st1" d="M2014.7,694.8c-26,8.2-31.7-10-57.8-1.8c-26,8.2-20.3,26.3-46.4,34.5c-26,8.2-31.7-10-57.7-1.8
		s-20.3,26.3-46.4,34.5c-26,8.2-31.7-10-57.7-1.8s-20.3,26.3-46.4,34.5c-26,8.2-31.7-9.9-57.7-1.8c-26,8.2-20.3,26.3-46.4,34.5
		c-26,8.2-31.7-10-57.8-1.8c-26,8.2-20.3,26.3-46.4,34.5c-26,8.2-31.7-10-57.7-1.8s-20.3,26.3-46.4,34.5c-26,8.2-31.7-10-57.7-1.8
		s-20.3,26.3-46.4,34.5c-26,8.2-31.7-10-57.7-1.8s-20.3,26.3-46.4,34.5c-26,8.2-31.7-10-57.7-1.8s-20.3,26.3-46.4,34.5
		c-26,8.2-31.7-9.9-57.7-1.8c-26,8.2-20.3,26.3-46.4,34.5c-26,8.2-31.7-10-57.7-1.8c-26,8.2-20.3,26.3-46.4,34.5
		c-26,8.2-31.7-9.9-57.7-1.8c-26,8.2-20.3,26.3-46.4,34.5c-26,8.2-31.7-10-57.7-1.8s-20.3,26.3-46.4,34.5c-26,8.2-31.7-10-57.7-1.8
		s-20.3,26.3-46.4,34.5c-26,8.2-31.7-10-57.7-1.8s-20.3,26.3-46.4,34.5c-26,8.2-31.7-10-57.7-1.8s-20.3,26.3-46.4,34.5
		s-31.7-10-57.7-1.8s-20.3,26.3-46.4,34.5c-26,8.2-31.7-10-57.7-1.8s-20.3,26.3-46.4,34.5c-26,8.2-31.7-10-57.7-1.8
		s-20.3,26.3-46.4,34.5c-23.6,7.4-30.5-6.8-50.8-3.5"/>
</g>
<g class="st0">
	<path class="st1" d="M2014.7,667.4c-26,8.2-31.7-10-57.8-1.8c-26,8.2-20.3,26.3-46.4,34.5c-26,8.2-31.7-10-57.7-1.8
		s-20.3,26.3-46.4,34.5c-26,8.2-31.7-10-57.7-1.8s-20.3,26.3-46.4,34.5c-26,8.2-31.7-9.9-57.7-1.8c-26,8.2-20.3,26.3-46.4,34.5
		c-26,8.2-31.7-10-57.8-1.8c-26,8.2-20.3,26.3-46.4,34.5c-26,8.2-31.7-10-57.7-1.8s-20.3,26.3-46.4,34.5c-26,8.2-31.7-10-57.7-1.8
		s-20.3,26.3-46.4,34.5c-26,8.2-31.7-10-57.7-1.8s-20.3,26.3-46.4,34.5c-26,8.2-31.7-10-57.7-1.8s-20.3,26.3-46.4,34.5
		c-26,8.2-31.7-9.9-57.7-1.8c-26,8.2-20.3,26.3-46.4,34.5c-26,8.2-31.7-10-57.7-1.8s-20.3,26.3-46.4,34.5c-26,8.2-31.7-9.9-57.7-1.8
		c-26,8.2-20.3,26.3-46.4,34.5s-31.7-10-57.7-1.8s-20.3,26.3-46.4,34.5c-26,8.2-31.7-10-57.7-1.8s-20.3,26.3-46.4,34.5
		c-26,8.2-31.7-10-57.7-1.8s-20.3,26.3-46.4,34.5c-26,8.2-31.7-10-57.7-1.8s-20.3,26.3-46.4,34.5c-26,8.2-31.7-10-57.7-1.8
		s-20.3,26.3-46.4,34.5s-31.7-10-57.7-1.8s-20.3,26.3-46.4,34.5c-26,8.2-31.7-10-57.7-1.8s-20.3,26.3-46.4,34.5
		c-23.6,7.4-30.5-6.8-50.8-3.5"/>
</g>
<g class="st0">
	<path class="st1" d="M2014.7,640c-26,8.2-31.7-10-57.8-1.8c-26,8.2-20.3,26.3-46.4,34.5c-26,8.2-31.7-10-57.7-1.8
		s-20.3,26.3-46.4,34.5c-26,8.2-31.7-10-57.7-1.8s-20.3,26.3-46.4,34.5c-26,8.2-31.7-9.9-57.7-1.8s-20.3,26.3-46.4,34.5
		c-26,8.2-31.7-10-57.8-1.8c-26,8.2-20.3,26.3-46.4,34.5c-26,8.2-31.7-10-57.7-1.8s-20.3,26.3-46.4,34.5c-26,8.2-31.7-10-57.7-1.8
		s-20.3,26.3-46.4,34.5c-26,8.2-31.7-10-57.7-1.8s-20.3,26.3-46.4,34.5c-26,8.2-31.7-10-57.7-1.8s-20.3,26.3-46.4,34.5
		c-26,8.2-31.7-9.9-57.7-1.8c-26,8.2-20.3,26.3-46.4,34.5c-26,8.2-31.7-10-57.7-1.8s-20.3,26.3-46.4,34.5c-26,8.2-31.7-9.9-57.7-1.8
		c-26,8.2-20.3,26.3-46.4,34.5c-26,8.2-31.7-10-57.7-1.8s-20.3,26.3-46.4,34.5c-26,8.2-31.7-10-57.7-1.8s-20.3,26.3-46.4,34.5
		c-26,8.2-31.7-10-57.7-1.8s-20.3,26.3-46.4,34.5c-26,8.2-31.7-10-57.7-1.8s-20.3,26.3-46.4,34.5s-31.7-10-57.7-1.8
		s-20.3,26.3-46.4,34.5c-26,8.2-31.7-10-57.7-1.8s-20.3,26.3-46.4,34.5c-26,8.2-31.7-10-57.7-1.8s-20.3,26.3-46.4,34.5
		c-23.6,7.4-30.5-6.8-50.8-3.5"/>
</g>
<g class="st0">
	<path class="st1" d="M2014.7,612.6c-26,8.2-31.7-10-57.8-1.8c-26,8.2-20.3,26.3-46.4,34.5c-26,8.2-31.7-10-57.7-1.8
		s-20.3,26.3-46.4,34.5c-26,8.2-31.7-10-57.7-1.8s-20.3,26.3-46.4,34.5c-26,8.2-31.7-9.9-57.7-1.8s-20.3,26.3-46.4,34.5
		c-26,8.2-31.7-10-57.8-1.8c-26,8.2-20.3,26.3-46.4,34.5c-26,8.2-31.7-10-57.7-1.8s-20.3,26.3-46.4,34.5c-26,8.2-31.7-10-57.7-1.8
		s-20.3,26.3-46.4,34.5c-26,8.2-31.7-10-57.7-1.8s-20.3,26.3-46.4,34.5c-26,8.2-31.7-10-57.7-1.8s-20.3,26.3-46.4,34.5
		c-26,8.2-31.7-9.9-57.7-1.8c-26,8.2-20.3,26.3-46.4,34.5c-26,8.2-31.7-10-57.7-1.8s-20.3,26.3-46.4,34.5c-26,8.2-31.7-9.9-57.7-1.8
		c-26,8.2-20.3,26.3-46.4,34.5c-26,8.2-31.7-10-57.7-1.8s-20.3,26.3-46.4,34.5c-26,8.2-31.7-10-57.7-1.8s-20.3,26.3-46.4,34.5
		c-26,8.2-31.7-10-57.7-1.8s-20.3,26.3-46.4,34.5c-26,8.2-31.7-10-57.7-1.8s-20.3,26.3-46.4,34.5c-26,8.2-31.7-10-57.7-1.8
		s-20.3,26.3-46.4,34.5s-31.7-10-57.7-1.8s-20.3,26.3-46.4,34.5c-26,8.2-31.7-10-57.7-1.8s-20.3,26.3-46.4,34.5
		c-23.6,7.4-30.5-6.8-50.8-3.5"/>
</g>
<g class="st0">
	<path class="st1" d="M2014.7,585.2c-26,8.2-31.7-10-57.8-1.8c-26,8.2-20.3,26.3-46.4,34.5c-26,8.2-31.7-10-57.7-1.8
		s-20.3,26.3-46.4,34.5c-26,8.2-31.7-10-57.7-1.8s-20.3,26.3-46.4,34.5c-26,8.2-31.7-9.9-57.7-1.8s-20.3,26.3-46.4,34.5
		c-26,8.2-31.7-10-57.8-1.8c-26,8.2-20.3,26.3-46.4,34.5c-26,8.2-31.7-10-57.7-1.8s-20.3,26.3-46.4,34.5c-26,8.2-31.7-10-57.7-1.8
		s-20.3,26.3-46.4,34.5c-26,8.2-31.7-10-57.7-1.8s-20.3,26.3-46.4,34.5c-26,8.2-31.7-10-57.7-1.8s-20.3,26.3-46.4,34.5
		c-26,8.2-31.7-9.9-57.7-1.8c-26,8.2-20.3,26.3-46.4,34.5c-26,8.2-31.7-10-57.7-1.8s-20.3,26.3-46.4,34.5c-26,8.2-31.7-9.9-57.7-1.8
		c-26,8.2-20.3,26.3-46.4,34.5c-26,8.2-31.7-10-57.7-1.8s-20.3,26.3-46.4,34.5c-26,8.2-31.7-10-57.7-1.8s-20.3,26.3-46.4,34.5
		c-26,8.2-31.7-10-57.7-1.8s-20.3,26.3-46.4,34.5c-26,8.2-31.7-10-57.7-1.8s-20.3,26.3-46.4,34.5c-26,8.2-31.7-10-57.7-1.8
		s-20.3,26.3-46.4,34.5c-26,8.2-31.7-10-57.7-1.8s-20.3,26.3-46.4,34.5c-26,8.2-31.7-10-57.7-1.8s-20.3,26.3-46.4,34.5
		c-23.6,7.4-30.5-6.8-50.8-3.5"/>
</g>
<g class="st0">
	<path class="st1" d="M2014.7,557.8c-26,8.2-31.7-10-57.8-1.8c-26,8.2-20.3,26.3-46.4,34.5c-26,8.2-31.7-10-57.7-1.8
		s-20.3,26.3-46.4,34.5c-26,8.2-31.7-10-57.7-1.8s-20.3,26.3-46.4,34.5c-26,8.2-31.7-9.9-57.7-1.8s-20.3,26.3-46.4,34.5
		c-26,8.2-31.7-10-57.8-1.8c-26,8.2-20.3,26.3-46.4,34.5c-26,8.2-31.7-10-57.7-1.8s-20.3,26.3-46.4,34.5c-26,8.2-31.7-10-57.7-1.8
		s-20.3,26.3-46.4,34.5c-26,8.2-31.7-10-57.7-1.8s-20.3,26.3-46.4,34.5c-26,8.2-31.7-10-57.7-1.8s-20.3,26.3-46.4,34.5
		c-26,8.2-31.7-9.9-57.7-1.8c-26,8.2-20.3,26.3-46.4,34.5c-26,8.2-31.7-10-57.7-1.8s-20.3,26.3-46.4,34.5c-26,8.2-31.7-9.9-57.7-1.8
		c-26,8.2-20.3,26.3-46.4,34.5c-26,8.2-31.7-10-57.7-1.8s-20.3,26.3-46.4,34.5c-26,8.2-31.7-10-57.7-1.8s-20.3,26.3-46.4,34.5
		c-26,8.2-31.7-10-57.7-1.8s-20.3,26.3-46.4,34.5c-26,8.2-31.7-10-57.7-1.8s-20.3,26.3-46.4,34.5c-26,8.2-31.7-10-57.7-1.8
		s-20.3,26.3-46.4,34.5s-31.7-10-57.7-1.8s-20.3,26.3-46.4,34.5c-26,8.2-31.7-10-57.7-1.8s-20.3,26.3-46.4,34.5
		c-23.6,7.4-30.5-6.8-50.8-3.5"/>
</g>
<g class="st0">
	<path class="st1" d="M2014.7,530.4c-26,8.2-31.7-10-57.8-1.8c-26,8.2-20.3,26.3-46.4,34.5c-26,8.2-31.7-10-57.7-1.8
		s-20.3,26.3-46.4,34.5c-26,8.2-31.7-10-57.7-1.8s-20.3,26.3-46.4,34.5c-26,8.2-31.7-9.9-57.7-1.8c-26,8.2-20.3,26.3-46.4,34.5
		c-26,8.2-31.7-10-57.8-1.8c-26,8.2-20.3,26.3-46.4,34.5c-26,8.2-31.7-10-57.7-1.8s-20.3,26.3-46.4,34.5c-26,8.2-31.7-10-57.7-1.8
		s-20.3,26.3-46.4,34.5c-26,8.2-31.7-10-57.7-1.8s-20.3,26.3-46.4,34.5c-26,8.2-31.7-10-57.7-1.8s-20.3,26.3-46.4,34.5
		c-26,8.2-31.7-9.9-57.7-1.8c-26,8.2-20.3,26.3-46.4,34.5c-26,8.2-31.7-10-57.7-1.8s-20.3,26.3-46.4,34.5c-26,8.2-31.7-9.9-57.7-1.8
		c-26,8.2-20.3,26.3-46.4,34.5c-26,8.2-31.7-10-57.7-1.8s-20.3,26.3-46.4,34.5c-26,8.2-31.7-10-57.7-1.8s-20.3,26.3-46.4,34.5
		c-26,8.2-31.7-10-57.7-1.8s-20.3,26.3-46.4,34.5c-26,8.2-31.7-10-57.7-1.8c-26,8.2-20.3,26.3-46.4,34.5c-26,8.2-31.7-10-57.7-1.8
		s-20.3,26.3-46.4,34.5c-26,8.2-31.7-10-57.7-1.8s-20.3,26.3-46.4,34.5c-26,8.2-31.7-10-57.7-1.8s-20.3,26.3-46.4,34.5
		c-23.6,7.4-30.5-6.8-50.8-3.5"/>
</g>
<g class="st0">
	<path class="st1" d="M2014.7,503c-26,8.2-31.7-10-57.8-1.8c-26,8.2-20.3,26.3-46.4,34.5c-26,8.2-31.7-10-57.7-1.8
		s-20.3,26.3-46.4,34.5c-26,8.2-31.7-10-57.7-1.8s-20.3,26.3-46.4,34.5c-26,8.2-31.7-9.9-57.7-1.8c-26,8.2-20.3,26.3-46.4,34.5
		c-26,8.2-31.7-10-57.8-1.8c-26,8.2-20.3,26.3-46.4,34.5c-26,8.2-31.7-10-57.7-1.8s-20.3,26.3-46.4,34.5c-26,8.2-31.7-10-57.7-1.8
		s-20.3,26.3-46.4,34.5c-26,8.2-31.7-10-57.7-1.8s-20.3,26.3-46.4,34.5c-26,8.2-31.7-10-57.7-1.8s-20.3,26.3-46.4,34.5
		c-26,8.2-31.7-9.9-57.7-1.8c-26,8.2-20.3,26.3-46.4,34.5c-26,8.2-31.7-10-57.7-1.8s-20.3,26.3-46.4,34.5c-26,8.2-31.7-9.9-57.7-1.8
		c-26,8.2-20.3,26.3-46.4,34.5c-26,8.2-31.7-10-57.7-1.8s-20.3,26.3-46.4,34.5c-26,8.2-31.7-10-57.7-1.8s-20.3,26.3-46.4,34.5
		c-26,8.2-31.7-10-57.7-1.8s-20.3,26.3-46.4,34.5c-26,8.2-31.7-10-57.7-1.8s-20.3,26.3-46.4,34.5c-26,8.2-31.7-10-57.7-1.8
		s-20.3,26.3-46.4,34.5s-31.7-10-57.7-1.8s-20.3,26.3-46.4,34.5c-26,8.2-31.7-10-57.7-1.8s-20.3,26.3-46.4,34.5
		c-23.6,7.4-30.5-6.8-50.8-3.5"/>
</g>
<g class="st0">
	<path class="st1" d="M2014.7,475.6c-26,8.2-31.7-10-57.8-1.8c-26,8.2-20.3,26.3-46.4,34.5c-26,8.2-31.7-10-57.7-1.8
		c-26,8.2-20.3,26.3-46.4,34.5c-26,8.2-31.7-10-57.7-1.8s-20.3,26.3-46.4,34.5c-26,8.2-31.7-9.9-57.7-1.8
		c-26,8.2-20.3,26.3-46.4,34.5c-26,8.2-31.7-10-57.8-1.8c-26,8.2-20.3,26.3-46.4,34.5c-26,8.2-31.7-10-57.7-1.8
		s-20.3,26.3-46.4,34.5c-26,8.2-31.7-10-57.7-1.8s-20.3,26.3-46.4,34.5c-26,8.2-31.7-10-57.7-1.8s-20.3,26.3-46.4,34.5
		c-26,8.2-31.7-10-57.7-1.8s-20.3,26.3-46.4,34.5c-26,8.2-31.7-9.9-57.7-1.8c-26,8.2-20.3,26.3-46.4,34.5c-26,8.2-31.7-10-57.7-1.8
		s-20.3,26.3-46.4,34.5c-26,8.2-31.7-9.9-57.7-1.8c-26,8.2-20.3,26.3-46.4,34.5c-26,8.2-31.7-10-57.7-1.8s-20.3,26.3-46.4,34.5
		c-26,8.2-31.7-10-57.7-1.8s-20.3,26.3-46.4,34.5c-26,8.2-31.7-10-57.7-1.8s-20.3,26.3-46.4,34.5c-26,8.2-31.7-10-57.7-1.8
		s-20.3,26.3-46.4,34.5c-26,8.2-31.7-10-57.7-1.8s-20.3,26.3-46.4,34.5c-26,8.2-31.7-10-57.7-1.8s-20.3,26.3-46.4,34.5
		c-26,8.2-31.7-10-57.7-1.8s-20.3,26.3-46.4,34.5c-23.6,7.4-30.5-6.8-50.8-3.5"/>
</g>
<g class="st0">
	<path class="st1" d="M2014.7,448.2c-26,8.2-31.7-10-57.8-1.8c-26,8.2-20.3,26.3-46.4,34.5c-26,8.2-31.7-10-57.7-1.8
		s-20.3,26.3-46.4,34.5c-26,8.2-31.7-10-57.7-1.8s-20.3,26.3-46.4,34.5c-26,8.2-31.7-9.9-57.7-1.8c-26,8.2-20.3,26.3-46.4,34.5
		c-26,8.2-31.7-10-57.8-1.8c-26,8.2-20.3,26.3-46.4,34.5c-26,8.2-31.7-10-57.7-1.8s-20.3,26.3-46.4,34.5c-26,8.2-31.7-10-57.7-1.8
		s-20.3,26.3-46.4,34.5c-26,8.2-31.7-10-57.7-1.8s-20.3,26.3-46.4,34.5c-26,8.2-31.7-10-57.7-1.8s-20.3,26.3-46.4,34.5
		c-26,8.2-31.7-9.9-57.7-1.8c-26,8.2-20.3,26.3-46.4,34.5c-26,8.2-31.7-10-57.7-1.8s-20.3,26.3-46.4,34.5c-26,8.2-31.7-9.9-57.7-1.8
		c-26,8.2-20.3,26.3-46.4,34.5c-26,8.2-31.7-10-57.7-1.8s-20.3,26.3-46.4,34.5c-26,8.2-31.7-10-57.7-1.8s-20.3,26.3-46.4,34.5
		c-26,8.2-31.7-10-57.7-1.8s-20.3,26.3-46.4,34.5c-26,8.2-31.7-10-57.7-1.8s-20.3,26.3-46.4,34.5c-26,8.2-31.7-10-57.7-1.8
		s-20.3,26.3-46.4,34.5c-26,8.2-31.7-10-57.7-1.8s-20.3,26.3-46.4,34.5c-26,8.2-31.7-10-57.7-1.8s-20.3,26.3-46.4,34.5
		c-23.6,7.4-30.5-6.8-50.8-3.5"/>
</g>
<g class="st0">
	<path class="st1" d="M2014.7,420.8c-26,8.2-31.7-10-57.8-1.8c-26,8.2-20.3,26.3-46.4,34.5c-26,8.2-31.7-10-57.7-1.8
		s-20.3,26.3-46.4,34.5s-31.7-10-57.7-1.8s-20.3,26.3-46.4,34.5c-26,8.2-31.7-9.9-57.7-1.8c-26,8.2-20.3,26.3-46.4,34.5
		c-26,8.2-31.7-10-57.8-1.8c-26,8.2-20.3,26.3-46.4,34.5c-26,8.2-31.7-10-57.7-1.8s-20.3,26.3-46.4,34.5c-26,8.2-31.7-10-57.7-1.8
		s-20.3,26.3-46.4,34.5c-26,8.2-31.7-10-57.7-1.8s-20.3,26.3-46.4,34.5c-26,8.2-31.7-10-57.7-1.8s-20.3,26.3-46.4,34.5
		c-26,8.2-31.7-9.9-57.7-1.8c-26,8.2-20.3,26.3-46.4,34.5c-26,8.2-31.7-10-57.7-1.8s-20.3,26.3-46.4,34.5c-26,8.2-31.7-9.9-57.7-1.8
		c-26,8.2-20.3,26.3-46.4,34.5c-26,8.2-31.7-10-57.7-1.8s-20.3,26.3-46.4,34.5c-26,8.2-31.7-10-57.7-1.8s-20.3,26.3-46.4,34.5
		c-26,8.2-31.7-10-57.7-1.8s-20.3,26.3-46.4,34.5c-26,8.2-31.7-10-57.7-1.8S375,935.8,348.9,944c-26,8.2-31.7-10-57.7-1.8
		s-20.3,26.3-46.4,34.5c-26,8.2-31.7-10-57.7-1.8s-20.3,26.3-46.4,34.5c-26,8.2-31.7-10-57.7-1.8s-20.3,26.3-46.4,34.5
		c-23.6,7.4-30.5-6.8-50.8-3.5"/>
</g>
<g class="st0">
	<path class="st1" d="M2014.7,393.4c-26,8.2-31.7-10-57.8-1.8c-26,8.2-20.3,26.3-46.4,34.5c-26,8.2-31.7-10-57.7-1.8
		s-20.3,26.3-46.4,34.5s-31.7-10-57.7-1.8s-20.3,26.3-46.4,34.5c-26,8.2-31.7-9.9-57.7-1.8s-20.3,26.3-46.4,34.5
		c-26,8.2-31.7-10-57.8-1.8c-26,8.2-20.3,26.3-46.4,34.5c-26,8.2-31.7-10-57.7-1.8s-20.3,26.3-46.4,34.5c-26,8.2-31.7-10-57.7-1.8
		s-20.3,26.3-46.4,34.5c-26,8.2-31.7-10-57.7-1.8s-20.3,26.3-46.4,34.5c-26,8.2-31.7-10-57.7-1.8s-20.3,26.3-46.4,34.5
		c-26,8.2-31.7-9.9-57.7-1.8c-26,8.2-20.3,26.3-46.4,34.5c-26,8.2-31.7-10-57.7-1.8s-20.3,26.3-46.4,34.5c-26,8.2-31.7-9.9-57.7-1.8
		c-26,8.2-20.3,26.3-46.4,34.5c-26,8.2-31.7-10-57.7-1.8s-20.3,26.3-46.4,34.5c-26,8.2-31.7-10-57.7-1.8s-20.3,26.3-46.4,34.5
		c-26,8.2-31.7-10-57.7-1.8s-20.3,26.3-46.4,34.5c-26,8.2-31.7-10-57.7-1.8s-20.3,26.3-46.4,34.5c-26,8.2-31.7-10-57.7-1.8
		s-20.3,26.3-46.4,34.5c-26,8.2-31.7-10-57.7-1.8s-20.3,26.3-46.4,34.5c-26,8.2-31.7-10-57.7-1.8s-20.3,26.3-46.4,34.5
		c-23.6,7.4-30.5-6.8-50.8-3.5"/>
</g>
<g class="st0">
	<path class="st1" d="M2014.7,365.9c-26,8.2-31.7-10-57.8-1.8c-26,8.2-20.3,26.3-46.4,34.5c-26,8.2-31.7-10-57.7-1.8
		s-20.3,26.3-46.4,34.5s-31.7-10-57.7-1.8s-20.3,26.3-46.4,34.5c-26,8.2-31.7-9.9-57.7-1.8s-20.3,26.3-46.4,34.5
		c-26,8.2-31.7-10-57.8-1.8c-26,8.2-20.3,26.3-46.4,34.5c-26,8.2-31.7-10-57.7-1.8s-20.3,26.3-46.4,34.5s-31.7-10-57.7-1.8
		s-20.3,26.3-46.4,34.5c-26,8.2-31.7-10-57.7-1.8s-20.3,26.3-46.4,34.5c-26,8.2-31.7-10-57.7-1.8s-20.3,26.3-46.4,34.5
		c-26,8.2-31.7-9.9-57.7-1.8c-26,8.2-20.3,26.3-46.4,34.5c-26,8.2-31.7-10-57.7-1.8s-20.3,26.3-46.4,34.5c-26,8.2-31.7-9.9-57.7-1.8
		c-26,8.2-20.3,26.3-46.4,34.5c-26,8.2-31.7-10-57.7-1.8s-20.3,26.3-46.4,34.5c-26,8.2-31.7-10-57.7-1.8s-20.3,26.3-46.4,34.5
		c-26,8.2-31.7-10-57.7-1.8s-20.3,26.3-46.4,34.5c-26,8.2-31.7-10-57.7-1.8s-20.3,26.3-46.4,34.5c-26,8.2-31.7-10-57.7-1.8
		s-20.3,26.3-46.4,34.5c-26,8.2-31.7-10-57.7-1.8s-20.3,26.3-46.4,34.5c-26,8.2-31.7-10-57.7-1.8S62.7,979,36.6,987.2
		c-23.6,7.4-30.5-6.8-50.8-3.5"/>
</g>
<g class="st0">
	<path class="st1" d="M2014.7,338.5c-26,8.2-31.7-10-57.8-1.8c-26,8.2-20.3,26.3-46.4,34.5c-26,8.2-31.7-10-57.7-1.8
		s-20.3,26.3-46.4,34.5s-31.7-10-57.7-1.8s-20.3,26.3-46.4,34.5c-26,8.2-31.7-9.9-57.7-1.8s-20.3,26.3-46.4,34.5
		c-26,8.2-31.7-10-57.8-1.8c-26,8.2-20.3,26.3-46.4,34.5c-26,8.2-31.7-10-57.7-1.8s-20.3,26.3-46.4,34.5s-31.7-10-57.7-1.8
		s-20.3,26.3-46.4,34.5c-26,8.2-31.7-10-57.7-1.8s-20.3,26.3-46.4,34.5c-26,8.2-31.7-10-57.7-1.8s-20.3,26.3-46.4,34.5
		c-26,8.2-31.7-9.9-57.7-1.8c-26,8.2-20.3,26.3-46.4,34.5c-26,8.2-31.7-10-57.7-1.8s-20.3,26.3-46.4,34.5c-26,8.2-31.7-9.9-57.7-1.8
		c-26,8.2-20.3,26.3-46.4,34.5c-26,8.2-31.7-10-57.7-1.8s-20.3,26.3-46.4,34.5c-26,8.2-31.7-10-57.7-1.8s-20.3,26.3-46.4,34.5
		c-26,8.2-31.7-10-57.7-1.8S479.1,820.8,453,829c-26,8.2-31.7-10-57.7-1.8s-20.3,26.3-46.4,34.5c-26,8.2-31.7-10-57.7-1.8
		s-20.3,26.3-46.4,34.5c-26,8.2-31.7-10-57.7-1.8s-20.3,26.3-46.4,34.5c-26,8.2-31.7-10-57.7-1.8s-20.3,26.3-46.4,34.5
		c-23.6,7.4-30.5-6.8-50.8-3.5"/>
</g>
<g class="st0">
	<path class="st1" d="M2014.7,311.1c-26,8.2-31.7-10-57.8-1.8c-26,8.2-20.3,26.3-46.4,34.5c-26,8.2-31.7-10-57.7-1.8
		s-20.3,26.3-46.4,34.5s-31.7-10-57.7-1.8s-20.3,26.3-46.4,34.5c-26,8.2-31.7-9.9-57.7-1.8s-20.3,26.3-46.4,34.5
		c-26,8.2-31.7-10-57.8-1.8c-26,8.2-20.3,26.3-46.4,34.5c-26,8.2-31.7-10-57.7-1.8s-20.3,26.3-46.4,34.5c-26,8.2-31.7-10-57.7-1.8
		c-26,8.2-20.3,26.3-46.4,34.5c-26,8.2-31.7-10-57.7-1.8s-20.3,26.3-46.4,34.5c-26,8.2-31.7-10-57.7-1.8s-20.3,26.3-46.4,34.5
		c-26,8.2-31.7-9.9-57.7-1.8c-26,8.2-20.3,26.3-46.4,34.5c-26,8.2-31.7-10-57.7-1.8s-20.3,26.3-46.4,34.5c-26,8.2-31.7-9.9-57.7-1.8
		c-26,8.2-20.3,26.3-46.4,34.5c-26,8.2-31.7-10-57.7-1.8s-20.3,26.3-46.4,34.5c-26,8.2-31.7-10-57.7-1.8s-20.3,26.3-46.4,34.5
		c-26,8.2-31.7-10-57.7-1.8s-20.3,26.3-46.4,34.5c-26,8.2-31.7-10-57.7-1.8s-20.3,26.3-46.4,34.5c-26,8.2-31.7-10-57.7-1.8
		s-20.3,26.3-46.4,34.5c-26,8.2-31.7-10-57.7-1.8s-20.3,26.3-46.4,34.5c-26,8.2-31.7-10-57.7-1.8s-20.3,26.3-46.4,34.5
		c-23.6,7.4-30.5-6.8-50.8-3.5"/>
</g>
<g class="st0">
	<path class="st1" d="M2014.7,283.7c-26,8.2-31.7-10-57.8-1.8c-26,8.2-20.3,26.3-46.4,34.5c-26,8.2-31.7-10-57.7-1.8
		s-20.3,26.3-46.4,34.5s-31.7-10-57.7-1.8s-20.3,26.3-46.4,34.5c-26,8.2-31.7-9.9-57.7-1.8s-20.3,26.3-46.4,34.5
		c-26,8.2-31.7-10-57.8-1.8c-26,8.2-20.3,26.3-46.4,34.5c-26,8.2-31.7-10-57.7-1.8s-20.3,26.3-46.4,34.5s-31.7-10-57.7-1.8
		s-20.3,26.3-46.4,34.5c-26,8.2-31.7-10-57.7-1.8s-20.3,26.3-46.4,34.5c-26,8.2-31.7-10-57.7-1.8s-20.3,26.3-46.4,34.5
		c-26,8.2-31.7-9.9-57.7-1.8c-26,8.2-20.3,26.3-46.4,34.5c-26,8.2-31.7-10-57.7-1.8s-20.3,26.3-46.4,34.5c-26,8.2-31.7-9.9-57.7-1.8
		c-26,8.2-20.3,26.3-46.4,34.5c-26,8.2-31.7-10-57.7-1.8s-20.3,26.3-46.4,34.5c-26,8.2-31.7-10-57.7-1.8s-20.3,26.3-46.4,34.5
		c-26,8.2-31.7-10-57.7-1.8S479.1,766,453,774.2c-26,8.2-31.7-10-57.7-1.8s-20.3,26.3-46.4,34.5c-26,8.2-31.7-10-57.7-1.8
		s-20.3,26.3-46.4,34.5c-26,8.2-31.7-10-57.7-1.8s-20.3,26.3-46.4,34.5c-26,8.2-31.7-10-57.7-1.8S62.7,896.8,36.6,905
		c-23.6,7.4-30.5-6.8-50.8-3.5"/>
</g>
<g class="st0">
	<path class="st1" d="M2014.7,256.3c-26,8.2-31.7-10-57.8-1.8c-26,8.2-20.3,26.3-46.4,34.5c-26,8.2-31.7-10-57.7-1.8
		s-20.3,26.3-46.4,34.5s-31.7-10-57.7-1.8s-20.3,26.3-46.4,34.5c-26,8.2-31.7-9.9-57.7-1.8s-20.3,26.3-46.4,34.5
		c-26,8.2-31.7-10-57.8-1.8c-26,8.2-20.3,26.3-46.4,34.5c-26,8.2-31.7-10-57.7-1.8s-20.3,26.3-46.4,34.5s-31.7-10-57.7-1.8
		s-20.3,26.3-46.4,34.5s-31.7-10-57.7-1.8s-20.3,26.3-46.4,34.5c-26,8.2-31.7-10-57.7-1.8s-20.3,26.3-46.4,34.5
		c-26,8.2-31.7-9.9-57.7-1.8c-26,8.2-20.3,26.3-46.4,34.5c-26,8.2-31.7-10-57.7-1.8s-20.3,26.3-46.4,34.5c-26,8.2-31.7-9.9-57.7-1.8
		c-26,8.2-20.3,26.3-46.4,34.5c-26,8.2-31.7-10-57.7-1.8s-20.3,26.3-46.4,34.5c-26,8.2-31.7-10-57.7-1.8s-20.3,26.3-46.4,34.5
		c-26,8.2-31.7-10-57.7-1.8s-20.3,26.3-46.4,34.5c-26,8.2-31.7-10-57.7-1.8s-20.3,26.3-46.4,34.5c-26,8.2-31.7-10-57.7-1.8
		s-20.3,26.3-46.4,34.5c-26,8.2-31.7-10-57.7-1.8s-20.3,26.3-46.4,34.5c-26,8.2-31.7-10-57.7-1.8s-20.3,26.3-46.4,34.5
		c-23.6,7.4-30.5-6.8-50.8-3.5"/>
</g>
<g class="st0">
	<path class="st1" d="M2014.7,228.9c-26,8.2-31.7-10-57.8-1.8c-26,8.2-20.3,26.3-46.4,34.5c-26,8.2-31.7-10-57.7-1.8
		s-20.3,26.3-46.4,34.5s-31.7-10-57.7-1.8s-20.3,26.3-46.4,34.5c-26,8.2-31.7-9.9-57.7-1.8s-20.3,26.3-46.4,34.5
		c-26,8.2-31.7-10-57.8-1.8c-26,8.2-20.3,26.3-46.4,34.5c-26,8.2-31.7-10-57.7-1.8s-20.3,26.3-46.4,34.5s-31.7-10-57.7-1.8
		s-20.3,26.3-46.4,34.5s-31.7-10-57.7-1.8s-20.3,26.3-46.4,34.5s-31.7-10-57.7-1.8s-20.3,26.3-46.4,34.5c-26,8.2-31.7-9.9-57.7-1.8
		c-26,8.2-20.3,26.3-46.4,34.5c-26,8.2-31.7-10-57.7-1.8s-20.3,26.3-46.4,34.5c-26,8.2-31.7-9.9-57.7-1.8
		c-26,8.2-20.3,26.3-46.4,34.5c-26,8.2-31.7-10-57.7-1.8s-20.3,26.3-46.4,34.5c-26,8.2-31.7-10-57.7-1.8s-20.3,26.3-46.4,34.5
		c-26,8.2-31.7-10-57.7-1.8s-20.3,26.3-46.4,34.5c-26,8.2-31.7-10-57.7-1.8s-20.3,26.3-46.4,34.5c-26,8.2-31.7-10-57.7-1.8
		s-20.3,26.3-46.4,34.5c-26,8.2-31.7-10-57.7-1.8s-20.3,26.3-46.4,34.5c-26,8.2-31.7-10-57.7-1.8S62.7,842,36.6,850.2
		c-23.6,7.4-30.5-6.8-50.8-3.5"/>
</g>
<g class="st0">
	<path class="st1" d="M2014.7,201.5c-26,8.2-31.7-10-57.8-1.8c-26,8.2-20.3,26.3-46.4,34.5c-26,8.2-31.7-10-57.7-1.8
		s-20.3,26.3-46.4,34.5s-31.7-10-57.7-1.8s-20.3,26.3-46.4,34.5c-26,8.2-31.7-9.9-57.7-1.8c-26,8.2-20.3,26.3-46.4,34.5
		c-26,8.2-31.7-10-57.8-1.8c-26,8.2-20.3,26.3-46.4,34.5c-26,8.2-31.7-10-57.7-1.8s-20.3,26.3-46.4,34.5s-31.7-10-57.7-1.8
		s-20.3,26.3-46.4,34.5s-31.7-10-57.7-1.8s-20.3,26.3-46.4,34.5s-31.7-10-57.7-1.8s-20.3,26.3-46.4,34.5c-26,8.2-31.7-9.9-57.7-1.8
		c-26,8.2-20.3,26.3-46.4,34.5c-26,8.2-31.7-10-57.7-1.8s-20.3,26.3-46.4,34.5c-26,8.2-31.7-9.9-57.7-1.8
		c-26,8.2-20.3,26.3-46.4,34.5c-26,8.2-31.7-10-57.7-1.8s-20.3,26.3-46.4,34.5c-26,8.2-31.7-10-57.7-1.8s-20.3,26.3-46.4,34.5
		c-26,8.2-31.7-10-57.7-1.8S479.1,683.8,453,692c-26,8.2-31.7-10-57.7-1.8s-20.3,26.3-46.4,34.5c-26,8.2-31.7-10-57.7-1.8
		s-20.3,26.3-46.4,34.5c-26,8.2-31.7-10-57.7-1.8s-20.3,26.3-46.4,34.5c-26,8.2-31.7-10-57.7-1.8s-20.3,26.3-46.4,34.5
		c-23.6,7.4-30.5-6.8-50.8-3.5"/>
</g>
<g class="st0">
	<path class="st1" d="M2014.7,174.1c-26,8.2-31.7-10-57.8-1.8c-26,8.2-20.3,26.3-46.4,34.5c-26,8.2-31.7-10-57.7-1.8
		s-20.3,26.3-46.4,34.5s-31.7-10-57.7-1.8s-20.3,26.3-46.4,34.5c-26,8.2-31.7-9.9-57.7-1.8c-26,8.2-20.3,26.3-46.4,34.5
		c-26,8.2-31.7-10-57.8-1.8c-26,8.2-20.3,26.3-46.4,34.5c-26,8.2-31.7-10-57.7-1.8s-20.3,26.3-46.4,34.5s-31.7-10-57.7-1.8
		s-20.3,26.3-46.4,34.5s-31.7-10-57.7-1.8s-20.3,26.3-46.4,34.5s-31.7-10-57.7-1.8s-20.3,26.3-46.4,34.5c-26,8.2-31.7-9.9-57.7-1.8
		c-26,8.2-20.3,26.3-46.4,34.5c-26,8.2-31.7-10-57.7-1.8s-20.3,26.3-46.4,34.5c-26,8.2-31.7-9.9-57.7-1.8
		c-26,8.2-20.3,26.3-46.4,34.5c-26,8.2-31.7-10-57.7-1.8s-20.3,26.3-46.4,34.5c-26,8.2-31.7-10-57.7-1.8s-20.3,26.3-46.4,34.5
		c-26,8.2-31.7-10-57.7-1.8s-20.3,26.3-46.4,34.5c-26,8.2-31.7-10-57.7-1.8s-20.3,26.3-46.4,34.5c-26,8.2-31.7-10-57.7-1.8
		s-20.3,26.3-46.4,34.5c-26,8.2-31.7-10-57.7-1.8s-20.3,26.3-46.4,34.5c-26,8.2-31.7-10-57.7-1.8s-20.3,26.3-46.4,34.5
		c-23.6,7.4-30.5-6.8-50.8-3.5"/>
</g>
<g class="st0">
	<path class="st1" d="M2014.7,146.7c-26,8.2-31.7-10-57.8-1.8c-26,8.2-20.3,26.3-46.4,34.5c-26,8.2-31.7-10-57.7-1.8
		s-20.3,26.3-46.4,34.5s-31.7-10-57.7-1.8s-20.3,26.3-46.4,34.5c-26,8.2-31.7-9.9-57.7-1.8s-20.3,26.3-46.4,34.5
		c-26,8.2-31.7-10-57.8-1.8c-26,8.2-20.3,26.3-46.4,34.5c-26,8.2-31.7-10-57.7-1.8s-20.3,26.3-46.4,34.5s-31.7-10-57.7-1.8
		s-20.3,26.3-46.4,34.5s-31.7-10-57.7-1.8s-20.3,26.3-46.4,34.5s-31.7-10-57.7-1.8s-20.3,26.3-46.4,34.5c-26,8.2-31.7-9.9-57.7-1.8
		c-26,8.2-20.3,26.3-46.4,34.5c-26,8.2-31.7-10-57.7-1.8s-20.3,26.3-46.4,34.5c-26,8.2-31.7-9.9-57.7-1.8
		c-26,8.2-20.3,26.3-46.4,34.5c-26,8.2-31.7-10-57.7-1.8s-20.3,26.3-46.4,34.5c-26,8.2-31.7-10-57.7-1.8s-20.3,26.3-46.4,34.5
		c-26,8.2-31.7-10-57.7-1.8S479.1,629,453,637.2c-26,8.2-31.7-10-57.7-1.8s-20.3,26.3-46.4,34.5c-26,8.2-31.7-10-57.7-1.8
		s-20.3,26.3-46.4,34.5c-26,8.2-31.7-10-57.7-1.8s-20.3,26.3-46.4,34.5c-26,8.2-31.7-10-57.7-1.8S62.7,759.8,36.6,768
		c-23.6,7.4-30.5-6.8-50.8-3.5"/>
</g>
<g class="st0">
	<path class="st1" d="M2014.7,119.3c-26,8.2-31.7-10-57.8-1.8c-26,8.2-20.3,26.3-46.4,34.5c-26,8.2-31.7-10-57.7-1.8
		s-20.3,26.3-46.4,34.5s-31.7-10-57.7-1.8s-20.3,26.3-46.4,34.5c-26,8.2-31.7-9.9-57.7-1.8s-20.3,26.3-46.4,34.5
		c-26,8.2-31.7-10-57.8-1.8c-26,8.2-20.3,26.3-46.4,34.5c-26,8.2-31.7-10-57.7-1.8s-20.3,26.3-46.4,34.5s-31.7-10-57.7-1.8
		s-20.3,26.3-46.4,34.5s-31.7-10-57.7-1.8s-20.3,26.3-46.4,34.5s-31.7-10-57.7-1.8s-20.3,26.3-46.4,34.5c-26,8.2-31.7-9.9-57.7-1.8
		c-26,8.2-20.3,26.3-46.4,34.5c-26,8.2-31.7-10-57.7-1.8s-20.3,26.3-46.4,34.5c-26,8.2-31.7-9.9-57.7-1.8
		c-26,8.2-20.3,26.3-46.4,34.5s-31.7-10-57.7-1.8s-20.3,26.3-46.4,34.5c-26,8.2-31.7-10-57.7-1.8s-20.3,26.3-46.4,34.5
		c-26,8.2-31.7-10-57.7-1.8s-20.3,26.3-46.4,34.5c-26,8.2-31.7-10-57.7-1.8s-20.3,26.3-46.4,34.5c-26,8.2-31.7-10-57.7-1.8
		s-20.3,26.3-46.4,34.5c-26,8.2-31.7-10-57.7-1.8s-20.3,26.3-46.4,34.5c-26,8.2-31.7-10-57.7-1.8s-20.3,26.3-46.4,34.5
		c-23.6,7.4-30.5-6.8-50.8-3.5"/>
</g>
<g class="st0">
	<path class="st1" d="M2014.7,91.9c-26,8.2-31.7-10-57.8-1.8c-26,8.2-20.3,26.3-46.4,34.5c-26,8.2-31.7-10-57.7-1.8
		s-20.3,26.3-46.4,34.5s-31.7-10-57.7-1.8s-20.3,26.3-46.4,34.5c-26,8.2-31.7-9.9-57.7-1.8s-20.3,26.3-46.4,34.5
		c-26,8.2-31.7-10-57.8-1.8c-26,8.2-20.3,26.3-46.4,34.5c-26,8.2-31.7-10-57.7-1.8c-26,8.2-20.3,26.3-46.4,34.5s-31.7-10-57.7-1.8
		s-20.3,26.3-46.4,34.5s-31.7-10-57.7-1.8s-20.3,26.3-46.4,34.5s-31.7-10-57.7-1.8s-20.3,26.3-46.4,34.5c-26,8.2-31.7-9.9-57.7-1.8
		c-26,8.2-20.3,26.3-46.4,34.5c-26,8.2-31.7-10-57.7-1.8s-20.3,26.3-46.4,34.5c-26,8.2-31.7-9.9-57.7-1.8
		c-26,8.2-20.3,26.3-46.4,34.5s-31.7-10-57.7-1.8s-20.3,26.3-46.4,34.5c-26,8.2-31.7-10-57.7-1.8s-20.3,26.3-46.4,34.5
		c-26,8.2-31.7-10-57.7-1.8s-20.3,26.3-46.4,34.5c-26,8.2-31.7-10-57.7-1.8s-20.3,26.3-46.4,34.5c-26,8.2-31.7-10-57.7-1.8
		s-20.3,26.3-46.4,34.5c-26,8.2-31.7-10-57.7-1.8s-20.3,26.3-46.4,34.5c-26,8.2-31.7-10-57.7-1.8S62.7,705,36.6,713.2
		c-23.6,7.4-30.5-6.8-50.8-3.5"/>
</g>
<g class="st0">
	<path class="st1" d="M2014.7,64.5c-26,8.2-31.7-10-57.8-1.8c-26,8.2-20.3,26.3-46.4,34.5c-26,8.2-31.7-10-57.7-1.8
		s-20.3,26.3-46.4,34.5s-31.7-10-57.7-1.8s-20.3,26.3-46.4,34.5c-26,8.2-31.7-9.9-57.7-1.8s-20.3,26.3-46.4,34.5
		c-26,8.2-31.7-10-57.8-1.8c-26,8.2-20.3,26.3-46.4,34.5c-26,8.2-31.7-10-57.7-1.8s-20.3,26.3-46.4,34.5c-26,8.2-31.7-10-57.7-1.8
		s-20.3,26.3-46.4,34.5s-31.7-10-57.7-1.8s-20.3,26.3-46.4,34.5s-31.7-10-57.7-1.8s-20.3,26.3-46.4,34.5c-26,8.2-31.7-9.9-57.7-1.8
		c-26,8.2-20.3,26.3-46.4,34.5c-26,8.2-31.7-10-57.7-1.8s-20.3,26.3-46.4,34.5c-26,8.2-31.7-9.9-57.7-1.8
		c-26,8.2-20.3,26.3-46.4,34.5c-26,8.2-31.7-10-57.7-1.8s-20.3,26.3-46.4,34.5c-26,8.2-31.7-10-57.7-1.8s-20.3,26.3-46.4,34.5
		c-26,8.2-31.7-10-57.7-1.8S479.1,546.8,453,555c-26,8.2-31.7-10-57.7-1.8s-20.3,26.3-46.4,34.5c-26,8.2-31.7-10-57.7-1.8
		s-20.3,26.3-46.4,34.5c-26,8.2-31.7-10-57.7-1.8s-20.3,26.3-46.4,34.5c-26,8.2-31.7-10-57.7-1.8s-20.3,26.3-46.4,34.5
		c-23.6,7.4-30.5-6.8-50.8-3.5"/>
</g>
<g class="st0">
	<path class="st1" d="M2014.7,37.1c-26,8.2-31.7-10-57.8-1.8c-26,8.2-20.3,26.3-46.4,34.5c-26,8.2-31.7-10-57.7-1.8
		s-20.3,26.3-46.4,34.5s-31.7-10-57.7-1.8s-20.3,26.3-46.4,34.5c-26,8.2-31.7-9.9-57.7-1.8s-20.3,26.3-46.4,34.5
		c-26,8.2-31.7-10-57.8-1.8c-26,8.2-20.3,26.3-46.4,34.5c-26,8.2-31.7-10-57.7-1.8s-20.3,26.3-46.4,34.5s-31.7-10-57.7-1.8
		s-20.3,26.3-46.4,34.5s-31.7-10-57.7-1.8s-20.3,26.3-46.4,34.5s-31.7-10-57.7-1.8s-20.3,26.3-46.4,34.5c-26,8.2-31.7-9.9-57.7-1.8
		c-26,8.2-20.3,26.3-46.4,34.5c-26,8.2-31.7-10-57.7-1.8s-20.3,26.3-46.4,34.5c-26,8.2-31.7-9.9-57.7-1.8
		c-26,8.2-20.3,26.3-46.4,34.5c-26,8.2-31.7-10-57.7-1.8s-20.3,26.3-46.4,34.5c-26,8.2-31.7-10-57.7-1.8s-20.3,26.3-46.4,34.5
		c-26,8.2-31.7-10-57.7-1.8s-20.3,26.3-46.4,34.5c-26,8.2-31.7-10-57.7-1.8s-20.3,26.3-46.4,34.5c-26,8.2-31.7-10-57.7-1.8
		s-20.3,26.3-46.4,34.5c-26,8.2-31.7-10-57.7-1.8s-20.3,26.3-46.4,34.5c-26,8.2-31.7-10-57.7-1.8s-20.3,26.3-46.4,34.5
		c-23.6,7.4-30.5-6.8-50.8-3.5"/>
</g>
<g class="st0">
	<path class="st1" d="M2014.7,9.6c-26,8.2-31.7-10-57.8-1.8c-26,8.2-20.3,26.3-46.4,34.5c-26,8.2-31.7-10-57.7-1.8
		s-20.3,26.3-46.4,34.5s-31.7-10-57.7-1.8s-20.3,26.3-46.4,34.5c-26,8.2-31.7-9.9-57.7-1.8s-20.3,26.3-46.4,34.5
		c-26,8.2-31.7-10-57.8-1.8c-26,8.2-20.3,26.3-46.4,34.5c-26,8.2-31.7-10-57.7-1.8s-20.3,26.3-46.4,34.5s-31.7-10-57.7-1.8
		s-20.3,26.3-46.4,34.5c-26,8.2-31.7-10-57.7-1.8s-20.3,26.3-46.4,34.5s-31.7-10-57.7-1.8s-20.3,26.3-46.4,34.5
		c-26,8.2-31.7-9.9-57.7-1.8c-26,8.2-20.3,26.3-46.4,34.5c-26,8.2-31.7-10-57.7-1.8s-20.3,26.3-46.4,34.5c-26,8.2-31.7-9.9-57.7-1.8
		c-26,8.2-20.3,26.3-46.4,34.5c-26,8.2-31.7-10-57.7-1.8s-20.3,26.3-46.4,34.5c-26,8.2-31.7-10-57.7-1.8s-20.3,26.3-46.4,34.5
		c-26,8.2-31.7-10-57.7-1.8s-20.3,26.3-46.4,34.5c-26,8.2-31.7-10-57.7-1.8s-20.3,26.3-46.4,34.5c-26,8.2-31.7-10-57.7-1.8
		s-20.3,26.3-46.4,34.5c-26,8.2-31.7-10-57.7-1.8s-20.3,26.3-46.4,34.5c-26,8.2-31.7-10-57.7-1.8s-20.3,26.3-46.4,34.5
		c-23.6,7.4-30.5-6.8-50.8-3.5"/>
</g>
<g class="st0">
	<path class="st1" d="M2014.7-17.8c-0.1,0-0.2,0.1-0.2,0.1c-11.2,3.5-18.6,2.1-25.5,0c-9.1-2.7-17.3-6.5-32-1.8
		c-1.8,0.6-3.5,1.2-5,1.8c-20.4,8.8-17.2,25-41.4,32.6c-26,8.2-31.7-10-57.7-1.8s-20.3,26.3-46.4,34.5s-31.7-10-57.7-1.8
		s-20.3,26.3-46.4,34.5c-26,8.2-31.7-9.9-57.7-1.8s-20.3,26.3-46.4,34.5c-26,8.2-31.7-10-57.8-1.8c-26,8.2-20.3,26.3-46.4,34.5
		c-26,8.2-31.7-10-57.7-1.8s-20.3,26.3-46.4,34.5s-31.7-10-57.7-1.8s-20.3,26.3-46.4,34.5c-26,8.2-31.7-10-57.7-1.8
		s-20.3,26.3-46.4,34.5s-31.7-10-57.7-1.8s-20.3,26.3-46.4,34.5c-26,8.2-31.7-9.9-57.7-1.8c-26,8.2-20.3,26.3-46.4,34.5
		c-26,8.2-31.7-10-57.7-1.8s-20.3,26.3-46.4,34.5c-26,8.2-31.7-9.9-57.7-1.8c-26,8.2-20.3,26.3-46.4,34.5s-31.7-10-57.7-1.8
		s-20.3,26.3-46.4,34.5c-26,8.2-31.7-10-57.7-1.8s-20.3,26.3-46.4,34.5c-26,8.2-31.7-10-57.7-1.8s-20.3,26.3-46.4,34.5
		c-26,8.2-31.7-10-57.7-1.8s-20.3,26.3-46.4,34.5c-26,8.2-31.7-10-57.7-1.8s-20.3,26.3-46.4,34.5c-26,8.2-31.7-10-57.7-1.8
		s-20.3,26.3-46.4,34.5c-26,8.2-31.7-10-57.7-1.8s-20.3,26.3-46.4,34.5c-23.6,7.4-30.5-6.8-50.8-3.5"/>
</g>
<g class="st0">
	<path class="st1" d="M1921.8-17.7c-3,2-6.6,3.8-11.3,5.2c-26,8.2-31.7-10-57.7-1.8s-20.3,26.3-46.4,34.5s-31.7-10-57.7-1.8
		s-20.3,26.3-46.4,34.5c-26,8.2-31.7-9.9-57.7-1.8s-20.3,26.3-46.4,34.5c-26,8.2-31.7-10-57.8-1.8c-26,8.2-20.3,26.3-46.4,34.5
		c-26,8.2-31.7-10-57.7-1.8s-20.3,26.3-46.4,34.5s-31.7-10-57.7-1.8s-20.3,26.3-46.4,34.5c-26,8.2-31.7-10-57.7-1.8
		s-20.3,26.3-46.4,34.5s-31.7-10-57.7-1.8s-20.3,26.3-46.4,34.5c-26,8.2-31.7-9.9-57.7-1.8c-26,8.2-20.3,26.3-46.4,34.5
		c-26,8.2-31.7-10-57.7-1.8s-20.3,26.3-46.4,34.5c-26,8.2-31.7-9.9-57.7-1.8c-26,8.2-20.3,26.3-46.4,34.5s-31.7-10-57.7-1.8
		s-20.3,26.3-46.4,34.5c-26,8.2-31.7-10-57.7-1.8s-20.3,26.3-46.4,34.5c-26,8.2-31.7-10-57.7-1.8s-20.3,26.3-46.4,34.5
		c-26,8.2-31.7-10-57.7-1.8S375,469.8,348.9,478s-31.7-10-57.7-1.8s-20.3,26.3-46.4,34.5c-26,8.2-31.7-10-57.7-1.8
		s-20.3,26.3-46.4,34.5c-26,8.2-31.7-10-57.7-1.8s-20.3,26.3-46.4,34.5c-23.6,7.4-30.5-6.8-50.8-3.5"/>
</g>
<g class="st0">
	<path class="st1" d="M1824-17.7c-3.9,4.1-9.1,7.8-17.6,10.5c-26,8.2-31.7-10-57.7-1.8s-20.3,26.3-46.4,34.5
		c-26,8.2-31.7-9.9-57.7-1.8s-20.3,26.3-46.4,34.5c-26,8.2-31.7-10-57.8-1.8c-26,8.2-20.3,26.3-46.4,34.5c-26,8.2-31.7-10-57.7-1.8
		s-20.3,26.3-46.4,34.5s-31.7-10-57.7-1.8s-20.3,26.3-46.4,34.5c-26,8.2-31.7-10-57.7-1.8s-20.3,26.3-46.4,34.5s-31.7-10-57.7-1.8
		s-20.3,26.3-46.4,34.5c-26,8.2-31.7-9.9-57.7-1.8c-26,8.2-20.3,26.3-46.4,34.5c-26,8.2-31.7-10-57.7-1.8
		c-26,8.2-20.3,26.3-46.4,34.5c-26,8.2-31.7-9.9-57.7-1.8c-26,8.2-20.3,26.3-46.4,34.5s-31.7-10-57.7-1.8s-20.3,26.3-46.4,34.5
		c-26,8.2-31.7-10-57.7-1.8s-20.3,26.3-46.4,34.5c-26,8.2-31.7-10-57.7-1.8s-20.3,26.3-46.4,34.5c-26,8.2-31.7-10-57.7-1.8
		s-20.3,26.3-46.4,34.5s-31.7-10-57.7-1.8s-20.3,26.3-46.4,34.5s-31.7-10-57.7-1.8s-20.3,26.3-46.4,34.5c-26,8.2-31.7-10-57.7-1.8
		s-20.3,26.3-46.4,34.5c-23.6,7.4-30.5-6.8-50.8-3.5"/>
</g>
<g class="st0">
	<path class="st1" d="M1724.4-17.7c-4.7,6.1-10,12-22.1,15.8c-26,8.2-31.7-9.9-57.7-1.8s-20.3,26.3-46.4,34.5
		c-26,8.2-31.7-10-57.8-1.8c-26,8.2-20.3,26.3-46.4,34.5c-26,8.2-31.7-10-57.7-1.8S1416,88,1389.9,96.2s-31.7-10-57.7-1.8
		s-20.3,26.3-46.4,34.5s-31.7-10-57.7-1.8s-20.3,26.3-46.4,34.5s-31.7-10-57.7-1.8s-20.3,26.3-46.4,34.5c-26,8.2-31.7-9.9-57.7-1.8
		c-26,8.2-20.3,26.3-46.4,34.5c-26,8.2-31.7-10-57.7-1.8s-20.3,26.3-46.4,34.5c-26,8.2-31.7-9.9-57.7-1.8
		c-26,8.2-20.3,26.3-46.4,34.5s-31.7-10-57.7-1.8s-20.3,26.3-46.4,34.5c-26,8.2-31.7-10-57.7-1.8s-20.3,26.3-46.4,34.5
		c-26,8.2-31.7-10-57.7-1.8s-20.3,26.3-46.4,34.5c-26,8.2-31.7-10-57.7-1.8S375,415,348.9,423.2s-31.7-10-57.7-1.8
		s-20.3,26.3-46.4,34.5s-31.7-10-57.7-1.8s-20.3,26.3-46.4,34.5c-26,8.2-31.7-10-57.7-1.8s-20.3,26.3-46.4,34.5
		c-23.6,7.4-30.5-6.8-50.8-3.5"/>
</g>
<g class="st0">
	<path class="st1" d="M1624.4-17.7c-6.4,7.7-10.7,16.2-26.2,21.1c-26,8.2-31.7-10-57.8-1.8c-26,8.2-20.3,26.3-46.4,34.5
		c-26,8.2-31.7-10-57.7-1.8s-20.3,26.3-46.4,34.5s-31.7-10-57.7-1.8s-20.3,26.3-46.4,34.5s-31.7-10-57.7-1.8s-20.3,26.3-46.4,34.5
		s-31.7-10-57.7-1.8s-20.3,26.3-46.4,34.5c-26,8.2-31.7-9.9-57.7-1.8c-26,8.2-20.3,26.3-46.4,34.5c-26,8.2-31.7-10-57.7-1.8
		s-20.3,26.3-46.4,34.5c-26,8.2-31.7-9.9-57.7-1.8c-26,8.2-20.3,26.3-46.4,34.5s-31.7-10-57.7-1.8s-20.3,26.3-46.4,34.5
		c-26,8.2-31.7-10-57.7-1.8s-20.3,26.3-46.4,34.5c-26,8.2-31.7-10-57.7-1.8s-20.3,26.3-46.4,34.5c-26,8.2-31.7-10-57.7-1.8
		s-20.3,26.3-46.4,34.5s-31.7-10-57.7-1.8s-20.3,26.3-46.4,34.5s-31.7-10-57.7-1.8s-20.3,26.3-46.4,34.5c-26,8.2-31.7-10-57.7-1.8
		s-20.3,26.3-46.4,34.5c-23.6,7.4-30.5-6.8-50.8-3.5"/>
</g>
<g class="st0">
	<path class="st1" d="M1525.4-17.7c-10.2,8.9-12.1,20.3-31.3,26.4c-26,8.2-31.7-10-57.7-1.8s-20.3,26.3-46.4,34.5s-31.7-10-57.7-1.8
		s-20.3,26.3-46.4,34.5s-31.7-10-57.7-1.8s-20.3,26.3-46.4,34.5s-31.7-10-57.7-1.8s-20.3,26.3-46.4,34.5c-26,8.2-31.7-9.9-57.7-1.8
		c-26,8.2-20.3,26.3-46.4,34.5c-26,8.2-31.7-10-57.7-1.8s-20.3,26.3-46.4,34.5c-26,8.2-31.7-9.9-57.7-1.8
		c-26,8.2-20.3,26.3-46.4,34.5c-26,8.2-31.7-10-57.7-1.8s-20.3,26.3-46.4,34.5c-26,8.2-31.7-10-57.7-1.8s-20.3,26.3-46.4,34.5
		c-26,8.2-31.7-10-57.7-1.8s-20.3,26.3-46.4,34.5c-26,8.2-31.7-10-57.7-1.8s-20.3,26.3-46.4,34.5s-31.7-10-57.7-1.8
		s-20.3,26.3-46.4,34.5s-31.7-10-57.7-1.8s-20.3,26.3-46.4,34.5c-26,8.2-31.7-10-57.7-1.8s-20.3,26.3-46.4,34.5
		c-23.6,7.4-30.5-6.8-50.8-3.5"/>
</g>
<g class="st0">
	<path class="st1" d="M-14.3,435.5c20.4-3.3,27.3,10.9,50.8,3.5c26-8.2,20.3-26.3,46.4-34.5c26-8.2,31.7,10,57.7,1.8
		s20.3-26.3,46.4-34.5c26-8.2,31.7,10,57.7,1.8s20.3-26.3,46.4-34.5c26-8.2,31.7,10,57.7,1.8s20.3-26.3,46.4-34.5
		c26-8.2,31.7,9.9,57.7,1.8c26-8.2,20.3-26.3,46.4-34.5c26-8.2,31.7,10,57.7,1.8s20.3-26.3,46.4-34.5c26-8.2,31.7,9.9,57.7,1.8
		c26-8.2,20.3-26.3,46.4-34.5c26-8.2,31.7,10,57.7,1.8s20.3-26.3,46.4-34.5c26-8.2,31.7,10,57.7,1.8s20.3-26.3,46.4-34.5
		c26-8.2,31.7,10,57.7,1.8s20.3-26.3,46.4-34.5c26-8.2,31.7,10,57.7,1.8s20.3-26.3,46.4-34.5c26-8.2,31.7,10,57.7,1.8
		s20.3-26.3,46.4-34.5c26-8.2,31.7,10,57.7,1.8s20.3-26.3,46.4-34.5s31.7,10,57.7,1.8c23.3-7.3,21.2-22.7,39.3-31.6
		c2.1-1,4.4-2,7.1-2.8c16.6-5.2,25,0.3,35.6,2.8c5.2,1.2,10.9,1.8,18.4,0"/>
</g>
<g class="st0">
	<path class="st1" d="M1399.7-17.7c-2.7,1.6-5.8,3-9.7,4.2c-26,8.2-31.7-10-57.7-1.8S1312,11,1285.9,19.2s-31.7-10-57.7-1.8
		s-20.3,26.3-46.4,34.5s-31.7-10-57.7-1.8s-20.3,26.3-46.4,34.5c-26,8.2-31.7-9.9-57.7-1.8c-26,8.2-20.3,26.3-46.4,34.5
		c-26,8.2-31.7-10-57.7-1.8s-20.3,26.3-46.4,34.5c-26,8.2-31.7-9.9-57.7-1.8c-26,8.2-20.3,26.3-46.4,34.5c-26,8.2-31.7-10-57.7-1.8
		s-20.3,26.3-46.4,34.5c-26,8.2-31.7-10-57.7-1.8s-20.3,26.3-46.4,34.5c-26,8.2-31.7-10-57.7-1.8s-20.3,26.3-46.4,34.5
		c-26,8.2-31.7-10-57.7-1.8s-20.3,26.3-46.4,34.5s-31.7-10-57.7-1.8S271,338,244.9,346.2s-31.7-10-57.7-1.8s-20.3,26.3-46.4,34.5
		c-26,8.2-31.7-10-57.7-1.8s-20.3,26.3-46.4,34.5c-23.6,7.4-30.5-6.8-50.8-3.5"/>
</g>
<g class="st0">
	<path class="st1" d="M1302.5-17.7c-3.8,3.7-8.8,7.1-16.6,9.5c-26,8.2-31.7-10-57.7-1.8s-20.3,26.3-46.4,34.5s-31.7-10-57.7-1.8
		s-20.3,26.3-46.4,34.5c-26,8.2-31.7-9.9-57.7-1.8c-26,8.2-20.3,26.3-46.4,34.5c-26,8.2-31.7-10-57.7-1.8s-20.3,26.3-46.4,34.5
		c-26,8.2-31.7-9.9-57.7-1.8c-26,8.2-20.3,26.3-46.4,34.5s-31.7-10-57.7-1.8s-20.3,26.3-46.4,34.5c-26,8.2-31.7-10-57.7-1.8
		s-20.3,26.3-46.4,34.5c-26,8.2-31.7-10-57.7-1.8s-20.3,26.3-46.4,34.5c-26,8.2-31.7-10-57.7-1.8c-26,8.2-20.3,26.3-46.4,34.5
		s-31.7-10-57.7-1.8s-20.3,26.3-46.4,34.5s-31.7-10-57.7-1.8s-20.3,26.3-46.4,34.5c-26,8.2-31.7-10-57.7-1.8S62.8,376,36.7,384.2
		c-23.6,7.4-30.5-6.8-50.8-3.5"/>
</g>
<g class="st0">
	<path class="st1" d="M1203.1-17.7c-4.6,5.7-9.9,11.2-21.3,14.8c-26,8.2-31.7-10-57.7-1.8s-20.3,26.3-46.4,34.5
		c-26,8.2-31.7-9.9-57.7-1.8c-26,8.2-20.3,26.3-46.4,34.5c-26,8.2-31.7-10-57.7-1.8S895.5,87,869.4,95.2c-26,8.2-31.7-9.9-57.7-1.8
		c-26,8.2-20.3,26.3-46.4,34.5s-31.7-10-57.7-1.8s-20.3,26.3-46.4,34.5c-26,8.2-31.7-10-57.7-1.8s-20.3,26.3-46.4,34.5
		c-26,8.2-31.7-10-57.7-1.8S479.1,217.8,453,226c-26,8.2-31.7-10-57.7-1.8s-20.3,26.3-46.4,34.5s-31.7-10-57.7-1.8
		s-20.3,26.3-46.4,34.5s-31.7-10-57.7-1.8s-20.3,26.3-46.4,34.5c-26,8.2-31.7-10-57.7-1.8s-20.3,26.3-46.4,34.5
		c-23.6,7.4-30.5-6.8-50.8-3.5"/>
</g>
<g class="st0">
	<path class="st1" d="M1103.1-17.7c-6,7.5-10.5,15.4-25.4,20.1c-26,8.2-31.7-9.9-57.7-1.8c-26,8.2-20.3,26.3-46.4,34.5
		c-26,8.2-31.7-10-57.7-1.8s-20.3,26.3-46.4,34.5c-26,8.2-31.7-9.9-57.7-1.8c-26,8.2-20.3,26.3-46.4,34.5s-31.7-10-57.7-1.8
		s-20.3,26.3-46.4,34.5c-26,8.2-31.7-10-57.7-1.8s-20.3,26.3-46.4,34.5c-26,8.2-31.7-10-57.7-1.8s-20.3,26.3-46.4,34.5
		c-26,8.2-31.7-10-57.7-1.8s-20.3,26.3-46.4,34.5s-31.7-10-57.7-1.8S271,255.8,244.9,264c-26.1,8.2-31.7-10-57.7-1.8
		s-20.3,26.3-46.4,34.5c-26,8.2-31.7-10-57.7-1.8s-20.3,26.3-46.4,34.5c-23.6,7.4-30.5-6.8-50.8-3.5"/>
</g>
<g class="st0">
	<path class="st1" d="M1003.8-17.7C994.5-9,992,1.9,973.6,7.7c-26,8.2-31.7-10-57.7-1.8s-20.3,26.3-46.4,34.5
		c-26,8.2-31.7-9.9-57.7-1.8c-26,8.2-20.3,26.3-46.4,34.5s-31.7-10-57.7-1.8s-20.3,26.3-46.4,34.5c-26,8.2-31.7-10-57.7-1.8
		s-20.3,26.3-46.4,34.5c-26,8.2-31.7-10-57.7-1.8s-20.3,26.3-46.4,34.5c-26,8.2-31.7-10-57.7-1.8s-20.3,26.3-46.4,34.5
		s-31.7-10-57.7-1.8s-20.3,26.3-46.4,34.5c-26,8.2-31.7-10-57.7-1.8s-20.3,26.3-46.4,34.5c-26,8.2-31.7-10-57.7-1.8
		S62.8,293.8,36.7,302c-23.6,7.4-30.5-6.8-50.8-3.5"/>
</g>
<g class="st0">
	<path class="st1" d="M-14.3,271c20.4-3.3,27.3,10.9,50.8,3.5c26-8.2,20.3-26.3,46.4-34.5c26-8.2,31.7,10,57.7,1.8
		s20.3-26.3,46.4-34.5c26-8.2,31.7,10,57.7,1.8s20.3-26.3,46.4-34.5c26-8.2,31.7,10,57.7,1.8s20.3-26.3,46.4-34.5
		c26-8.2,31.7,9.9,57.7,1.8c26-8.2,20.3-26.3,46.4-34.5c26-8.2,31.7,10,57.7,1.8s20.3-26.3,46.4-34.5c26-8.2,31.7,9.9,57.7,1.8
		c26-8.2,20.3-26.3,46.4-34.5c26-8.2,31.7,10,57.7,1.8s20.3-26.3,46.4-34.5c26-8.2,31.7,10,57.7,1.8c22.5-7.1,21.3-21.6,37.4-30.6
		c2.5-1.4,5.5-2.7,9-3.8c19.6-6.2,27.7,2.6,41.7,3.8c1.9,0.2,3.9,0.2,6.1,0"/>
</g>
<g class="st0">
	<path class="st1" d="M-14.3,243.6c20.4-3.3,27.3,10.9,50.8,3.5c26-8.2,20.3-26.3,46.4-34.5c26-8.2,31.7,10,57.7,1.8
		s20.3-26.3,46.4-34.5c26-8.2,31.7,10,57.7,1.8s20.3-26.3,46.4-34.5c26-8.2,31.7,10,57.7,1.8s20.3-26.3,46.4-34.5
		c26-8.2,31.7,9.9,57.7,1.8c26-8.2,20.3-26.3,46.4-34.5c26-8.2,31.7,10,57.7,1.8s20.3-26.3,46.4-34.5c26-8.2,31.7,9.9,57.7,1.8
		c26-8.2,20.3-26.3,46.4-34.5c26-8.2,31.7,10,57.7,1.8s20.3-26.3,46.4-34.5c2-0.6,4-1.1,5.8-1.5c5.6-1.1,10.2-0.8,14.4,0
		c11.6,2.2,19.9,8.8,37.5,3.2c3-1,5.6-2,7.9-3.2"/>
</g>
<g class="st0">
	<path class="st1" d="M780.9-17.7c-3.7,3.3-8.4,6.3-15.5,8.5c-26,8.2-31.7-10-57.7-1.8s-20.3,26.3-46.4,34.5
		c-26,8.2-31.7-10-57.7-1.8S583.3,48,557.2,56.2c-26,8.2-31.7-10-57.7-1.8s-20.3,26.3-46.4,34.5c-26,8.2-31.7-10-57.7-1.8
		s-20.3,26.3-46.4,34.5s-31.7-10-57.7-1.8s-20.3,26.3-46.4,34.5s-31.7-10-57.7-1.8s-20.3,26.3-46.4,34.5c-26,8.2-31.7-10-57.7-1.8
		s-20.3,26.3-46.4,34.5c-23.6,7.4-30.5-6.8-50.8-3.5"/>
</g>
<g class="st0">
	<path class="st1" d="M681.7-17.7c-4.4,5.4-9.7,10.4-20.5,13.8c-26,8.2-31.7-10-57.7-1.8s-20.3,26.3-46.4,34.5
		c-26,8.2-31.7-10-57.7-1.8S479.1,53.3,453,61.5c-26,8.2-31.7-10-57.7-1.8S375,86,348.9,94.2s-31.7-10-57.7-1.8
		s-20.3,26.3-46.4,34.5s-31.7-10-57.7-1.8s-20.3,26.3-46.4,34.5c-26,8.2-31.7-10-57.7-1.8s-20.3,26.3-46.4,34.5
		c-23.6,7.4-30.5-6.8-50.8-3.5"/>
</g>
<g class="st0">
	<path class="st1" d="M581.7-17.7c-5.6,7.2-10.4,14.6-24.6,19.1c-26,8.2-31.7-10-57.7-1.8S479.1,25.9,453,34.1
		c-26,8.2-31.7-10-57.7-1.8S375,58.6,348.9,66.8s-31.7-10-57.7-1.8s-20.3,26.3-46.4,34.5s-31.7-10-57.7-1.8s-20.3,26.3-46.4,34.5
		c-26,8.2-31.7-10-57.7-1.8s-20.3,26.3-46.4,34.5c-23.6,7.4-30.5-6.8-50.8-3.5"/>
</g>
<g class="st0">
	<path class="st1" d="M482.2-17.7C473.8-9.2,470.8,1.1,453,6.7c-26,8.2-31.7-10-57.7-1.8S375,31.2,348.9,39.4s-31.7-10-57.7-1.8
		s-20.3,26.3-46.4,34.5s-31.7-10-57.7-1.8s-20.3,26.3-46.4,34.5c-26,8.2-31.7-10-57.7-1.8s-20.3,26.3-46.4,34.5
		c-23.6,7.4-30.5-6.8-50.8-3.5"/>
</g>
<g class="st0">
	<path class="st1" d="M384.6-17.7c-14.4,9.1-14,22.8-35.7,29.7c-26,8.2-31.7-10-57.7-1.8s-20.3,26.3-46.4,34.5s-31.7-10-57.7-1.8
		s-20.3,26.3-46.4,34.5c-26,8.2-31.7-10-57.7-1.8s-20.3,26.3-46.4,34.5c-23.6,7.4-30.5-6.8-50.8-3.5"/>
</g>
<g class="st0">
	<path class="st1" d="M-14.3,79.2C6.1,75.9,13,90,36.6,82.6c26-8.2,20.3-26.3,46.4-34.5c26-8.2,31.7,10,57.7,1.8
		s20.3-26.3,46.4-34.5c26-8.2,31.7,10,57.7,1.8s20.3-26.3,46.4-34.5c0.5-0.2,1.1-0.3,1.6-0.5c9.7-2.8,16.6-1.7,22.8,0
		c9.6,2.7,17.9,7.1,33.4,2.3c2.2-0.7,4.1-1.4,5.9-2.3"/>
</g>
<g class="st0">
	<path class="st1" d="M259.2-17.7c-3.5,2.9-8,5.5-14.4,7.5c-26,8.2-31.7-10-57.7-1.8s-20.3,26.3-46.4,34.5c-26,8.2-31.7-10-57.7-1.8
		S62.7,47,36.6,55.2C13,62.6,6.1,48.5-14.3,51.8"/>
</g>
<g class="st0">
	<path class="st1" d="M160.3-17.7c-4.3,5-9.6,9.7-19.7,12.8c-26,8.2-31.7-10-57.7-1.8S62.6,19.6,36.5,27.8
		C13,35.2,6.1,21.1-14.3,24.4"/>
</g>
<g class="st0">
	<path class="st1" d="M60.4-17.7C55.1-10.8,50.1-3.9,36.6,0.4C13,7.8,6.1-6.3-14.3-3"/>
</g>
</svg>
