<?xml version="1.0" encoding="utf-8"?>
<!-- Generator: Adobe Illustrator 19.2.0, SVG Export Plug-In . SVG Version: 6.00 Build 0)  -->
<!DOCTYPE svg PUBLIC "-//W3C//DTD SVG 1.1//EN" "http://www.w3.org/Graphics/SVG/1.1/DTD/svg11.dtd">
<svg version="1.1" id="Layer_1" xmlns="http://www.w3.org/2000/svg" xmlns:xlink="http://www.w3.org/1999/xlink" x="0px" y="0px"
	 viewBox="0 0 128 128" style="enable-background:new 0 0 128 128;" xml:space="preserve">
<path d="M94.9,104c2.6-0.4,4.5-1.4,5.6-3.1c1.5-2.3,1-5.1,0.8-5.7V83.5h4.8c1,0,2-0.5,2.5-1.4c0.6-0.9,0.6-2,0.2-2.9l-6.6-13.8
	c-0.6-1.3-1.1-2.7-1.4-4.2l-0.5-2.8c-0.3-1.8-0.9-3.5-1.9-5.3l-2.6-4.8c-3.3-6-8.5-10.7-14.5-13C80.8,35,67.6,28.7,55,35.4
	c-0.4,0.2-0.5,0.6-0.3,1s0.6,0.5,1,0.3c12-6.4,24.9-0.2,25-0.1c5.8,2.3,10.7,6.7,13.8,12.4l2.6,4.8c0.9,1.6,1.5,3.2,1.7,4.9l0.5,2.8
	c0.3,1.6,0.8,3.2,1.5,4.6l6.6,13.8c0.2,0.5,0.2,1.1-0.1,1.5c-0.3,0.5-0.8,0.7-1.3,0.7h-5.6c-0.4,0-0.7,0.3-0.7,0.7v12.5
	c0,0.1,0,0.1,0,0.2c0,0,0.7,2.6-0.6,4.6c-0.9,1.3-2.4,2.1-4.6,2.4c-10.6,1.5-15.3-0.9-15.3-1c-0.1,0-0.1,0-0.2-0.1c0,0,0,0-0.1,0
	l0,0c-0.1,0-0.1,0-0.2,0h-0.1c0,0-0.1,0-0.1,0.1c0,0-0.1,0-0.1,0.1l-0.1,0.1l-0.1,0.1l0,0v0.1c0,0.1-0.1,0.1-0.1,0.2L75,120.7
	c-0.1,0.4,0.2,0.8,0.6,0.8h0.1c0.4,0,0.7-0.3,0.7-0.6l3-17.7c1.3,0.5,4.1,1.2,8.5,1.2C90.1,104.5,92.3,104.3,94.9,104z"/>
<path d="M66.8,111.5c-0.4-0.1-0.8,0.2-0.9,0.6l-1.5,8H45.1c-0.4,0-0.9-0.2-1.2-0.5s-0.4-0.8-0.3-1.2l2.9-18c0-0.2,0-0.5-0.2-0.6
	C39,92.5,36,83.3,34.8,76.7c-1.4-7.4-1.7-17.8,1-23.4c0.2-0.4,0-0.8-0.3-1c-0.4-0.2-0.8,0-1,0.3c-2.9,5.9-2.6,16.5-1.1,24.3
	c1.3,6.6,4.3,16.1,11.7,23.4l-2.9,17.6c-0.1,0.9,0.1,1.8,0.7,2.4c0.6,0.7,1.4,1.1,2.3,1.1H65l0,0l0,0c0.1,0,0.2,0,0.3-0.1h0.1
	c0.1,0,0.1-0.1,0.1-0.1s0-0.1,0.1-0.1l0.1-0.1v-0.1v-0.1l1.6-8.6C67.4,111.9,67.2,111.5,66.8,111.5z"/>
<path d="M113.1,28l-1.8-1.8c-0.3-0.3-0.8-0.3-1,0s-0.3,0.8,0,1l1.8,1.8c0.1,0.1,0.3,0.2,0.5,0.2s0.4-0.1,0.5-0.2
	C113.4,28.8,113.4,28.3,113.1,28z"/>
<path d="M117.2,32c-0.3-0.3-0.8-0.3-1,0c-0.3,0.3-0.3,0.8,0,1l1.8,1.8c0.1,0.1,0.3,0.2,0.5,0.2s0.4-0.1,0.5-0.2c0.3-0.3,0.3-0.8,0-1
	L117.2,32z"/>
<path d="M113.1,33.1c0.3-0.3,0.3-0.8,0-1c-0.3-0.3-0.8-0.3-1,0l-1.8,1.8c-0.3,0.3-0.3,0.8,0,1c0.1,0.1,0.3,0.2,0.5,0.2
	s0.4-0.1,0.5-0.2L113.1,33.1z"/>
<path d="M119,26.2c-0.3-0.3-0.8-0.3-1,0l-1.8,1.8c-0.3,0.3-0.3,0.8,0,1c0.1,0.1,0.3,0.2,0.5,0.2s0.4-0.1,0.5-0.2l1.8-1.8
	C119.3,27,119.3,26.5,119,26.2z"/>
<path d="M9.5,11.6c0.1,0.1,0.3,0.2,0.5,0.2s0.4-0.1,0.5-0.2c0.3-0.3,0.3-0.8,0-1L8.8,8.8c-0.3-0.3-0.8-0.3-1,0c-0.3,0.3-0.3,0.8,0,1
	L9.5,11.6z"/>
<path d="M15.3,17.5c0.1,0.1,0.3,0.2,0.5,0.2s0.4-0.1,0.5-0.2c0.3-0.3,0.3-0.8,0-1l-1.8-1.8c-0.3-0.3-0.8-0.3-1,0
	c-0.3,0.3-0.3,0.8,0,1L15.3,17.5z"/>
<path d="M8.2,17.7c0.2,0,0.4-0.1,0.5-0.2l1.8-1.8c0.3-0.3,0.3-0.8,0-1c-0.3-0.3-0.8-0.3-1,0l-1.8,1.8c-0.3,0.3-0.3,0.8,0,1
	C7.9,17.6,8.1,17.7,8.2,17.7z"/>
<path d="M14.1,11.9c0.2,0,0.4-0.1,0.5-0.2l1.8-1.8c0.3-0.3,0.3-0.8,0-1c-0.3-0.3-0.8-0.3-1,0l-1.8,1.8c-0.3,0.3-0.3,0.8,0,1
	C13.7,11.8,13.9,11.9,14.1,11.9z"/>
<path d="M119.7,97.5c-0.3-0.3-0.8-0.3-1,0c-0.3,0.3-0.3,0.8,0,1l1.8,1.8c0.1,0.1,0.3,0.2,0.5,0.2s0.4-0.1,0.5-0.2
	c0.3-0.3,0.3-0.8,0-1L119.7,97.5z"/>
<path d="M125.5,103.3c-0.3-0.3-0.8-0.3-1,0c-0.3,0.3-0.3,0.8,0,1l1.8,1.8c0.1,0.1,0.3,0.2,0.5,0.2s0.4-0.1,0.5-0.2
	c0.3-0.3,0.3-0.8,0-1L125.5,103.3z"/>
<path d="M120.4,103.3l-1.8,1.8c-0.3,0.3-0.3,0.8,0,1c0.1,0.1,0.3,0.2,0.5,0.2s0.4-0.1,0.5-0.2l1.8-1.8c0.3-0.3,0.3-0.8,0-1
	C121.2,103,120.7,103,120.4,103.3z"/>
<path d="M124.4,100.3c0.1,0.1,0.3,0.2,0.5,0.2s0.4-0.1,0.5-0.2l1.8-1.8c0.3-0.3,0.3-0.8,0-1c-0.3-0.3-0.8-0.3-1,0l-1.8,1.8
	C124.2,99.6,124.2,100.1,124.4,100.3z"/>
<path d="M53.6,26.9c0.1,0,0.2,0,0.2,0c0.5-0.2,0.9-0.3,1.4-0.5c0.4-0.1,0.6-0.5,0.5-0.9s-0.5-0.6-0.9-0.5c-0.5,0.2-0.9,0.3-1.4,0.5
	c-0.4,0.1-0.6,0.6-0.4,0.9C53.1,26.8,53.3,26.9,53.6,26.9z"/>
<path d="M105.8,46.6c-0.4,0.2-0.5,0.6-0.3,1c0.4,0.9,0.9,1.8,1.2,2.7c0.1,0.3,0.4,0.5,0.7,0.5c0.1,0,0.2,0,0.3-0.1
	c0.4-0.2,0.6-0.6,0.4-1c-0.4-0.9-0.8-1.9-1.3-2.8C106.6,46.6,106.2,46.5,105.8,46.6z"/>
<path d="M100.8,39.1c-0.3,0.3-0.4,0.7-0.1,1c0.6,0.8,1.2,1.6,1.8,2.4c0.1,0.2,0.4,0.3,0.6,0.3c0.1,0,0.3,0,0.4-0.1
	c0.3-0.2,0.4-0.7,0.2-1c-0.6-0.8-1.2-1.7-1.8-2.5C101.6,38.9,101.1,38.9,100.8,39.1z"/>
<path d="M69.9,23c-0.4,0-0.7,0.3-0.8,0.7c0,0.4,0.3,0.7,0.7,0.8c1,0,2,0.1,3,0.2h0.1c0.4,0,0.7-0.3,0.7-0.7c0-0.4-0.2-0.8-0.6-0.8
	C72,23.1,71,23.1,69.9,23z"/>
<path d="M78.7,25.8c1,0.3,1.9,0.5,2.8,0.9c0.1,0,0.2,0,0.2,0c0.3,0,0.6-0.2,0.7-0.5c0.1-0.4-0.1-0.8-0.5-0.9c-1-0.3-2-0.6-2.9-0.9
	c-0.4-0.1-0.8,0.1-0.9,0.5C78,25.3,78.3,25.7,78.7,25.8z"/>
<path d="M60.9,25L60.9,25c1.1-0.2,2.1-0.3,3-0.4c0.4,0,0.7-0.4,0.7-0.8s-0.4-0.7-0.8-0.7c-1,0.1-2,0.2-3,0.4
	c-0.4,0.1-0.7,0.4-0.6,0.8C60.2,24.8,60.5,25,60.9,25z"/>
<path d="M109.2,58.9c0.1,0.4,0.4,0.6,0.7,0.6h0.1c0.4-0.1,0.7-0.5,0.6-0.9c-0.2-1-0.4-2-0.6-3c-0.1-0.4-0.5-0.6-0.9-0.5
	s-0.6,0.5-0.5,0.9C108.8,56.9,109,57.9,109.2,58.9z"/>
<path d="M87,29c0.9,0.4,1.7,0.9,2.6,1.4c0.1,0.1,0.2,0.1,0.4,0.1c0.3,0,0.5-0.1,0.6-0.4c0.2-0.3,0.1-0.8-0.3-1
	c-0.9-0.5-1.8-1-2.7-1.5c-0.4-0.2-0.8,0-1,0.3C86.5,28.4,86.6,28.8,87,29z"/>
<path d="M96.7,35.8c0.1,0.1,0.3,0.2,0.5,0.2s0.4-0.1,0.5-0.2c0.3-0.3,0.3-0.8,0-1c-0.7-0.7-1.5-1.4-2.3-2c-0.3-0.3-0.8-0.2-1,0.1
	c-0.3,0.3-0.2,0.8,0.1,1C95.2,34.5,95.9,35.1,96.7,35.8z"/>
<path d="M110.6,67c0.4,0,0.7-0.3,0.7-0.7c0-0.5,0-1,0-1.5c0-0.4-0.3-0.7-0.8-0.7c-0.4,0-0.7,0.4-0.7,0.8c0,0.5,0,1,0,1.4
	C109.8,66.6,110.2,67,110.6,67z"/>
<g>
	<g>
		<g>
			<path d="M69,80.8c-1.2,0.4-2.4,0.7-3.7,0.8c-0.2,0-0.4,0-0.5-0.2c-0.1-0.1-0.2-0.3-0.2-0.5c0-1.2-1-2.2-2.2-2.2
				c-1.2,0-2.2,0.8-2.4,2c0,0.2-0.1,0.3-0.3,0.4c-0.2,0.1-0.3,0.1-0.5,0.1c-2.1-0.5-4.1-1.3-5.9-2.5c-0.2-0.1-0.3-0.3-0.3-0.5
				c0-0.2,0-0.4,0.1-0.5c0.8-1,0.7-2.4-0.2-3.2c-0.9-0.8-2.3-0.8-3.2,0.1c-0.1,0.1-0.3,0.2-0.5,0.2c-0.2,0-0.4-0.1-0.5-0.3
				c-1.3-1.7-2.4-3.6-3-5.7l0-0.1c-0.1-0.2,0-0.4,0.1-0.6c0.1-0.2,0.3-0.3,0.5-0.3l0.2,0.6L46.3,68c1.3-0.2,2.2-1.4,2-2.6
				c-0.2-1.3-1.4-2.2-2.6-2c-0.2,0.1-0.4,0-0.6-0.1c-0.2-0.1-0.3-0.3-0.3-0.5c0-2.3,0.5-4.5,1.4-6.7c0.1-0.2,0.3-0.3,0.5-0.4
				c0.2,0,0.4,0,0.6,0.1c0.1,0.1,0.2,0.1,0.3,0.2c1.1,0.7,2.5,0.3,3.2-0.8c0.3-0.5,0.4-1.2,0.3-1.8c-0.1-0.6-0.5-1.1-1-1.4
				c-0.1,0-0.2-0.1-0.3-0.2c-0.2-0.1-0.3-0.3-0.4-0.5c0-0.2,0-0.4,0.2-0.6c1.6-1.8,3.5-3.2,5.6-4.3c0.2-0.1,0.4-0.1,0.6,0
				c0.2,0.1,0.3,0.3,0.3,0.5c0,0.2,0.1,0.4,0.1,0.5c0.4,1.2,1.7,1.9,2.9,1.5c1.2-0.4,1.9-1.7,1.5-2.9c0-0.1-0.1-0.3-0.2-0.4
				c-0.1-0.2-0.1-0.4,0-0.6c0.1-0.2,0.3-0.3,0.5-0.4c2.4-0.3,4.8-0.2,7.1,0.4c0.2,0.1,0.4,0.2,0.5,0.4c0.1,0.2,0,0.4-0.1,0.6
				c-0.1,0.1-0.2,0.3-0.2,0.4c-0.2,0.6-0.2,1.2,0,1.8c0.2,0.6,0.7,1,1.3,1.2c0.6,0.2,1.2,0.2,1.8,0c0.6-0.2,1-0.7,1.2-1.3
				c0.1-0.1,0.1-0.2,0.1-0.3c0.1-0.2,0.2-0.4,0.4-0.5c0.2-0.1,0.4-0.1,0.6,0.1c1.9,1.3,3.6,2.9,5,4.8c0.1,0.2,0.1,0.4,0.1,0.6
				c-0.1,0.2-0.2,0.3-0.4,0.4c-0.1,0-0.2,0.1-0.3,0.1c-0.6,0.3-1,0.8-1.1,1.4c-0.2,0.6-0.1,1.2,0.2,1.8c0.6,1.1,2,1.6,3.2,0.9l0.1,0
				c0.2-0.1,0.4-0.1,0.6-0.1c0.2,0.1,0.3,0.2,0.4,0.4c0.6,2.2,0.8,4.4,0.6,6.6c0,0.2-0.1,0.4-0.3,0.5c-0.2,0.1-0.4,0.1-0.6,0.1
				c-0.7-0.1-1.3,0-1.8,0.3c-0.5,0.3-0.9,0.9-1,1.5c-0.3,1.2,0.5,2.4,1.7,2.7c0.2,0,0.3,0.2,0.4,0.4c0.1,0.2,0.1,0.4,0,0.6
				c-0.9,2-2.1,3.8-3.7,5.3c-0.1,0.1-0.3,0.2-0.5,0.2c-0.2,0-0.4-0.1-0.5-0.2c-0.8-0.9-2.2-1.1-3.2-0.3c-0.9,0.7-1.2,2-0.5,3
				c0.1,0.2,0.1,0.3,0.1,0.5c0,0.2-0.2,0.3-0.3,0.4C70.7,80.2,69.9,80.5,69,80.8z M65.8,80.2c1.6-0.2,3.2-0.7,4.5-1.3
				c-0.5-1.4-0.1-3.1,1.2-4.1c1.4-1.1,3.2-1,4.5,0c1.1-1.2,1.9-2.5,2.6-3.9c-1.4-0.7-2.2-2.4-1.9-4c0.4-1.8,2-3,3.7-2.9
				c0.1-1.6-0.1-3.2-0.4-4.7c-1.6,0.5-3.5-0.2-4.3-1.8c-0.5-0.9-0.6-1.8-0.3-2.8c0.2-0.8,0.8-1.5,1.5-2c-1-1.3-2.2-2.4-3.5-3.4
				c-0.4,0.7-1,1.3-1.8,1.6c-0.9,0.4-1.9,0.4-2.8,0c-0.9-0.4-1.6-1.1-2-1.9c-0.4-0.9-0.4-1.8-0.1-2.7c-1.6-0.3-3.3-0.5-4.9-0.3
				c0.5,1.8-0.6,3.7-2.4,4.3c-1.9,0.6-3.9-0.4-4.6-2.2c-1.4,0.8-2.7,1.8-3.9,3c1.5,1.1,1.9,3.2,0.9,4.8c-0.5,0.8-1.3,1.4-2.3,1.6
				c-0.8,0.2-1.7,0.1-2.5-0.3c-0.6,1.5-0.9,3.1-1,4.7c1.7,0.1,3.2,1.3,3.5,3.1c0.3,1.8-0.8,3.4-2.5,4c0,0,0,0,0,0
				c0.5,1.5,1.3,2.9,2.2,4.2c1.3-0.9,3.2-0.8,4.4,0.3c1.3,1.1,1.6,3,0.8,4.4c1.3,0.8,2.8,1.4,4.3,1.8c0.5-1.5,1.9-2.5,3.5-2.4
				C64,77.5,65.4,78.6,65.8,80.2z"/>
		</g>
	</g>
	<g>
		<path d="M65.5,70.2c-3.8,1.3-7.9-0.8-9.2-4.6c-1.3-3.8,0.8-7.9,4.6-9.2c3.8-1.3,7.9,0.8,9.2,4.6C71.4,64.8,69.3,68.9,65.5,70.2z
			 M61.3,57.7c-3.1,1-4.8,4.4-3.8,7.5c1,3.1,4.4,4.8,7.5,3.8c3.1-1,4.8-4.4,3.8-7.5C67.8,58.3,64.5,56.6,61.3,57.7z"/>
	</g>
</g>
<g>
	<g>
		<path d="M37.8,47.6c-0.1,0-0.2-0.1-0.3-0.2c-0.1-0.1-0.2-0.3-0.2-0.5c0.1-1.1-0.6-2.2-1.7-2.4c-1.1-0.3-2.2,0.3-2.6,1.3
			c-0.1,0.2-0.2,0.3-0.4,0.4c-0.2,0.1-0.4,0-0.5-0.1c-1.7-1-3.1-2.4-4.1-4.2c-0.1-0.2-0.1-0.4-0.1-0.5c0.1-0.2,0.2-0.3,0.4-0.4
			c1-0.5,1.6-1.6,1.3-2.7c-0.3-1.1-1.3-1.7-2.4-1.6c-0.2,0-0.4,0-0.5-0.2c-0.1-0.1-0.2-0.3-0.2-0.5c0-0.9,0.1-1.8,0.3-2.7
			c0.3-1.1,0.7-2.1,1.2-3c0.1-0.2,0.3-0.3,0.4-0.3s0.4,0,0.5,0.1c0.9,0.7,2.2,0.5,3-0.3c0.8-0.8,0.8-2,0.2-2.9
			c-0.1-0.2-0.1-0.3-0.1-0.5c0-0.2,0.2-0.3,0.3-0.4c1.7-1,3.7-1.5,5.7-1.5c0.2,0,0.4,0.1,0.5,0.2c0.1,0.1,0.2,0.3,0.2,0.5
			c-0.1,1.1,0.6,2.2,1.7,2.5c1.1,0.3,2.2-0.3,2.6-1.3c0.1-0.2,0.2-0.3,0.4-0.4c0.2-0.1,0.4,0,0.5,0.1c1.7,1,3.1,2.4,4.1,4.2
			c0.1,0.2,0.1,0.4,0.1,0.5c-0.1,0.2-0.2,0.3-0.4,0.4c-1,0.5-1.6,1.6-1.3,2.7c0.3,1.1,1.3,1.7,2.4,1.6c0.2,0,0.4,0,0.5,0.2
			c0.1,0.1,0.2,0.3,0.2,0.5c0,0.9-0.1,1.8-0.3,2.6c-0.3,1.1-0.7,2.1-1.2,3c-0.1,0.2-0.3,0.3-0.4,0.3c-0.2,0-0.4,0-0.5-0.1
			c-0.9-0.7-2.2-0.5-3,0.3c-0.8,0.8-0.8,2-0.2,2.9c0.1,0.2,0.1,0.3,0.1,0.5c0,0.2-0.2,0.3-0.3,0.4c-1.7,1-3.7,1.5-5.7,1.5
			C37.9,47.6,37.9,47.6,37.8,47.6z M35.9,43.1c1.5,0.4,2.6,1.6,2.7,3.1c1.3-0.1,2.6-0.4,3.8-1c-0.6-1.3-0.3-2.9,0.7-3.9
			c1.1-1.1,2.7-1.4,4.1-0.8c0.3-0.6,0.6-1.3,0.7-2.1c0.1-0.6,0.2-1.1,0.3-1.7c-1.4-0.2-2.6-1.2-3.1-2.6c-0.4-1.5,0.1-3,1.3-3.9
			c-0.7-1.1-1.7-2-2.7-2.8c-0.9,1.2-2.3,1.7-3.8,1.4c-1.5-0.4-2.6-1.6-2.7-3.1c-1.3,0.1-2.6,0.4-3.8,1c0.6,1.3,0.3,2.9-0.7,3.9
			c-1.1,1.1-2.7,1.4-4.1,0.8c-0.3,0.6-0.6,1.3-0.8,2.1c-0.1,0.6-0.2,1.1-0.3,1.7c1.4,0.2,2.6,1.2,3.1,2.6c0.4,1.5-0.1,3-1.3,3.9
			c0.7,1.1,1.7,2,2.7,2.8C33,43.4,34.5,42.8,35.9,43.1z"/>
	</g>
	<g>
		<path d="M36.8,40.5c-2.5-0.6-4-3.1-3.4-5.6c0.6-2.5,3.1-4,5.6-3.4c2.5,0.6,4,3.1,3.4,5.6C41.8,39.6,39.3,41.1,36.8,40.5z
			 M38.7,32.8c-1.8-0.4-3.5,0.6-4,2.4c-0.4,1.8,0.6,3.5,2.4,4c1.8,0.4,3.5-0.6,4-2.4C41.5,35,40.5,33.2,38.7,32.8z"/>
	</g>
</g>
</svg>
