<?xml version="1.0" encoding="utf-8"?>
<!-- Generator: Adobe Illustrator 22.0.1, SVG Export Plug-In . SVG Version: 6.00 Build 0)  -->
<svg version="1.1" id="Layer_1" xmlns="http://www.w3.org/2000/svg" xmlns:xlink="http://www.w3.org/1999/xlink" x="0px" y="0px"
	 viewBox="0 0 1920 1080" style="enable-background:new 0 0 1920 1080;" xml:space="preserve">
<style type="text/css">
	.st0{opacity:0.13;}
</style>
<g class="st0">
	<g>
		<path d="M197,118c0-1.5-1.2-2.6-2.6-2.6h-24.1c-1.5,0-2.6,1.2-2.6,2.6v10.4c0,0.2,0,0.4,0.1,0.6v11.3c-0.6-0.1-1.2-0.3-1.8-0.3
			c-3.9,0-7,3.2-7,7s3.2,7,7,7c3.9,0,7-3.2,7-7c0-0.4-0.1-0.8-0.1-1.1c0.1-0.2,0.1-0.5,0.1-0.7V131h18.7v9.3
			c-0.6-0.1-1.2-0.3-1.8-0.3c-3.9,0-7,3.2-7,7s3.2,7,7,7s7-3.2,7-7c0-0.4-0.1-0.8-0.1-1.1c0.1-0.2,0.1-0.5,0.1-0.7v-16.6
			c0-0.1,0-0.2,0-0.2V118z M172.9,120.6h18.8v5.1h-18.8V120.6z M165.9,148.8c-1,0-1.8-0.8-1.8-1.8s0.8-1.8,1.8-1.8
			c1,0,1.8,0.8,1.8,1.8S166.9,148.8,165.9,148.8z M189.9,148.8c-1,0-1.8-0.8-1.8-1.8s0.8-1.8,1.8-1.8s1.8,0.8,1.8,1.8
			S190.9,148.8,189.9,148.8z"/>
		<path d="M75.9,143c0-0.9-0.2-1.7-0.5-2.4v-9.5l18.8-3.6v8.7c-0.6-0.2-1.2-0.3-1.9-0.3c-3.9,0-7,3.2-7,7s3.2,7,7,7c3.9,0,7-3.2,7-7
			c0-0.3-0.1-0.6-0.1-0.9c0.1-0.3,0.2-0.7,0.2-1v-16.8V114c0-0.8-0.4-1.5-1-2c-0.6-0.5-1.4-0.7-2.2-0.6L72.4,116
			c-1.2,0.2-2.1,1.3-2.1,2.6v10.4v7.2c-0.4-0.1-0.9-0.1-1.3-0.1c-3.9,0-7,3.2-7,7c0,3.9,3.2,7,7,7C72.8,150.1,75.9,146.9,75.9,143z
			 M92.4,144.8c-1,0-1.8-0.8-1.8-1.8s0.8-1.8,1.8-1.8s1.8,0.8,1.8,1.8S93.4,144.8,92.4,144.8z M75.5,120.7l18.8-3.6v5l-18.8,3.6
			V120.7z M68.9,144.8c-1,0-1.8-0.8-1.8-1.8s0.8-1.8,1.8-1.8c0.7,0,1.2,0.4,1.5,0.9c0,0.1,0.1,0.2,0.1,0.3c0.1,0.2,0.1,0.4,0.1,0.6
			C70.7,144,69.9,144.8,68.9,144.8z"/>
		<path d="M169.1,182.7c0-16.9-10.7-31.3-25.7-36.9v-9.5c0-1.5-1.2-2.6-2.6-2.6h-8.2V95.8c0-1.5-1.2-2.6-2.6-2.6
			c-1.5,0-2.6,1.2-2.6,2.6v37.9h-8.5c-1.5,0-2.6,1.2-2.6,2.6v9.4c-15,5.5-25.8,20-25.8,36.9c-0.1,0.2-0.1,0.4-0.1,0.6
			c0,0.3,0.1,0.5,0.1,0.8c0.7,21.1,18.1,38,39.4,38s38.6-16.9,39.4-38c0.1-0.2,0.1-0.5,0.1-0.8C169.2,183.1,169.1,182.9,169.1,182.7
			z M159.1,199.9h-8.7c1.2-4.2,2-8.9,2.2-13.9h11C163.2,191,161.6,195.7,159.1,199.9z M95.8,186h11c0.2,5,1,9.7,2.2,13.9h-8.7
			C97.8,195.7,96.2,191,95.8,186z M99.6,166.7h9.3c-1.2,4.3-2,8.9-2.1,13.9h-11C96,175.7,97.4,170.9,99.6,166.7z M132.3,161.5v-10.6
			c4.1,1.2,7.8,5,10.5,10.6H132.3z M145,166.7c1.4,4.2,2.2,8.9,2.4,13.9h-15.1v-13.9H145z M127.1,150.9v10.6h-10.5
			C119.3,155.9,123,152.1,127.1,150.9z M127.1,166.7v13.9H112c0.2-5,1.1-9.8,2.4-13.9H127.1z M112,186h15.1v13.9h-12.5
			C113.2,195.7,112.3,191,112,186z M127.1,205.2v10.2c-4-1.2-7.6-4.9-10.3-10.2H127.1z M132.3,215.4v-10.2h10.3
			C140,210.5,136.4,214.3,132.3,215.4z M132.3,199.9V186h15.1c-0.2,5-1.2,9.8-2.5,13.9H132.3z M152.7,180.7c-0.2-5-0.9-9.7-2.1-13.9
			h9c0.1,0,0.2,0,0.2,0c2.2,4.2,3.6,8.9,3.9,14C163.7,180.7,152.7,180.7,152.7,180.7z M156.3,161.5h-7.6c-1.8-4.2-4-7.8-6.7-10.5
			C147.7,153.2,152.6,156.8,156.3,161.5z M121.4,139h16.7v5.3c-2.7-0.6-5.5-0.9-8.4-0.9c-2.9,0-5.6,0.3-8.3,0.9V139z M117.4,151
			c-2.6,2.7-4.9,6.3-6.7,10.5h-7.6C106.8,156.8,111.7,153.2,117.4,151z M104.1,205.2h6.8c1.5,3.4,3.3,6.4,5.3,8.8
			C111.5,212,107.4,209,104.1,205.2z M143.2,214c2.1-2.4,3.9-5.4,5.3-8.8h6.8C152,209,147.9,212,143.2,214z"/>
		<path d="M86.8,163.3L76.7,159c-1.3-0.6-2.9,0-3.5,1.4c-0.6,1.3,0,2.9,1.4,3.5l10.1,4.4c0.3,0.1,0.7,0.2,1,0.2c1,0,2-0.6,2.4-1.6
			C88.8,165.4,88.2,163.9,86.8,163.3z"/>
		<path d="M83.4,200.8l-10.1,4.4c-1.3,0.6-2,2.1-1.4,3.5c0.4,1,1.4,1.6,2.4,1.6c0.3,0,0.7-0.1,1-0.2l10.1-4.4c1.3-0.6,2-2.1,1.4-3.5
			C86.3,200.8,84.7,200.2,83.4,200.8z"/>
		<path d="M73.4,187.1l11,0c1.5,0,2.6-1.2,2.6-2.6s-1.2-2.6-2.6-2.6c0,0,0,0,0,0l-11,0c-1.5,0-2.6,1.2-2.6,2.6
			C70.7,186,71.9,187.1,73.4,187.1C73.4,187.1,73.4,187.1,73.4,187.1z"/>
		<path d="M174.7,168.4c0.3,0,0.7-0.1,1-0.2l10.1-4.4c1.3-0.6,2-2.1,1.4-3.5c-0.6-1.3-2.1-2-3.5-1.4l-10.1,4.4
			c-1.3,0.6-2,2.1-1.4,3.5C172.7,167.8,173.7,168.4,174.7,168.4z"/>
		<path d="M183.7,205.2l-10.1-4.4c-1.3-0.6-2.9,0-3.5,1.4c-0.6,1.3,0,2.9,1.4,3.5l10.1,4.4c0.3,0.1,0.7,0.2,1,0.2c1,0,2-0.6,2.4-1.6
			C185.7,207.3,185.1,205.7,183.7,205.2z"/>
		<path d="M187.1,181.9l-11,0c0,0,0,0,0,0c-1.5,0-2.6,1.2-2.6,2.6c0,1.5,1.2,2.6,2.6,2.6l11,0c0,0,0,0,0,0c1.5,0,2.6-1.2,2.6-2.6
			C189.7,183,188.6,181.9,187.1,181.9z"/>
	</g>
	<g>
		<g>
			<g>
				<path d="M478.6,145.6c-4.3,0-8,3.6-8,8v24.1l-3.4,3.6c-0.5-1.2-1.2-2.4-2.2-3.4l-0.2,0c-3.4-3.1-8.7-2.7-11.6,0.7L439.5,196
					c-1.2,1.7-1.7,3.6-1.7,5.5v15.2h-2.4c-1.4,0-2.9,1.2-2.9,2.9v16.2c0,1.4,1.2,2.9,2.9,2.9h36.7c1.4,0,2.9-1.2,2.9-2.9v-16.2
					c0-1.4-1.2-2.9-2.9-2.9h-3.4v-3.9c0-1.2,0.2-2.4,1-3.4l15.7-21.5c0.7-1,1-2.4,1-3.6v-30.9C486.5,149.2,482.9,145.6,478.6,145.6z
					 M470.1,233.6h-32.6v-12.1h32.6V233.6z M481.7,184.4c0,0.2,0,0.7-0.2,1l-15.7,21.5c-1.2,1.9-1.7,3.9-1.7,6v3.9h-21.2v-15
					c0-1,0.2-1.9,0.7-2.7l13.5-17.1c1-1.4,3.1-1.4,4.3-0.2l0.2,0.2c1.7,1.4,1.7,4.1,0.2,5.8l-2.4,2.9c-1,1-0.7,2.4,0.2,3.4
					s2.4,0.7,3.4-0.2l11.3-13c0.5-0.5,0.7-1.2,0.7-1.7v-25.6c0-1.7,1.4-3.1,3.1-3.1s3.1,1.4,3.1,3.1v30.9H481.7z"/>
			</g>
		</g>
		<g>
			<g>
				<path d="M378.2,216.7h-2.4v-15c0-1.9-0.7-3.9-1.9-5.8l-13.5-17.1c-2.9-3.6-8.2-3.9-11.6-0.7l0,0c-1,1-1.7,2.2-2.2,3.4l-3.1-3.6
					v-24.1c0-4.3-3.6-8-8-8c-4.6-0.2-8.2,3.4-8.2,8v30.9c0,1.2,0.5,2.4,1.2,3.6l15.4,21.2c0.7,1,1,2.2,1,3.6v3.6h-3.4
					c-1.4,0-2.9,1.2-2.9,2.9v16.2c0,1.4,1.2,2.9,2.9,2.9h36.7c1.4,0,2.9-1.2,2.9-2.9v-16.2C381.1,217.9,379.9,216.7,378.2,216.7z
					 M347.8,206.6l-15.4-21.2c-0.2-0.2-0.2-0.5-0.2-1v-30.6c0-1.7,1.4-3.1,3.1-3.1s3.1,1.4,3.1,3.1v24.8c0,0.5,0.2,1.4,0.7,1.7
					l11.3,13c1,1,2.4,1.2,3.4,0.2s1.2-2.4,0.2-3.4l-2.4-2.9c-1.4-1.7-1.2-4.3,0.2-5.8l0.2-0.2c1.2-1.2,3.4-1,4.3,0.2l13.5,17.1
					c0.5,0.7,1,1.9,1,2.9v15.2h-21.2v-3.9C349.8,210.7,349,208.5,347.8,206.6z M376.3,233.6h-32.6v-12.1h32.6V233.6z"/>
			</g>
		</g>
		<g>
			<g>
				<path d="M433,202.3c0.7-0.7,1.2-1.7,1.2-2.7v-16.9c0-2.2-1.7-3.9-3.9-3.9h-4.6c1-9.6,5.1-18.8,11.8-26
					c7.7-8.2,11.8-19.1,11.8-30.4c0-24.6-20.5-44.6-45.1-43.2c-21,1.2-38.1,18.3-39.8,39.6c-1.2,12.8,3.4,25.6,12.1,34.7
					c7,7.2,11.1,16.4,12.1,25.8H384c-2.2,0-3.9,1.7-3.9,3.9v16.9c0,2.2,1.7,3.9,3.9,3.9l0,0h10.9l0,0v6h-5.1c-1.4,0-2.4,1.2-2.4,2.4
					c0,1.4,1.2,2.4,2.4,2.4l0,0h5.1c0.7,4.8,4.6,8.4,9.4,8.4l0,0h5.5c4.8,0,8.7-3.6,9.4-8.4h5.1c1.4,0,2.4-1.2,2.4-2.4
					c0-1.4-1-2.4-2.4-2.4h-5.1v-6l0,0h10.9C431.3,203.5,432.3,203,433,202.3z M410.1,218.2h-5.5c-2.7,0-4.6-2.2-4.6-4.8v-9.6h15v9.6
					C414.9,216,412.7,218.2,410.1,218.2z M380.2,150.2c-8-8.2-11.8-19.3-10.9-30.9c1.7-18.8,16.9-34,35.5-35c0.7,0,1.4,0,2.2,0
					c20.7,0,37.6,17.4,37.9,38.6c0,10.1-3.6,19.8-10.6,27c-7.7,8.2-12.3,18.6-13.3,29.4h-11.1v-26h1c1.2,0,2.2-1,2.4-2.2l0.7-5.3
					c2.2-0.5,4.3-1.4,6.3-2.7l4.1,3.1c1,0.7,2.4,0.5,3.4-0.2l4.6-4.6c1-1,1-2.2,0.2-3.1l-3.4-4.3c1.2-1.9,1.9-4.1,2.7-6.3l5.3-0.7
					c1.2-0.2,2.2-1.2,2.2-2.4v-6.5c0-1.2-1-2.2-2.2-2.4l-5.3-0.7c-0.5-2.2-1.4-4.3-2.7-6.3l3.1-4.1c0.7-1,0.7-2.4-0.2-3.4l-4.6-4.6
					c-1-1-2.2-1-3.1-0.2l-4.3,3.4c-1.9-1.2-4.1-1.9-6.3-2.7l-0.7-5.3c-0.2-1.2-1.2-2.2-2.4-2.2H404c-1.2,0-2.2,1-2.4,2.2l-0.7,5.3
					c-2.2,0.7-4.1,1.4-6,2.7l-4.3-3.4c-1-0.7-2.4-0.7-3.1,0.2l-4.6,4.8c-1,1-1,2.2-0.2,3.1l3.4,4.3c-1.2,1.9-1.9,4.1-2.7,6.3
					l-5.3,0.5c-1.2,0.2-2.2,1.2-2.2,2.4v6.5c0,1.2,1,2.2,2.2,2.4l5.3,0.7c0.5,2.2,1.4,4.3,2.7,6.3l-3.4,4.3c-0.7,1-0.7,2.4,0.2,3.1
					l4.6,4.6c1,1,2.2,1,3.1,0.2l4.3-3.4c1.9,1.2,4.1,1.9,6.3,2.7l0.7,5.3c0.2,1.2,1.2,2.2,2.4,2.2h1v26h-11.3
					C392.7,168.5,387.9,158.1,380.2,150.2z M390.5,132.8c-1.4-2.2-2.7-4.8-3.1-7.5c-0.2-1-1-1.7-1.9-1.9l-4.8-0.7v-2.4l4.8-0.7
					c1-0.2,1.9-1,1.9-1.9c0.5-2.7,1.7-5.3,3.1-7.7c0.5-1,0.5-1.9,0-2.9l-2.9-3.6l1.7-1.7l3.9,2.9c0.7,0.7,2.2,0.7,2.9,0
					c2.2-1.4,4.8-2.7,7.5-3.1c1-0.2,1.7-1,1.9-2.2l0.7-4.8h2.4l0.7,4.8c0.2,1,1,1.9,1.9,2.2c2.7,0.5,5.3,1.7,7.5,3.1
					c1,0.5,1.9,0.5,2.9,0l3.9-2.9l1.7,1.7l-2.9,3.9c-0.7,0.7-0.7,1.9,0,2.9c1.4,2.4,2.7,4.8,3.1,7.7c0.2,1,1,1.7,1.9,1.9l4.8,0.7
					v2.4l-4.8,0.7c-1,0.2-1.9,1-1.9,1.9c-0.5,2.7-1.7,5.3-3.1,7.7c-0.5,1-0.5,1.9,0,2.9l2.9,3.9l-1.7,1.7l-4.1-3.4
					c-0.7-0.7-1.9-0.7-2.9,0c-2.2,1.4-4.8,2.7-7.5,3.1c-1,0.2-1.7,1-1.9,2.2l-0.7,4.8H406l-0.7-4.8c-0.2-1-1-1.9-1.9-2.2
					c-2.7-0.5-5.3-1.7-7.5-3.1c-1-0.5-1.9-0.5-2.9,0l-3.9,2.9l-1.4-1.7l2.9-3.9C391.3,135,391.3,133.8,390.5,132.8z M385.2,198.9
					v-14.7c12.8,0,30.4-0.2,44.1-0.2v14.7C403.8,198.9,410.8,198.9,385.2,198.9z"/>
			</g>
		</g>
		<g>
			<g>
				<path d="M407.4,135.7c7.7,0,14-6.3,14-14s-6.3-14-14-14c-7.7,0-14,6.3-14,14S399.7,135.7,407.4,135.7z M407.4,112.3
					c5.1,0,9.2,4.1,9.2,9.2c0,5.1-4.1,9.2-9.2,9.2s-9.2-4.1-9.2-9.2C398.2,116.4,402.3,112.3,407.4,112.3z"/>
			</g>
		</g>
	</g>
	<g>
		<g>
			<path d="M753.3,86.4h-80.1c-3.7,0-6.7,3-6.7,6.7v44.8c0,3.7,3,6.7,6.7,6.7h19.7L678,175h-2.1c-1.4,0-2.3,0.9-2.3,2.3
				c0,1.4,0.9,2.3,2.3,2.3h7.8c1.4,0,2.3-0.9,2.3-2.3c0-1.4-0.9-2.3-2.3-2.3h-0.7l14.9-30.3h12.6v24.1H709c-1.4,0-2.3,0.9-2.3,2.3
				c0,1.4,0.9,2.3,2.3,2.3h7.8c1.4,0,2.3-0.9,2.3-2.3c0-1.4-0.9-2.3-2.3-2.3h-1.6v-24.1h13.1l14.9,30.5h-0.7c-1.4,0-2.3,0.9-2.3,2.3
				c0,1.4,0.9,2.3,2.3,2.3h4.4l0,0l0,0h3.2c1.4,0,2.3-0.9,2.3-2.3c0-1.4-0.9-2.3-2.3-2.3h-1.6l-14.9-30.5h19.7c3.7,0,6.7-3,6.7-6.7
				v-45C760,89.4,757,86.4,753.3,86.4z M755.4,138.1c0,1.1-0.9,2.1-2.1,2.1c-48.7,0-33.3,0-79.9,0c-1.1,0-2.1-0.9-2.1-2.1v-45
				c0-1.1,0.9-2.1,2.1-2.1h79.9c1.1,0,2.1,0.9,2.1,2.1V138.1z"/>
		</g>
		<g>
			<path d="M661.5,200.7c1.4,0,2.3-0.9,2.3-2.3v-42.2c0-9.4-6.9-17.2-15.1-17.2h-25c-8.3,0-15.1,7.6-15.1,17.2v42.5
				c0,1.4,0.9,2.3,2.3,2.3h8.5v29.6c0,3.9,3.2,7.1,7.1,7.1h19.5c3.9,0,7.1-3.2,7.1-7.1v-29.8H661.5z M648.4,230.6
				c0,1.4-1.1,2.5-2.5,2.5h-7.6v-33.3c0-1.4-0.9-2.3-2.3-2.3s-2.3,0.9-2.3,2.3v33.3h-7.3c-1.4,0-2.5-1.1-2.5-2.5V175
				c0-1.4-0.9-2.3-2.3-2.3c-1.4,0-2.3,0.9-2.3,2.3v21.3h-6.2v-40.2c0-6.9,4.8-12.6,10.6-12.6h24.8c6,0,10.6,5.7,10.6,12.6v40.2h-6.2
				V175c0-1.4-0.9-2.3-2.3-2.3c-1.4,0-2.3,0.9-2.3,2.3v55.5H648.4z"/>
		</g>
		<g>
			<path d="M636,136.7c9.4,0,17-7.6,17-17s-7.6-17-17-17s-17,7.6-17,17C619.3,129.1,626.8,136.7,636,136.7z M636,107.3
				c6.9,0,12.4,5.5,12.4,12.4c0,6.9-5.5,12.4-12.4,12.4s-12.4-5.5-12.4-12.4C623.8,113,629.4,107.3,636,107.3z"/>
		</g>
		<g>
			<path d="M691.6,212.2L691.6,212.2c3.7-2.5,6.4-6.9,6.4-11.9c0-7.6-6.2-14-14.2-14c-7.8,0-14.2,6.4-14.2,14
				c0,4.8,2.5,9.4,6.7,11.9h-0.7c-9,0-16.1,7.3-16.1,16.1v6.9c0,1.4,0.9,2.3,2.3,2.3h43.6c1.4,0,2.3-0.9,2.3-2.3v-6.9
				C707.6,219.5,700.3,212.2,691.6,212.2z M683.8,190.9c5.3,0,9.4,4.4,9.4,9.4c0,5.3-4.4,9.4-9.6,9.4c-1.6,0-3.2-0.5-4.6-1.1
				c-3-1.6-4.8-4.8-4.8-8.3C674.1,195.2,678.5,190.9,683.8,190.9z M703,233.1h-39v-4.6c0-6.4,5.3-11.5,11.5-11.5h15.8
				c6.4,0,11.5,5.3,11.5,11.5v4.6H703z"/>
		</g>
		<g>
			<path d="M743.9,212.4L743.9,212.4c3.7-2.5,6.4-6.9,6.4-11.9c0-7.6-6.2-14-14.2-14c-7.8,0-14.2,6.4-14.2,14
				c0,4.8,2.5,9.4,6.7,11.9h-0.7c-9,0-16.1,7.3-16.1,16.1v6.9c0,1.4,0.9,2.3,2.3,2.3h43.6c1.4,0,2.3-0.9,2.3-2.3v-6.9
				C760,219.8,752.8,212.4,743.9,212.4z M736.1,191.1c5.3,0,9.4,4.4,9.4,9.4c0,5.3-4.4,9.4-9.6,9.4c-1.6,0-3.2-0.5-4.6-1.1
				c-3-1.6-4.8-4.8-4.8-8.3C726.4,195.4,730.8,191.1,736.1,191.1z M755.4,233.3h-39v-4.6c0-6.4,5.3-11.5,11.5-11.5h16.1
				c6.4,0,11.5,5.3,11.5,11.5V233.3z"/>
		</g>
		<g>
			<path d="M749.6,106.2c0-0.7-0.2-1.1-0.7-1.6l-9.2-9.2c-0.9-0.9-2.3-0.9-3.2,0c-0.9,0.9-0.9,2.3,0,3.2l5.3,5.3h-20
				c-1.4,0-2.3,0.9-2.3,2.3v11.2h-23c-1.4,0-2.3,0.9-2.3,2.3v11.2h-17c-1.4,0-2.3,0.9-2.3,2.3c0,1.4,0.9,2.3,2.3,2.3h19.3
				c1.4,0,2.3-0.9,2.3-2.3V122h23c1.4,0,2.3-0.9,2.3-2.3v-11.2h17.7l-5.3,5.3c-0.9,0.9-0.9,2.3,0,3.2c0.9,0.9,2.3,0.9,3.2,0l9.2-9.2
				l0,0C749.4,107.3,749.6,106.6,749.6,106.2z"/>
		</g>
	</g>
	<g transform="translate(0,-952.36218)">
		<path d="M926.3,1088.1c-5.9,0-10.7,4.8-10.7,10.7v47.1c0,5.9,4.8,10.7,10.7,10.7h70.7c5.9,0,10.7-4.8,10.7-10.7v-47.1
			c0-5.9-4.8-10.7-10.7-10.7H926.3z M926.3,1092.4h70.7c3.6,0,6.4,2.8,6.4,6.4v47.1c0,3.6-2.8,6.4-6.4,6.4h-70.7
			c-3.6,0-6.4-2.8-6.4-6.4v-47.1C919.9,1095.2,922.7,1092.4,926.3,1092.4z M952.9,1105.1c-1.1,0.1-2,1.1-1.9,2.3v30
			c0,0.8,0.4,1.6,1,2c0.6,0.4,1.5,0.4,2.1,0l23.6-15c1.3-0.8,1.3-3.2,0-3.9l-23.6-15C953.7,1105.2,953.3,1105,952.9,1105.1
			L952.9,1105.1z M955.1,1111.3l17.4,11.1l-17.4,11V1111.3z"/>
	</g>
	<g>
		<path d="M1306.6,118c0-1.5-1.2-2.6-2.6-2.6h-24.1c-1.5,0-2.6,1.2-2.6,2.6v10.4c0,0.2,0,0.4,0.1,0.6v11.3c-0.6-0.1-1.2-0.3-1.8-0.3
			c-3.9,0-7,3.2-7,7s3.2,7,7,7s7-3.2,7-7c0-0.4-0.1-0.8-0.1-1.1c0.1-0.2,0.1-0.5,0.1-0.7V131h18.7v9.3c-0.6-0.1-1.2-0.3-1.8-0.3
			c-3.9,0-7,3.2-7,7s3.2,7,7,7c3.9,0,7-3.2,7-7c0-0.4-0.1-0.8-0.1-1.1c0.1-0.2,0.1-0.5,0.1-0.7v-16.6c0-0.1,0-0.2,0-0.2V118z
			 M1282.5,120.6h18.8v5.1h-18.8V120.6z M1275.5,148.8c-1,0-1.8-0.8-1.8-1.8s0.8-1.8,1.8-1.8c1,0,1.8,0.8,1.8,1.8
			S1276.5,148.8,1275.5,148.8z M1299.5,148.8c-1,0-1.8-0.8-1.8-1.8s0.8-1.8,1.8-1.8c1,0,1.8,0.8,1.8,1.8S1300.5,148.8,1299.5,148.8z
			"/>
		<path d="M1185.5,143c0-0.9-0.2-1.7-0.5-2.4v-9.5l18.8-3.6v8.7c-0.6-0.2-1.2-0.3-1.9-0.3c-3.9,0-7,3.2-7,7s3.2,7,7,7s7-3.2,7-7
			c0-0.3-0.1-0.6-0.1-0.9c0.1-0.3,0.2-0.7,0.2-1v-16.8V114c0-0.8-0.4-1.5-1-2c-0.6-0.5-1.4-0.7-2.2-0.6l-24.1,4.6
			c-1.2,0.2-2.1,1.3-2.1,2.6v10.4v7.2c-0.4-0.1-0.9-0.1-1.3-0.1c-3.9,0-7,3.2-7,7c0,3.9,3.2,7,7,7
			C1182.4,150.1,1185.5,146.9,1185.5,143z M1202,144.8c-1,0-1.8-0.8-1.8-1.8s0.8-1.8,1.8-1.8c1,0,1.8,0.8,1.8,1.8
			S1203,144.8,1202,144.8z M1185.1,120.7l18.8-3.6v5l-18.8,3.6V120.7z M1178.5,144.8c-1,0-1.8-0.8-1.8-1.8s0.8-1.8,1.8-1.8
			c0.7,0,1.2,0.4,1.5,0.9c0,0.1,0.1,0.2,0.1,0.3c0.1,0.2,0.1,0.4,0.1,0.6C1180.3,144,1179.5,144.8,1178.5,144.8z"/>
		<path d="M1278.7,182.7c0-16.9-10.7-31.3-25.7-36.9v-9.5c0-1.5-1.2-2.6-2.6-2.6h-8.2V95.8c0-1.5-1.2-2.6-2.6-2.6s-2.6,1.2-2.6,2.6
			v37.9h-8.5c-1.5,0-2.6,1.2-2.6,2.6v9.4c-15,5.5-25.8,20-25.8,36.9c-0.1,0.2-0.1,0.4-0.1,0.6c0,0.3,0.1,0.5,0.1,0.8
			c0.7,21.1,18.1,38,39.4,38c21.3,0,38.6-16.9,39.4-38c0.1-0.2,0.1-0.5,0.1-0.8C1278.8,183.1,1278.7,182.9,1278.7,182.7z
			 M1268.7,199.9h-8.7c1.2-4.2,2-8.9,2.2-13.9h11C1272.8,191,1271.2,195.7,1268.7,199.9z M1205.3,186h11c0.2,5,1,9.7,2.2,13.9h-8.7
			C1207.4,195.7,1205.8,191,1205.3,186z M1209.2,166.7h9.3c-1.2,4.3-2,8.9-2.1,13.9h-11C1205.6,175.7,1206.9,170.9,1209.2,166.7z
			 M1241.9,161.5v-10.6c4.1,1.2,7.8,5,10.5,10.6H1241.9z M1254.5,166.7c1.4,4.2,2.2,8.9,2.4,13.9h-15.1v-13.9H1254.5z M1236.6,150.9
			v10.6h-10.5C1228.9,155.9,1232.5,152.1,1236.6,150.9z M1236.6,166.7v13.9h-15.1c0.2-5,1.1-9.8,2.4-13.9H1236.6z M1221.6,186h15.1
			v13.9h-12.5C1222.8,195.7,1221.8,191,1221.6,186z M1236.6,205.2v10.2c-4-1.2-7.6-4.9-10.3-10.2H1236.6z M1241.9,215.4v-10.2h10.3
			C1249.6,210.5,1245.9,214.3,1241.9,215.4z M1241.9,199.9V186h15.1c-0.2,5-1.2,9.8-2.5,13.9H1241.9z M1262.3,180.7
			c-0.2-5-0.9-9.7-2.1-13.9h9c0.1,0,0.2,0,0.2,0c2.2,4.2,3.6,8.9,3.9,14C1273.3,180.7,1262.3,180.7,1262.3,180.7z M1265.9,161.5
			h-7.6c-1.8-4.2-4-7.8-6.7-10.5C1257.3,153.2,1262.2,156.8,1265.9,161.5z M1231,139h16.7v5.3c-2.7-0.6-5.5-0.9-8.4-0.9
			c-2.9,0-5.6,0.3-8.3,0.9V139z M1227,151c-2.6,2.7-4.9,6.3-6.7,10.5h-7.6C1216.4,156.8,1221.3,153.2,1227,151z M1213.7,205.2h6.8
			c1.5,3.4,3.3,6.4,5.3,8.8C1221.1,212,1217,209,1213.7,205.2z M1252.8,214c2.1-2.4,3.9-5.4,5.3-8.8h6.8
			C1261.6,209,1257.5,212,1252.8,214z"/>
		<path d="M1196.4,163.3l-10.1-4.4c-1.3-0.6-2.9,0-3.5,1.4c-0.6,1.3,0,2.9,1.4,3.5l10.1,4.4c0.3,0.1,0.7,0.2,1,0.2
			c1,0,2-0.6,2.4-1.6C1198.4,165.4,1197.7,163.9,1196.4,163.3z"/>
		<path d="M1193,200.8l-10.1,4.4c-1.3,0.6-2,2.1-1.4,3.5c0.4,1,1.4,1.6,2.4,1.6c0.3,0,0.7-0.1,1-0.2l10.1-4.4c1.3-0.6,2-2.1,1.4-3.5
			C1195.9,200.8,1194.3,200.2,1193,200.8z"/>
		<path d="M1183,187.1l11,0c1.5,0,2.6-1.2,2.6-2.6s-1.2-2.6-2.6-2.6c0,0,0,0,0,0l-11,0c-1.5,0-2.6,1.2-2.6,2.6
			C1180.3,186,1181.5,187.1,1183,187.1C1183,187.1,1183,187.1,1183,187.1z"/>
		<path d="M1284.3,168.4c0.3,0,0.7-0.1,1-0.2l10.1-4.4c1.3-0.6,2-2.1,1.4-3.5c-0.6-1.3-2.1-2-3.5-1.4l-10.1,4.4
			c-1.3,0.6-2,2.1-1.4,3.5C1282.3,167.8,1283.3,168.4,1284.3,168.4z"/>
		<path d="M1293.3,205.2l-10.1-4.4c-1.3-0.6-2.9,0-3.5,1.4c-0.6,1.3,0,2.9,1.4,3.5l10.1,4.4c0.3,0.1,0.7,0.2,1,0.2
			c1,0,2-0.6,2.4-1.6C1295.3,207.3,1294.7,205.7,1293.3,205.2z"/>
		<path d="M1296.7,181.9l-11,0c0,0,0,0,0,0c-1.5,0-2.6,1.2-2.6,2.6s1.2,2.6,2.6,2.6l11,0c0,0,0,0,0,0c1.5,0,2.6-1.2,2.6-2.6
			C1299.3,183,1298.2,181.9,1296.7,181.9z"/>
	</g>
	<g>
		<g>
			<g>
				<path d="M1588.2,145.6c-4.3,0-8,3.6-8,8v24.1l-3.4,3.6c-0.5-1.2-1.2-2.4-2.2-3.4l-0.2,0c-3.4-3.1-8.7-2.7-11.6,0.7l-13.7,17.4
					c-1.2,1.7-1.7,3.6-1.7,5.5v15.2h-2.4c-1.4,0-2.9,1.2-2.9,2.9v16.2c0,1.4,1.2,2.9,2.9,2.9h36.7c1.4,0,2.9-1.2,2.9-2.9v-16.2
					c0-1.4-1.2-2.9-2.9-2.9h-3.4v-3.9c0-1.2,0.2-2.4,1-3.4l15.7-21.5c0.7-1,1-2.4,1-3.6v-30.9
					C1596.1,149.2,1592.5,145.6,1588.2,145.6z M1579.7,233.6h-32.6v-12.1h32.6V233.6z M1591.3,184.4c0,0.2,0,0.7-0.2,1l-15.7,21.5
					c-1.2,1.9-1.7,3.9-1.7,6v3.9h-21.2v-15c0-1,0.2-1.9,0.7-2.7l13.5-17.1c1-1.4,3.1-1.4,4.3-0.2l0.2,0.2c1.7,1.4,1.7,4.1,0.2,5.8
					l-2.4,2.9c-1,1-0.7,2.4,0.2,3.4c1,1,2.4,0.7,3.4-0.2l11.3-13c0.5-0.5,0.7-1.2,0.7-1.7v-25.6c0-1.7,1.4-3.1,3.1-3.1
					c1.7,0,3.1,1.4,3.1,3.1v30.9H1591.3z"/>
			</g>
		</g>
		<g>
			<g>
				<path d="M1487.8,216.7h-2.4v-15c0-1.9-0.7-3.9-1.9-5.8l-13.5-17.1c-2.9-3.6-8.2-3.9-11.6-0.7l0,0c-1,1-1.7,2.2-2.2,3.4l-3.1-3.6
					v-24.1c0-4.3-3.6-8-8-8c-4.6-0.2-8.2,3.4-8.2,8v30.9c0,1.2,0.5,2.4,1.2,3.6l15.4,21.2c0.7,1,1,2.2,1,3.6v3.6h-3.4
					c-1.4,0-2.9,1.2-2.9,2.9v16.2c0,1.4,1.2,2.9,2.9,2.9h36.7c1.4,0,2.9-1.2,2.9-2.9v-16.2C1490.7,217.9,1489.5,216.7,1487.8,216.7z
					 M1457.4,206.6l-15.4-21.2c-0.2-0.2-0.2-0.5-0.2-1v-30.6c0-1.7,1.4-3.1,3.1-3.1c1.7,0,3.1,1.4,3.1,3.1v24.8
					c0,0.5,0.2,1.4,0.7,1.7l11.3,13c1,1,2.4,1.2,3.4,0.2c1-1,1.2-2.4,0.2-3.4l-2.4-2.9c-1.4-1.7-1.2-4.3,0.2-5.8l0.2-0.2
					c1.2-1.2,3.4-1,4.3,0.2l13.5,17.1c0.5,0.7,1,1.9,1,2.9v15.2h-21.2v-3.9C1459.4,210.7,1458.6,208.5,1457.4,206.6z M1485.9,233.6
					h-32.6v-12.1h32.6V233.6z"/>
			</g>
		</g>
		<g>
			<g>
				<path d="M1542.6,202.3c0.7-0.7,1.2-1.7,1.2-2.7v-16.9c0-2.2-1.7-3.9-3.9-3.9h-4.6c1-9.6,5.1-18.8,11.8-26
					c7.7-8.2,11.8-19.1,11.8-30.4c0-24.6-20.5-44.6-45.1-43.2c-21,1.2-38.1,18.3-39.8,39.6c-1.2,12.8,3.4,25.6,12.1,34.7
					c7,7.2,11.1,16.4,12.1,25.8h-4.6c-2.2,0-3.9,1.7-3.9,3.9v16.9c0,2.2,1.7,3.9,3.9,3.9l0,0h10.9l0,0v6h-5.1
					c-1.4,0-2.4,1.2-2.4,2.4c0,1.4,1.2,2.4,2.4,2.4l0,0h5.1c0.7,4.8,4.6,8.4,9.4,8.4l0,0h5.5c4.8,0,8.7-3.6,9.4-8.4h5.1
					c1.4,0,2.4-1.2,2.4-2.4c0-1.4-1-2.4-2.4-2.4h-5.1v-6l0,0h10.9C1540.9,203.5,1541.8,203,1542.6,202.3z M1519.7,218.2h-5.5
					c-2.7,0-4.6-2.2-4.6-4.8v-9.6h15v9.6C1524.5,216,1522.3,218.2,1519.7,218.2z M1489.7,150.2c-8-8.2-11.8-19.3-10.9-30.9
					c1.7-18.8,16.9-34,35.5-35c0.7,0,1.4,0,2.2,0c20.7,0,37.6,17.4,37.9,38.6c0,10.1-3.6,19.8-10.6,27c-7.7,8.2-12.3,18.6-13.3,29.4
					h-11.1v-26h1c1.2,0,2.2-1,2.4-2.2l0.7-5.3c2.2-0.5,4.3-1.4,6.3-2.7l4.1,3.1c1,0.7,2.4,0.5,3.4-0.2l4.6-4.6c1-1,1-2.2,0.2-3.1
					l-3.4-4.3c1.2-1.9,1.9-4.1,2.7-6.3l5.3-0.7c1.2-0.2,2.2-1.2,2.2-2.4v-6.5c0-1.2-1-2.2-2.2-2.4l-5.3-0.7
					c-0.5-2.2-1.4-4.3-2.7-6.3l3.1-4.1c0.7-1,0.7-2.4-0.2-3.4l-4.6-4.6c-1-1-2.2-1-3.1-0.2l-4.3,3.4c-1.9-1.2-4.1-1.9-6.3-2.7
					l-0.7-5.3c-0.2-1.2-1.2-2.2-2.4-2.2h-6.5c-1.2,0-2.2,1-2.4,2.2l-0.7,5.3c-2.2,0.7-4.1,1.4-6,2.7l-4.3-3.4
					c-1-0.7-2.4-0.7-3.1,0.2l-4.6,4.8c-1,1-1,2.2-0.2,3.1l3.4,4.3c-1.2,1.9-1.9,4.1-2.7,6.3l-5.3,0.5c-1.2,0.2-2.2,1.2-2.2,2.4v6.5
					c0,1.2,1,2.2,2.2,2.4l5.3,0.7c0.5,2.2,1.4,4.3,2.7,6.3l-3.4,4.3c-0.7,1-0.7,2.4,0.2,3.1l4.6,4.6c1,1,2.2,1,3.1,0.2l4.3-3.4
					c1.9,1.2,4.1,1.9,6.3,2.7l0.7,5.3c0.2,1.2,1.2,2.2,2.4,2.2h1v26h-11.3C1502.3,168.5,1497.5,158.1,1489.7,150.2z M1500.1,132.8
					c-1.4-2.2-2.7-4.8-3.1-7.5c-0.2-1-1-1.7-1.9-1.9l-4.8-0.7v-2.4l4.8-0.7c1-0.2,1.9-1,1.9-1.9c0.5-2.7,1.7-5.3,3.1-7.7
					c0.5-1,0.5-1.9,0-2.9l-2.9-3.6l1.7-1.7l3.9,2.9c0.7,0.7,2.2,0.7,2.9,0c2.2-1.4,4.8-2.7,7.5-3.1c1-0.2,1.7-1,1.9-2.2l0.7-4.8h2.4
					l0.7,4.8c0.2,1,1,1.9,1.9,2.2c2.7,0.5,5.3,1.7,7.5,3.1c1,0.5,1.9,0.5,2.9,0l3.9-2.9l1.7,1.7l-2.9,3.9c-0.7,0.7-0.7,1.9,0,2.9
					c1.4,2.4,2.7,4.8,3.1,7.7c0.2,1,1,1.7,1.9,1.9l4.8,0.7v2.4l-4.8,0.7c-1,0.2-1.9,1-1.9,1.9c-0.5,2.7-1.7,5.3-3.1,7.7
					c-0.5,1-0.5,1.9,0,2.9l2.9,3.9l-1.7,1.7l-4.1-3.4c-0.7-0.7-1.9-0.7-2.9,0c-2.2,1.4-4.8,2.7-7.5,3.1c-1,0.2-1.7,1-1.9,2.2
					l-0.7,4.8h-2.4l-0.7-4.8c-0.2-1-1-1.9-1.9-2.2c-2.7-0.5-5.3-1.7-7.5-3.1c-1-0.5-1.9-0.5-2.9,0l-3.9,2.9l-1.4-1.7l2.9-3.9
					C1500.8,135,1500.8,133.8,1500.1,132.8z M1494.8,198.9v-14.7c12.8,0,30.4-0.2,44.1-0.2v14.7
					C1513.4,198.9,1520.4,198.9,1494.8,198.9z"/>
			</g>
		</g>
		<g>
			<g>
				<path d="M1517,135.7c7.7,0,14-6.3,14-14s-6.3-14-14-14s-14,6.3-14,14S1509.3,135.7,1517,135.7z M1517,112.3
					c5.1,0,9.2,4.1,9.2,9.2c0,5.1-4.1,9.2-9.2,9.2s-9.2-4.1-9.2-9.2C1507.8,116.4,1511.9,112.3,1517,112.3z"/>
			</g>
		</g>
	</g>
	<g>
		<g>
			<path d="M1862.9,86.4h-80.1c-3.7,0-6.7,3-6.7,6.7v44.8c0,3.7,3,6.7,6.7,6.7h19.7l-14.9,30.5h-2.1c-1.4,0-2.3,0.9-2.3,2.3
				c0,1.4,0.9,2.3,2.3,2.3h7.8c1.4,0,2.3-0.9,2.3-2.3c0-1.4-0.9-2.3-2.3-2.3h-0.7l14.9-30.3h12.6v24.1h-1.6c-1.4,0-2.3,0.9-2.3,2.3
				c0,1.4,0.9,2.3,2.3,2.3h7.8c1.4,0,2.3-0.9,2.3-2.3c0-1.4-0.9-2.3-2.3-2.3h-1.6v-24.1h13.1l14.9,30.5h-0.7c-1.4,0-2.3,0.9-2.3,2.3
				c0,1.4,0.9,2.3,2.3,2.3h4.4l0,0l0,0h3.2c1.4,0,2.3-0.9,2.3-2.3c0-1.4-0.9-2.3-2.3-2.3h-1.6l-14.9-30.5h19.7c3.7,0,6.7-3,6.7-6.7
				v-45C1869.5,89.4,1866.6,86.4,1862.9,86.4z M1865,138.1c0,1.1-0.9,2.1-2.1,2.1c-48.7,0-33.3,0-79.9,0c-1.1,0-2.1-0.9-2.1-2.1v-45
				c0-1.1,0.9-2.1,2.1-2.1h79.9c1.1,0,2.1,0.9,2.1,2.1V138.1z"/>
		</g>
		<g>
			<path d="M1771.1,200.7c1.4,0,2.3-0.9,2.3-2.3v-42.2c0-9.4-6.9-17.2-15.1-17.2h-25c-8.3,0-15.1,7.6-15.1,17.2v42.5
				c0,1.4,0.9,2.3,2.3,2.3h8.5v29.6c0,3.9,3.2,7.1,7.1,7.1h19.5c3.9,0,7.1-3.2,7.1-7.1v-29.8H1771.1z M1758,230.6
				c0,1.4-1.1,2.5-2.5,2.5h-7.6v-33.3c0-1.4-0.9-2.3-2.3-2.3c-1.4,0-2.3,0.9-2.3,2.3v33.3h-7.3c-1.4,0-2.5-1.1-2.5-2.5V175
				c0-1.4-0.9-2.3-2.3-2.3s-2.3,0.9-2.3,2.3v21.3h-6.2v-40.2c0-6.9,4.8-12.6,10.6-12.6h24.8c6,0,10.6,5.7,10.6,12.6v40.2h-6.2V175
				c0-1.4-0.9-2.3-2.3-2.3c-1.4,0-2.3,0.9-2.3,2.3v55.5H1758z"/>
		</g>
		<g>
			<path d="M1745.6,136.7c9.4,0,17-7.6,17-17s-7.6-17-17-17s-17,7.6-17,17C1728.8,129.1,1736.4,136.7,1745.6,136.7z M1745.6,107.3
				c6.9,0,12.4,5.5,12.4,12.4c0,6.9-5.5,12.4-12.4,12.4c-6.9,0-12.4-5.5-12.4-12.4C1733.4,113,1738.9,107.3,1745.6,107.3z"/>
		</g>
		<g>
			<path d="M1801.1,212.2L1801.1,212.2c3.7-2.5,6.4-6.9,6.4-11.9c0-7.6-6.2-14-14.2-14c-7.8,0-14.2,6.4-14.2,14
				c0,4.8,2.5,9.4,6.7,11.9h-0.7c-9,0-16.1,7.3-16.1,16.1v6.9c0,1.4,0.9,2.3,2.3,2.3h43.6c1.4,0,2.3-0.9,2.3-2.3v-6.9
				C1817.2,219.5,1809.9,212.2,1801.1,212.2z M1793.3,190.9c5.3,0,9.4,4.4,9.4,9.4c0,5.3-4.4,9.4-9.6,9.4c-1.6,0-3.2-0.5-4.6-1.1
				c-3-1.6-4.8-4.8-4.8-8.3C1783.7,195.2,1788.1,190.9,1793.3,190.9z M1812.6,233.1h-39v-4.6c0-6.4,5.3-11.5,11.5-11.5h15.8
				c6.4,0,11.5,5.3,11.5,11.5v4.6H1812.6z"/>
		</g>
		<g>
			<path d="M1853.5,212.4L1853.5,212.4c3.7-2.5,6.4-6.9,6.4-11.9c0-7.6-6.2-14-14.2-14c-7.8,0-14.2,6.4-14.2,14
				c0,4.8,2.5,9.4,6.7,11.9h-0.7c-9,0-16.1,7.3-16.1,16.1v6.9c0,1.4,0.9,2.3,2.3,2.3h43.6c1.4,0,2.3-0.9,2.3-2.3v-6.9
				C1869.5,219.8,1862.4,212.4,1853.5,212.4z M1845.7,191.1c5.3,0,9.4,4.4,9.4,9.4c0,5.3-4.4,9.4-9.6,9.4c-1.6,0-3.2-0.5-4.6-1.1
				c-3-1.6-4.8-4.8-4.8-8.3C1836,195.4,1840.4,191.1,1845.7,191.1z M1865,233.3h-39v-4.6c0-6.4,5.3-11.5,11.5-11.5h16.1
				c6.4,0,11.5,5.3,11.5,11.5V233.3z"/>
		</g>
		<g>
			<path d="M1859.2,106.2c0-0.7-0.2-1.1-0.7-1.6l-9.2-9.2c-0.9-0.9-2.3-0.9-3.2,0c-0.9,0.9-0.9,2.3,0,3.2l5.3,5.3h-20
				c-1.4,0-2.3,0.9-2.3,2.3v11.2h-23c-1.4,0-2.3,0.9-2.3,2.3v11.2h-17c-1.4,0-2.3,0.9-2.3,2.3c0,1.4,0.9,2.3,2.3,2.3h19.3
				c1.4,0,2.3-0.9,2.3-2.3V122h23c1.4,0,2.3-0.9,2.3-2.3v-11.2h17.7l-5.3,5.3c-0.9,0.9-0.9,2.3,0,3.2c0.9,0.9,2.3,0.9,3.2,0l9.2-9.2
				l0,0C1859,107.3,1859.2,106.6,1859.2,106.2z"/>
		</g>
	</g>
</g>
<g class="st0">
	<g>
		<g>
			<g>
				<path d="M204.9,404.1c-4.3,0-8,3.6-8,8v24.1l-3.4,3.6c-0.5-1.2-1.2-2.4-2.2-3.4h-0.2c-3.4-3.1-8.7-2.7-11.6,0.7l-13.7,17.4
					c-1.2,1.7-1.7,3.6-1.7,5.5v15.2h-2.4c-1.4,0-2.9,1.2-2.9,2.9v16.2c0,1.4,1.2,2.9,2.9,2.9h36.7c1.4,0,2.9-1.2,2.9-2.9v-16.2
					c0-1.4-1.2-2.9-2.9-2.9H195v-3.9c0-1.2,0.2-2.4,1-3.4l15.7-21.5c0.7-1,1-2.4,1-3.6V412C212.9,407.7,209.2,404.1,204.9,404.1z
					 M196.5,492.1h-32.6v-12.1h32.6V492.1z M208,442.9c0,0.2,0,0.7-0.2,1l-15.7,21.5c-1.2,1.9-1.7,3.9-1.7,6v3.9h-21.2v-15
					c0-1,0.2-1.9,0.7-2.7l13.5-17.1c1-1.4,3.1-1.4,4.3-0.2l0.2,0.2c1.7,1.4,1.7,4.1,0.2,5.8l-2.4,2.9c-1,1-0.7,2.4,0.2,3.4
					c1,1,2.4,0.7,3.4-0.2l11.3-13c0.5-0.5,0.7-1.2,0.7-1.7V412c0-1.7,1.4-3.1,3.1-3.1c1.7,0,3.1,1.4,3.1,3.1v30.9H208z"/>
			</g>
		</g>
		<g>
			<g>
				<path d="M104.6,475.2h-2.4v-15c0-1.9-0.7-3.9-1.9-5.8l-13.5-17.1c-2.9-3.6-8.2-3.9-11.6-0.7h0c-1,1-1.7,2.2-2.2,3.4l-3.1-3.6
					v-24.1c0-4.3-3.6-8-8-8c-4.6-0.2-8.2,3.4-8.2,8v30.9c0,1.2,0.5,2.4,1.2,3.6L70.3,468c0.7,1,1,2.2,1,3.6v3.6h-3.4
					c-1.4,0-2.9,1.2-2.9,2.9v16.2c0,1.4,1.2,2.9,2.9,2.9h36.7c1.4,0,2.9-1.2,2.9-2.9v-16.2C107.5,476.4,106.3,475.2,104.6,475.2z
					 M74.2,465.1l-15.4-21.2c-0.2-0.2-0.2-0.5-0.2-1v-30.6c0-1.7,1.4-3.1,3.1-3.1c1.7,0,3.1,1.4,3.1,3.1v24.8c0,0.5,0.2,1.4,0.7,1.7
					l11.3,13c1,1,2.4,1.2,3.4,0.2s1.2-2.4,0.2-3.4l-2.4-2.9c-1.4-1.7-1.2-4.3,0.2-5.8l0.2-0.2c1.2-1.2,3.4-1,4.3,0.2l13.5,17.1
					c0.5,0.7,1,1.9,1,2.9v15.2H76.1v-3.9C76.1,469.2,75.4,467,74.2,465.1z M102.6,492.1H70.1v-12.1h32.6V492.1z"/>
			</g>
		</g>
		<g>
			<g>
				<path d="M159.3,460.8c0.7-0.7,1.2-1.7,1.2-2.7v-16.9c0-2.2-1.7-3.9-3.9-3.9h-4.6c1-9.6,5.1-18.8,11.8-26
					c7.7-8.2,11.8-19.1,11.8-30.4c0-24.6-20.5-44.6-45.1-43.2c-21,1.2-38.1,18.3-39.8,39.6c-1.2,12.8,3.4,25.6,12.1,34.7
					c7,7.2,11.1,16.4,12.1,25.8h-4.6c-2.2,0-3.9,1.7-3.9,3.9v16.9c0,2.2,1.7,3.9,3.9,3.9l0,0h10.9l0,0v6h-5.1
					c-1.4,0-2.4,1.2-2.4,2.4c0,1.4,1.2,2.4,2.4,2.4l0,0h5.1c0.7,4.8,4.6,8.4,9.4,8.4l0,0h5.5c4.8,0,8.7-3.6,9.4-8.4h5.1
					c1.4,0,2.4-1.2,2.4-2.4c0-1.4-1-2.4-2.4-2.4h-5.1v-6l0,0h10.9C157.6,462,158.6,461.5,159.3,460.8z M136.4,476.7h-5.5
					c-2.7,0-4.6-2.2-4.6-4.8v-9.6h15v9.6C141.2,474.5,139.1,476.7,136.4,476.7z M106.5,408.7c-8-8.2-11.8-19.3-10.9-30.9
					c1.7-18.8,16.9-34,35.5-35c0.7,0,1.4,0,2.2,0c20.7,0,37.6,17.4,37.9,38.6c0,10.1-3.6,19.8-10.6,27c-7.7,8.2-12.3,18.6-13.3,29.4
					h-11.1v-26h1c1.2,0,2.2-1,2.4-2.2l0.7-5.3c2.2-0.5,4.3-1.4,6.3-2.7l4.1,3.1c1,0.7,2.4,0.5,3.4-0.2l4.6-4.6c1-1,1-2.2,0.2-3.1
					l-3.4-4.3c1.2-1.9,1.9-4.1,2.7-6.3l5.3-0.7c1.2-0.2,2.2-1.2,2.2-2.4v-6.5c0-1.2-1-2.2-2.2-2.4l-5.3-0.7
					c-0.5-2.2-1.4-4.3-2.7-6.3l3.1-4.1c0.7-1,0.7-2.4-0.2-3.4l-4.6-4.6c-1-1-2.2-1-3.1-0.2l-4.3,3.4c-1.9-1.2-4.1-1.9-6.3-2.7
					l-0.7-5.3c-0.2-1.2-1.2-2.2-2.4-2.2h-6.5c-1.2,0-2.2,1-2.4,2.2l-0.7,5.3c-2.2,0.7-4.1,1.4-6,2.7l-4.3-3.4
					c-1-0.7-2.4-0.7-3.1,0.2l-4.6,4.8c-1,1-1,2.2-0.2,3.1l3.4,4.3c-1.2,1.9-1.9,4.1-2.7,6.3l-5.3,0.5c-1.2,0.2-2.2,1.2-2.2,2.4v6.5
					c0,1.2,1,2.2,2.2,2.4l5.3,0.7c0.5,2.2,1.4,4.3,2.7,6.3l-3.4,4.3c-0.7,1-0.7,2.4,0.2,3.1l4.6,4.6c1,1,2.2,1,3.1,0.2l4.3-3.4
					c1.9,1.2,4.1,1.9,6.3,2.7l0.7,5.3c0.2,1.2,1.2,2.2,2.4,2.2h1v26h-11.3C119,427,114.2,416.6,106.5,408.7z M116.9,391.3
					c-1.4-2.2-2.7-4.8-3.1-7.5c-0.2-1-1-1.7-1.9-1.9l-4.8-0.7v-2.4l4.8-0.7c1-0.2,1.9-1,1.9-1.9c0.5-2.7,1.7-5.3,3.1-7.7
					c0.5-1,0.5-1.9,0-2.9l-2.9-3.6l1.7-1.7l3.9,2.9c0.7,0.7,2.2,0.7,2.9,0c2.2-1.4,4.8-2.7,7.5-3.1c1-0.2,1.7-1,1.9-2.2l0.7-4.8h2.4
					l0.7,4.8c0.2,1,1,1.9,1.9,2.2c2.7,0.5,5.3,1.7,7.5,3.1c1,0.5,1.9,0.5,2.9,0l3.9-2.9l1.7,1.7l-2.9,3.9c-0.7,0.7-0.7,1.9,0,2.9
					c1.4,2.4,2.7,4.8,3.1,7.7c0.2,1,1,1.7,1.9,1.9l4.8,0.7v2.4l-4.8,0.7c-1,0.2-1.9,1-1.9,1.9c-0.5,2.7-1.7,5.3-3.1,7.7
					c-0.5,1-0.5,1.9,0,2.9l2.9,3.9l-1.7,1.7l-4.1-3.4c-0.7-0.7-1.9-0.7-2.9,0c-2.2,1.4-4.8,2.7-7.5,3.1c-1,0.2-1.7,1-1.9,2.2
					l-0.7,4.8h-2.4l-0.7-4.8c-0.2-1-1-1.9-1.9-2.2c-2.7-0.5-5.3-1.7-7.5-3.1c-1-0.5-1.9-0.5-2.9,0l-3.9,2.9L114,398l2.9-3.9
					C117.6,393.5,117.6,392.3,116.9,391.3z M111.6,457.4v-14.7c12.8,0,30.4-0.2,44.1-0.2v14.7C130.1,457.4,137.1,457.4,111.6,457.4z
					"/>
			</g>
		</g>
		<g>
			<g>
				<path d="M133.8,394.2c7.7,0,14-6.3,14-14c0-7.7-6.3-14-14-14s-14,6.3-14,14C119.8,387.9,126,394.2,133.8,394.2z M133.8,370.8
					c5.1,0,9.2,4.1,9.2,9.2c0,5.1-4.1,9.2-9.2,9.2c-5.1,0-9.2-4.1-9.2-9.2C124.6,374.9,128.7,370.8,133.8,370.8z"/>
			</g>
		</g>
	</g>
	<g>
		<g>
			<path d="M479.6,344.9h-80.1c-3.7,0-6.7,3-6.7,6.7v44.8c0,3.7,3,6.7,6.7,6.7h19.7l-14.9,30.5h-2.1c-1.4,0-2.3,0.9-2.3,2.3
				s0.9,2.3,2.3,2.3h7.8c1.4,0,2.3-0.9,2.3-2.3s-0.9-2.3-2.3-2.3h-0.7l14.9-30.3h12.6v24.1h-1.6c-1.4,0-2.3,0.9-2.3,2.3
				c0,1.4,0.9,2.3,2.3,2.3h7.8c1.4,0,2.3-0.9,2.3-2.3c0-1.4-0.9-2.3-2.3-2.3h-1.6v-24.1h13.1l14.9,30.5h-0.7c-1.4,0-2.3,0.9-2.3,2.3
				s0.9,2.3,2.3,2.3h4.4l0,0l0,0h3.2c1.4,0,2.3-0.9,2.3-2.3s-0.9-2.3-2.3-2.3h-1.6l-14.9-30.5h19.7c3.7,0,6.7-3,6.7-6.7v-45
				C486.3,347.9,483.3,344.9,479.6,344.9z M481.7,396.6c0,1.1-0.9,2.1-2.1,2.1c-48.7,0-33.3,0-79.9,0c-1.1,0-2.1-0.9-2.1-2.1v-45
				c0-1.1,0.9-2.1,2.1-2.1h79.9c1.1,0,2.1,0.9,2.1,2.1V396.6z"/>
		</g>
		<g>
			<path d="M387.8,459.2c1.4,0,2.3-0.9,2.3-2.3v-42.2c0-9.4-6.9-17.2-15.1-17.2h-25c-8.3,0-15.1,7.6-15.1,17.2v42.5
				c0,1.4,0.9,2.3,2.3,2.3h8.5v29.6c0,3.9,3.2,7.1,7.1,7.1h19.5c3.9,0,7.1-3.2,7.1-7.1v-29.8H387.8z M374.7,489.1
				c0,1.4-1.1,2.5-2.5,2.5h-7.6v-33.3c0-1.4-0.9-2.3-2.3-2.3c-1.4,0-2.3,0.9-2.3,2.3v33.3h-7.3c-1.4,0-2.5-1.1-2.5-2.5v-55.5
				c0-1.4-0.9-2.3-2.3-2.3s-2.3,0.9-2.3,2.3v21.3h-6.2v-40.2c0-6.9,4.8-12.6,10.6-12.6h24.8c6,0,10.6,5.7,10.6,12.6v40.2h-6.2v-21.3
				c0-1.4-0.9-2.3-2.3-2.3c-1.4,0-2.3,0.9-2.3,2.3v55.5H374.7z"/>
		</g>
		<g>
			<path d="M362.3,395.2c9.4,0,17-7.6,17-17s-7.6-17-17-17c-9.4,0-17,7.6-17,17C345.6,387.6,353.2,395.2,362.3,395.2z M362.3,365.8
				c6.9,0,12.4,5.5,12.4,12.4s-5.5,12.4-12.4,12.4c-6.9,0-12.4-5.5-12.4-12.4C350.2,371.5,355.7,365.8,362.3,365.8z"/>
		</g>
		<g>
			<path d="M417.9,470.7L417.9,470.7c3.7-2.5,6.4-6.9,6.4-11.9c0-7.6-6.2-14-14.2-14c-7.8,0-14.2,6.4-14.2,14
				c0,4.8,2.5,9.4,6.7,11.9h-0.7c-9,0-16.1,7.3-16.1,16.1v6.9c0,1.4,0.9,2.3,2.3,2.3h43.6c1.4,0,2.3-0.9,2.3-2.3v-6.9
				C434,478.1,426.6,470.7,417.9,470.7z M410.1,449.4c5.3,0,9.4,4.4,9.4,9.4c0,5.3-4.4,9.4-9.6,9.4c-1.6,0-3.2-0.5-4.6-1.1
				c-3-1.6-4.8-4.8-4.8-8.3C400.5,453.7,404.8,449.4,410.1,449.4z M429.4,491.6h-39V487c0-6.4,5.3-11.5,11.5-11.5h15.8
				c6.4,0,11.5,5.3,11.5,11.5v4.6H429.4z"/>
		</g>
		<g>
			<path d="M470.2,470.9L470.2,470.9c3.7-2.5,6.4-6.9,6.4-11.9c0-7.6-6.2-14-14.2-14c-7.8,0-14.2,6.4-14.2,14
				c0,4.8,2.5,9.4,6.7,11.9h-0.7c-9,0-16.1,7.3-16.1,16.1v6.9c0,1.4,0.9,2.3,2.3,2.3H484c1.4,0,2.3-0.9,2.3-2.3V487
				C486.3,478.3,479.2,470.9,470.2,470.9z M462.4,449.6c5.3,0,9.4,4.4,9.4,9.4c0,5.3-4.4,9.4-9.6,9.4c-1.6,0-3.2-0.5-4.6-1.1
				c-3-1.6-4.8-4.8-4.8-8.3C452.8,453.9,457.1,449.6,462.4,449.6z M481.7,491.8h-39v-4.6c0-6.4,5.3-11.5,11.5-11.5h16.1
				c6.4,0,11.5,5.3,11.5,11.5V491.8z"/>
		</g>
		<g>
			<path d="M476,364.7c0-0.7-0.2-1.1-0.7-1.6l-9.2-9.2c-0.9-0.9-2.3-0.9-3.2,0c-0.9,0.9-0.9,2.3,0,3.2l5.3,5.3h-20
				c-1.4,0-2.3,0.9-2.3,2.3v11.2h-23c-1.4,0-2.3,0.9-2.3,2.3v11.2h-17c-1.4,0-2.3,0.9-2.3,2.3c0,1.4,0.9,2.3,2.3,2.3h19.3
				c1.4,0,2.3-0.9,2.3-2.3v-11.2h23c1.4,0,2.3-0.9,2.3-2.3V367h17.7l-5.3,5.3c-0.9,0.9-0.9,2.3,0,3.2c0.9,0.9,2.3,0.9,3.2,0l9.2-9.2
				l0,0C475.7,365.8,476,365.1,476,364.7z"/>
		</g>
	</g>
	<g transform="translate(0,-952.36218)">
		<path d="M1214.1,1346.6c-5.9,0-10.7,4.8-10.7,10.7v47.1c0,5.9,4.8,10.7,10.7,10.7h70.7c5.9,0,10.7-4.8,10.7-10.7v-47.1
			c0-5.9-4.8-10.7-10.7-10.7H1214.1z M1214.1,1350.9h70.7c3.6,0,6.4,2.8,6.4,6.4v47.1c0,3.6-2.8,6.4-6.4,6.4h-70.7
			c-3.6,0-6.4-2.8-6.4-6.4v-47.1C1207.7,1353.7,1210.5,1350.9,1214.1,1350.9z M1240.8,1363.6c-1.1,0.1-2,1.1-1.9,2.3v30
			c0,0.8,0.4,1.6,1,2c0.6,0.4,1.5,0.4,2.1,0l23.6-15c1.3-0.8,1.3-3.2,0-3.9l-23.6-15C1241.6,1363.7,1241.2,1363.6,1240.8,1363.6
			L1240.8,1363.6z M1242.9,1369.8l17.4,11.1l-17.4,11V1369.8z"/>
	</g>
	<g transform="translate(0,-952.36218)">
		<path d="M1762.2,1346.6c-5.9,0-10.7,4.8-10.7,10.7v47.1c0,5.9,4.8,10.7,10.7,10.7h70.7c5.9,0,10.7-4.8,10.7-10.7v-47.1
			c0-5.9-4.8-10.7-10.7-10.7H1762.2z M1762.2,1350.9h70.7c3.6,0,6.4,2.8,6.4,6.4v47.1c0,3.6-2.8,6.4-6.4,6.4h-70.7
			c-3.6,0-6.4-2.8-6.4-6.4v-47.1C1755.8,1353.7,1758.6,1350.9,1762.2,1350.9z M1788.8,1363.6c-1.1,0.1-2,1.1-1.9,2.3v30
			c0,0.8,0.4,1.6,1,2c0.6,0.4,1.5,0.4,2.1,0l23.6-15c1.3-0.8,1.3-3.2,0-3.9l-23.6-15C1789.7,1363.7,1789.2,1363.6,1788.8,1363.6
			L1788.8,1363.6z M1791,1369.8l17.4,11.1l-17.4,11V1369.8z"/>
	</g>
	<g>
		<path d="M1032.9,376.5c0-1.5-1.2-2.6-2.6-2.6h-24.1c-1.5,0-2.6,1.2-2.6,2.6v10.4c0,0.2,0,0.4,0.1,0.6v11.3
			c-0.6-0.1-1.2-0.3-1.8-0.3c-3.9,0-7,3.2-7,7s3.2,7,7,7s7-3.2,7-7c0-0.4-0.1-0.8-0.1-1.1c0.1-0.2,0.1-0.5,0.1-0.7v-14.2h18.7v9.3
			c-0.6-0.1-1.2-0.3-1.8-0.3c-3.9,0-7,3.2-7,7s3.2,7,7,7c3.9,0,7-3.2,7-7c0-0.4-0.1-0.8-0.1-1.1c0.1-0.2,0.1-0.5,0.1-0.7v-16.6
			c0-0.1,0-0.2,0-0.2V376.5z M1008.8,379.1h18.8v5.1h-18.8V379.1z M1001.8,407.3c-1,0-1.8-0.8-1.8-1.8c0-1,0.8-1.8,1.8-1.8
			s1.8,0.8,1.8,1.8C1003.6,406.5,1002.8,407.3,1001.8,407.3z M1025.8,407.3c-1,0-1.8-0.8-1.8-1.8c0-1,0.8-1.8,1.8-1.8
			c1,0,1.8,0.8,1.8,1.8C1027.6,406.5,1026.8,407.3,1025.8,407.3z"/>
		<path d="M911.9,401.5c0-0.9-0.2-1.7-0.5-2.4v-9.5l18.8-3.6v8.7c-0.6-0.2-1.2-0.3-1.9-0.3c-3.9,0-7,3.2-7,7s3.2,7,7,7s7-3.2,7-7
			c0-0.3-0.1-0.6-0.1-0.9c0.1-0.3,0.2-0.7,0.2-1v-16.8v-10.4c0-0.8-0.4-1.5-1-2c-0.6-0.5-1.4-0.7-2.2-0.6l-24.1,4.6
			c-1.2,0.2-2.1,1.3-2.1,2.6v10.4v7.2c-0.4-0.1-0.9-0.1-1.3-0.1c-3.9,0-7,3.2-7,7s3.2,7,7,7C908.7,408.6,911.9,405.4,911.9,401.5z
			 M928.3,403.3c-1,0-1.8-0.8-1.8-1.8c0-1,0.8-1.8,1.8-1.8s1.8,0.8,1.8,1.8C930.1,402.5,929.3,403.3,928.3,403.3z M911.4,379.2
			l18.8-3.6v5l-18.8,3.6V379.2z M904.8,403.3c-1,0-1.8-0.8-1.8-1.8c0-1,0.8-1.8,1.8-1.8c0.7,0,1.2,0.4,1.5,0.9
			c0,0.1,0.1,0.2,0.1,0.3c0.1,0.2,0.1,0.4,0.1,0.6C906.6,402.5,905.8,403.3,904.8,403.3z"/>
		<path d="M1005,441.2c0-16.9-10.7-31.3-25.7-36.9v-9.5c0-1.5-1.2-2.6-2.6-2.6h-8.2v-37.9c0-1.5-1.2-2.6-2.6-2.6s-2.6,1.2-2.6,2.6
			v37.9h-8.5c-1.5,0-2.6,1.2-2.6,2.6v9.4c-15,5.5-25.8,20-25.8,36.9c-0.1,0.2-0.1,0.4-0.1,0.6c0,0.3,0.1,0.5,0.1,0.8
			c0.7,21.1,18.1,38,39.4,38s38.6-16.9,39.4-38c0.1-0.2,0.1-0.5,0.1-0.8C1005.1,441.6,1005.1,441.4,1005,441.2z M995.1,458.4h-8.7
			c1.2-4.2,2-8.9,2.2-13.9h11C999.1,449.5,997.5,454.2,995.1,458.4z M931.7,444.5h11c0.2,5,1,9.7,2.2,13.9h-8.7
			C933.8,454.2,932.2,449.5,931.7,444.5z M935.5,425.2h9.3c-1.2,4.3-2,8.9-2.1,13.9h-11C931.9,434.2,933.3,429.5,935.5,425.2z
			 M968.3,420v-10.6c4.1,1.2,7.8,5,10.5,10.6H968.3z M980.9,425.2c1.4,4.2,2.2,8.9,2.4,13.9h-15.1v-13.9H980.9z M963,409.4V420
			h-10.5C955.2,414.5,958.9,410.6,963,409.4z M963,425.2v13.9h-15.1c0.2-5,1.1-9.8,2.4-13.9H963z M947.9,444.5H963v13.9h-12.5
			C949.1,454.3,948.2,449.5,947.9,444.5z M963,463.7v10.2c-4-1.2-7.6-4.9-10.3-10.2H963z M968.3,473.9v-10.2h10.3
			C975.9,469,972.3,472.8,968.3,473.9z M968.3,458.4v-13.9h15.1c-0.2,5-1.2,9.8-2.5,13.9H968.3z M988.6,439.2
			c-0.2-5-0.9-9.7-2.1-13.9h9c0.1,0,0.2,0,0.2,0c2.2,4.2,3.6,8.9,3.9,14C999.6,439.2,988.6,439.2,988.6,439.2z M992.2,420h-7.6
			c-1.8-4.2-4-7.8-6.7-10.5C983.6,411.7,988.5,415.3,992.2,420z M957.3,397.5H974v5.3c-2.7-0.6-5.5-0.9-8.4-0.9
			c-2.9,0-5.6,0.3-8.3,0.9V397.5z M953.3,409.5c-2.6,2.7-4.9,6.3-6.7,10.5H939C942.7,415.3,947.7,411.7,953.3,409.5z M940,463.7h6.8
			c1.5,3.4,3.3,6.4,5.3,8.8C947.4,470.5,943.3,467.5,940,463.7z M979.2,472.5c2.1-2.4,3.9-5.4,5.3-8.8h6.8
			C987.9,467.5,983.8,470.5,979.2,472.5z"/>
		<path d="M922.7,421.8l-10.1-4.4c-1.3-0.6-2.9,0-3.5,1.4c-0.6,1.3,0,2.9,1.4,3.5l10.1,4.4c0.3,0.1,0.7,0.2,1,0.2c1,0,2-0.6,2.4-1.6
			C924.7,423.9,924.1,422.4,922.7,421.8z"/>
		<path d="M919.3,459.3l-10.1,4.4c-1.3,0.6-2,2.1-1.4,3.5c0.4,1,1.4,1.6,2.4,1.6c0.3,0,0.7-0.1,1-0.2l10.1-4.4
			c1.3-0.6,2-2.1,1.4-3.5C922.2,459.4,920.6,458.7,919.3,459.3z"/>
		<path d="M909.3,445.6l11,0c1.5,0,2.6-1.2,2.6-2.6c0-1.5-1.2-2.6-2.6-2.6c0,0,0,0,0,0l-11,0c-1.5,0-2.6,1.2-2.6,2.6
			C906.7,444.5,907.9,445.6,909.3,445.6C909.3,445.6,909.3,445.6,909.3,445.6z"/>
		<path d="M1010.6,426.9c0.3,0,0.7-0.1,1-0.2l10.1-4.4c1.3-0.6,2-2.1,1.4-3.5c-0.6-1.3-2.1-2-3.5-1.4l-10.1,4.4
			c-1.3,0.6-2,2.1-1.4,3.5C1008.6,426.3,1009.6,426.9,1010.6,426.9z"/>
		<path d="M1019.7,463.7l-10.1-4.4c-1.3-0.6-2.9,0-3.5,1.4s0,2.9,1.4,3.5l10.1,4.4c0.3,0.1,0.7,0.2,1,0.2c1,0,2-0.6,2.4-1.6
			C1021.6,465.8,1021,464.2,1019.7,463.7z"/>
		<path d="M1023,440.4l-11,0c0,0,0,0,0,0c-1.5,0-2.6,1.2-2.6,2.6c0,1.5,1.2,2.6,2.6,2.6l11,0c0,0,0,0,0,0c1.5,0,2.6-1.2,2.6-2.6
			C1025.7,441.5,1024.5,440.4,1023,440.4z"/>
	</g>
	<g>
		<g>
			<g>
				<path d="M761.8,404.1c-4.3,0-8,3.6-8,8v24.1l-3.4,3.6c-0.5-1.2-1.2-2.4-2.2-3.4H748c-3.4-3.1-8.7-2.7-11.6,0.7l-13.7,17.4
					c-1.2,1.7-1.7,3.6-1.7,5.5v15.2h-2.4c-1.4,0-2.9,1.2-2.9,2.9v16.2c0,1.4,1.2,2.9,2.9,2.9h36.7c1.4,0,2.9-1.2,2.9-2.9v-16.2
					c0-1.4-1.2-2.9-2.9-2.9h-3.4v-3.9c0-1.2,0.2-2.4,1-3.4l15.7-21.5c0.7-1,1-2.4,1-3.6V412C769.8,407.7,766.1,404.1,761.8,404.1z
					 M753.4,492.1h-32.6v-12.1h32.6V492.1z M764.9,442.9c0,0.2,0,0.7-0.2,1L749,465.3c-1.2,1.9-1.7,3.9-1.7,6v3.9h-21.2v-15
					c0-1,0.2-1.9,0.7-2.7l13.5-17.1c1-1.4,3.1-1.4,4.3-0.2l0.2,0.2c1.7,1.4,1.7,4.1,0.2,5.8l-2.4,2.9c-1,1-0.7,2.4,0.2,3.4
					c1,1,2.4,0.7,3.4-0.2l11.3-13c0.5-0.5,0.7-1.2,0.7-1.7V412c0-1.7,1.4-3.1,3.1-3.1s3.1,1.4,3.1,3.1v30.9H764.9z"/>
			</g>
		</g>
		<g>
			<g>
				<path d="M661.5,475.2H659v-15c0-1.9-0.7-3.9-1.9-5.8l-13.5-17.1c-2.9-3.6-8.2-3.9-11.6-0.7l0,0c-1,1-1.7,2.2-2.2,3.4l-3.1-3.6
					v-24.1c0-4.3-3.6-8-8-8c-4.6-0.2-8.2,3.4-8.2,8v30.9c0,1.2,0.5,2.4,1.2,3.6l15.4,21.2c0.7,1,1,2.2,1,3.6v3.6h-3.4
					c-1.4,0-2.9,1.2-2.9,2.9v16.2c0,1.4,1.2,2.9,2.9,2.9h36.7c1.4,0,2.9-1.2,2.9-2.9v-16.2C664.3,476.4,663.1,475.2,661.5,475.2z
					 M631.1,465.1l-15.4-21.2c-0.2-0.2-0.2-0.5-0.2-1v-30.6c0-1.7,1.4-3.1,3.1-3.1s3.1,1.4,3.1,3.1v24.8c0,0.5,0.2,1.4,0.7,1.7
					l11.3,13c1,1,2.4,1.2,3.4,0.2c1-1,1.2-2.4,0.2-3.4l-2.4-2.9c-1.4-1.7-1.2-4.3,0.2-5.8l0.2-0.2c1.2-1.2,3.4-1,4.3,0.2l13.5,17.1
					c0.5,0.7,1,1.9,1,2.9v15.2H633v-3.9C633,469.2,632.3,467,631.1,465.1z M659.5,492.1H627v-12.1h32.6V492.1z"/>
			</g>
		</g>
		<g>
			<g>
				<path d="M716.2,460.8c0.7-0.7,1.2-1.7,1.2-2.7v-16.9c0-2.2-1.7-3.9-3.9-3.9H709c1-9.6,5.1-18.8,11.8-26
					c7.7-8.2,11.8-19.1,11.8-30.4c0-24.6-20.5-44.6-45.1-43.2c-21,1.2-38.1,18.3-39.8,39.6c-1.2,12.8,3.4,25.6,12.1,34.7
					c7,7.2,11.1,16.4,12.1,25.8h-4.6c-2.2,0-3.9,1.7-3.9,3.9v16.9c0,2.2,1.7,3.9,3.9,3.9l0,0h10.9l0,0v6H673c-1.4,0-2.4,1.2-2.4,2.4
					c0,1.4,1.2,2.4,2.4,2.4l0,0h5.1c0.7,4.8,4.6,8.4,9.4,8.4l0,0h5.5c4.8,0,8.7-3.6,9.4-8.4h5.1c1.4,0,2.4-1.2,2.4-2.4
					c0-1.4-1-2.4-2.4-2.4h-5.1v-6l0,0h10.9C714.5,462,715.5,461.5,716.2,460.8z M693.3,476.7h-5.5c-2.7,0-4.6-2.2-4.6-4.8v-9.6h15
					v9.6C698.1,474.5,695.9,476.7,693.3,476.7z M663.4,408.7c-8-8.2-11.8-19.3-10.9-30.9c1.7-18.8,16.9-34,35.5-35
					c0.7,0,1.4,0,2.2,0c20.7,0,37.6,17.4,37.9,38.6c0,10.1-3.6,19.8-10.6,27c-7.7,8.2-12.3,18.6-13.3,29.4h-11.1v-26h1
					c1.2,0,2.2-1,2.4-2.2l0.7-5.3c2.2-0.5,4.3-1.4,6.3-2.7l4.1,3.1c1,0.7,2.4,0.5,3.4-0.2l4.6-4.6c1-1,1-2.2,0.2-3.1l-3.4-4.3
					c1.2-1.9,1.9-4.1,2.7-6.3l5.3-0.7c1.2-0.2,2.2-1.2,2.2-2.4v-6.5c0-1.2-1-2.2-2.2-2.4l-5.3-0.7c-0.5-2.2-1.4-4.3-2.7-6.3l3.1-4.1
					c0.7-1,0.7-2.4-0.2-3.4l-4.6-4.6c-1-1-2.2-1-3.1-0.2l-4.3,3.4c-1.9-1.2-4.1-1.9-6.3-2.7l-0.7-5.3c-0.2-1.2-1.2-2.2-2.4-2.2h-6.5
					c-1.2,0-2.2,1-2.4,2.2l-0.7,5.3c-2.2,0.7-4.1,1.4-6,2.7l-4.3-3.4c-1-0.7-2.4-0.7-3.1,0.2l-4.6,4.8c-1,1-1,2.2-0.2,3.1l3.4,4.3
					c-1.2,1.9-1.9,4.1-2.7,6.3l-5.3,0.5c-1.2,0.2-2.2,1.2-2.2,2.4v6.5c0,1.2,1,2.2,2.2,2.4l5.3,0.7c0.5,2.2,1.4,4.3,2.7,6.3
					l-3.4,4.3c-0.7,1-0.7,2.4,0.2,3.1l4.6,4.6c1,1,2.2,1,3.1,0.2l4.3-3.4c1.9,1.2,4.1,1.9,6.3,2.7l0.7,5.3c0.2,1.2,1.2,2.2,2.4,2.2
					h1v26h-11.3C675.9,427,671.1,416.6,663.4,408.7z M673.8,391.3c-1.4-2.2-2.7-4.8-3.1-7.5c-0.2-1-1-1.7-1.9-1.9l-4.8-0.7v-2.4
					l4.8-0.7c1-0.2,1.9-1,1.9-1.9c0.5-2.7,1.7-5.3,3.1-7.7c0.5-1,0.5-1.9,0-2.9l-2.9-3.6l1.7-1.7l3.9,2.9c0.7,0.7,2.2,0.7,2.9,0
					c2.2-1.4,4.8-2.7,7.5-3.1c1-0.2,1.7-1,1.9-2.2l0.7-4.8h2.4l0.7,4.8c0.2,1,1,1.9,1.9,2.2c2.7,0.5,5.3,1.7,7.5,3.1
					c1,0.5,1.9,0.5,2.9,0l3.9-2.9l1.7,1.7l-2.9,3.9c-0.7,0.7-0.7,1.9,0,2.9c1.4,2.4,2.7,4.8,3.1,7.7c0.2,1,1,1.7,1.9,1.9l4.8,0.7
					v2.4l-4.8,0.7c-1,0.2-1.9,1-1.9,1.9c-0.5,2.7-1.7,5.3-3.1,7.7c-0.5,1-0.5,1.9,0,2.9l2.9,3.9l-1.7,1.7l-4.1-3.4
					c-0.7-0.7-1.9-0.7-2.9,0c-2.2,1.4-4.8,2.7-7.5,3.1c-1,0.2-1.7,1-1.9,2.2l-0.7,4.8h-2.4l-0.7-4.8c-0.2-1-1-1.9-1.9-2.2
					c-2.7-0.5-5.3-1.7-7.5-3.1c-1-0.5-1.9-0.5-2.9,0l-3.9,2.9l-1.4-1.7l2.9-3.9C674.5,393.5,674.5,392.3,673.8,391.3z M668.5,457.4
					v-14.7c12.8,0,30.4-0.2,44.1-0.2v14.7C687,457.4,694,457.4,668.5,457.4z"/>
			</g>
		</g>
		<g>
			<g>
				<path d="M690.6,394.2c7.7,0,14-6.3,14-14c0-7.7-6.3-14-14-14c-7.7,0-14,6.3-14,14C676.7,387.9,682.9,394.2,690.6,394.2z
					 M690.6,370.8c5.1,0,9.2,4.1,9.2,9.2c0,5.1-4.1,9.2-9.2,9.2c-5.1,0-9.2-4.1-9.2-9.2C681.5,374.9,685.6,370.8,690.6,370.8z"/>
			</g>
		</g>
	</g>
	<g>
		<g>
			<path d="M1589.2,344.9h-80.1c-3.7,0-6.7,3-6.7,6.7v44.8c0,3.7,3,6.7,6.7,6.7h19.7l-14.9,30.5h-2.1c-1.4,0-2.3,0.9-2.3,2.3
				s0.9,2.3,2.3,2.3h7.8c1.4,0,2.3-0.9,2.3-2.3s-0.9-2.3-2.3-2.3h-0.7l14.9-30.3h12.6v24.1h-1.6c-1.4,0-2.3,0.9-2.3,2.3
				c0,1.4,0.9,2.3,2.3,2.3h7.8c1.4,0,2.3-0.9,2.3-2.3c0-1.4-0.9-2.3-2.3-2.3h-1.6v-24.1h13.1l14.9,30.5h-0.7c-1.4,0-2.3,0.9-2.3,2.3
				s0.9,2.3,2.3,2.3h4.4l0,0l0,0h3.2c1.4,0,2.3-0.9,2.3-2.3s-0.9-2.3-2.3-2.3h-1.6l-14.9-30.5h19.7c3.7,0,6.7-3,6.7-6.7v-45
				C1595.9,347.9,1592.9,344.9,1589.2,344.9z M1591.3,396.6c0,1.1-0.9,2.1-2.1,2.1c-48.7,0-33.3,0-79.9,0c-1.1,0-2.1-0.9-2.1-2.1
				v-45c0-1.1,0.9-2.1,2.1-2.1h79.9c1.1,0,2.1,0.9,2.1,2.1V396.6z"/>
		</g>
		<g>
			<path d="M1497.4,459.2c1.4,0,2.3-0.9,2.3-2.3v-42.2c0-9.4-6.9-17.2-15.1-17.2h-25c-8.3,0-15.1,7.6-15.1,17.2v42.5
				c0,1.4,0.9,2.3,2.3,2.3h8.5v29.6c0,3.9,3.2,7.1,7.1,7.1h19.5c3.9,0,7.1-3.2,7.1-7.1v-29.8H1497.4z M1484.3,489.1
				c0,1.4-1.1,2.5-2.5,2.5h-7.6v-33.3c0-1.4-0.9-2.3-2.3-2.3s-2.3,0.9-2.3,2.3v33.3h-7.3c-1.4,0-2.5-1.1-2.5-2.5v-55.5
				c0-1.4-0.9-2.3-2.3-2.3c-1.4,0-2.3,0.9-2.3,2.3v21.3h-6.2v-40.2c0-6.9,4.8-12.6,10.6-12.6h24.8c6,0,10.6,5.7,10.6,12.6v40.2h-6.2
				v-21.3c0-1.4-0.9-2.3-2.3-2.3c-1.4,0-2.3,0.9-2.3,2.3v55.5H1484.3z"/>
		</g>
		<g>
			<path d="M1471.9,395.2c9.4,0,17-7.6,17-17s-7.6-17-17-17s-17,7.6-17,17C1455.2,387.6,1462.8,395.2,1471.9,395.2z M1471.9,365.8
				c6.9,0,12.4,5.5,12.4,12.4s-5.5,12.4-12.4,12.4s-12.4-5.5-12.4-12.4C1459.8,371.5,1465.3,365.8,1471.9,365.8z"/>
		</g>
		<g>
			<path d="M1527.5,470.7L1527.5,470.7c3.7-2.5,6.4-6.9,6.4-11.9c0-7.6-6.2-14-14.2-14c-7.8,0-14.2,6.4-14.2,14
				c0,4.8,2.5,9.4,6.7,11.9h-0.7c-9,0-16.1,7.3-16.1,16.1v6.9c0,1.4,0.9,2.3,2.3,2.3h43.6c1.4,0,2.3-0.9,2.3-2.3v-6.9
				C1543.5,478.1,1536.2,470.7,1527.5,470.7z M1519.7,449.4c5.3,0,9.4,4.4,9.4,9.4c0,5.3-4.4,9.4-9.6,9.4c-1.6,0-3.2-0.5-4.6-1.1
				c-3-1.6-4.8-4.8-4.8-8.3C1510,453.7,1514.4,449.4,1519.7,449.4z M1539,491.6h-39V487c0-6.4,5.3-11.5,11.5-11.5h15.8
				c6.4,0,11.5,5.3,11.5,11.5v4.6H1539z"/>
		</g>
		<g>
			<path d="M1579.8,470.9L1579.8,470.9c3.7-2.5,6.4-6.9,6.4-11.9c0-7.6-6.2-14-14.2-14c-7.8,0-14.2,6.4-14.2,14
				c0,4.8,2.5,9.4,6.7,11.9h-0.7c-9,0-16.1,7.3-16.1,16.1v6.9c0,1.4,0.9,2.3,2.3,2.3h43.6c1.4,0,2.3-0.9,2.3-2.3V487
				C1595.9,478.3,1588.8,470.9,1579.8,470.9z M1572,449.6c5.3,0,9.4,4.4,9.4,9.4c0,5.3-4.4,9.4-9.6,9.4c-1.6,0-3.2-0.5-4.6-1.1
				c-3-1.6-4.8-4.8-4.8-8.3C1562.4,453.9,1566.7,449.6,1572,449.6z M1591.3,491.8h-39v-4.6c0-6.4,5.3-11.5,11.5-11.5h16.1
				c6.4,0,11.5,5.3,11.5,11.5V491.8z"/>
		</g>
		<g>
			<path d="M1585.6,364.7c0-0.7-0.2-1.1-0.7-1.6l-9.2-9.2c-0.9-0.9-2.3-0.9-3.2,0c-0.9,0.9-0.9,2.3,0,3.2l5.3,5.3h-20
				c-1.4,0-2.3,0.9-2.3,2.3v11.2h-23c-1.4,0-2.3,0.9-2.3,2.3v11.2h-17c-1.4,0-2.3,0.9-2.3,2.3c0,1.4,0.9,2.3,2.3,2.3h19.3
				c1.4,0,2.3-0.9,2.3-2.3v-11.2h23c1.4,0,2.3-0.9,2.3-2.3V367h17.7l-5.3,5.3c-0.9,0.9-0.9,2.3,0,3.2c0.9,0.9,2.3,0.9,3.2,0l9.2-9.2
				l0,0C1585.3,365.8,1585.6,365.1,1585.6,364.7z"/>
		</g>
	</g>
</g>
<g class="st0">
	<g>
		<path d="M1854.5,651.1c0-1.5-1.2-2.6-2.6-2.6h-24.1c-1.5,0-2.6,1.2-2.6,2.6v10.4c0,0.2,0,0.4,0.1,0.6v11.3
			c-0.6-0.1-1.2-0.3-1.8-0.3c-3.9,0-7,3.2-7,7c0,3.9,3.2,7,7,7c3.9,0,7-3.2,7-7c0-0.4-0.1-0.8-0.1-1.1c0.1-0.2,0.1-0.5,0.1-0.7
			v-14.2h18.7v9.3c-0.6-0.1-1.2-0.3-1.8-0.3c-3.9,0-7,3.2-7,7c0,3.9,3.2,7,7,7s7-3.2,7-7c0-0.4-0.1-0.8-0.1-1.1
			c0.1-0.2,0.1-0.5,0.1-0.7v-16.6c0-0.1,0-0.2,0-0.2V651.1z M1830.4,653.7h18.8v5.1h-18.8V653.7z M1823.4,681.9
			c-1,0-1.8-0.8-1.8-1.8s0.8-1.8,1.8-1.8c1,0,1.8,0.8,1.8,1.8S1824.4,681.9,1823.4,681.9z M1847.4,681.9c-1,0-1.8-0.8-1.8-1.8
			s0.8-1.8,1.8-1.8c1,0,1.8,0.8,1.8,1.8C1849.2,681.1,1848.4,681.9,1847.4,681.9z"/>
		<path d="M1733.4,676.1c0-0.9-0.2-1.7-0.5-2.4v-9.5l18.8-3.6v8.7c-0.6-0.2-1.2-0.3-1.9-0.3c-3.9,0-7,3.2-7,7c0,3.9,3.2,7,7,7
			c3.9,0,7-3.2,7-7c0-0.3-0.1-0.6-0.1-0.9c0.1-0.3,0.2-0.7,0.2-1v-16.8v-10.4c0-0.8-0.4-1.5-1-2c-0.6-0.5-1.4-0.7-2.2-0.6l-24.1,4.6
			c-1.2,0.2-2.1,1.3-2.1,2.6V662v7.2c-0.4-0.1-0.9-0.1-1.3-0.1c-3.9,0-7,3.2-7,7c0,3.9,3.2,7,7,7
			C1730.3,683.2,1733.4,680,1733.4,676.1z M1749.9,677.9c-1,0-1.8-0.8-1.8-1.8s0.8-1.8,1.8-1.8c1,0,1.8,0.8,1.8,1.8
			S1750.9,677.9,1749.9,677.9z M1733,653.8l18.8-3.6v5l-18.8,3.6V653.8z M1726.4,677.9c-1,0-1.8-0.8-1.8-1.8s0.8-1.8,1.8-1.8
			c0.7,0,1.2,0.4,1.5,0.9c0,0.1,0.1,0.2,0.1,0.3c0.1,0.2,0.1,0.4,0.1,0.6C1728.1,677.1,1727.3,677.9,1726.4,677.9z"/>
		<path d="M1826.6,715.8c0-16.9-10.7-31.3-25.7-36.9v-9.5c0-1.5-1.2-2.6-2.6-2.6h-8.2v-37.9c0-1.5-1.2-2.6-2.6-2.6
			c-1.5,0-2.6,1.2-2.6,2.6v37.9h-8.5c-1.5,0-2.6,1.2-2.6,2.6v9.4c-15,5.5-25.8,20-25.8,36.9c-0.1,0.2-0.1,0.4-0.1,0.6
			c0,0.3,0.1,0.5,0.1,0.8c0.7,21.1,18.1,38,39.4,38c21.3,0,38.6-16.9,39.4-38c0.1-0.2,0.1-0.5,0.1-0.8
			C1826.7,716.2,1826.6,716,1826.6,715.8z M1816.6,733h-8.7c1.2-4.2,2-8.9,2.2-13.9h11C1820.6,724.1,1819,728.8,1816.6,733z
			 M1753.2,719.1h11c0.2,5,1,9.7,2.2,13.9h-8.7C1755.3,728.8,1753.7,724.1,1753.2,719.1z M1757.1,699.8h9.3c-1.2,4.3-2,8.9-2.1,13.9
			h-11C1753.5,708.8,1754.8,704.1,1757.1,699.8z M1789.8,694.6V684c4.1,1.2,7.8,5,10.5,10.6H1789.8z M1802.4,699.8
			c1.4,4.2,2.2,8.9,2.4,13.9h-15.1v-13.9H1802.4z M1784.5,684v10.6H1774C1776.8,689.1,1780.4,685.2,1784.5,684z M1784.5,699.8v13.9
			h-15.1c0.2-5,1.1-9.8,2.4-13.9H1784.5z M1769.5,719.1h15.1V733H1772C1770.6,728.9,1769.7,724.1,1769.5,719.1z M1784.5,738.3v10.2
			c-4-1.2-7.6-4.9-10.3-10.2H1784.5z M1789.8,748.5v-10.2h10.3C1797.5,743.6,1793.8,747.4,1789.8,748.5z M1789.8,733v-13.9h15.1
			c-0.2,5-1.2,9.8-2.5,13.9H1789.8z M1810.2,713.8c-0.2-5-0.9-9.7-2.1-13.9h9c0.1,0,0.2,0,0.2,0c2.2,4.2,3.6,8.9,3.9,14
			C1821.2,713.8,1810.2,713.8,1810.2,713.8z M1813.8,694.6h-7.6c-1.8-4.2-4-7.8-6.7-10.5C1805.2,686.3,1810.1,689.9,1813.8,694.6z
			 M1778.9,672.1h16.7v5.3c-2.7-0.6-5.5-0.9-8.4-0.9c-2.9,0-5.6,0.3-8.3,0.9V672.1z M1774.8,684.1c-2.6,2.7-4.9,6.3-6.7,10.5h-7.6
			C1764.3,689.9,1769.2,686.3,1774.8,684.1z M1761.6,738.3h6.8c1.5,3.4,3.3,6.4,5.3,8.8C1769,745.1,1764.9,742.1,1761.6,738.3z
			 M1800.7,747.1c2.1-2.4,3.9-5.4,5.3-8.8h6.8C1809.5,742.1,1805.4,745.1,1800.7,747.1z"/>
		<path d="M1744.3,696.4l-10.1-4.4c-1.3-0.6-2.9,0-3.5,1.4c-0.6,1.3,0,2.9,1.4,3.5l10.1,4.4c0.3,0.1,0.7,0.2,1,0.2
			c1,0,2-0.6,2.4-1.6C1746.2,698.5,1745.6,697,1744.3,696.4z"/>
		<path d="M1740.8,733.9l-10.1,4.4c-1.3,0.6-2,2.1-1.4,3.5c0.4,1,1.4,1.6,2.4,1.6c0.3,0,0.7-0.1,1-0.2l10.1-4.4
			c1.3-0.6,2-2.1,1.4-3.5C1743.7,734,1742.2,733.3,1740.8,733.9z"/>
		<path d="M1730.9,720.2l11,0c1.5,0,2.6-1.2,2.6-2.6c0-1.5-1.2-2.6-2.6-2.6c0,0,0,0,0,0l-11,0c-1.5,0-2.6,1.2-2.6,2.6
			C1728.2,719.1,1729.4,720.2,1730.9,720.2C1730.9,720.2,1730.9,720.2,1730.9,720.2z"/>
		<path d="M1832.2,701.5c0.3,0,0.7-0.1,1-0.2l10.1-4.4c1.3-0.6,2-2.1,1.4-3.5c-0.6-1.3-2.1-2-3.5-1.4l-10.1,4.4
			c-1.3,0.6-2,2.1-1.4,3.5C1830.2,700.9,1831.2,701.5,1832.2,701.5z"/>
		<path d="M1841.2,738.3l-10.1-4.4c-1.3-0.6-2.9,0-3.5,1.4c-0.6,1.3,0,2.9,1.4,3.5l10.1,4.4c0.3,0.1,0.7,0.2,1,0.2
			c1,0,2-0.6,2.4-1.6C1843.2,740.4,1842.5,738.8,1841.2,738.3z"/>
		<path d="M1844.6,715l-11,0c0,0,0,0,0,0c-1.5,0-2.6,1.2-2.6,2.6c0,1.5,1.2,2.6,2.6,2.6l11,0c0,0,0,0,0,0c1.5,0,2.6-1.2,2.6-2.6
			C1847.2,716.2,1846,715,1844.6,715z"/>
	</g>
	<g>
		<g>
			<path d="M206.7,603.4h-80.1c-3.7,0-6.7,3-6.7,6.7v44.8c0,3.7,3,6.7,6.7,6.7h19.7L131.4,692h-2.1c-1.4,0-2.3,0.9-2.3,2.3
				c0,1.4,0.9,2.3,2.3,2.3h7.8c1.4,0,2.3-0.9,2.3-2.3c0-1.4-0.9-2.3-2.3-2.3h-0.7l14.9-30.3H164v24.1h-1.6c-1.4,0-2.3,0.9-2.3,2.3
				s0.9,2.3,2.3,2.3h7.8c1.4,0,2.3-0.9,2.3-2.3s-0.9-2.3-2.3-2.3h-1.6v-24.1h13.1l14.9,30.5h-0.7c-1.4,0-2.3,0.9-2.3,2.3
				c0,1.4,0.9,2.3,2.3,2.3h4.4l0,0l0,0h3.2c1.4,0,2.3-0.9,2.3-2.3c0-1.4-0.9-2.3-2.3-2.3h-1.6L187,661.7h19.7c3.7,0,6.7-3,6.7-6.7
				v-45C213.4,606.4,210.4,603.4,206.7,603.4z M208.8,655.1c0,1.1-0.9,2.1-2.1,2.1c-48.7,0-33.3,0-79.9,0c-1.1,0-2.1-0.9-2.1-2.1
				v-45c0-1.1,0.9-2.1,2.1-2.1h79.9c1.1,0,2.1,0.9,2.1,2.1V655.1z"/>
		</g>
		<g>
			<path d="M114.9,717.7c1.4,0,2.3-0.9,2.3-2.3v-42.2c0-9.4-6.9-17.2-15.1-17.2H77c-8.3,0-15.1,7.6-15.1,17.2v42.5
				c0,1.4,0.9,2.3,2.3,2.3h8.5v29.6c0,3.9,3.2,7.1,7.1,7.1h19.5c3.9,0,7.1-3.2,7.1-7.1v-29.8H114.9z M101.8,747.6
				c0,1.4-1.1,2.5-2.5,2.5h-7.6v-33.3c0-1.4-0.9-2.3-2.3-2.3c-1.4,0-2.3,0.9-2.3,2.3v33.3h-7.3c-1.4,0-2.5-1.1-2.5-2.5V692
				c0-1.4-0.9-2.3-2.3-2.3s-2.3,0.9-2.3,2.3v21.3h-6.2v-40.2c0-6.9,4.8-12.6,10.6-12.6h24.8c6,0,10.6,5.7,10.6,12.6v40.2h-6.2V692
				c0-1.4-0.9-2.3-2.3-2.3c-1.4,0-2.3,0.9-2.3,2.3v55.5H101.8z"/>
		</g>
		<g>
			<path d="M89.4,653.7c9.4,0,17-7.6,17-17s-7.6-17-17-17s-17,7.6-17,17C72.6,646.1,80.2,653.7,89.4,653.7z M89.4,624.3
				c6.9,0,12.4,5.5,12.4,12.4s-5.5,12.4-12.4,12.4c-6.9,0-12.4-5.5-12.4-12.4C77.2,630,82.7,624.3,89.4,624.3z"/>
		</g>
		<g>
			<path d="M145,729.2L145,729.2c3.7-2.5,6.4-6.9,6.4-11.9c0-7.6-6.2-14-14.2-14c-7.8,0-14.2,6.4-14.2,14c0,4.8,2.5,9.4,6.7,11.9
				h-0.7c-9,0-16.1,7.3-16.1,16.1v6.9c0,1.4,0.9,2.3,2.3,2.3h43.6c1.4,0,2.3-0.9,2.3-2.3v-6.9C161,736.6,153.7,729.2,145,729.2z
				 M137.1,707.9c5.3,0,9.4,4.4,9.4,9.4c0,5.3-4.4,9.4-9.6,9.4c-1.6,0-3.2-0.5-4.6-1.1c-3-1.6-4.8-4.8-4.8-8.3
				C127.5,712.2,131.9,707.9,137.1,707.9z M156.4,750.1h-39v-4.6c0-6.4,5.3-11.5,11.5-11.5h15.8c6.4,0,11.5,5.3,11.5,11.5v4.6H156.4
				z"/>
		</g>
		<g>
			<path d="M197.3,729.4L197.3,729.4c3.7-2.5,6.4-6.9,6.4-11.9c0-7.6-6.2-14-14.2-14c-7.8,0-14.2,6.4-14.2,14
				c0,4.8,2.5,9.4,6.7,11.9h-0.7c-9,0-16.1,7.3-16.1,16.1v6.9c0,1.4,0.9,2.3,2.3,2.3h43.6c1.4,0,2.3-0.9,2.3-2.3v-6.9
				C213.4,736.8,206.2,729.4,197.3,729.4z M189.5,708.1c5.3,0,9.4,4.4,9.4,9.4c0,5.3-4.4,9.4-9.6,9.4c-1.6,0-3.2-0.5-4.6-1.1
				c-3-1.6-4.8-4.8-4.8-8.3C179.8,712.5,184.2,708.1,189.5,708.1z M208.8,750.3h-39v-4.6c0-6.4,5.3-11.5,11.5-11.5h16.1
				c6.4,0,11.5,5.3,11.5,11.5V750.3z"/>
		</g>
		<g>
			<path d="M203,623.2c0-0.7-0.2-1.1-0.7-1.6l-9.2-9.2c-0.9-0.9-2.3-0.9-3.2,0c-0.9,0.9-0.9,2.3,0,3.2l5.3,5.3h-20
				c-1.4,0-2.3,0.9-2.3,2.3v11.2h-23c-1.4,0-2.3,0.9-2.3,2.3V648h-17c-1.4,0-2.3,0.9-2.3,2.3c0,1.4,0.9,2.3,2.3,2.3H150
				c1.4,0,2.3-0.9,2.3-2.3V639h23c1.4,0,2.3-0.9,2.3-2.3v-11.2h17.7l-5.3,5.3c-0.9,0.9-0.9,2.3,0,3.2c0.9,0.9,2.3,0.9,3.2,0l9.2-9.2
				l0,0C202.8,624.3,203,623.6,203,623.2z"/>
		</g>
	</g>
	<g transform="translate(0,-952.36218)">
		<path d="M379.7,1605.1c-5.9,0-10.7,4.8-10.7,10.7v47.1c0,5.9,4.8,10.7,10.7,10.7h70.7c5.9,0,10.7-4.8,10.7-10.7v-47.1
			c0-5.9-4.8-10.7-10.7-10.7H379.7z M379.7,1609.4h70.7c3.6,0,6.4,2.8,6.4,6.4v47.1c0,3.6-2.8,6.4-6.4,6.4h-70.7
			c-3.6,0-6.4-2.8-6.4-6.4v-47.1C373.3,1612.2,376.1,1609.4,379.7,1609.4z M406.3,1622.1c-1.1,0.1-2,1.1-1.9,2.3v30
			c0,0.8,0.4,1.6,1,2c0.6,0.4,1.5,0.4,2.1,0l23.6-15c1.3-0.8,1.3-3.2,0-3.9l-23.6-15C407.1,1622.2,406.7,1622.1,406.3,1622.1
			L406.3,1622.1z M408.5,1628.3l17.4,11.1l-17.4,11V1628.3z"/>
	</g>
	<g transform="translate(0,-952.36218)">
		<path d="M1489.3,1605.1c-5.9,0-10.7,4.8-10.7,10.7v47.1c0,5.9,4.8,10.7,10.7,10.7h70.7c5.9,0,10.7-4.8,10.7-10.7v-47.1
			c0-5.9-4.8-10.7-10.7-10.7H1489.3z M1489.3,1609.4h70.7c3.6,0,6.4,2.8,6.4,6.4v47.1c0,3.6-2.8,6.4-6.4,6.4h-70.7
			c-3.6,0-6.4-2.8-6.4-6.4v-47.1C1482.8,1612.2,1485.7,1609.4,1489.3,1609.4z M1515.9,1622.1c-1.1,0.1-2,1.1-1.9,2.3v30
			c0,0.8,0.4,1.6,1,2s1.5,0.4,2.1,0l23.6-15c1.3-0.8,1.3-3.2,0-3.9l-23.6-15C1516.7,1622.2,1516.3,1622.1,1515.9,1622.1
			L1515.9,1622.1z M1518.1,1628.3l17.4,11.1l-17.4,11V1628.3z"/>
	</g>
	<g>
		<path d="M760,635c0-1.5-1.2-2.6-2.6-2.6h-24.1c-1.5,0-2.6,1.2-2.6,2.6v10.4c0,0.2,0,0.4,0.1,0.6v11.3c-0.6-0.1-1.2-0.3-1.8-0.3
			c-3.9,0-7,3.2-7,7c0,3.9,3.2,7,7,7c3.9,0,7-3.2,7-7c0-0.4-0.1-0.8-0.1-1.1c0.1-0.2,0.1-0.5,0.1-0.7V648h18.7v9.3
			c-0.6-0.1-1.2-0.3-1.8-0.3c-3.9,0-7,3.2-7,7c0,3.9,3.2,7,7,7c3.9,0,7-3.2,7-7c0-0.4-0.1-0.8-0.1-1.1c0.1-0.2,0.1-0.5,0.1-0.7
			v-16.6c0-0.1,0-0.2,0-0.2V635z M735.9,637.6h18.8v5.1h-18.8V637.6z M728.9,665.8c-1,0-1.8-0.8-1.8-1.8s0.8-1.8,1.8-1.8
			s1.8,0.8,1.8,1.8S729.9,665.8,728.9,665.8z M752.9,665.8c-1,0-1.8-0.8-1.8-1.8s0.8-1.8,1.8-1.8s1.8,0.8,1.8,1.8
			C754.7,665,753.9,665.8,752.9,665.8z"/>
		<path d="M638.9,660c0-0.9-0.2-1.7-0.5-2.4v-9.5l18.8-3.6v8.7c-0.6-0.2-1.2-0.3-1.9-0.3c-3.9,0-7,3.2-7,7c0,3.9,3.2,7,7,7
			s7-3.2,7-7c0-0.3-0.1-0.6-0.1-0.9c0.1-0.3,0.2-0.7,0.2-1v-16.8V631c0-0.8-0.4-1.5-1-2c-0.6-0.5-1.4-0.7-2.2-0.6l-24.1,4.6
			c-1.2,0.2-2.1,1.3-2.1,2.6V646v7.2c-0.4-0.1-0.9-0.1-1.3-0.1c-3.9,0-7,3.2-7,7c0,3.9,3.2,7,7,7C635.8,667.1,638.9,663.9,638.9,660
			z M655.4,661.8c-1,0-1.8-0.8-1.8-1.8s0.8-1.8,1.8-1.8s1.8,0.8,1.8,1.8S656.4,661.8,655.4,661.8z M638.5,637.7l18.8-3.6v5
			l-18.8,3.6V637.7z M631.9,661.8c-1,0-1.8-0.8-1.8-1.8s0.8-1.8,1.8-1.8c0.7,0,1.2,0.4,1.5,0.9c0,0.1,0.1,0.2,0.1,0.3
			c0.1,0.2,0.1,0.4,0.1,0.6C633.7,661,632.9,661.8,631.9,661.8z"/>
		<path d="M732.1,699.7c0-16.9-10.7-31.3-25.7-36.9v-9.5c0-1.5-1.2-2.6-2.6-2.6h-8.2v-37.9c0-1.5-1.2-2.6-2.6-2.6s-2.6,1.2-2.6,2.6
			v37.9h-8.5c-1.5,0-2.6,1.2-2.6,2.6v9.4c-15,5.5-25.8,20-25.8,36.9c-0.1,0.2-0.1,0.4-0.1,0.6c0,0.3,0.1,0.5,0.1,0.8
			c0.7,21.1,18.1,38,39.4,38s38.6-16.9,39.4-38c0.1-0.2,0.1-0.5,0.1-0.8C732.2,700.1,732.1,699.9,732.1,699.7z M722.1,716.9h-8.7
			c1.2-4.2,2-8.9,2.2-13.9h11C726.2,708,724.6,712.8,722.1,716.9z M658.7,703h11c0.2,5,1,9.7,2.2,13.9h-8.7
			C660.8,712.8,659.2,708,658.7,703z M662.6,683.8h9.3c-1.2,4.3-2,8.9-2.1,13.9h-11C659,692.7,660.3,688,662.6,683.8z M695.3,678.5
			v-10.6c4.1,1.2,7.8,5,10.5,10.6H695.3z M707.9,683.8c1.4,4.2,2.2,8.9,2.4,13.9h-15.1v-13.9H707.9z M690,667.9v10.6h-10.5
			C682.3,673,685.9,669.1,690,667.9z M690,683.8v13.9H675c0.2-5,1.1-9.8,2.4-13.9H690z M675,703H690v13.9h-12.5
			C676.1,712.8,675.2,708,675,703z M690,722.2v10.2c-4-1.2-7.6-4.9-10.3-10.2H690z M695.3,732.4v-10.2h10.3
			C703,727.5,699.3,731.3,695.3,732.4z M695.3,716.9V703h15.1c-0.2,5-1.2,9.8-2.5,13.9H695.3z M715.7,697.7c-0.2-5-0.9-9.7-2.1-13.9
			h9c0.1,0,0.2,0,0.2,0c2.2,4.2,3.6,8.9,3.9,14C726.7,697.7,715.7,697.7,715.7,697.7z M719.3,678.5h-7.6c-1.8-4.2-4-7.8-6.7-10.5
			C710.7,670.2,715.6,673.8,719.3,678.5z M684.4,656h16.7v5.3c-2.7-0.6-5.5-0.9-8.4-0.9c-2.9,0-5.6,0.3-8.3,0.9V656z M680.4,668
			c-2.6,2.7-4.9,6.3-6.7,10.5h-7.6C669.8,673.8,674.7,670.2,680.4,668z M667.1,722.2h6.8c1.5,3.4,3.3,6.4,5.3,8.8
			C674.5,729,670.4,726,667.1,722.2z M706.2,731c2.1-2.4,3.9-5.4,5.3-8.8h6.8C715,726,710.9,729,706.2,731z"/>
		<path d="M649.8,680.3l-10.1-4.4c-1.3-0.6-2.9,0-3.5,1.4c-0.6,1.3,0,2.9,1.4,3.5l10.1,4.4c0.3,0.1,0.7,0.2,1,0.2c1,0,2-0.6,2.4-1.6
			C651.8,682.5,651.1,680.9,649.8,680.3z"/>
		<path d="M646.4,717.8l-10.1,4.4c-1.3,0.6-2,2.1-1.4,3.5c0.4,1,1.4,1.6,2.4,1.6c0.3,0,0.7-0.1,1-0.2l10.1-4.4
			c1.3-0.6,2-2.1,1.4-3.5C649.2,717.9,647.7,717.2,646.4,717.8z"/>
		<path d="M636.4,704.1l11,0c1.5,0,2.6-1.2,2.6-2.6c0-1.5-1.2-2.6-2.6-2.6c0,0,0,0,0,0l-11,0c-1.5,0-2.6,1.2-2.6,2.6
			C633.7,703,634.9,704.1,636.4,704.1C636.4,704.1,636.4,704.1,636.4,704.1z"/>
		<path d="M737.7,685.4c0.3,0,0.7-0.1,1-0.2l10.1-4.4c1.3-0.6,2-2.1,1.4-3.5c-0.6-1.3-2.1-2-3.5-1.4l-10.1,4.4
			c-1.3,0.6-2,2.1-1.4,3.5C735.7,684.8,736.7,685.4,737.7,685.4z"/>
		<path d="M746.7,722.2l-10.1-4.4c-1.3-0.6-2.9,0-3.5,1.4c-0.6,1.3,0,2.9,1.4,3.5l10.1,4.4c0.3,0.1,0.7,0.2,1,0.2c1,0,2-0.6,2.4-1.6
			C748.7,724.3,748,722.7,746.7,722.2z"/>
		<path d="M750.1,698.9l-11,0c0,0,0,0,0,0c-1.5,0-2.6,1.2-2.6,2.6c0,1.5,1.2,2.6,2.6,2.6l11,0c0,0,0,0,0,0c1.5,0,2.6-1.2,2.6-2.6
			C752.7,700.1,751.5,698.9,750.1,698.9z"/>
	</g>
	<g>
		<g>
			<g>
				<path d="M1041.5,662.6c-4.3,0-8,3.6-8,8v24.1l-3.4,3.6c-0.5-1.2-1.2-2.4-2.2-3.4h-0.2c-3.4-3.1-8.7-2.7-11.6,0.7l-13.7,17.4
					c-1.2,1.7-1.7,3.6-1.7,5.5v15.2h-2.4c-1.4,0-2.9,1.2-2.9,2.9v16.2c0,1.4,1.2,2.9,2.9,2.9h36.7c1.4,0,2.9-1.2,2.9-2.9v-16.2
					c0-1.4-1.2-2.9-2.9-2.9h-3.4v-3.9c0-1.2,0.2-2.4,1-3.4l15.7-21.5c0.7-1,1-2.4,1-3.6v-30.9
					C1049.5,666.2,1045.9,662.6,1041.5,662.6z M1033.1,750.6h-32.6v-12.1h32.6V750.6z M1044.7,701.4c0,0.2,0,0.7-0.2,1l-15.7,21.5
					c-1.2,1.9-1.7,3.9-1.7,6v3.9h-21.2v-15c0-1,0.2-1.9,0.7-2.7l13.5-17.1c1-1.4,3.1-1.4,4.3-0.2l0.2,0.2c1.7,1.4,1.7,4.1,0.2,5.8
					l-2.4,2.9c-1,1-0.7,2.4,0.2,3.4c1,1,2.4,0.7,3.4-0.2l11.3-13c0.5-0.5,0.7-1.2,0.7-1.7v-25.6c0-1.7,1.4-3.1,3.1-3.1
					c1.7,0,3.1,1.4,3.1,3.1v30.9H1044.7z"/>
			</g>
		</g>
		<g>
			<g>
				<path d="M941.2,733.7h-2.4v-15c0-1.9-0.7-3.9-1.9-5.8l-13.5-17.1c-2.9-3.6-8.2-3.9-11.6-0.7l0,0c-1,1-1.7,2.2-2.2,3.4l-3.1-3.6
					v-24.1c0-4.3-3.6-8-8-8c-4.6-0.2-8.2,3.4-8.2,8v30.9c0,1.2,0.5,2.4,1.2,3.6l15.4,21.2c0.7,1,1,2.2,1,3.6v3.6h-3.4
					c-1.4,0-2.9,1.2-2.9,2.9v16.2c0,1.4,1.2,2.9,2.9,2.9h36.7c1.4,0,2.9-1.2,2.9-2.9v-16.2C944.1,734.9,942.9,733.7,941.2,733.7z
					 M910.8,723.6l-15.4-21.2c-0.2-0.2-0.2-0.5-0.2-1v-30.6c0-1.7,1.4-3.1,3.1-3.1s3.1,1.4,3.1,3.1v24.8c0,0.5,0.2,1.4,0.7,1.7
					l11.3,13c1,1,2.4,1.2,3.4,0.2c1-1,1.2-2.4,0.2-3.4l-2.4-2.9c-1.4-1.7-1.2-4.3,0.2-5.8l0.2-0.2c1.2-1.2,3.4-1,4.3,0.2l13.5,17.1
					c0.5,0.7,1,1.9,1,2.9v15.2h-21.2v-3.9C912.7,727.7,912,725.5,910.8,723.6z M939.3,750.6h-32.6v-12.1h32.6V750.6z"/>
			</g>
		</g>
		<g>
			<g>
				<path d="M996,719.3c0.7-0.7,1.2-1.7,1.2-2.7v-16.9c0-2.2-1.7-3.9-3.9-3.9h-4.6c1-9.6,5.1-18.8,11.8-26
					c7.7-8.2,11.8-19.1,11.8-30.4c0-24.6-20.5-44.6-45.1-43.2c-21,1.2-38.1,18.3-39.8,39.6c-1.2,12.8,3.4,25.6,12.1,34.7
					c7,7.2,11.1,16.4,12.1,25.8H947c-2.2,0-3.9,1.7-3.9,3.9v16.9c0,2.2,1.7,3.9,3.9,3.9l0,0h10.9l0,0v6h-5.1c-1.4,0-2.4,1.2-2.4,2.4
					c0,1.4,1.2,2.4,2.4,2.4l0,0h5.1c0.7,4.8,4.6,8.4,9.4,8.4l0,0h5.5c4.8,0,8.7-3.6,9.4-8.4h5.1c1.4,0,2.4-1.2,2.4-2.4
					c0-1.4-1-2.4-2.4-2.4h-5.1v-6l0,0h10.9C994.3,720.5,995.2,720,996,719.3z M973,735.2h-5.5c-2.7,0-4.6-2.2-4.6-4.8v-9.6h15v9.6
					C977.9,733,975.7,735.2,973,735.2z M943.1,667.2c-8-8.2-11.8-19.3-10.9-30.9c1.7-18.8,16.9-34,35.5-35c0.7,0,1.4,0,2.2,0
					c20.7,0,37.6,17.4,37.9,38.6c0,10.1-3.6,19.8-10.6,27c-7.7,8.2-12.3,18.6-13.3,29.4h-11.1v-26h1c1.2,0,2.2-1,2.4-2.2l0.7-5.3
					c2.2-0.5,4.3-1.4,6.3-2.7l4.1,3.1c1,0.7,2.4,0.5,3.4-0.2l4.6-4.6c1-1,1-2.2,0.2-3.1l-3.4-4.3c1.2-1.9,1.9-4.1,2.7-6.3l5.3-0.7
					c1.2-0.2,2.2-1.2,2.2-2.4v-6.5c0-1.2-1-2.2-2.2-2.4l-5.3-0.7c-0.5-2.2-1.4-4.3-2.7-6.3l3.1-4.1c0.7-1,0.7-2.4-0.2-3.4l-4.6-4.6
					c-1-1-2.2-1-3.1-0.2l-4.3,3.4c-1.9-1.2-4.1-1.9-6.3-2.7l-0.7-5.3c-0.2-1.2-1.2-2.2-2.4-2.2H967c-1.2,0-2.2,1-2.4,2.2l-0.7,5.3
					c-2.2,0.7-4.1,1.4-6,2.7l-4.3-3.4c-1-0.7-2.4-0.7-3.1,0.2l-4.6,4.8c-1,1-1,2.2-0.2,3.1l3.4,4.3c-1.2,1.9-1.9,4.1-2.7,6.3
					l-5.3,0.5c-1.2,0.2-2.2,1.2-2.2,2.4v6.5c0,1.2,1,2.2,2.2,2.4l5.3,0.7c0.5,2.2,1.4,4.3,2.7,6.3l-3.4,4.3c-0.7,1-0.7,2.4,0.2,3.1
					l4.6,4.6c1,1,2.2,1,3.1,0.2l4.3-3.4c1.9,1.2,4.1,1.9,6.3,2.7l0.7,5.3c0.2,1.2,1.2,2.2,2.4,2.2h1v26h-11.3
					C955.7,685.5,950.9,675.1,943.1,667.2z M953.5,649.8c-1.4-2.2-2.7-4.8-3.1-7.5c-0.2-1-1-1.7-1.9-1.9l-4.8-0.7v-2.4l4.8-0.7
					c1-0.2,1.9-1,1.9-1.9c0.5-2.7,1.7-5.3,3.1-7.7c0.5-1,0.5-1.9,0-2.9l-2.9-3.6l1.7-1.7l3.9,2.9c0.7,0.7,2.2,0.7,2.9,0
					c2.2-1.4,4.8-2.7,7.5-3.1c1-0.2,1.7-1,1.9-2.2l0.7-4.8h2.4l0.7,4.8c0.2,1,1,1.9,1.9,2.2c2.7,0.5,5.3,1.7,7.5,3.1
					c1,0.5,1.9,0.5,2.9,0l3.9-2.9l1.7,1.7l-2.9,3.9c-0.7,0.7-0.7,1.9,0,2.9c1.4,2.4,2.7,4.8,3.1,7.7c0.2,1,1,1.7,1.9,1.9l4.8,0.7
					v2.4l-4.8,0.7c-1,0.2-1.9,1-1.9,1.9c-0.5,2.7-1.7,5.3-3.1,7.7c-0.5,1-0.5,1.9,0,2.9l2.9,3.9l-1.7,1.7l-4.1-3.4
					c-0.7-0.7-1.9-0.7-2.9,0c-2.2,1.4-4.8,2.7-7.5,3.1c-1,0.2-1.7,1-1.9,2.2l-0.7,4.8h-2.4l-0.7-4.8c-0.2-1-1-1.9-1.9-2.2
					c-2.7-0.5-5.3-1.7-7.5-3.1c-1-0.5-1.9-0.5-2.9,0l-3.9,2.9l-1.4-1.7l2.9-3.9C954.2,652,954.2,650.8,953.5,649.8z M948.2,715.9
					v-14.7c12.8,0,30.4-0.2,44.1-0.2v14.7C966.8,715.9,973.8,715.9,948.2,715.9z"/>
			</g>
		</g>
		<g>
			<g>
				<path d="M970.4,652.7c7.7,0,14-6.3,14-14c0-7.7-6.3-14-14-14c-7.7,0-14,6.3-14,14C956.4,646.4,962.7,652.7,970.4,652.7z
					 M970.4,629.3c5.1,0,9.2,4.1,9.2,9.2c0,5.1-4.1,9.2-9.2,9.2c-5.1,0-9.2-4.1-9.2-9.2C961.2,633.4,965.3,629.3,970.4,629.3z"/>
			</g>
		</g>
	</g>
	<g>
		<g>
			<path d="M1322.5,603.4h-80.1c-3.7,0-6.7,3-6.7,6.7v44.8c0,3.7,3,6.7,6.7,6.7h19.7l-14.9,30.5h-2.1c-1.4,0-2.3,0.9-2.3,2.3
				c0,1.4,0.9,2.3,2.3,2.3h7.8c1.4,0,2.3-0.9,2.3-2.3c0-1.4-0.9-2.3-2.3-2.3h-0.7l14.9-30.3h12.6v24.1h-1.6c-1.4,0-2.3,0.9-2.3,2.3
				s0.9,2.3,2.3,2.3h7.8c1.4,0,2.3-0.9,2.3-2.3s-0.9-2.3-2.3-2.3h-1.6v-24.1h13.1l14.9,30.5h-0.7c-1.4,0-2.3,0.9-2.3,2.3
				c0,1.4,0.9,2.3,2.3,2.3h4.4l0,0l0,0h3.2c1.4,0,2.3-0.9,2.3-2.3c0-1.4-0.9-2.3-2.3-2.3h-1.6l-14.9-30.5h19.7c3.7,0,6.7-3,6.7-6.7
				v-45C1329.2,606.4,1326.2,603.4,1322.5,603.4z M1324.6,655.1c0,1.1-0.9,2.1-2.1,2.1c-48.7,0-33.3,0-79.9,0
				c-1.1,0-2.1-0.9-2.1-2.1v-45c0-1.1,0.9-2.1,2.1-2.1h79.9c1.1,0,2.1,0.9,2.1,2.1V655.1z"/>
		</g>
		<g>
			<path d="M1230.7,717.7c1.4,0,2.3-0.9,2.3-2.3v-42.2c0-9.4-6.9-17.2-15.1-17.2h-25c-8.3,0-15.1,7.6-15.1,17.2v42.5
				c0,1.4,0.9,2.3,2.3,2.3h8.5v29.6c0,3.9,3.2,7.1,7.1,7.1h19.5c3.9,0,7.1-3.2,7.1-7.1v-29.8H1230.7z M1217.6,747.6
				c0,1.4-1.1,2.5-2.5,2.5h-7.6v-33.3c0-1.4-0.9-2.3-2.3-2.3s-2.3,0.9-2.3,2.3v33.3h-7.3c-1.4,0-2.5-1.1-2.5-2.5V692
				c0-1.4-0.9-2.3-2.3-2.3c-1.4,0-2.3,0.9-2.3,2.3v21.3h-6.2v-40.2c0-6.9,4.8-12.6,10.6-12.6h24.8c6,0,10.6,5.7,10.6,12.6v40.2h-6.2
				V692c0-1.4-0.9-2.3-2.3-2.3c-1.4,0-2.3,0.9-2.3,2.3v55.5H1217.6z"/>
		</g>
		<g>
			<path d="M1205.2,653.7c9.4,0,17-7.6,17-17s-7.6-17-17-17s-17,7.6-17,17C1188.5,646.1,1196,653.7,1205.2,653.7z M1205.2,624.3
				c6.9,0,12.4,5.5,12.4,12.4s-5.5,12.4-12.4,12.4s-12.4-5.5-12.4-12.4C1193.1,630,1198.6,624.3,1205.2,624.3z"/>
		</g>
		<g>
			<path d="M1260.8,729.2L1260.8,729.2c3.7-2.5,6.4-6.9,6.4-11.9c0-7.6-6.2-14-14.2-14c-7.8,0-14.2,6.4-14.2,14
				c0,4.8,2.5,9.4,6.7,11.9h-0.7c-9,0-16.1,7.3-16.1,16.1v6.9c0,1.4,0.9,2.3,2.3,2.3h43.6c1.4,0,2.3-0.9,2.3-2.3v-6.9
				C1276.8,736.6,1269.5,729.2,1260.8,729.2z M1253,707.9c5.3,0,9.4,4.4,9.4,9.4c0,5.3-4.4,9.4-9.6,9.4c-1.6,0-3.2-0.5-4.6-1.1
				c-3-1.6-4.8-4.8-4.8-8.3C1243.3,712.2,1247.7,707.9,1253,707.9z M1272.2,750.1h-39v-4.6c0-6.4,5.3-11.5,11.5-11.5h15.8
				c6.4,0,11.5,5.3,11.5,11.5v4.6H1272.2z"/>
		</g>
		<g>
			<path d="M1313.1,729.4L1313.1,729.4c3.7-2.5,6.4-6.9,6.4-11.9c0-7.6-6.2-14-14.2-14c-7.8,0-14.2,6.4-14.2,14
				c0,4.8,2.5,9.4,6.7,11.9h-0.7c-9,0-16.1,7.3-16.1,16.1v6.9c0,1.4,0.9,2.3,2.3,2.3h43.6c1.4,0,2.3-0.9,2.3-2.3v-6.9
				C1329.2,736.8,1322.1,729.4,1313.1,729.4z M1305.3,708.1c5.3,0,9.4,4.4,9.4,9.4c0,5.3-4.4,9.4-9.6,9.4c-1.6,0-3.2-0.5-4.6-1.1
				c-3-1.6-4.8-4.8-4.8-8.3C1295.7,712.5,1300,708.1,1305.3,708.1z M1324.6,750.3h-39v-4.6c0-6.4,5.3-11.5,11.5-11.5h16.1
				c6.4,0,11.5,5.3,11.5,11.5V750.3z"/>
		</g>
		<g>
			<path d="M1318.8,623.2c0-0.7-0.2-1.1-0.7-1.6l-9.2-9.2c-0.9-0.9-2.3-0.9-3.2,0c-0.9,0.9-0.9,2.3,0,3.2l5.3,5.3h-20
				c-1.4,0-2.3,0.9-2.3,2.3v11.2h-23c-1.4,0-2.3,0.9-2.3,2.3V648h-17c-1.4,0-2.3,0.9-2.3,2.3c0,1.4,0.9,2.3,2.3,2.3h19.3
				c1.4,0,2.3-0.9,2.3-2.3V639h23c1.4,0,2.3-0.9,2.3-2.3v-11.2h17.7l-5.3,5.3c-0.9,0.9-0.9,2.3,0,3.2c0.9,0.9,2.3,0.9,3.2,0l9.2-9.2
				l0,0C1318.6,624.3,1318.8,623.6,1318.8,623.2z"/>
		</g>
	</g>
</g>
<g class="st0">
	<g>
		<path d="M1566.3,909.6c0-1.5-1.2-2.6-2.6-2.6h-24.1c-1.5,0-2.6,1.2-2.6,2.6V920c0,0.2,0,0.4,0.1,0.6v11.3
			c-0.6-0.1-1.2-0.3-1.8-0.3c-3.9,0-7,3.2-7,7c0,3.9,3.2,7,7,7s7-3.2,7-7c0-0.4-0.1-0.8-0.1-1.1c0.1-0.2,0.1-0.5,0.1-0.7v-14.2h18.7
			v9.3c-0.6-0.1-1.2-0.3-1.8-0.3c-3.9,0-7,3.2-7,7c0,3.9,3.2,7,7,7c3.9,0,7-3.2,7-7c0-0.4-0.1-0.8-0.1-1.1c0.1-0.2,0.1-0.5,0.1-0.7
			v-16.6c0-0.1,0-0.2,0-0.2V909.6z M1542.2,912.2h18.8v5.1h-18.8V912.2z M1535.2,940.4c-1,0-1.8-0.8-1.8-1.8s0.8-1.8,1.8-1.8
			s1.8,0.8,1.8,1.8S1536.2,940.4,1535.2,940.4z M1559.2,940.4c-1,0-1.8-0.8-1.8-1.8s0.8-1.8,1.8-1.8c1,0,1.8,0.8,1.8,1.8
			C1561,939.6,1560.2,940.4,1559.2,940.4z"/>
		<path d="M1445.3,934.6c0-0.9-0.2-1.7-0.5-2.4v-9.5l18.8-3.6v8.7c-0.6-0.2-1.2-0.3-1.9-0.3c-3.9,0-7,3.2-7,7c0,3.9,3.2,7,7,7
			s7-3.2,7-7c0-0.3-0.1-0.6-0.1-0.9c0.1-0.3,0.2-0.7,0.2-1V916v-10.4c0-0.8-0.4-1.5-1-2c-0.6-0.5-1.4-0.7-2.2-0.6l-24.1,4.6
			c-1.2,0.2-2.1,1.3-2.1,2.6v10.4v7.2c-0.4-0.1-0.9-0.1-1.3-0.1c-3.9,0-7,3.2-7,7c0,3.9,3.2,7,7,7S1445.3,938.5,1445.3,934.6z
			 M1461.7,936.4c-1,0-1.8-0.8-1.8-1.8s0.8-1.8,1.8-1.8s1.8,0.8,1.8,1.8S1462.7,936.4,1461.7,936.4z M1444.8,912.4l18.8-3.6v5
			l-18.8,3.6V912.4z M1438.2,936.4c-1,0-1.8-0.8-1.8-1.8s0.8-1.8,1.8-1.8c0.7,0,1.2,0.4,1.5,0.9c0,0.1,0.1,0.2,0.1,0.3
			c0.1,0.2,0.1,0.4,0.1,0.6C1440,935.6,1439.2,936.4,1438.2,936.4z"/>
		<path d="M1538.4,974.3c0-16.9-10.7-31.3-25.7-36.9v-9.5c0-1.5-1.2-2.6-2.6-2.6h-8.2v-37.9c0-1.5-1.2-2.6-2.6-2.6s-2.6,1.2-2.6,2.6
			v37.9h-8.5c-1.5,0-2.6,1.2-2.6,2.6v9.4c-15,5.5-25.8,20-25.8,36.9c-0.1,0.2-0.1,0.4-0.1,0.6c0,0.3,0.1,0.5,0.1,0.8
			c0.7,21.1,18.1,38,39.4,38s38.6-16.9,39.4-38c0.1-0.2,0.1-0.5,0.1-0.8C1538.5,974.7,1538.5,974.5,1538.4,974.3z M1528.4,991.5
			h-8.7c1.2-4.2,2-8.9,2.2-13.9h11C1532.5,982.6,1530.9,987.4,1528.4,991.5z M1465.1,977.6h11c0.2,5,1,9.7,2.2,13.9h-8.7
			C1467.2,987.4,1465.6,982.6,1465.1,977.6z M1468.9,958.4h9.3c-1.2,4.3-2,8.9-2.1,13.9h-11C1465.3,967.3,1466.7,962.6,1468.9,958.4
			z M1501.7,953.1v-10.6c4.1,1.2,7.8,5,10.5,10.6H1501.7z M1514.3,958.4c1.4,4.2,2.2,8.9,2.4,13.9h-15.1v-13.9H1514.3z
			 M1496.4,942.5v10.6h-10.5C1488.6,947.6,1492.3,943.7,1496.4,942.5z M1496.4,958.4v13.9h-15.1c0.2-5,1.1-9.8,2.4-13.9H1496.4z
			 M1481.3,977.6h15.1v13.9h-12.5C1482.5,987.4,1481.6,982.6,1481.3,977.6z M1496.4,996.8v10.2c-4-1.2-7.6-4.9-10.3-10.2H1496.4z
			 M1501.7,1007v-10.2h10.3C1509.3,1002.1,1505.7,1005.9,1501.7,1007z M1501.7,991.5v-13.9h15.1c-0.2,5-1.2,9.8-2.5,13.9H1501.7z
			 M1522,972.3c-0.2-5-0.9-9.7-2.1-13.9h9c0.1,0,0.2,0,0.2,0c2.2,4.2,3.6,8.9,3.9,14C1533,972.3,1522,972.3,1522,972.3z
			 M1525.6,953.1h-7.6c-1.8-4.2-4-7.8-6.7-10.5C1517,944.8,1521.9,948.4,1525.6,953.1z M1490.7,930.6h16.7v5.3
			c-2.7-0.6-5.5-0.9-8.4-0.9c-2.9,0-5.6,0.3-8.3,0.9V930.6z M1486.7,942.6c-2.6,2.7-4.9,6.3-6.7,10.5h-7.6
			C1476.1,948.4,1481,944.8,1486.7,942.6z M1473.4,996.8h6.8c1.5,3.4,3.3,6.4,5.3,8.8C1480.8,1003.6,1476.7,1000.6,1473.4,996.8z
			 M1512.6,1005.7c2.1-2.4,3.9-5.4,5.3-8.8h6.8C1521.3,1000.6,1517.2,1003.6,1512.6,1005.7z"/>
		<path d="M1456.1,954.9l-10.1-4.4c-1.3-0.6-2.9,0-3.5,1.4c-0.6,1.3,0,2.9,1.4,3.5l10.1,4.4c0.3,0.1,0.7,0.2,1,0.2
			c1,0,2-0.6,2.4-1.6C1458.1,957.1,1457.5,955.5,1456.1,954.9z"/>
		<path d="M1452.7,992.4l-10.1,4.4c-1.3,0.6-2,2.1-1.4,3.5c0.4,1,1.4,1.6,2.4,1.6c0.3,0,0.7-0.1,1-0.2l10.1-4.4
			c1.3-0.6,2-2.1,1.4-3.5C1455.6,992.5,1454,991.8,1452.7,992.4z"/>
		<path d="M1442.7,978.7l11,0c1.5,0,2.6-1.2,2.6-2.6c0-1.5-1.2-2.6-2.6-2.6c0,0,0,0,0,0l-11,0c-1.5,0-2.6,1.2-2.6,2.6
			C1440.1,977.6,1441.2,978.7,1442.7,978.7C1442.7,978.7,1442.7,978.7,1442.7,978.7z"/>
		<path d="M1544,960c0.3,0,0.7-0.1,1-0.2l10.1-4.4c1.3-0.6,2-2.1,1.4-3.5c-0.6-1.3-2.1-2-3.5-1.4l-10.1,4.4c-1.3,0.6-2,2.1-1.4,3.5
			C1542,959.4,1543,960,1544,960z"/>
		<path d="M1553.1,996.8l-10.1-4.4c-1.3-0.6-2.9,0-3.5,1.4c-0.6,1.3,0,2.9,1.4,3.5l10.1,4.4c0.3,0.1,0.7,0.2,1,0.2
			c1,0,2-0.6,2.4-1.6C1555,998.9,1554.4,997.3,1553.1,996.8z"/>
		<path d="M1556.4,973.5l-11,0c0,0,0,0,0,0c-1.5,0-2.6,1.2-2.6,2.6c0,1.5,1.2,2.6,2.6,2.6l11,0c0,0,0,0,0,0c1.5,0,2.6-1.2,2.6-2.6
			S1557.9,973.5,1556.4,973.5z"/>
	</g>
	<g transform="translate(0,-952.36218)">
		<path d="M91.5,1863.6c-5.9,0-10.7,4.8-10.7,10.7v47.1c0,5.9,4.8,10.7,10.7,10.7h70.7c5.9,0,10.7-4.8,10.7-10.7v-47.1
			c0-5.9-4.8-10.7-10.7-10.7H91.5z M91.5,1867.9h70.7c3.6,0,6.4,2.8,6.4,6.4v47.1c0,3.6-2.8,6.4-6.4,6.4H91.5
			c-3.6,0-6.4-2.8-6.4-6.4v-47.1C85.1,1870.7,87.9,1867.9,91.5,1867.9z M118.2,1880.6c-1.1,0.1-2,1.1-1.9,2.3v30c0,0.8,0.4,1.6,1,2
			s1.5,0.4,2.1,0l23.6-15c1.3-0.8,1.3-3.2,0-3.9l-23.6-15C119,1880.7,118.6,1880.6,118.2,1880.6L118.2,1880.6z M120.3,1886.8
			l17.4,11.1l-17.4,11V1886.8z"/>
	</g>
	<g transform="translate(0,-952.36218)">
		<path d="M930.4,1863.6c-5.9,0-10.7,4.8-10.7,10.7v47.1c0,5.9,4.8,10.7,10.7,10.7h70.7c5.9,0,10.7-4.8,10.7-10.7v-47.1
			c0-5.9-4.8-10.7-10.7-10.7H930.4z M930.4,1867.9h70.7c3.6,0,6.4,2.8,6.4,6.4v47.1c0,3.6-2.8,6.4-6.4,6.4h-70.7
			c-3.6,0-6.4-2.8-6.4-6.4v-47.1C923.9,1870.7,926.8,1867.9,930.4,1867.9z M957,1880.6c-1.1,0.1-2,1.1-1.9,2.3v30c0,0.8,0.4,1.6,1,2
			c0.6,0.4,1.5,0.4,2.1,0l23.6-15c1.3-0.8,1.3-3.2,0-3.9l-23.6-15C957.8,1880.7,957.4,1880.6,957,1880.6L957,1880.6z M959.2,1886.8
			l17.4,11.1l-17.4,11V1886.8z"/>
	</g>
	<g>
		<path d="M471.8,893.5c0-1.5-1.2-2.6-2.6-2.6h-24.1c-1.5,0-2.6,1.2-2.6,2.6v10.4c0,0.2,0,0.4,0.1,0.6v11.3
			c-0.6-0.1-1.2-0.3-1.8-0.3c-3.9,0-7,3.2-7,7c0,3.9,3.2,7,7,7s7-3.2,7-7c0-0.4-0.1-0.8-0.1-1.1c0.1-0.2,0.1-0.5,0.1-0.7v-14.2h18.7
			v9.3c-0.6-0.1-1.2-0.3-1.8-0.3c-3.9,0-7,3.2-7,7c0,3.9,3.2,7,7,7s7-3.2,7-7c0-0.4-0.1-0.8-0.1-1.1c0.1-0.2,0.1-0.5,0.1-0.7v-16.6
			c0-0.1,0-0.2,0-0.2V893.5z M447.7,896.1h18.8v5.1h-18.8V896.1z M440.7,924.3c-1,0-1.8-0.8-1.8-1.8s0.8-1.8,1.8-1.8
			c1,0,1.8,0.8,1.8,1.8S441.7,924.3,440.7,924.3z M464.7,924.3c-1,0-1.8-0.8-1.8-1.8s0.8-1.8,1.8-1.8s1.8,0.8,1.8,1.8
			S465.7,924.3,464.7,924.3z"/>
		<path d="M350.8,918.6c0-0.9-0.2-1.7-0.5-2.4v-9.5l18.8-3.6v8.7c-0.6-0.2-1.2-0.3-1.9-0.3c-3.9,0-7,3.2-7,7c0,3.9,3.2,7,7,7
			c3.9,0,7-3.2,7-7c0-0.3-0.1-0.6-0.1-0.9c0.1-0.3,0.2-0.7,0.2-1v-16.8v-10.4c0-0.8-0.4-1.5-1-2c-0.6-0.5-1.4-0.7-2.2-0.6l-24.1,4.6
			c-1.2,0.2-2.1,1.3-2.1,2.6v10.4v7.2c-0.4-0.1-0.9-0.1-1.3-0.1c-3.9,0-7,3.2-7,7s3.2,7,7,7C347.6,925.6,350.8,922.4,350.8,918.6z
			 M367.2,920.3c-1,0-1.8-0.8-1.8-1.8s0.8-1.8,1.8-1.8c1,0,1.8,0.8,1.8,1.8S368.2,920.3,367.2,920.3z M350.3,896.3l18.8-3.6v5
			l-18.8,3.6V896.3z M343.7,920.3c-1,0-1.8-0.8-1.8-1.8s0.8-1.8,1.8-1.8c0.7,0,1.2,0.4,1.5,0.9c0,0.1,0.1,0.2,0.1,0.3
			c0.1,0.2,0.1,0.4,0.1,0.6C345.5,919.5,344.7,920.3,343.7,920.3z"/>
		<path d="M443.9,958.2c0-16.9-10.7-31.3-25.7-36.9v-9.5c0-1.5-1.2-2.6-2.6-2.6h-8.2v-37.9c0-1.5-1.2-2.6-2.6-2.6s-2.6,1.2-2.6,2.6
			v37.9h-8.5c-1.5,0-2.6,1.2-2.6,2.6v9.4c-15,5.5-25.8,20-25.8,36.9c-0.1,0.2-0.1,0.4-0.1,0.6c0,0.3,0.1,0.5,0.1,0.8
			c0.7,21.1,18.1,38,39.4,38s38.6-16.9,39.4-38c0.1-0.2,0.1-0.5,0.1-0.8C444,958.6,444,958.4,443.9,958.2z M434,975.4h-8.7
			c1.2-4.2,2-8.9,2.2-13.9h11C438,966.5,436.4,971.3,434,975.4z M370.6,961.5h11c0.2,5,1,9.7,2.2,13.9h-8.7
			C372.7,971.3,371.1,966.5,370.6,961.5z M374.4,942.3h9.3c-1.2,4.3-2,8.9-2.1,13.9h-11C370.8,951.2,372.2,946.5,374.4,942.3z
			 M407.2,937v-10.6c4.1,1.2,7.8,5,10.5,10.6H407.2z M419.8,942.3c1.4,4.2,2.2,8.9,2.4,13.9h-15.1v-13.9H419.8z M401.9,926.4V937
			h-10.5C394.1,931.5,397.8,927.6,401.9,926.4z M401.9,942.3v13.9h-15.1c0.2-5,1.1-9.8,2.4-13.9H401.9z M386.8,961.5h15.1v13.9
			h-12.5C388,971.3,387.1,966.5,386.8,961.5z M401.9,980.7v10.2c-4-1.2-7.6-4.9-10.3-10.2H401.9z M407.2,990.9v-10.2h10.3
			C414.8,986,411.2,989.8,407.2,990.9z M407.2,975.4v-13.9h15.1c-0.2,5-1.2,9.8-2.5,13.9H407.2z M427.5,956.2
			c-0.2-5-0.9-9.7-2.1-13.9h9c0.1,0,0.2,0,0.2,0c2.2,4.2,3.6,8.9,3.9,14C438.5,956.2,427.5,956.2,427.5,956.2z M431.2,937h-7.6
			c-1.8-4.2-4-7.8-6.7-10.5C422.5,928.7,427.4,932.3,431.2,937z M396.2,914.5H413v5.3c-2.7-0.6-5.5-0.9-8.4-0.9
			c-2.9,0-5.6,0.3-8.3,0.9V914.5z M392.2,926.5c-2.6,2.7-4.9,6.3-6.7,10.5h-7.6C381.6,932.3,386.6,928.7,392.2,926.5z M378.9,980.7
			h6.8c1.5,3.4,3.3,6.4,5.3,8.8C386.3,987.5,382.2,984.5,378.9,980.7z M418.1,989.6c2.1-2.4,3.9-5.4,5.3-8.8h6.8
			C426.8,984.5,422.7,987.5,418.1,989.6z"/>
		<path d="M361.6,938.8l-10.1-4.4c-1.3-0.6-2.9,0-3.5,1.4c-0.6,1.3,0,2.9,1.4,3.5l10.1,4.4c0.3,0.1,0.7,0.2,1,0.2c1,0,2-0.6,2.4-1.6
			C363.6,941,363,939.4,361.6,938.8z"/>
		<path d="M358.2,976.3l-10.1,4.4c-1.3,0.6-2,2.1-1.4,3.5c0.4,1,1.4,1.6,2.4,1.6c0.3,0,0.7-0.1,1-0.2l10.1-4.4
			c1.3-0.6,2-2.1,1.4-3.5C361.1,976.4,359.5,975.7,358.2,976.3z"/>
		<path d="M348.2,962.7l11,0c1.5,0,2.6-1.2,2.6-2.6c0-1.5-1.2-2.6-2.6-2.6c0,0,0,0,0,0l-11,0c-1.5,0-2.6,1.2-2.6,2.6
			S346.8,962.7,348.2,962.7C348.2,962.7,348.2,962.7,348.2,962.7z"/>
		<path d="M449.5,943.9c0.3,0,0.7-0.1,1-0.2l10.1-4.4c1.3-0.6,2-2.1,1.4-3.5c-0.6-1.3-2.1-2-3.5-1.4l-10.1,4.4
			c-1.3,0.6-2,2.1-1.4,3.5C447.5,943.3,448.5,943.9,449.5,943.9z"/>
		<path d="M458.6,980.7l-10.1-4.4c-1.3-0.6-2.9,0-3.5,1.4c-0.6,1.3,0,2.9,1.4,3.5l10.1,4.4c0.3,0.1,0.7,0.2,1,0.2c1,0,2-0.6,2.4-1.6
			C460.5,982.8,459.9,981.2,458.6,980.7z"/>
		<path d="M461.9,957.4l-11,0c0,0,0,0,0,0c-1.5,0-2.6,1.2-2.6,2.6c0,1.5,1.2,2.6,2.6,2.6l11,0c0,0,0,0,0,0c1.5,0,2.6-1.2,2.6-2.6
			C464.6,958.6,463.4,957.4,461.9,957.4z"/>
	</g>
	<g>
		<g>
			<g>
				<path d="M753.4,921.1c-4.3,0-8,3.6-8,8v24.1l-3.4,3.6c-0.5-1.2-1.2-2.4-2.2-3.4h-0.2c-3.4-3.1-8.7-2.7-11.6,0.7l-13.7,17.4
					c-1.2,1.7-1.7,3.6-1.7,5.5v15.2h-2.4c-1.4,0-2.9,1.2-2.9,2.9v16.2c0,1.4,1.2,2.9,2.9,2.9h36.7c1.4,0,2.9-1.2,2.9-2.9v-16.2
					c0-1.4-1.2-2.9-2.9-2.9h-3.4v-3.9c0-1.2,0.2-2.4,1-3.4l15.7-21.5c0.7-1,1-2.4,1-3.6V929C761.4,924.7,757.7,921.1,753.4,921.1z
					 M745,1009.1h-32.6v-12.1H745V1009.1z M756.5,959.9c0,0.2,0,0.7-0.2,1l-15.7,21.5c-1.2,1.9-1.7,3.9-1.7,6v3.9h-21.2v-15
					c0-1,0.2-1.9,0.7-2.7l13.5-17.1c1-1.4,3.1-1.4,4.3-0.2l0.2,0.2c1.7,1.4,1.7,4.1,0.2,5.8l-2.4,2.9c-1,1-0.7,2.4,0.2,3.4
					c1,1,2.4,0.7,3.4-0.2l11.3-13c0.5-0.5,0.7-1.2,0.7-1.7V929c0-1.7,1.4-3.1,3.1-3.1c1.7,0,3.1,1.4,3.1,3.1v30.9H756.5z"/>
			</g>
		</g>
		<g>
			<g>
				<path d="M653.1,992.2h-2.4v-15c0-1.9-0.7-3.9-1.9-5.8l-13.5-17.1c-2.9-3.6-8.2-3.9-11.6-0.7l0,0c-1,1-1.7,2.2-2.2,3.4l-3.1-3.6
					v-24.1c0-4.3-3.6-8-8-8c-4.6-0.2-8.2,3.4-8.2,8v30.9c0,1.2,0.5,2.4,1.2,3.6l15.4,21.2c0.7,1,1,2.2,1,3.6v3.6h-3.4
					c-1.4,0-2.9,1.2-2.9,2.9v16.2c0,1.4,1.2,2.9,2.9,2.9h36.7c1.4,0,2.9-1.2,2.9-2.9v-16.2C655.9,993.4,654.7,992.2,653.1,992.2z
					 M622.7,982.1l-15.4-21.2c-0.2-0.2-0.2-0.5-0.2-1v-30.6c0-1.7,1.4-3.1,3.1-3.1s3.1,1.4,3.1,3.1v24.8c0,0.5,0.2,1.4,0.7,1.7
					l11.3,13c1,1,2.4,1.2,3.4,0.2c1-1,1.2-2.4,0.2-3.4l-2.4-2.9c-1.4-1.7-1.2-4.3,0.2-5.8l0.2-0.2c1.2-1.2,3.4-1,4.3,0.2l13.5,17.1
					c0.5,0.7,1,1.9,1,2.9v15.2h-21.2v-3.9C624.6,986.2,623.9,984,622.7,982.1z M651.1,1009.1h-32.6v-12.1h32.6V1009.1z"/>
			</g>
		</g>
		<g>
			<g>
				<path d="M707.8,977.8c0.7-0.7,1.2-1.7,1.2-2.7v-16.9c0-2.2-1.7-3.9-3.9-3.9h-4.6c1-9.6,5.1-18.8,11.8-26
					c7.7-8.2,11.8-19.1,11.8-30.4c0-24.6-20.5-44.6-45.1-43.2c-21,1.2-38.1,18.3-39.8,39.6c-1.2,12.8,3.4,25.6,12.1,34.7
					c7,7.2,11.1,16.4,12.1,25.8h-4.6c-2.2,0-3.9,1.7-3.9,3.9v16.9c0,2.2,1.7,3.9,3.9,3.9l0,0h10.9l0,0v6h-5.1
					c-1.4,0-2.4,1.2-2.4,2.4c0,1.4,1.2,2.4,2.4,2.4l0,0h5.1c0.7,4.8,4.6,8.4,9.4,8.4l0,0h5.5c4.8,0,8.7-3.6,9.4-8.4h5.1
					c1.4,0,2.4-1.2,2.4-2.4c0-1.4-1-2.4-2.4-2.4h-5.1v-6l0,0h10.9C706.1,979,707.1,978.5,707.8,977.8z M684.9,993.7h-5.5
					c-2.7,0-4.6-2.2-4.6-4.8v-9.6h15v9.6C689.7,991.5,687.5,993.7,684.9,993.7z M655,925.7c-8-8.2-11.8-19.3-10.9-30.9
					c1.7-18.8,16.9-34,35.5-35c0.7,0,1.4,0,2.2,0c20.7,0,37.6,17.4,37.9,38.6c0,10.1-3.6,19.8-10.6,27c-7.7,8.2-12.3,18.6-13.3,29.4
					h-11.1v-26h1c1.2,0,2.2-1,2.4-2.2l0.7-5.3c2.2-0.5,4.3-1.4,6.3-2.7l4.1,3.1c1,0.7,2.4,0.5,3.4-0.2l4.6-4.6c1-1,1-2.2,0.2-3.1
					l-3.4-4.3c1.2-1.9,1.9-4.1,2.7-6.3l5.3-0.7c1.2-0.2,2.2-1.2,2.2-2.4v-6.5c0-1.2-1-2.2-2.2-2.4l-5.3-0.7
					c-0.5-2.2-1.4-4.3-2.7-6.3l3.1-4.1c0.7-1,0.7-2.4-0.2-3.4l-4.6-4.6c-1-1-2.2-1-3.1-0.2l-4.3,3.4c-1.9-1.2-4.1-1.9-6.3-2.7
					l-0.7-5.3c-0.2-1.2-1.2-2.2-2.4-2.2h-6.5c-1.2,0-2.2,1-2.4,2.2l-0.7,5.3c-2.2,0.7-4.1,1.4-6,2.7l-4.3-3.4
					c-1-0.7-2.4-0.7-3.1,0.2l-4.6,4.8c-1,1-1,2.2-0.2,3.1l3.4,4.3c-1.2,1.9-1.9,4.1-2.7,6.3l-5.3,0.5c-1.2,0.2-2.2,1.2-2.2,2.4v6.5
					c0,1.2,1,2.2,2.2,2.4l5.3,0.7c0.5,2.2,1.4,4.3,2.7,6.3l-3.4,4.3c-0.7,1-0.7,2.4,0.2,3.1l4.6,4.6c1,1,2.2,1,3.1,0.2l4.3-3.4
					c1.9,1.2,4.1,1.9,6.3,2.7l0.7,5.3c0.2,1.2,1.2,2.2,2.4,2.2h1v26h-11.3C667.5,944,662.7,933.6,655,925.7z M665.4,908.3
					c-1.4-2.2-2.7-4.8-3.1-7.5c-0.2-1-1-1.7-1.9-1.9l-4.8-0.7v-2.4l4.8-0.7c1-0.2,1.9-1,1.9-1.9c0.5-2.7,1.7-5.3,3.1-7.7
					c0.5-1,0.5-1.9,0-2.9l-2.9-3.6l1.7-1.7l3.9,2.9c0.7,0.7,2.2,0.7,2.9,0c2.2-1.4,4.8-2.7,7.5-3.1c1-0.2,1.7-1,1.9-2.2l0.7-4.8h2.4
					l0.7,4.8c0.2,1,1,1.9,1.9,2.2c2.7,0.5,5.3,1.7,7.5,3.1c1,0.5,1.9,0.5,2.9,0l3.9-2.9l1.7,1.7l-2.9,3.9c-0.7,0.7-0.7,1.9,0,2.9
					c1.4,2.4,2.7,4.8,3.1,7.7c0.2,1,1,1.7,1.9,1.9l4.8,0.7v2.4l-4.8,0.7c-1,0.2-1.9,1-1.9,1.9c-0.5,2.7-1.7,5.3-3.1,7.7
					c-0.5,1-0.5,1.9,0,2.9l2.9,3.9l-1.7,1.7l-4.1-3.4c-0.7-0.7-1.9-0.7-2.9,0c-2.2,1.4-4.8,2.7-7.5,3.1c-1,0.2-1.7,1-1.9,2.2
					l-0.7,4.8h-2.4l-0.7-4.8c-0.2-1-1-1.9-1.9-2.2c-2.7-0.5-5.3-1.7-7.5-3.1c-1-0.5-1.9-0.5-2.9,0l-3.9,2.9l-1.4-1.7l2.9-3.9
					C666.1,910.5,666.1,909.3,665.4,908.3z M660.1,974.4v-14.7c12.8,0,30.4-0.2,44.1-0.2v14.7C678.6,974.4,685.6,974.4,660.1,974.4z
					"/>
			</g>
		</g>
		<g>
			<g>
				<path d="M682.2,911.2c7.7,0,14-6.3,14-14s-6.3-14-14-14s-14,6.3-14,14S674.5,911.2,682.2,911.2z M682.2,887.8
					c5.1,0,9.2,4.1,9.2,9.2c0,5.1-4.1,9.2-9.2,9.2s-9.2-4.1-9.2-9.2C673.1,891.9,677.2,887.8,682.2,887.8z"/>
			</g>
		</g>
	</g>
	<g>
		<g>
			<g>
				<path d="M1855.4,921.1c-4.3,0-8,3.6-8,8v24.1l-3.4,3.6c-0.5-1.2-1.2-2.4-2.2-3.4h-0.2c-3.4-3.1-8.7-2.7-11.6,0.7l-13.7,17.4
					c-1.2,1.7-1.7,3.6-1.7,5.5v15.2h-2.4c-1.4,0-2.9,1.2-2.9,2.9v16.2c0,1.4,1.2,2.9,2.9,2.9h36.7c1.4,0,2.9-1.2,2.9-2.9v-16.2
					c0-1.4-1.2-2.9-2.9-2.9h-3.4v-3.9c0-1.2,0.2-2.4,1-3.4l15.7-21.5c0.7-1,1-2.4,1-3.6V929C1863.4,924.7,1859.8,921.1,1855.4,921.1
					z M1847,1009.1h-32.6v-12.1h32.6V1009.1z M1858.6,959.9c0,0.2,0,0.7-0.2,1l-15.7,21.5c-1.2,1.9-1.7,3.9-1.7,6v3.9h-21.2v-15
					c0-1,0.2-1.9,0.7-2.7l13.5-17.1c1-1.4,3.1-1.4,4.3-0.2l0.2,0.2c1.7,1.4,1.7,4.1,0.2,5.8l-2.4,2.9c-1,1-0.7,2.4,0.2,3.4
					c1,1,2.4,0.7,3.4-0.2l11.3-13c0.5-0.5,0.7-1.2,0.7-1.7V929c0-1.7,1.4-3.1,3.1-3.1c1.7,0,3.1,1.4,3.1,3.1v30.9H1858.6z"/>
			</g>
		</g>
		<g>
			<g>
				<path d="M1755.1,992.2h-2.4v-15c0-1.9-0.7-3.9-1.9-5.8l-13.5-17.1c-2.9-3.6-8.2-3.9-11.6-0.7l0,0c-1,1-1.7,2.2-2.2,3.4l-3.1-3.6
					v-24.1c0-4.3-3.6-8-8-8c-4.6-0.2-8.2,3.4-8.2,8v30.9c0,1.2,0.5,2.4,1.2,3.6l15.4,21.2c0.7,1,1,2.2,1,3.6v3.6h-3.4
					c-1.4,0-2.9,1.2-2.9,2.9v16.2c0,1.4,1.2,2.9,2.9,2.9h36.7c1.4,0,2.9-1.2,2.9-2.9v-16.2C1758,993.4,1756.8,992.2,1755.1,992.2z
					 M1724.7,982.1l-15.4-21.2c-0.2-0.2-0.2-0.5-0.2-1v-30.6c0-1.7,1.4-3.1,3.1-3.1c1.7,0,3.1,1.4,3.1,3.1v24.8
					c0,0.5,0.2,1.4,0.7,1.7l11.3,13c1,1,2.4,1.2,3.4,0.2c1-1,1.2-2.4,0.2-3.4l-2.4-2.9c-1.4-1.7-1.2-4.3,0.2-5.8l0.2-0.2
					c1.2-1.2,3.4-1,4.3,0.2l13.5,17.1c0.5,0.7,1,1.9,1,2.9v15.2h-21.2v-3.9C1726.6,986.2,1725.9,984,1724.7,982.1z M1753.2,1009.1
					h-32.6v-12.1h32.6V1009.1z"/>
			</g>
		</g>
		<g>
			<g>
				<path d="M1809.9,977.8c0.7-0.7,1.2-1.7,1.2-2.7v-16.9c0-2.2-1.7-3.9-3.9-3.9h-4.6c1-9.6,5.1-18.8,11.8-26
					c7.7-8.2,11.8-19.1,11.8-30.4c0-24.6-20.5-44.6-45.1-43.2c-21,1.2-38.1,18.3-39.8,39.6c-1.2,12.8,3.4,25.6,12.1,34.7
					c7,7.2,11.1,16.4,12.1,25.8h-4.6c-2.2,0-3.9,1.7-3.9,3.9v16.9c0,2.2,1.7,3.9,3.9,3.9l0,0h10.9l0,0v6h-5.1
					c-1.4,0-2.4,1.2-2.4,2.4c0,1.4,1.2,2.4,2.4,2.4l0,0h5.1c0.7,4.8,4.6,8.4,9.4,8.4l0,0h5.5c4.8,0,8.7-3.6,9.4-8.4h5.1
					c1.4,0,2.4-1.2,2.4-2.4c0-1.4-1-2.4-2.4-2.4h-5.1v-6l0,0h10.9C1808.2,979,1809.1,978.5,1809.9,977.8z M1786.9,993.7h-5.5
					c-2.7,0-4.6-2.2-4.6-4.8v-9.6h15v9.6C1791.8,991.5,1789.6,993.7,1786.9,993.7z M1757,925.7c-8-8.2-11.8-19.3-10.9-30.9
					c1.7-18.8,16.9-34,35.5-35c0.7,0,1.4,0,2.2,0c20.7,0,37.6,17.4,37.9,38.6c0,10.1-3.6,19.8-10.6,27c-7.7,8.2-12.3,18.6-13.3,29.4
					h-11.1v-26h1c1.2,0,2.2-1,2.4-2.2l0.7-5.3c2.2-0.5,4.3-1.4,6.3-2.7l4.1,3.1c1,0.7,2.4,0.5,3.4-0.2l4.6-4.6c1-1,1-2.2,0.2-3.1
					l-3.4-4.3c1.2-1.9,1.9-4.1,2.7-6.3l5.3-0.7c1.2-0.2,2.2-1.2,2.2-2.4v-6.5c0-1.2-1-2.2-2.2-2.4l-5.3-0.7
					c-0.5-2.2-1.4-4.3-2.7-6.3l3.1-4.1c0.7-1,0.7-2.4-0.2-3.4l-4.6-4.6c-1-1-2.2-1-3.1-0.2l-4.3,3.4c-1.9-1.2-4.1-1.9-6.3-2.7
					l-0.7-5.3c-0.2-1.2-1.2-2.2-2.4-2.2h-6.5c-1.2,0-2.2,1-2.4,2.2l-0.7,5.3c-2.2,0.7-4.1,1.4-6,2.7l-4.3-3.4
					c-1-0.7-2.4-0.7-3.1,0.2l-4.6,4.8c-1,1-1,2.2-0.2,3.1l3.4,4.3c-1.2,1.9-1.9,4.1-2.7,6.3l-5.3,0.5c-1.2,0.2-2.2,1.2-2.2,2.4v6.5
					c0,1.2,1,2.2,2.2,2.4l5.3,0.7c0.5,2.2,1.4,4.3,2.7,6.3l-3.4,4.3c-0.7,1-0.7,2.4,0.2,3.1l4.6,4.6c1,1,2.2,1,3.1,0.2l4.3-3.4
					c1.9,1.2,4.1,1.9,6.3,2.7l0.7,5.3c0.2,1.2,1.2,2.2,2.4,2.2h1v26h-11.3C1769.6,944,1764.8,933.6,1757,925.7z M1767.4,908.3
					c-1.4-2.2-2.7-4.8-3.1-7.5c-0.2-1-1-1.7-1.9-1.9l-4.8-0.7v-2.4l4.8-0.7c1-0.2,1.9-1,1.9-1.9c0.5-2.7,1.7-5.3,3.1-7.7
					c0.5-1,0.5-1.9,0-2.9l-2.9-3.6l1.7-1.7l3.9,2.9c0.7,0.7,2.2,0.7,2.9,0c2.2-1.4,4.8-2.7,7.5-3.1c1-0.2,1.7-1,1.9-2.2l0.7-4.8h2.4
					l0.7,4.8c0.2,1,1,1.9,1.9,2.2c2.7,0.5,5.3,1.7,7.5,3.1c1,0.5,1.9,0.5,2.9,0l3.9-2.9l1.7,1.7l-2.9,3.9c-0.7,0.7-0.7,1.9,0,2.9
					c1.4,2.4,2.7,4.8,3.1,7.7c0.2,1,1,1.7,1.9,1.9l4.8,0.7v2.4l-4.8,0.7c-1,0.2-1.9,1-1.9,1.9c-0.5,2.7-1.7,5.3-3.1,7.7
					c-0.5,1-0.5,1.9,0,2.9l2.9,3.9l-1.7,1.7l-4.1-3.4c-0.7-0.7-1.9-0.7-2.9,0c-2.2,1.4-4.8,2.7-7.5,3.1c-1,0.2-1.7,1-1.9,2.2
					l-0.7,4.8h-2.4l-0.7-4.8c-0.2-1-1-1.9-1.9-2.2c-2.7-0.5-5.3-1.7-7.5-3.1c-1-0.5-1.9-0.5-2.9,0l-3.9,2.9l-1.4-1.7l2.9-3.9
					C1768.1,910.5,1768.1,909.3,1767.4,908.3z M1762.1,974.4v-14.7c12.8,0,30.4-0.2,44.1-0.2v14.7
					C1780.7,974.4,1787.7,974.4,1762.1,974.4z"/>
			</g>
		</g>
		<g>
			<g>
				<path d="M1784.3,911.2c7.7,0,14-6.3,14-14s-6.3-14-14-14c-7.7,0-14,6.3-14,14S1776.6,911.2,1784.3,911.2z M1784.3,887.8
					c5.1,0,9.2,4.1,9.2,9.2c0,5.1-4.1,9.2-9.2,9.2c-5.1,0-9.2-4.1-9.2-9.2C1775.1,891.9,1779.2,887.8,1784.3,887.8z"/>
			</g>
		</g>
	</g>
	<g>
		<g>
			<path d="M1320.7,861.9h-80.1c-3.7,0-6.7,3-6.7,6.7v44.8c0,3.7,3,6.7,6.7,6.7h19.7l-14.9,30.5h-2.1c-1.4,0-2.3,0.9-2.3,2.3
				c0,1.4,0.9,2.3,2.3,2.3h7.8c1.4,0,2.3-0.9,2.3-2.3c0-1.4-0.9-2.3-2.3-2.3h-0.7l14.9-30.3h12.6v24.1h-1.6c-1.4,0-2.3,0.9-2.3,2.3
				c0,1.4,0.9,2.3,2.3,2.3h7.8c1.4,0,2.3-0.9,2.3-2.3c0-1.4-0.9-2.3-2.3-2.3h-1.6v-24.1h13.1l14.9,30.5h-0.7c-1.4,0-2.3,0.9-2.3,2.3
				c0,1.4,0.9,2.3,2.3,2.3h4.4l0,0l0,0h3.2c1.4,0,2.3-0.9,2.3-2.3c0-1.4-0.9-2.3-2.3-2.3h-1.6l-14.9-30.5h19.7c3.7,0,6.7-3,6.7-6.7
				v-45C1327.4,864.9,1324.4,861.9,1320.7,861.9z M1322.8,913.6c0,1.1-0.9,2.1-2.1,2.1c-48.7,0-33.3,0-79.9,0
				c-1.1,0-2.1-0.9-2.1-2.1v-45c0-1.1,0.9-2.1,2.1-2.1h79.9c1.1,0,2.1,0.9,2.1,2.1V913.6z"/>
		</g>
		<g>
			<path d="M1228.9,976.2c1.4,0,2.3-0.9,2.3-2.3v-42.2c0-9.4-6.9-17.2-15.1-17.2h-25c-8.3,0-15.1,7.6-15.1,17.2v42.5
				c0,1.4,0.9,2.3,2.3,2.3h8.5v29.6c0,3.9,3.2,7.1,7.1,7.1h19.5c3.9,0,7.1-3.2,7.1-7.1v-29.8H1228.9z M1215.8,1006.1
				c0,1.4-1.1,2.5-2.5,2.5h-7.6v-33.3c0-1.4-0.9-2.3-2.3-2.3s-2.3,0.9-2.3,2.3v33.3h-7.3c-1.4,0-2.5-1.1-2.5-2.5v-55.5
				c0-1.4-0.9-2.3-2.3-2.3c-1.4,0-2.3,0.9-2.3,2.3v21.3h-6.2v-40.2c0-6.9,4.8-12.6,10.6-12.6h24.8c6,0,10.6,5.7,10.6,12.6v40.2h-6.2
				v-21.3c0-1.4-0.9-2.3-2.3-2.3c-1.4,0-2.3,0.9-2.3,2.3v55.5H1215.8z"/>
		</g>
		<g>
			<path d="M1203.4,912.2c9.4,0,17-7.6,17-17c0-9.4-7.6-17-17-17s-17,7.6-17,17C1186.7,904.6,1194.2,912.2,1203.4,912.2z
				 M1203.4,882.8c6.9,0,12.4,5.5,12.4,12.4c0,6.9-5.5,12.4-12.4,12.4c-6.9,0-12.4-5.5-12.4-12.4
				C1191.2,888.6,1196.8,882.8,1203.4,882.8z"/>
		</g>
		<g>
			<path d="M1259,987.7L1259,987.7c3.7-2.5,6.4-6.9,6.4-11.9c0-7.6-6.2-14-14.2-14c-7.8,0-14.2,6.4-14.2,14c0,4.8,2.5,9.4,6.7,11.9
				h-0.7c-9,0-16.1,7.3-16.1,16.1v6.9c0,1.4,0.9,2.3,2.3,2.3h43.6c1.4,0,2.3-0.9,2.3-2.3v-6.9C1275,995.1,1267.7,987.7,1259,987.7z
				 M1251.2,966.4c5.3,0,9.4,4.4,9.4,9.4c0,5.3-4.4,9.4-9.6,9.4c-1.6,0-3.2-0.5-4.6-1.1c-3-1.6-4.8-4.8-4.8-8.3
				C1241.5,970.7,1245.9,966.4,1251.2,966.4z M1270.4,1008.6h-39v-4.6c0-6.4,5.3-11.5,11.5-11.5h15.8c6.4,0,11.5,5.3,11.5,11.5v4.6
				H1270.4z"/>
		</g>
		<g>
			<path d="M1311.3,987.9L1311.3,987.9c3.7-2.5,6.4-6.9,6.4-11.9c0-7.6-6.2-14-14.2-14c-7.8,0-14.2,6.4-14.2,14
				c0,4.8,2.5,9.4,6.7,11.9h-0.7c-9,0-16.1,7.3-16.1,16.1v6.9c0,1.4,0.9,2.3,2.3,2.3h43.6c1.4,0,2.3-0.9,2.3-2.3v-6.9
				C1327.4,995.3,1320.3,987.9,1311.3,987.9z M1303.5,966.6c5.3,0,9.4,4.4,9.4,9.4c0,5.3-4.4,9.4-9.6,9.4c-1.6,0-3.2-0.5-4.6-1.1
				c-3-1.6-4.8-4.8-4.8-8.3C1293.9,971,1298.2,966.6,1303.5,966.6z M1322.8,1008.8h-39v-4.6c0-6.4,5.3-11.5,11.5-11.5h16.1
				c6.4,0,11.5,5.3,11.5,11.5V1008.8z"/>
		</g>
		<g>
			<path d="M1317,881.7c0-0.7-0.2-1.1-0.7-1.6l-9.2-9.2c-0.9-0.9-2.3-0.9-3.2,0c-0.9,0.9-0.9,2.3,0,3.2l5.3,5.3h-20
				c-1.4,0-2.3,0.9-2.3,2.3v11.2h-23c-1.4,0-2.3,0.9-2.3,2.3v11.2h-17c-1.4,0-2.3,0.9-2.3,2.3c0,1.4,0.9,2.3,2.3,2.3h19.3
				c1.4,0,2.3-0.9,2.3-2.3v-11.2h23c1.4,0,2.3-0.9,2.3-2.3V884h17.7l-5.3,5.3c-0.9,0.9-0.9,2.3,0,3.2c0.9,0.9,2.3,0.9,3.2,0l9.2-9.2
				l0,0C1316.8,882.8,1317,882.1,1317,881.7z"/>
		</g>
	</g>
</g>
</svg>
