<svg version="1.1" id="Layer_1" xmlns="http://www.w3.org/2000/svg" xmlns:xlink="http://www.w3.org/1999/xlink" x="0px" y="0px"
   viewBox="0 0 360 210" style="enable-background:new 0 0 360 210;" xml:space="preserve">
<style type="text/css">
  .laptop-light{fill:#EDEDED;}
  .laptop-shadow{fill:#DBDBDB;}
  .laptop-dark{fill:#686868;}
  .laptop-really-dark{fill:#515151;}
</style>
<g>
  <path class="laptop-light" d="M359.8,199.2v6.8H0.2v-6.8h146.7v0.3c0,2.5,2,4.5,4.5,4.5h57.3c2.5,0,4.5-2,4.5-4.5v-0.3H359.8z"/>
  <path class="laptop-shadow" d="M359.8,205.9H0.2l10.4,3.1c2.1,0.6,4.2,0.9,6.3,0.9h327.1c2.4,0,4.7-0.4,7-1.1L359.8,205.9z"/>
  <path class="laptop-light" d="M317.3,1.4H42.7c-6.2,0-11.2,5-11.2,11.2v186.6H34V12.6c0-4.8,3.9-8.7,8.7-8.7h274.5c4.8,0,8.7,3.9,8.7,8.7
    v186.6h2.4V12.6C328.4,6.4,323.4,1.4,317.3,1.4z"/>
  <path class="laptop-dark" d="M317.3,3.8H42.7c-4.8,0-8.7,3.9-8.7,8.7v186.6h292V12.6C326,7.7,322.1,3.8,317.3,3.8z M313.8,190.2
    c0,1.2-1,2.2-2.2,2.2H48.4c-1.2,0-2.2-1-2.2-2.2V18.2c0-1.2,1-2.2,2.2-2.2h263.2c1.2,0,2.2,1,2.2,2.2V190.2z"/>
  <path class="laptop-shadow" d="M213.1,199.2v0.3c0,2.5-2,4.5-4.5,4.5h-57.3c-2.5,0-4.5-2-4.5-4.5v-0.3H213.1z"/>
  <rect x="46" y="196.5" class="laptop-really-dark" width="267.7" height="2.7"/>
</g>
</svg>
